<svg width="76" height="84" viewBox="0 0 76 84" fill="none" xmlns="http://www.w3.org/2000/svg">
<path d="M4.08398 14.2959L27.2588 40.5225V40.5234C27.4475 40.7362 27.5523 41.0122 27.5527 41.2988V69.0615L27.6299 69.1045L48.2246 80.5938L48.4482 80.7178V41.2988C48.4481 41.0124 48.5515 40.7358 48.7393 40.5225L71.917 14.2959L72.1377 14.0469H3.86328L4.08398 14.2959ZM63.8711 16.0352C64.0212 16.0266 64.1715 16.0484 64.3135 16.0986C64.4556 16.149 64.5868 16.2274 64.6992 16.3291C64.8116 16.4307 64.9032 16.5537 64.9688 16.6914C65.0343 16.8292 65.0725 16.979 65.0811 17.1318C65.0896 17.2846 65.0684 17.4376 65.0186 17.582C64.978 17.6995 64.9183 17.809 64.8438 17.9072L64.7871 17.9717L52.168 32.252L52.1641 32.2559C52.0655 32.3759 51.9444 32.4746 51.8076 32.5459C51.6708 32.6172 51.5215 32.6604 51.3682 32.6719C51.2149 32.6833 51.0606 32.6635 50.915 32.6133C50.7694 32.5631 50.6353 32.483 50.5205 32.3789C50.4057 32.2749 50.3127 32.1483 50.2471 32.0068C50.1815 31.8654 50.1444 31.712 50.1387 31.5557C50.133 31.3994 50.1588 31.2437 50.2139 31.0977C50.2689 30.9517 50.3512 30.8174 50.458 30.7051L50.459 30.7061L50.4629 30.7012L63.0801 16.4219V16.4209C63.1806 16.307 63.3028 16.2146 63.4385 16.1484C63.574 16.0823 63.721 16.0437 63.8711 16.0352ZM2.44238 11.7168H73.5596V2.47559H2.44238V11.7168ZM25.2598 41.7432L25.2217 41.7012L0.444336 13.6562C0.255617 13.4432 0.150884 13.1667 0.150391 12.8799V1.3125C0.150607 1.00354 0.272057 0.70708 0.487305 0.489258C0.702444 0.271798 0.993712 0.150391 1.29688 0.150391H74.7012C75.0048 0.150172 75.2972 0.27148 75.5127 0.489258C75.7282 0.70709 75.8492 1.00334 75.8496 1.3125V12.8789C75.8479 13.1661 75.7418 13.4421 75.5518 13.6543L75.5508 13.6553L50.7773 41.7002L50.7393 41.7422V82.6875C50.7394 82.8405 50.7101 82.9925 50.6523 83.1338C50.5946 83.2749 50.5098 83.4029 50.4033 83.5107C50.2967 83.6186 50.1703 83.7045 50.0312 83.7627C49.8923 83.8208 49.743 83.8498 49.5928 83.8496C49.4 83.8496 49.2099 83.8007 49.041 83.7061L25.8545 70.7715H25.8535C25.6737 70.672 25.5236 70.5247 25.4189 70.3457C25.3143 70.1667 25.2594 69.9622 25.2598 69.7539V41.7432Z" fill="black" stroke="white" stroke-width="0.3"/>
</svg>
