<svg width="84" height="85" viewBox="0 0 84 85" fill="none" xmlns="http://www.w3.org/2000/svg">
<path d="M49.7308 72.1878H25.082C23.7706 72.0952 22.5247 71.5793 21.5317 70.7178L4.09502 53.2877C3.23218 52.2929 2.71624 51.0445 2.62501 49.7308V25.082C2.71624 23.7683 3.23218 22.5199 4.09502 21.5251L21.5251 4.09502C22.5199 3.23218 23.7683 2.71624 25.082 2.62501H49.7308C51.0445 2.71624 52.2929 3.23218 53.2877 4.09502L70.7178 21.5251C71.5806 22.5199 72.0966 23.7683 72.1878 25.082V49.7308C72.0952 51.0422 71.5793 52.2881 70.7178 53.2812L69.4447 54.5543L71.1903 56.523L72.575 55.1252C73.9323 53.6464 74.7247 51.7362 74.8128 49.7308V25.082C74.7247 23.0766 73.9323 21.1664 72.575 19.6876L55.1252 2.23782C53.6464 0.880482 51.7362 0.0880827 49.7308 0L25.082 0C23.0766 0.0880827 21.1664 0.880482 19.6876 2.23782L2.23782 19.6876C0.880482 21.1664 0.0880827 23.0766 0 25.082L0 49.7308C0.0880827 51.7362 0.880482 53.6464 2.23782 55.1252L19.6876 72.575C21.1664 73.9323 23.0766 74.7247 25.082 74.8128H49.7308C51.5346 74.7312 53.2673 74.0863 54.6855 72.9687L52.9202 71C51.9882 71.6847 50.8837 72.096 49.7308 72.1878Z" fill="black"/>
<path d="M66.2795 54.9092C66.1611 54.776 66.0169 54.6684 65.8555 54.5928C65.6942 54.5172 65.5191 54.4752 65.3411 54.4695C65.1682 54.4597 64.9952 54.4843 64.8318 54.5417C64.6685 54.5992 64.5182 54.6884 64.3895 54.8042L62.237 56.7729L59.5135 53.8854C63.6473 48.3644 65.5642 41.4958 64.8871 34.6321C64.2099 27.7684 60.9876 21.4069 55.8546 16.8002C50.7217 12.1934 44.0501 9.67526 37.1533 9.74151C30.2566 9.80775 23.6346 12.4536 18.5911 17.1581C13.5476 21.8626 10.4481 28.2848 9.90283 35.1603C9.35762 42.0357 11.4062 48.8662 15.6452 54.3068C19.8842 59.7473 26.0065 63.4038 32.8066 64.5562C39.6066 65.7086 46.5918 64.2734 52.3866 60.5332L55.0116 63.2961L52.951 65.1598C52.8228 65.2756 52.7186 65.4155 52.6446 65.5716C52.5705 65.7276 52.528 65.8968 52.5195 66.0693C52.5109 66.2419 52.5365 66.4144 52.5948 66.577C52.6531 66.7397 52.7429 66.8892 52.8591 67.017L67.8348 83.5743C67.9503 83.7035 68.0901 83.8088 68.2463 83.884C68.4024 83.9593 68.5719 84.003 68.745 84.0128C68.918 84.0225 69.0913 83.9981 69.2549 83.9409C69.4186 83.8836 69.5693 83.7948 69.6986 83.6793C69.8278 83.5638 69.9331 83.424 70.0083 83.2678C70.0836 83.1117 70.1273 82.9422 70.1371 82.7691C70.1468 82.5961 70.1224 82.4228 70.0652 82.2592C70.0079 82.0955 69.9191 81.9448 69.8036 81.8155L55.6679 66.223L65.1639 57.6457L81.7014 76.303C81.9321 76.5641 82.2569 76.7228 82.6046 76.7444C82.9523 76.7659 83.2943 76.6485 83.5554 76.4178C83.8164 76.1872 83.9752 75.8623 83.9967 75.5147C84.0183 75.167 83.9008 74.825 83.6702 74.5639L66.2795 54.9092ZM12.4668 37.4069C12.4668 32.4747 13.9293 27.6533 16.6695 23.5523C19.4097 19.4513 23.3044 16.255 27.8612 14.3676C32.4179 12.4801 37.432 11.9862 42.2695 12.9485C47.1069 13.9107 51.5503 16.2858 55.0379 19.7733C58.5255 23.2609 60.9006 27.7044 61.8628 32.5418C62.825 37.3792 62.3312 42.3933 60.4437 46.9501C58.5563 51.5069 55.3599 55.4016 51.259 58.1418C47.158 60.8819 42.3366 62.3445 37.4044 62.3445C30.7905 62.3445 24.4475 59.7171 19.7708 55.0404C15.0941 50.3637 12.4668 44.0208 12.4668 37.4069ZM54.5391 58.991C55.7148 58.0536 56.8121 57.0221 57.8204 55.9067L60.2748 58.5317L56.9213 61.557L54.5391 58.991Z" fill="black"/>
<path d="M36.6122 35.4376C36.7295 35.629 36.894 35.787 37.0899 35.8967C37.2858 36.0064 37.5066 36.064 37.7311 36.064C37.9556 36.064 38.1763 36.0064 38.3722 35.8967C38.5681 35.787 38.7326 35.629 38.85 35.4376L46.0688 23.625C46.1834 23.4265 46.244 23.2015 46.2447 22.9724C46.2453 22.7432 46.1859 22.5178 46.0724 22.3187C45.9589 22.1196 45.7953 21.9537 45.5978 21.8375C45.4003 21.7212 45.1757 21.6588 44.9466 21.6562H30.509C30.2799 21.6588 30.0553 21.7212 29.8578 21.8375C29.6603 21.9537 29.4967 22.1196 29.3832 22.3187C29.2697 22.5178 29.2103 22.7432 29.2109 22.9724C29.2116 23.2015 29.2722 23.4265 29.3868 23.625L36.6122 35.4376ZM42.6103 24.2813L37.7344 32.2613L32.8584 24.2813H42.6103Z" fill="black"/>
<path d="M34.4688 42.6568C34.7171 42.6576 34.9607 42.588 35.171 42.4559C35.3814 42.3239 35.55 42.1348 35.6572 41.9108C35.7644 41.6868 35.8058 41.4369 35.7767 41.1902C35.7475 40.9436 35.649 40.7103 35.4925 40.5174L28.3591 28.8754C28.2417 28.6841 28.0772 28.526 27.8813 28.4163C27.6854 28.3066 27.4647 28.249 27.2401 28.249C27.0156 28.249 26.7949 28.3066 26.599 28.4163C26.4031 28.526 26.2386 28.6841 26.1212 28.8754L18.9025 40.688C18.7878 40.8865 18.7272 41.1115 18.7266 41.3407C18.7259 41.5698 18.7853 41.7952 18.8988 41.9943C19.0123 42.1934 19.1759 42.3593 19.3734 42.4755C19.571 42.5918 19.7955 42.6542 20.0246 42.6568H34.4622H34.4688ZM22.3609 40.0317L27.2369 32.0517L32.1128 40.0317H22.3609Z" fill="black"/>
<path d="M56.1211 41.3442C56.1224 41.0437 56.0205 40.7518 55.8324 40.5174L48.6989 28.8754C48.5815 28.6841 48.417 28.526 48.2212 28.4163C48.0253 28.3066 47.8045 28.249 47.58 28.249C47.3555 28.249 47.1347 28.3066 46.9388 28.4163C46.7429 28.526 46.5784 28.6841 46.4611 28.8754L39.2423 40.688C39.1277 40.8865 39.0671 41.1115 39.0664 41.3407C39.0658 41.5698 39.1251 41.7952 39.2386 41.9943C39.3521 42.1934 39.5158 42.3593 39.7133 42.4755C39.9108 42.5918 40.1353 42.6542 40.3645 42.6568H54.802C54.975 42.6576 55.1463 42.6243 55.3063 42.5587C55.4663 42.4932 55.6118 42.3966 55.7344 42.2747C55.8569 42.1527 55.9542 42.0077 56.0206 41.848C56.0869 41.6884 56.1211 41.5172 56.1211 41.3442ZM42.7007 40.0317L47.5767 32.0517L52.4527 40.0317H42.7007Z" fill="black"/>
<path d="M62.6637 65.4025C62.5482 65.2732 62.4084 65.168 62.2523 65.0927C62.0961 65.0175 61.9266 64.9738 61.7536 64.964C61.5805 64.9543 61.4072 64.9787 61.2436 65.0359C61.08 65.0931 60.9292 65.182 60.8 65.2975C60.6707 65.413 60.5654 65.5528 60.4902 65.709C60.415 65.8651 60.3712 66.0346 60.3615 66.2076C60.3517 66.3807 60.3761 66.554 60.4334 66.7176C60.4906 66.8812 60.5795 67.032 60.695 67.1613L69.0884 76.4932C69.2039 76.6224 69.3437 76.7277 69.4999 76.8029C69.656 76.8782 69.8255 76.9219 69.9986 76.9317C70.1716 76.9414 70.3449 76.917 70.5085 76.8598C70.6722 76.8025 70.8229 76.7137 70.9522 76.5982C71.0815 76.4827 71.1867 76.3429 71.262 76.1867C71.3372 76.0306 71.3809 75.8611 71.3907 75.688C71.4004 75.515 71.376 75.3417 71.3188 75.1781C71.2616 75.0144 71.1727 74.8637 71.0572 74.7344L62.6637 65.4025Z" fill="black"/>
<path d="M73.5 80.7188C74.2249 80.7188 74.8125 80.1311 74.8125 79.4063C74.8125 78.6814 74.2249 78.0938 73.5 78.0938C72.7751 78.0938 72.1875 78.6814 72.1875 79.4063C72.1875 80.1311 72.7751 80.7188 73.5 80.7188Z" fill="black"/>
<path d="M37.4063 44.625C36.4977 44.625 35.6096 44.8944 34.8541 45.3992C34.0987 45.904 33.5099 46.6214 33.1622 47.4608C32.8145 48.3002 32.7235 49.2239 32.9008 50.115C33.078 51.0061 33.5155 51.8246 34.158 52.4671C34.8004 53.1095 35.619 53.547 36.5101 53.7243C37.4012 53.9015 38.3248 53.8105 39.1642 53.4629C40.0036 53.1152 40.7211 52.5264 41.2258 51.7709C41.7306 51.0155 42 50.1273 42 49.2188C42 48.0004 41.5161 46.832 40.6546 45.9705C39.7931 45.109 38.6246 44.625 37.4063 44.625ZM37.4063 51.1875C37.0169 51.1875 36.6362 51.0721 36.3125 50.8557C35.9887 50.6394 35.7364 50.3319 35.5874 49.9722C35.4384 49.6124 35.3994 49.2166 35.4753 48.8347C35.5513 48.4528 35.7388 48.102 36.0142 47.8266C36.2895 47.5513 36.6403 47.3638 37.0222 47.2878C37.4041 47.2119 37.7999 47.2509 38.1597 47.3999C38.5194 47.5489 38.8269 47.8012 39.0432 48.125C39.2596 48.4487 39.375 48.8294 39.375 49.2188C39.375 49.7409 39.1676 50.2417 38.7984 50.6109C38.4292 50.9801 37.9284 51.1875 37.4063 51.1875Z" fill="black"/>
</svg>
