<svg width="56" height="55" viewBox="0 0 56 55" fill="none" xmlns="http://www.w3.org/2000/svg">
<path d="M38.6367 54.2422C39.2554 54.2422 39.7617 53.7421 39.7617 53.131V35.3533C39.7617 34.7422 39.2554 34.2422 38.6367 34.2422H31.8867C31.268 34.2422 30.7617 34.7422 30.7617 35.3533V53.131C30.7617 53.7421 31.268 54.2422 31.8867 54.2422H38.6367Z" fill="#476C43"/>
<path d="M51.6367 54.2422C52.2555 54.2422 52.7617 53.7402 52.7617 53.1267V26.3575C52.7617 25.7441 52.2555 25.2422 51.6367 25.2422H44.8868C44.268 25.2422 43.7617 25.7441 43.7617 26.3575V53.1267C43.7617 53.7402 44.268 54.2422 44.8868 54.2422H51.6367Z" fill="#476C43"/>
<path d="M24.6367 54.2422C25.2554 54.2422 25.7617 53.7471 25.7617 53.1421V33.3422C25.7617 32.7372 25.2554 32.2422 24.6367 32.2422H17.8867C17.2679 32.2422 16.7617 32.7372 16.7617 33.3422V53.1421C16.7617 53.7471 17.2679 54.2422 17.8867 54.2422H24.6367Z" fill="#476C43"/>
<path d="M10.6367 54.2422C11.2554 54.2422 11.7617 53.76 11.7617 53.1707V40.3136C11.7617 39.7243 11.2554 39.2422 10.6367 39.2422H3.88669C3.26794 39.2422 2.76172 39.7243 2.76172 40.3136V53.1707C2.76172 53.76 3.26794 54.2422 3.88669 54.2422H10.6367Z" fill="#476C43"/>
<path d="M51.1383 0.242188C48.5893 0.242188 46.5154 2.29931 46.5154 4.82798C46.5154 5.79367 46.8213 6.68762 47.3371 7.42749C40.8885 14.8339 37.7897 18.4015 36.4174 20.2372C35.7079 19.7972 34.8772 19.5318 33.9806 19.5318C33.1804 19.5318 32.4384 19.7529 31.7812 20.1093L23.4598 13.1338C23.6256 12.6619 23.7341 12.1633 23.7341 11.6361C23.7341 9.10749 21.6598 7.05028 19.1107 7.05028C16.5616 7.05028 14.4878 9.10749 14.4878 11.6361C14.4878 12.4508 14.721 13.2053 15.098 13.8691L7.20997 24.4463C6.64929 24.2061 6.03302 24.0705 5.38461 24.0705C2.83553 24.0705 0.761719 26.1277 0.761719 28.6564C0.761719 31.1851 2.83553 33.2422 5.38461 33.2422C7.93369 33.2422 10.008 31.1851 10.008 28.6564C10.008 27.5927 9.62601 26.6252 9.01106 25.8464L16.703 15.5321C17.4065 15.9615 18.2259 16.2219 19.1107 16.2219C20.2951 16.2219 21.3657 15.765 22.1846 15.0358L30.0898 21.6624C29.6319 22.3738 29.3578 23.2128 29.3578 24.1176C29.3578 26.6463 31.4315 28.7035 33.9806 28.7035C36.5297 28.7035 38.6041 26.6463 38.6041 24.1176C38.6041 23.2947 38.3667 22.5325 37.9824 21.8641C39.5317 19.9335 45.129 13.4425 49.0718 8.90796C49.6965 9.2209 50.392 9.41385 51.1383 9.41385C53.6873 9.41385 55.7617 7.35665 55.7617 4.82798C55.7617 2.29931 53.6873 0.242188 51.1383 0.242188Z" fill="#476C43"/>
</svg>
