<svg width="90" height="90" viewBox="0 0 90 90" fill="none" xmlns="http://www.w3.org/2000/svg">
<path d="M30.947 42.732H40.856C41.1295 42.7317 41.3918 42.6229 41.5851 42.4294C41.7784 42.2359 41.887 41.9735 41.887 41.7V31.792C41.8867 31.5186 41.778 31.2566 41.5847 31.0633C41.3914 30.87 41.1294 30.7613 40.856 30.761H30.947C30.6736 30.7613 30.4116 30.87 30.2183 31.0633C30.025 31.2566 29.9163 31.5186 29.916 31.792V41.7C29.916 41.9735 30.0246 42.2359 30.2179 42.4294C30.4112 42.6229 30.6735 42.7317 30.947 42.732ZM31.977 32.822H39.831V40.671H31.977V32.822ZM20.587 49.122H10.678C10.4047 49.122 10.1426 49.2305 9.94933 49.4236C9.75601 49.6168 9.64727 49.8787 9.647 50.152V60.061C9.64727 60.3344 9.75597 60.5964 9.94927 60.7897C10.1426 60.983 10.4046 61.0917 10.678 61.092H20.587C20.8603 61.0917 21.1222 60.983 21.3154 60.7897C21.5085 60.5964 21.617 60.3343 21.617 60.061V50.149C21.617 49.8758 21.5085 49.6138 21.3153 49.4207C21.1222 49.2275 20.8602 49.119 20.587 49.119V49.122ZM19.556 59.031H11.708V51.18H19.556V59.031ZM20.587 30.764H10.678C10.4046 30.7643 10.1426 30.873 9.94927 31.0663C9.75597 31.2596 9.64727 31.5216 9.647 31.795V41.7C9.64727 41.9734 9.75597 42.2354 9.94927 42.4287C10.1426 42.622 10.4046 42.7307 10.678 42.731H20.587C20.8603 42.7307 21.1222 42.622 21.3154 42.4287C21.5085 42.2354 21.617 41.9733 21.617 41.7V31.792C21.617 31.5187 21.5085 31.2566 21.3154 31.0633C21.1222 30.87 20.8603 30.7613 20.587 30.761V30.764ZM19.556 40.674H11.708V32.822H19.556V40.674ZM62.376 42.582C58.2741 42.582 54.2643 43.7984 50.8537 46.0774C47.4431 48.3563 44.785 51.5955 43.2154 55.3852C41.6458 59.175 41.2353 63.345 42.0357 67.3681C42.8362 71.3911 44.8117 75.0865 47.7124 77.9867C50.6131 80.887 54.3087 82.862 58.3319 83.6619C62.355 84.4618 66.525 84.0506 70.3146 82.4805C74.1041 80.9103 77.3428 78.2517 79.6213 74.8408C81.8998 71.4299 83.1156 67.4199 83.115 63.318C83.1089 57.8195 80.922 52.548 77.034 48.66C73.146 44.772 67.8745 42.5851 62.376 42.579V42.582ZM62.376 81.999C58.682 81.999 55.0709 80.9036 51.9994 78.8514C48.9279 76.7992 46.5338 73.8822 45.1201 70.4695C43.7063 67.0567 43.3362 63.3013 44.0567 59.6782C44.7771 56.0551 46.5557 52.727 49.1676 50.1147C51.7795 47.5024 55.1073 45.7233 58.7303 45.0023C62.3532 44.2812 66.1087 44.6507 69.5217 46.0639C72.9347 47.4772 75.852 49.8707 77.9047 52.9419C79.9575 56.0131 81.0534 59.624 81.054 63.318C81.0492 68.2706 79.08 73.0191 75.5783 76.5215C72.0767 80.0239 67.3286 81.9932 62.376 81.999ZM72.215 63.321C72.215 63.4563 72.1883 63.5904 72.1365 63.7154C72.0847 63.8404 72.0087 63.954 71.913 64.0497C71.8172 64.1453 71.7035 64.2212 71.5785 64.2729C71.4534 64.3246 71.3193 64.3511 71.184 64.351H62.376C62.1028 64.351 61.8408 64.2425 61.6477 64.0493C61.4545 63.8562 61.346 63.5942 61.346 63.321V53.245C61.3543 52.9772 61.4666 52.7233 61.6589 52.5368C61.8513 52.3504 62.1086 52.2461 62.3765 52.2461C62.6444 52.2461 62.9017 52.3504 63.0941 52.5368C63.2864 52.7233 63.3987 52.9772 63.407 53.245V62.287H71.184C71.4574 62.287 71.7197 62.3956 71.913 62.589C72.1064 62.7823 72.215 63.0446 72.215 63.318V63.321ZM48.365 62.29V64.351H46.304V62.287L48.365 62.29ZM61.346 77.329H63.407V79.39H61.346V77.329ZM78.446 62.287V64.348H76.387V62.287H78.446ZM63.407 49.307H61.346V47.246H63.407V49.307ZM72.551 38.654V10.566C72.4984 9.30718 71.9498 8.12033 71.0249 7.26478C70.1 6.40922 68.8741 5.95451 67.615 6H62.597V3.606C62.5957 2.65004 62.2153 1.7336 61.5394 1.05763C60.8634 0.381664 59.947 0.00132277 58.991 0H56.553C55.597 0.00132277 54.6806 0.381664 54.0046 1.05763C53.3287 1.7336 52.9483 2.65004 52.947 3.606V6H41.091V3.606C41.0899 2.64995 40.7097 1.73337 40.0337 1.05734C39.3576 0.381316 38.441 0.00105874 37.485 0H35.047C34.092 0.00264487 33.177 0.383602 32.5022 1.05946C31.8275 1.73531 31.4481 2.65099 31.447 3.606V6H19.585V3.606C19.5839 2.65013 19.2038 1.73369 18.528 1.05769C17.8522 0.381697 16.9359 0.00132334 15.98 0H13.542C12.586 0.00132277 11.6696 0.381664 10.9936 1.05763C10.3177 1.7336 9.93732 2.65004 9.936 3.606V6H4.936C3.67657 5.95452 2.45036 6.4095 1.52542 7.26549C0.600479 8.12147 0.0520419 9.30883 0 10.568V67.209C0.0520419 68.4682 0.600479 69.6555 1.52542 70.5115C2.45036 71.3675 3.67657 71.8225 4.936 71.777H37.066C38.4827 76.0149 40.941 79.8292 44.2153 82.8699C47.4897 85.9105 51.4753 88.0801 55.8064 89.1796C60.1375 90.2791 64.6753 90.2732 69.0036 89.1626C73.3318 88.0519 77.3118 85.872 80.5783 82.8229C83.8448 79.7738 86.2933 75.9532 87.699 71.7116C89.1047 67.47 89.4226 62.9433 88.6236 58.5469C87.8246 54.1504 85.9342 50.0251 83.1259 46.5493C80.3177 43.0736 76.6815 40.3588 72.551 38.654ZM55.009 3.606C55.0093 3.19649 55.172 2.80382 55.4615 2.51417C55.7509 2.22451 56.1435 2.06153 56.553 2.061H58.991C59.4006 2.06153 59.7933 2.22448 60.0829 2.5141C60.3725 2.80373 60.5355 3.1964 60.536 3.606V11.206C60.5352 11.6154 60.3721 12.0078 60.0825 12.2972C59.7929 12.5867 59.4004 12.7495 58.991 12.75H56.553C56.3498 12.7497 56.1487 12.7094 55.9611 12.6314C55.7735 12.5533 55.6031 12.439 55.4597 12.2951C55.3163 12.1511 55.2027 11.9803 55.1253 11.7924C55.048 11.6045 55.0085 11.4032 55.009 11.2V3.606ZM33.503 3.606C33.5033 3.19649 33.666 2.80382 33.9555 2.51417C34.2449 2.22451 34.6375 2.06153 35.047 2.061H37.485C37.8948 2.06126 38.2877 2.22409 38.5775 2.51375C38.8674 2.80341 39.0305 3.19623 39.031 3.606V11.206C39.0305 11.6156 38.8675 12.0083 38.5779 12.2979C38.2883 12.5875 37.8956 12.7505 37.486 12.751H35.047C34.8437 12.7507 34.6425 12.7104 34.4548 12.6323C34.2672 12.5541 34.0968 12.4398 33.9533 12.2957C33.8099 12.1517 33.6963 11.9807 33.6191 11.7927C33.5418 11.6047 33.5023 11.4033 33.503 11.2V3.606ZM11.997 3.606C11.9975 3.1964 12.1605 2.80373 12.4501 2.5141C12.7397 2.22448 13.1324 2.06153 13.542 2.061H15.98C16.3895 2.06153 16.7821 2.22451 17.0715 2.51417C17.361 2.80382 17.5237 3.19649 17.524 3.606V11.206C17.5237 11.6155 17.361 12.0082 17.0715 12.2978C16.7821 12.5875 16.3895 12.7505 15.98 12.751H13.542C13.3387 12.7507 13.1374 12.7104 12.9497 12.6323C12.762 12.5542 12.5915 12.4398 12.448 12.2958C12.3045 12.1517 12.1908 11.9808 12.1134 11.7928C12.036 11.6048 11.9965 11.4033 11.997 11.2V3.606ZM4.94 8.059H9.94V11.2C9.94106 12.156 10.3213 13.0726 10.9973 13.7487C11.6734 14.4247 12.59 14.8049 13.546 14.806H15.984C16.9391 14.8036 17.8543 14.4227 18.5291 13.7468C19.2039 13.0709 19.5832 12.1551 19.584 11.2V8.059H31.442V11.2C31.4428 12.1551 31.8221 13.0709 32.4969 13.7468C33.1717 14.4227 34.0869 14.8036 35.042 14.806H37.48C38.437 14.8065 39.355 14.4269 40.0322 13.7507C40.7093 13.0745 41.0902 12.157 41.091 11.2V8.059H52.947V11.2C52.9481 12.156 53.3283 13.0726 54.0043 13.7487C54.6804 14.4247 55.597 14.8049 56.553 14.806H58.991C59.947 14.8049 60.8636 14.4247 61.5397 13.7487C62.2157 13.0726 62.5959 12.156 62.597 11.2V8.059H67.615C68.3277 8.0144 69.0293 8.2526 69.5675 8.72193C70.1057 9.19125 70.4372 9.85385 70.49 10.566V22.166H2.065V10.566C2.11783 9.85385 2.4493 9.19125 2.98752 8.72193C3.52574 8.2526 4.22729 8.0144 4.94 8.059ZM4.94 69.716C4.22729 69.7606 3.52574 69.5224 2.98752 69.0531C2.4493 68.5837 2.11783 67.9211 2.065 67.209V24.227H70.49V37.9C67.8671 37.0613 65.1298 36.6352 62.376 36.637H62.156V31.792C62.1557 31.5186 62.047 31.2566 61.8537 31.0633C61.6604 30.87 61.3984 30.7613 61.125 30.761H51.216C50.9426 30.7613 50.6806 30.87 50.4873 31.0633C50.294 31.2566 50.1853 31.5186 50.185 31.792V39.592C45.9355 41.7875 42.3494 45.0778 39.797 49.123H30.947C30.6737 49.123 30.4116 49.2315 30.2183 49.4246C30.025 49.6178 29.9163 49.8797 29.916 50.153V60.062C29.9163 60.3354 30.025 60.5974 30.2183 60.7907C30.4116 60.984 30.6736 61.0927 30.947 61.093H35.788C35.727 61.828 35.694 62.571 35.694 63.322C35.6931 65.479 35.9543 67.6281 36.472 69.722L4.94 69.716ZM60.095 36.734C57.397 36.9626 54.7499 37.6034 52.246 38.634V32.822H60.095V36.734ZM36.041 59.028H31.977V51.18H38.619C37.354 53.6449 36.484 56.2931 36.041 59.028ZM62.376 87.939C57.5064 87.939 52.7462 86.495 48.6973 83.7896C44.6484 81.0842 41.4927 77.239 39.6292 72.7401C37.7657 68.2412 37.2781 63.2907 38.2281 58.5147C39.1781 53.7387 41.523 49.3516 44.9663 45.9083C48.4096 42.465 52.7967 40.1201 57.5727 39.1701C62.3487 38.2201 67.2992 38.7077 71.798 40.5712C76.2969 42.4347 80.1422 45.5904 82.8476 49.6393C85.553 53.6882 86.997 58.4484 86.997 63.318C86.9896 69.8456 84.3932 76.1038 79.7775 80.7195C75.1618 85.3352 68.9036 87.9316 62.376 87.939Z" fill="#24252C"/>
</svg>
