<svg width="58" height="58" viewBox="0 0 58 58" fill="none" xmlns="http://www.w3.org/2000/svg">
<path d="M19.9436 27.5384H26.3294C26.5057 27.5382 26.6747 27.4681 26.7993 27.3434C26.9239 27.2187 26.9938 27.0496 26.9938 26.8733V20.4882C26.9937 20.312 26.9236 20.1431 26.799 20.0185C26.6745 19.894 26.5056 19.8239 26.3294 19.8237H19.9436C19.7674 19.8239 19.5985 19.894 19.474 20.0185C19.3494 20.1431 19.2794 20.312 19.2792 20.4882V26.8733C19.2792 27.0496 19.3492 27.2187 19.4738 27.3434C19.5983 27.4681 19.7673 27.5382 19.9436 27.5384ZM20.6074 21.1519H25.6689V26.2102H20.6074V21.1519ZM13.2672 31.6564H6.88137C6.70527 31.6564 6.53637 31.7263 6.41178 31.8508C6.2872 31.9752 6.21712 32.1441 6.21695 32.3202V38.706C6.21712 38.8821 6.28718 39.051 6.41175 39.1756C6.53631 39.3002 6.70521 39.3702 6.88137 39.3704H13.2672C13.4433 39.3702 13.6121 39.3001 13.7366 39.1755C13.861 39.051 13.9309 38.8821 13.9309 38.706V32.3182C13.9309 32.1422 13.861 31.9733 13.7365 31.8489C13.6121 31.7244 13.4432 31.6544 13.2672 31.6544V31.6564ZM12.6027 38.0422H7.54515V32.9826H12.6027V38.0422ZM13.2672 19.8257H6.88137C6.70521 19.8258 6.53631 19.8959 6.41175 20.0205C6.28718 20.145 6.21712 20.3139 6.21695 20.4901V26.8733C6.21712 27.0495 6.28718 27.2184 6.41175 27.3429C6.53631 27.4675 6.70521 27.5376 6.88137 27.5377H13.2672C13.4433 27.5376 13.6121 27.4675 13.7366 27.3429C13.861 27.2183 13.9309 27.0494 13.9309 26.8733V20.4882C13.9309 20.3121 13.861 20.1432 13.7366 20.0186C13.6121 19.894 13.4433 19.8239 13.2672 19.8237V19.8257ZM12.6027 26.2121H7.54515V21.1519H12.6027V26.2121ZM40.1978 27.4417C37.5544 27.4417 34.9703 28.2256 32.7724 29.6943C30.5745 31.1629 28.8614 33.2504 27.8499 35.6927C26.8384 38.1349 26.5738 40.8223 27.0897 43.415C27.6055 46.0076 28.8786 48.389 30.748 50.2581C32.6173 52.1272 34.9989 53.3999 37.5916 53.9154C40.1843 54.4309 42.8717 54.1659 45.3138 53.1541C47.7559 52.1422 49.8431 50.4288 51.3115 48.2307C52.7798 46.0326 53.5634 43.4484 53.563 40.8049C53.559 37.2615 52.1497 33.8643 49.6441 31.3587C47.1385 28.8531 43.7413 27.4437 40.1978 27.4398V27.4417ZM40.1978 52.8438C37.8172 52.8438 35.4901 52.1379 33.5107 50.8153C31.5313 49.4928 29.9885 47.613 29.0774 45.4136C28.1663 43.2143 27.9278 40.7942 28.3921 38.4593C28.8564 36.1244 30.0026 33.9796 31.6858 32.2961C33.369 30.6127 35.5136 29.4661 37.8484 29.0014C40.1832 28.5368 42.6033 28.7749 44.8028 29.6856C47.0023 30.5964 48.8824 32.1389 50.2052 34.1181C51.5281 36.0973 52.2344 38.4243 52.2348 40.8049C52.2317 43.9966 50.9626 47.0567 48.706 49.3138C46.4494 51.5709 43.3895 52.84 40.1978 52.8438ZM46.5385 40.8068C46.5385 40.8941 46.5213 40.9804 46.4879 41.061C46.4545 41.1416 46.4056 41.2148 46.3439 41.2764C46.2822 41.3381 46.2089 41.387 46.1283 41.4203C46.0477 41.4536 45.9613 41.4707 45.8741 41.4706H40.1978C40.0218 41.4706 39.853 41.4007 39.7285 41.2762C39.604 41.1517 39.5341 40.9829 39.5341 40.8068V34.3134C39.5394 34.1409 39.6118 33.9772 39.7357 33.857C39.8597 33.7369 40.0255 33.6697 40.1982 33.6697C40.3708 33.6697 40.5367 33.7369 40.6606 33.857C40.7846 33.9772 40.8569 34.1409 40.8623 34.3134V40.1405H45.8741C46.0503 40.1405 46.2193 40.2105 46.3439 40.3351C46.4685 40.4597 46.5385 40.6287 46.5385 40.8049V40.8068ZM31.1685 40.1424V41.4706H29.8403V40.1405L31.1685 40.1424ZM39.5341 49.8342H40.8623V51.1624H39.5341V49.8342ZM50.5541 40.1405V41.4687H49.2272V40.1405H50.5541ZM40.8623 31.7756H39.5341V30.4474H40.8623V31.7756ZM46.7551 24.9103V6.8092C46.7212 5.99796 46.3676 5.2331 45.7716 4.68174C45.1755 4.13038 44.3855 3.83735 43.5741 3.86666H40.3403V2.32387C40.3394 1.7078 40.0943 1.11721 39.6587 0.681586C39.2231 0.245961 38.6325 0.000852451 38.0164 0H36.4452C35.8292 0.000852451 35.2386 0.245961 34.803 0.681586C34.3673 1.11721 34.1222 1.7078 34.1214 2.32387V3.86666H26.4809V2.32387C26.4802 1.70775 26.2351 1.11706 25.7995 0.681398C25.3638 0.245737 24.7731 0.000682302 24.157 0H22.5858C21.9704 0.00170447 21.3807 0.24721 20.9459 0.682761C20.511 1.11831 20.2665 1.70842 20.2658 2.32387V3.86666H12.6214V2.32387C12.6208 1.70786 12.3758 1.11727 11.9403 0.681625C11.5047 0.245982 10.9142 0.000852818 10.2982 0H8.72706C8.111 0.000852451 7.52041 0.245961 7.08478 0.681586C6.64916 1.11721 6.40405 1.7078 6.4032 2.32387V3.86666H3.18098C2.36935 3.83736 1.57912 4.13057 0.983048 4.6822C0.386975 5.23383 0.0335381 5.99902 0 6.81049V43.3124C0.0335381 44.1239 0.386975 44.8891 0.983048 45.4407C1.57912 45.9924 2.36935 46.2856 3.18098 46.2563H23.887C24.7999 48.9874 26.3842 51.4455 28.4943 53.405C30.6045 55.3645 33.173 56.7627 35.9641 57.4713C38.7552 58.1798 41.6796 58.1761 44.4689 57.4603C47.2582 56.7445 49.8231 55.3397 51.9282 53.3747C54.0333 51.4098 55.6112 48.9476 56.5171 46.2141C57.423 43.4807 57.6279 40.5634 57.1129 37.7302C56.598 34.8969 55.3798 32.2384 53.57 29.9984C51.7603 27.7585 49.4169 26.009 46.7551 24.9103ZM35.4502 2.32387C35.4504 2.05996 35.5553 1.80691 35.7418 1.62024C35.9284 1.43357 36.1813 1.32854 36.4452 1.3282H38.0164C38.2804 1.32854 38.5334 1.43355 38.7201 1.6202C38.9067 1.80685 39.0117 2.0599 39.0121 2.32387V7.22164C39.0116 7.48549 38.9065 7.73838 38.7198 7.92489C38.5332 8.1114 38.2803 8.21632 38.0164 8.21666H36.4452C36.3143 8.21649 36.1847 8.19051 36.0638 8.14021C35.9429 8.0899 35.8331 8.01626 35.7407 7.92348C35.6483 7.83071 35.575 7.72063 35.5252 7.59954C35.4754 7.47845 35.4499 7.34872 35.4502 7.21777V2.32387ZM21.5908 2.32387C21.591 2.05996 21.6958 1.80691 21.8824 1.62024C22.0689 1.43357 22.3219 1.32854 22.5858 1.3282H24.157C24.4211 1.32837 24.6743 1.4333 24.8611 1.61997C25.0479 1.80664 25.153 2.05979 25.1533 2.32387V7.22164C25.153 7.4856 25.0479 7.73866 24.8613 7.92531C24.6746 8.11196 24.4216 8.21697 24.1576 8.21731H22.5858C22.4548 8.21714 22.3251 8.19114 22.2042 8.14079C22.0833 8.09044 21.9735 8.01674 21.881 7.9239C21.7886 7.83106 21.7154 7.7209 21.6656 7.59974C21.6158 7.47857 21.5904 7.34877 21.5908 7.21777V2.32387ZM7.7314 2.32387C7.73174 2.0599 7.83675 1.80685 8.0234 1.6202C8.21005 1.43355 8.4631 1.32854 8.72706 1.3282H10.2982C10.5621 1.32854 10.8151 1.43357 11.0017 1.62024C11.1882 1.80691 11.2931 2.05996 11.2932 2.32387V7.22164C11.2931 7.48554 11.1882 7.7386 11.0017 7.92527C10.8151 8.11194 10.5621 8.21697 10.2982 8.21731H8.72706C8.59603 8.21714 8.46632 8.19114 8.34534 8.1408C8.22437 8.09046 8.1145 8.01677 8.02203 7.92394C7.92956 7.83111 7.85629 7.72096 7.80642 7.59979C7.75655 7.47862 7.73106 7.3488 7.7314 7.21777V2.32387ZM3.18355 5.19358H6.40577V7.21777C6.40646 7.83389 6.65151 8.42458 7.08717 8.86024C7.52283 9.2959 8.11352 9.54096 8.72964 9.54164H10.3008C10.9163 9.5401 11.5061 9.29465 11.941 8.85907C12.3758 8.42348 12.6203 7.83328 12.6208 7.21777V5.19358H20.2626V7.21777C20.2631 7.83328 20.5076 8.42348 20.9425 8.85907C21.3773 9.29465 21.9671 9.5401 22.5826 9.54164H24.1538C24.7705 9.54198 25.3621 9.29736 25.7985 8.86157C26.2349 8.42578 26.4803 7.8345 26.4809 7.21777V5.19358H34.1214V7.21777C34.1221 7.83389 34.3671 8.42458 34.8028 8.86024C35.2384 9.2959 35.8291 9.54096 36.4452 9.54164H38.0164C38.6325 9.54096 39.2232 9.2959 39.6589 8.86024C40.0945 8.42458 40.3396 7.83389 40.3403 7.21777V5.19358H43.5741C44.0334 5.16483 44.4855 5.31834 44.8324 5.62079C45.1792 5.92325 45.3928 6.35026 45.4269 6.8092V14.2847H1.33078V6.8092C1.36482 6.35026 1.57844 5.92325 1.92529 5.62079C2.27214 5.31834 2.72425 5.16483 3.18355 5.19358ZM3.18355 44.9281C2.72425 44.9568 2.27214 44.8033 1.92529 44.5008C1.57844 44.1984 1.36482 43.7714 1.33078 43.3124V15.6129H45.4269V24.4244C43.7365 23.8839 41.9725 23.6093 40.1978 23.6105H40.0561V20.4882C40.0559 20.312 39.9858 20.1431 39.8613 20.0185C39.7367 19.894 39.5678 19.8239 39.3916 19.8237H33.0059C32.8297 19.8239 32.6608 19.894 32.5362 20.0185C32.4117 20.1431 32.3416 20.312 32.3414 20.4882V25.5148C29.6029 26.9297 27.2918 29.0501 25.6469 31.657H19.9436C19.7675 31.657 19.5986 31.7269 19.474 31.8514C19.3494 31.9759 19.2794 32.1447 19.2792 32.3208V38.7066C19.2794 38.8828 19.3494 39.0517 19.474 39.1762C19.5985 39.3008 19.7674 39.3709 19.9436 39.371H23.0634C23.0241 39.8447 23.0028 40.3235 23.0028 40.8075C23.0022 42.1975 23.1706 43.5825 23.5042 44.9319L3.18355 44.9281ZM38.7279 23.673C36.9891 23.8203 35.2833 24.2333 33.6696 24.8975V21.1519H38.7279V23.673ZM23.2264 38.0402H20.6074V32.9826H24.8878C24.0726 34.5711 23.5119 36.2778 23.2264 38.0402ZM40.1978 56.6718C37.0597 56.6718 33.992 55.7412 31.3827 53.9977C28.7734 52.2542 26.7397 49.7762 25.5388 46.8769C24.3379 43.9776 24.0236 40.7873 24.6359 37.7094C25.2481 34.6316 26.7593 31.8044 28.9783 29.5853C31.1973 27.3663 34.0245 25.8552 37.1024 25.2429C40.1802 24.6307 43.3705 24.9449 46.2698 26.1458C49.1691 27.3468 51.6472 29.3805 53.3907 31.9898C55.1341 34.599 56.0647 37.6667 56.0647 40.8049C56.0599 45.0116 54.3867 49.0446 51.4121 52.0192C48.4376 54.9938 44.4045 56.667 40.1978 56.6718Z" fill="#24252C"/>
</svg>
