<svg width="59" height="59" viewBox="0 0 59 59" fill="none" xmlns="http://www.w3.org/2000/svg">
<path fill-rule="evenodd" clip-rule="evenodd" d="M2.77587 5.32721C4.90361 2.80272 7.97643 1.18031 11.0796 0.184696C13.038 -0.444539 15.0065 0.609239 15.9188 2.37815L20.0934 10.4673C22.3474 14.8365 18.4963 15.7361 15.8051 19.7467C15.2087 20.6362 14.4607 22.0059 15.0849 23.0647C20.4799 32.2277 26.7719 38.5203 35.9347 43.915C37.8375 45.0345 41.0696 41.7923 42.285 40.5717C44.4001 38.4439 45.699 37.4433 48.5343 38.9064L56.6232 43.0811C58.3922 43.9933 59.4459 45.9619 58.8167 47.9203C56.8153 54.152 52.666 59.0849 45.6838 58.9989C27.8964 58.7816 0.218378 31.103 0.00101694 13.3178C-0.0343612 10.346 0.852801 7.60942 2.77587 5.32721ZM31.28 3.72756C44.5312 3.72756 55.2712 14.4678 55.2712 27.7193C55.2712 30.1731 58.9985 30.1731 58.9985 27.7193C58.9985 12.4105 46.5882 0 31.2798 0C28.826 0 28.8262 3.72756 31.28 3.72756ZM31.28 21.8265C34.5347 21.8265 37.1729 24.4647 37.1729 27.7196C37.1729 30.1733 40.9002 30.1733 40.9002 27.7196C40.9002 22.4078 36.5942 18.0992 31.28 18.0992C28.8263 18.0992 28.8262 21.8265 31.28 21.8265ZM31.28 12.7774C39.5332 12.7774 46.2223 19.4665 46.2223 27.72C46.2223 30.1737 49.9495 30.1737 49.9495 27.72C49.9495 17.4093 41.5902 9.05044 31.2804 9.05044C28.8267 9.05044 28.8262 12.7774 31.28 12.7774Z" fill="#FFD356"/>
</svg>
