<svg width="67" height="67" viewBox="0 0 67 67" fill="none" xmlns="http://www.w3.org/2000/svg">
<path fill-rule="evenodd" clip-rule="evenodd" d="M3.15226 6.04954C5.56851 3.18276 9.05798 1.34035 12.5819 0.20974C14.8058 -0.504815 17.0413 0.691847 18.0773 2.70061L22.8179 11.8866C25.3776 16.8482 21.0042 17.8698 17.9481 22.4242C17.2709 23.4344 16.4215 24.9897 17.1303 26.1921C23.2569 36.5976 30.402 43.7434 40.8072 49.8696C42.9681 51.1409 46.6383 47.4591 48.0186 46.073C50.4205 43.6567 51.8954 42.5203 55.1152 44.1818L64.301 48.9226C66.3097 49.9585 67.5064 52.194 66.7918 54.418C64.519 61.4947 59.8071 67.0964 51.8782 66.9987C31.6789 66.7519 0.247989 35.3203 0.00115459 15.1236C-0.0390206 11.7488 0.968435 8.64121 3.15226 6.04954ZM35.5213 4.233C50.5694 4.233 62.7656 16.4295 62.7656 31.4779C62.7656 34.2644 66.9983 34.2644 66.9983 31.4779C66.9983 14.0933 52.9053 0 35.5211 0C32.7347 0 32.7349 4.233 35.5213 4.233ZM35.5213 24.786C39.2173 24.786 42.2133 27.782 42.2133 31.4782C42.2133 34.2646 46.446 34.2646 46.446 31.4782C46.446 25.4461 41.5562 20.5533 35.5214 20.5533C32.7349 20.5533 32.7349 24.786 35.5213 24.786ZM35.5213 14.5099C44.8937 14.5099 52.4897 22.1061 52.4897 31.4786C52.4897 34.2651 56.7224 34.2651 56.7224 31.4786C56.7224 19.7699 47.2295 10.2776 35.5218 10.2776C32.7354 10.2776 32.7349 14.5099 35.5213 14.5099Z" fill="#BD9DFF"/>
</svg>
