<svg width="66" height="89" viewBox="0 0 66 89" fill="none" xmlns="http://www.w3.org/2000/svg">
<path d="M61.4698 30.2027H60.9352C60.4049 23.8393 57.8309 17.8613 53.5711 13.133L53.7738 12.6411C54.3817 11.1655 53.9893 9.48153 52.7994 8.44909C47.2505 3.64548 40.2222 1 33.0004 1C25.783 1 18.7511 3.64548 13.2015 8.44909C12.0116 9.4816 11.6149 11.1655 12.2271 12.6411L12.4298 13.133C8.16999 17.8613 5.59606 23.8392 5.06572 30.2027H4.53109C2.58232 30.2027 1 31.829 1 33.832V40.7316C1 42.7345 2.58232 44.3608 4.53109 44.3608H8.30368C9.59715 44.3608 10.6448 43.2796 10.6448 41.9546V41.733C12.6411 42.6857 14.607 43.4612 16.543 44.0683C18.0003 49.5587 21.997 53.9857 27.1493 55.9265C14.1031 58.5942 3.8758 70.0047 2.84932 84.0739C2.77602 85.0886 3.11663 86.0901 3.78491 86.8346C4.4532 87.5746 5.40609 88 6.39339 88H59.5971C60.5844 88 61.5372 87.5746 62.2055 86.8346C62.8738 86.0946 63.2144 85.0886 63.1411 84.0739C62.115 70.0047 51.8885 58.5935 38.8411 55.9265C45.3731 53.4715 50.0463 47.015 50.0463 39.4637C50.0463 29.799 42.3977 21.938 32.9946 21.938C23.5915 21.938 15.9429 29.7992 15.9429 39.4637C15.9429 39.8182 15.9559 40.1727 15.9731 40.5272C14.227 39.898 12.4506 39.1225 10.6441 38.1963V32.6216C10.6441 31.2922 9.59212 30.2154 8.30297 30.2154H8.18225C8.66513 25.0751 10.6484 20.2316 13.8993 16.2563C14.2615 16.6463 14.7314 16.9121 15.2704 17.0274C15.4514 17.0628 15.6325 17.085 15.8093 17.085C16.4819 17.085 17.12 16.8191 17.6201 16.3228C21.7893 12.1795 27.2477 9.90169 32.9996 9.90169C38.7511 9.90169 44.2092 12.1838 48.3792 16.3228C49.013 16.952 49.871 17.209 50.7289 17.0273C51.2679 16.9166 51.7378 16.6463 52.1 16.2563C55.3465 20.2312 57.3342 25.0746 57.817 30.2154H57.6963C56.4028 30.2154 55.3552 31.2966 55.3552 32.6216V41.9585C55.3552 43.288 56.4072 44.3648 57.6963 44.3648H61.4689C63.4177 44.3648 65 42.7384 65 40.7355V33.8359C65 31.833 63.4177 30.2067 61.4689 30.2067L61.4698 30.2027ZM60.0557 84.3046C60.0686 84.473 59.9996 84.5882 59.9393 84.6547C59.8789 84.7212 59.7754 84.8009 59.6073 84.8009H6.40364C6.2398 84.8009 6.13202 84.7212 6.07166 84.6547C6.0113 84.5882 5.94231 84.473 5.95524 84.3046C7.01156 69.8452 18.8944 58.5191 33.0057 58.5191C47.1171 58.5191 58.9994 69.8457 60.0557 84.3046ZM19.0572 39.4551C19.0572 31.5495 25.3132 25.1194 33.0052 25.1194C40.6972 25.1194 46.9532 31.5493 46.9532 39.4551C46.9532 47.3609 40.6972 53.7908 33.0052 53.7908C27.2278 53.7908 22.2566 50.1616 20.1444 44.999C22.1061 45.4067 24.029 45.6283 25.9089 45.6593H25.9348C26.7798 45.6593 27.4739 44.9636 27.4869 44.0862C27.4998 43.2044 26.8143 42.482 25.9606 42.4643C23.7876 42.4289 21.5327 42.1098 19.2088 41.5116C19.1139 40.838 19.0622 40.1512 19.0622 39.451L19.0572 39.4551ZM4.5408 41.1656C4.30798 41.1656 4.11396 40.9662 4.11396 40.7269V33.8273C4.11396 33.588 4.30798 33.3886 4.5408 33.3886H7.55026V41.1612H4.5408V41.1656ZM50.0403 13.523C45.3581 9.10943 39.3392 6.68993 33.0052 6.68993C26.6759 6.68993 20.6532 9.10943 15.97 13.523L15.0905 11.3871C15.0129 11.1966 15.056 11.0149 15.2069 10.882C20.1953 6.56139 26.5158 4.18624 33.0047 4.18624C39.4935 4.18624 45.8137 6.56592 50.8026 10.882C50.9578 11.0149 50.9966 11.1966 50.919 11.3871L50.0394 13.5186L50.0403 13.523ZM61.8967 40.7266C61.8967 40.9659 61.7027 41.1653 61.4699 41.1653H58.4604V33.3926H61.4699C61.7027 33.3926 61.8967 33.592 61.8967 33.8313V40.7309V40.7266Z" fill="#24252C" stroke="#F4EEFF"/>
</svg>
