<svg width="47" height="47" viewBox="0 0 47 47" fill="none" xmlns="http://www.w3.org/2000/svg">
<path fill-rule="evenodd" clip-rule="evenodd" d="M2.21128 4.24371C3.90627 2.23268 6.3541 0.940246 8.82611 0.147131C10.3862 -0.354124 11.9543 0.485326 12.6811 1.89446L16.0066 8.33833C17.8022 11.8189 14.7343 12.5356 12.5905 15.7304C12.1154 16.439 11.5196 17.5301 12.0167 18.3736C16.3145 25.6729 21.3268 30.6857 28.626 34.9831C30.1418 35.8749 32.7164 33.2922 33.6847 32.3198C35.3696 30.6248 36.4043 29.8277 38.6629 30.9932L45.1067 34.3188C46.5158 35.0455 47.3552 36.6137 46.8539 38.1738C45.2596 43.1381 41.9543 47.0677 36.3921 46.9991C22.2225 46.826 0.173962 24.7769 0.000809936 10.6091C-0.0273726 8.2417 0.67935 6.06174 2.21128 4.24371ZM24.9179 2.96942C35.474 2.96942 44.0296 11.5252 44.0296 22.0815C44.0296 24.0362 46.9988 24.0362 46.9988 22.0815C46.9988 9.88637 37.1126 0 24.9178 0C22.9631 0 22.9633 2.96942 24.9179 2.96942ZM24.9179 17.3872C27.5107 17.3872 29.6123 19.4888 29.6123 22.0817C29.6123 24.0364 32.5815 24.0364 32.5815 22.0817C32.5815 17.8502 29.1513 14.418 24.918 14.418C22.9633 14.418 22.9633 17.3872 24.9179 17.3872ZM24.9179 10.1786C31.4926 10.1786 36.8211 15.5072 36.8211 22.082C36.8211 24.0367 39.7903 24.0367 39.7903 22.082C39.7903 13.8684 33.1312 7.20967 24.9183 7.20967C22.9636 7.20967 22.9633 10.1786 24.9179 10.1786Z" fill="#DEC700"/>
</svg>
