<svg width="86" height="86" viewBox="0 0 86 86" fill="none" xmlns="http://www.w3.org/2000/svg">
<path fill-rule="evenodd" clip-rule="evenodd" d="M85.9917 61.8222C86.3949 80.3116 72.1033 89.5296 52.7593 84.7525C42.1597 82.0765 30.5566 75.4856 20.5687 65.4051C10.5809 55.3246 3.89137 43.822 1.26298 33.2569C-3.557 13.9172 5.70582 -0.365491 24.1529 0.00712528C28.3718 0.0743032 31.7693 3.49663 31.7991 7.7177L31.9148 21.8475C31.9596 24.307 30.8135 26.6358 28.8347 28.0951L23.4435 32.1855C22.6221 32.764 22.3906 33.8761 22.9096 34.7383C29.8241 46.4088 39.5726 56.1532 51.2465 63.0648C52.094 63.5723 53.1879 63.3521 53.7703 62.5572L57.8622 57.168C59.322 55.1937 61.6517 54.0443 64.1121 54.0927L78.2471 54.2084C82.4697 54.2382 85.8933 57.6307 85.9605 61.8518L85.9917 61.8222ZM62.5751 23.7877V29.0052C62.5826 29.4903 62.8589 29.9307 63.292 30.1509C63.7251 30.3711 64.244 30.3338 64.6398 30.0539L81.127 18.1598C81.4667 17.9135 81.6683 17.5178 81.6683 17.0998C81.6683 16.6781 81.4667 16.2862 81.127 16.0399L64.6962 4.06744C64.3079 3.75021 63.7703 3.68303 63.3148 3.90322C62.8631 4.11968 62.5718 4.57873 62.5756 5.07887V10.1695C56.4004 10.6285 51.976 12.9126 49.079 16.906C46.0586 21.0263 44.7967 27.0163 45.0356 34.6301C45.0356 35.2683 45.4986 35.8132 46.1295 35.914C46.7567 36.0148 47.3691 35.6453 47.5706 35.0444C50.1505 27.401 54.6529 22.7463 62.5751 23.7877ZM52.398 23.3958C55.5827 21.2163 59.4581 20.5482 64.0203 21.3879C64.6774 21.4625 65.1739 22.0186 65.1739 22.6792V26.4524L78.1629 17.0399L65.1739 7.6499V11.4231C65.1702 12.1247 64.6139 12.6994 63.912 12.7219C53.4959 13.0578 48.8881 18.7493 47.8358 28.2963C49.0044 26.3705 50.5576 24.7097 52.3981 23.4146L52.398 23.3958ZM82.0271 70.9579C83.0127 68.0356 83.4645 64.9604 83.3525 61.8813C83.2928 59.0822 81.0191 56.8392 78.2226 56.8168L64.0877 56.7011H64.0839C62.445 56.6638 60.888 57.4289 59.9173 58.7537L55.8254 64.1429H55.8292C54.4515 65.9754 51.9202 66.4867 49.9414 65.3297C37.8594 58.1901 27.7826 48.113 20.6449 36.0364C19.4876 34.0584 19.999 31.5242 21.8322 30.1508L27.2233 26.0604C28.5487 25.0938 29.3141 23.5375 29.2767 21.8953L29.161 7.76552C29.1386 4.96641 26.8947 2.69727 24.0946 2.63383C7.26432 2.27181 -0.591215 15.0658 3.7958 32.6323C6.31963 42.7617 12.7226 53.8714 22.422 63.5604C32.125 73.2494 43.2216 79.6612 53.3538 82.1721C66.1488 85.363 78.0215 82.2952 82.0348 70.9573L82.0271 70.9579Z" fill="#24252C"/>
</svg>
