<svg width="64" height="65" viewBox="0 0 64 65" fill="none" xmlns="http://www.w3.org/2000/svg">
<path d="M37.8903 55.0005H19.1102C18.111 54.9299 17.1617 54.5369 16.4051 53.8805L3.12003 40.6003C2.46263 39.8424 2.06952 38.8912 2.00002 37.8903V19.1102C2.06952 18.1093 2.46263 17.1581 3.12003 16.4001L16.4001 3.12003C17.1581 2.46263 18.1093 2.06952 19.1102 2.00002H37.8903C38.8912 2.06952 39.8424 2.46263 40.6003 3.12003L53.8805 16.4001C54.5379 17.1581 54.931 18.1093 55.0005 19.1102V37.8903C54.9299 38.8895 54.5369 39.8387 53.8805 40.5953L52.9105 41.5654L54.2405 43.0654L55.2955 42.0004C56.3296 40.8736 56.9334 39.4183 57.0005 37.8903V19.1102C56.9334 17.5822 56.3296 16.1269 55.2955 15.0001L42.0004 1.70501C40.8736 0.670847 39.4183 0.067111 37.8903 0L19.1102 0C17.5822 0.067111 16.1269 0.670847 15.0001 1.70501L1.70501 15.0001C0.670847 16.1269 0.067111 17.5822 0 19.1102L0 37.8903C0.067111 39.4183 0.670847 40.8736 1.70501 42.0004L15.0001 55.2955C16.1269 56.3296 17.5822 56.9334 19.1102 57.0005H37.8903C39.2646 56.9383 40.5848 56.4469 41.6654 55.5955L40.3203 54.0955C39.6102 54.6171 38.7687 54.9305 37.8903 55.0005Z" fill="black"/>
<path d="M50.5002 41.8355C50.41 41.734 50.3 41.652 50.1771 41.5944C50.0542 41.5368 49.9208 41.5048 49.7852 41.5005C49.6535 41.4931 49.5216 41.5118 49.3972 41.5555C49.2728 41.5993 49.1582 41.6672 49.0602 41.7555L47.4201 43.2555L45.3451 41.0555C48.4946 36.849 49.9552 31.6157 49.4393 26.3862C48.9233 21.1567 46.4682 16.3098 42.5574 12.7999C38.6465 9.29 33.5634 7.3714 28.3087 7.42187C23.054 7.47234 18.0086 9.48823 14.166 13.0726C10.3233 16.657 7.96173 21.5502 7.54632 26.7886C7.13091 32.0271 8.69174 37.2313 11.9215 41.3765C15.1512 45.5217 19.8158 48.3076 24.9969 49.1856C30.1779 50.0636 35.4999 48.9702 39.9151 46.1205L41.9151 48.2255L40.3451 49.6455C40.2474 49.7337 40.168 49.8403 40.1116 49.9592C40.0552 50.0782 40.0228 50.207 40.0163 50.3385C40.0098 50.47 40.0293 50.6014 40.0737 50.7253C40.1181 50.8492 40.1865 50.9631 40.2751 51.0605L51.6852 63.6756C51.7732 63.7741 51.8797 63.8543 51.9987 63.9117C52.1176 63.969 52.2468 64.0023 52.3786 64.0097C52.5105 64.0172 52.6425 63.9986 52.7672 63.955C52.8918 63.9114 53.0067 63.8436 53.1052 63.7557C53.2037 63.6677 53.2839 63.5611 53.3412 63.4422C53.3985 63.3232 53.4319 63.1941 53.4393 63.0622C53.4467 62.9304 53.4281 62.7983 53.3845 62.6737C53.3409 62.549 53.2732 62.4341 53.1852 62.3356L42.4151 50.4555L49.6502 43.9205L62.2503 58.1356C62.426 58.3345 62.6735 58.4555 62.9384 58.4719C63.2033 58.4883 63.4639 58.3988 63.6628 58.2231C63.8617 58.0474 63.9827 57.7999 63.9991 57.535C64.0155 57.2701 63.926 57.0095 63.7503 56.8106L50.5002 41.8355ZM9.49981 28.5004C9.49981 24.7425 10.6142 21.069 12.7019 17.9444C14.7897 14.8199 17.7571 12.3846 21.2289 10.9465C24.7008 9.50841 28.5211 9.13214 32.2067 9.86527C35.8924 10.5984 39.2779 12.408 41.9351 15.0652C44.5923 17.7224 46.4019 21.1079 47.1351 24.7936C47.8682 28.4793 47.4919 32.2996 46.0538 35.7714C44.6158 39.2432 42.1805 42.2106 39.0559 44.2984C35.9313 46.3862 32.2579 47.5005 28.5 47.5005C23.4608 47.5005 18.6281 45.4987 15.0648 41.9355C11.5016 38.3723 9.49981 33.5395 9.49981 28.5004ZM41.5551 44.9455C42.4508 44.2313 43.2869 43.4453 44.0551 42.5955L45.9251 44.5955L43.3701 46.9005L41.5551 44.9455Z" fill="black"/>
<path d="M27.8949 27.0001C27.9843 27.1459 28.1097 27.2664 28.2589 27.3499C28.4082 27.4335 28.5764 27.4774 28.7474 27.4774C28.9185 27.4774 29.0867 27.4335 29.2359 27.3499C29.3852 27.2664 29.5105 27.1459 29.5999 27.0001L35.1 18C35.1873 17.8488 35.2335 17.6774 35.234 17.5027C35.2345 17.3281 35.1892 17.1564 35.1028 17.0047C35.0163 16.853 34.8916 16.7266 34.7411 16.6381C34.5906 16.5495 34.4196 16.5019 34.245 16.5H23.2449C23.0703 16.5019 22.8992 16.5495 22.7487 16.6381C22.5982 16.7266 22.4736 16.853 22.3871 17.0047C22.3006 17.1564 22.2554 17.3281 22.2559 17.5027C22.2564 17.6774 22.3026 17.8488 22.3899 18L27.8949 27.0001ZM32.465 18.5L28.7499 24.5801L25.0349 18.5H32.465Z" fill="black"/>
<path d="M26.2597 32.5008C26.449 32.5014 26.6345 32.4484 26.7948 32.3478C26.9551 32.2472 27.0835 32.1032 27.1652 31.9325C27.2469 31.7618 27.2785 31.5714 27.2562 31.3835C27.234 31.1955 27.159 31.0178 27.0397 30.8708L21.6047 22.0007C21.5153 21.8549 21.39 21.7344 21.2407 21.6509C21.0914 21.5673 20.9232 21.5234 20.7522 21.5234C20.5811 21.5234 20.4129 21.5673 20.2637 21.6509C20.1144 21.7344 19.9891 21.8549 19.8997 22.0007L14.3996 31.0008C14.3123 31.152 14.2661 31.3234 14.2656 31.4981C14.2651 31.6727 14.3104 31.8444 14.3968 31.9961C14.4833 32.1478 14.608 32.2742 14.7585 32.3627C14.909 32.4513 15.08 32.4989 15.2546 32.5008H26.2547H26.2597ZM17.0347 30.5008L20.7497 24.4207L24.4647 30.5008H17.0347Z" fill="black"/>
<path d="M42.7597 31.5003C42.7607 31.2713 42.683 31.0489 42.5397 30.8703L37.1047 22.0002C37.0153 21.8544 36.89 21.7339 36.7407 21.6504C36.5914 21.5668 36.4232 21.5229 36.2522 21.5229C36.0811 21.5229 35.9129 21.5668 35.7637 21.6504C35.6144 21.7339 35.4891 21.8544 35.3997 22.0002L29.8996 31.0003C29.8123 31.1515 29.7661 31.323 29.7656 31.4976C29.7651 31.6722 29.8104 31.8439 29.8968 31.9956C29.9833 32.1473 30.108 32.2737 30.2585 32.3622C30.409 32.4508 30.58 32.4984 30.7546 32.5003H41.7547C41.8865 32.501 42.0171 32.4756 42.139 32.4256C42.2609 32.3757 42.3717 32.3021 42.4651 32.2092C42.5585 32.1163 42.6326 32.0058 42.6831 31.8842C42.7337 31.7625 42.7597 31.6321 42.7597 31.5003ZM32.5347 30.5003L36.2497 24.4202L39.9647 30.5003H32.5347Z" fill="black"/>
<path d="M47.7459 49.8303C47.6579 49.7318 47.5514 49.6516 47.4324 49.5943C47.3135 49.537 47.1844 49.5036 47.0525 49.4962C46.9206 49.4888 46.7886 49.5074 46.6639 49.551C46.5393 49.5946 46.4244 49.6623 46.3259 49.7503C46.2274 49.8383 46.1472 49.9448 46.0899 50.0638C46.0326 50.1828 45.9993 50.3119 45.9918 50.4438C45.9844 50.5756 46.003 50.7076 46.0466 50.8323C46.0902 50.957 46.1579 51.0718 46.2459 51.1703L52.641 58.2804C52.729 58.3789 52.8355 58.4591 52.9545 58.5164C53.0734 58.5737 53.2026 58.6071 53.3344 58.6145C53.4663 58.6219 53.5983 58.6033 53.723 58.5597C53.8476 58.5161 53.9625 58.4484 54.061 58.3604C54.1595 58.2724 54.2397 58.1659 54.297 58.0469C54.3543 57.9279 54.3877 57.7988 54.3951 57.667C54.4025 57.5351 54.3839 57.4031 54.3403 57.2784C54.2967 57.1537 54.229 57.0389 54.141 56.9404L47.7459 49.8303Z" fill="black"/>
<path d="M56 61.501C56.5523 61.501 57 61.0533 57 60.501C57 59.9487 56.5523 59.501 56 59.501C55.4477 59.501 55 59.9487 55 60.501C55 61.0533 55.4477 61.501 56 61.501Z" fill="black"/>
<path d="M28.5 34.0005C27.8078 34.0005 27.1311 34.2058 26.5555 34.5903C25.9799 34.9749 25.5313 35.5216 25.2664 36.1611C25.0015 36.8007 24.9322 37.5044 25.0673 38.1833C25.2023 38.8623 25.5356 39.4859 26.0251 39.9754C26.5146 40.4649 27.1383 40.7982 27.8172 40.9333C28.4962 41.0683 29.1999 40.999 29.8394 40.7341C30.479 40.4692 31.0256 40.0206 31.4102 39.445C31.7948 38.8695 32.0001 38.1928 32.0001 37.5005C32.0001 36.5723 31.6313 35.682 30.9749 35.0256C30.3185 34.3692 29.4283 34.0005 28.5 34.0005ZM28.5 39.0005C28.2034 39.0005 27.9133 38.9126 27.6667 38.7477C27.42 38.5829 27.2277 38.3486 27.1142 38.0745C27.0007 37.8005 26.971 37.4989 27.0288 37.2079C27.0867 36.9169 27.2296 36.6496 27.4394 36.4398C27.6491 36.2301 27.9164 36.0872 28.2074 36.0293C28.4984 35.9715 28.8 36.0012 29.0741 36.1147C29.3482 36.2282 29.5824 36.4205 29.7472 36.6672C29.9121 36.9138 30 37.2038 30 37.5005C30 37.8983 29.842 38.2799 29.5607 38.5612C29.2794 38.8425 28.8979 39.0005 28.5 39.0005Z" fill="black"/>
</svg>
