<svg width="68" height="68" viewBox="0 0 68 68" fill="none" xmlns="http://www.w3.org/2000/svg">
<path fill-rule="evenodd" clip-rule="evenodd" d="M49.0327 32.4185C49.0357 31.6725 49.6405 31.074 50.3839 31.074H60.329C60.686 31.074 61.0282 31.2155 61.2819 31.4661C61.5327 31.7197 61.6743 32.0618 61.6743 32.4185V51.0629H66.9227C67.3327 51.0629 67.7074 51.2959 67.8903 51.6644C68.0703 52.033 68.026 52.4724 67.7782 52.7997L56.4495 67.481C56.1928 67.8083 55.8004 68 55.3844 68C54.9684 68 54.5731 67.8083 54.3194 67.481L42.9907 52.7997C42.7399 52.4812 42.6868 52.0507 42.8579 51.6851C43.0261 51.3165 43.386 51.0776 43.7902 51.0629H49.0327L49.0327 32.4185ZM36.9933 66.0922C38.2294 65.9654 39.2355 65.0455 39.4714 63.8276C40.0969 60.5664 41.9702 58.0689 44.9381 57.6973L41.8345 53.6959C41.2445 52.944 41.1324 51.9208 41.5484 51.0598C41.9643 50.1988 42.8346 49.6503 43.7905 49.6415H47.6199V44.3958C47.1537 45.0003 46.6492 45.5723 46.1094 46.1089C42.2211 49.9894 36.7957 51.9237 31.3292 51.3783C25.8625 50.8328 20.9271 47.8635 17.882 43.2899C14.8404 38.7194 14.0084 33.0223 15.6192 27.7707C17.23 22.5191 21.1095 18.2669 26.1927 16.182C31.2788 14.1002 37.029 14.4039 41.864 17.0136C46.6994 19.6231 50.1098 24.2615 51.1544 29.6545H60.3291C61.8573 29.6545 63.0935 30.89 63.0935 32.4175V39.5798L63.8487 39.4147C65.0671 39.1788 65.9846 38.1763 66.1144 36.9467C66.4036 34.4196 66.4036 31.869 66.1144 29.3452C65.9876 28.1097 65.0671 27.1042 63.8487 26.8683C61.1139 26.3317 59.0074 24.9576 58.1313 22.8522C57.255 20.7469 57.7772 18.27 59.3409 15.9612C60.0548 14.935 60.0047 13.5639 59.2199 12.5938C57.6238 10.5739 55.8007 8.74867 53.7827 7.15055C52.8121 6.36029 51.4344 6.31016 50.4077 7.02376C48.0977 8.58655 45.6284 9.11435 43.5131 8.23275C41.3978 7.34812 40.0171 5.21329 39.4891 2.48869L39.4861 2.48574C39.2501 1.26792 38.2441 0.347966 37.008 0.221149C34.4531 -0.0737162 31.8746 -0.0737162 29.3196 0.221149C28.0864 0.347943 27.0804 1.26792 26.8503 2.48574C26.3222 5.2339 24.9474 7.35401 22.8262 8.2298C20.7051 9.10559 18.2358 8.58364 15.9228 7.02081V7.02376C14.8961 6.31018 13.5214 6.36325 12.5537 7.15055C10.5358 8.74875 8.70968 10.574 7.11656 12.5938C6.33473 13.5639 6.28164 14.9321 6.98675 15.9612C8.55034 18.27 9.07841 20.738 8.20225 22.8522C7.32608 24.9665 5.18126 26.3317 2.4848 26.8683C1.26635 27.1013 0.345934 28.1097 0.219052 29.3452C-0.0730173 31.8693 -0.0730173 34.4199 0.219052 36.9467C0.345911 38.1792 1.26635 39.1818 2.4848 39.4147C5.21079 39.9514 7.32608 41.3254 8.20225 43.4308C9.07849 45.5362 8.55037 48.0131 6.98675 50.3219C6.28166 51.348 6.33476 52.7162 7.11656 53.6893C8.70968 55.7091 10.5358 57.5373 12.5537 59.1385C13.5244 59.9228 14.8962 59.97 15.9228 59.2594C18.2328 57.6966 20.7109 57.1688 22.8262 58.0504C24.9415 58.935 26.3222 61.0698 26.8503 63.7944C27.0804 65.0152 28.0864 65.9351 29.3196 66.059C31.8744 66.3539 34.4529 66.3539 37.008 66.059L36.9933 66.0922ZM28.5496 39.8139C28.4139 39.4719 28.5644 39.0797 28.8948 38.9175C29.2252 38.7524 29.6294 38.8703 29.8183 39.1888C30.1192 39.811 30.5912 40.3329 31.1783 40.6985C32.3171 41.3974 33.7449 41.4268 34.9103 40.7752C36.0786 40.1235 36.8014 38.8939 36.8043 37.5582C36.8043 36.7119 36.4709 35.8981 35.875 35.2936C35.1581 34.5505 34.2288 34.0404 33.2169 33.8369C31.9247 33.5745 30.7388 32.9376 29.8094 32.0028C28.9627 31.133 28.4877 29.9653 28.4877 28.7475C28.4907 26.2028 30.3641 24.0473 32.8835 23.6905V22.1808C32.8835 21.7886 33.2021 21.4731 33.5945 21.4731C33.9869 21.4731 34.3055 21.7886 34.3055 22.1808V23.6905C35.9547 23.9294 37.3884 24.9526 38.1496 26.4387C38.2853 26.7837 38.1348 27.1729 37.8044 27.338C37.471 27.5002 37.0698 27.3822 36.8809 27.0638C36.2585 25.8136 34.9781 25.0263 33.5797 25.0351C31.5441 25.0351 29.8949 26.6834 29.8949 28.718C29.8949 29.5643 30.2283 30.3781 30.8213 30.9826C31.5411 31.7433 32.4734 32.2652 33.4971 32.4776C34.7893 32.7371 35.9753 33.3769 36.9016 34.3117C37.7513 35.1815 38.2263 36.3492 38.2233 37.5641C38.2233 40.1088 36.3499 42.2673 33.8276 42.624V44.1337C33.8276 44.5259 33.5119 44.8414 33.1195 44.8414C32.7271 44.8414 32.4085 44.5259 32.4085 44.1337V42.624C30.7446 42.3822 29.3049 41.3443 28.5497 39.8463L28.5496 39.8139ZM49.6966 29.735V29.7379C48.6286 24.56 45.1946 20.1814 40.4214 17.9077C35.645 15.6313 30.0813 15.7228 25.3844 18.1524C20.6875 20.5821 17.4014 25.0701 16.5012 30.2801C15.6014 35.4904 17.1974 40.8187 20.8084 44.6814C24.4194 48.5412 29.6327 50.4903 34.8923 49.9448C40.1524 49.4022 44.8548 46.424 47.5956 41.904V32.4184C47.5956 31.1387 48.4747 30.0299 49.7197 29.738L49.6966 29.735Z" fill="#6524EB"/>
</svg>
