<svg width="42" height="42" viewBox="0 0 42 42" fill="none" xmlns="http://www.w3.org/2000/svg">
<path d="M7.21899 20.4457H0.522057C0.233796 20.4457 0 20.6795 0 20.9678V31.3496C0 31.6378 0.233774 31.8717 0.522057 31.8717H7.21719C7.50545 31.8717 7.73924 31.6379 7.73924 31.3496L7.741 20.9678C7.741 20.6795 7.50727 20.4457 7.21899 20.4457ZM6.69693 30.8256H1.04438V21.4933H6.69558L6.69693 30.8256ZM17.3433 12.709H10.6463C10.3581 12.709 10.1243 12.9428 10.1243 13.2311V31.3496C10.1243 31.6378 10.358 31.8717 10.6463 31.8717H17.3415C17.6297 31.8717 17.8635 31.6379 17.8635 31.3496L17.8653 13.2311C17.8688 12.9429 17.6351 12.709 17.3433 12.709ZM16.8212 30.8256H11.1736V13.7531H16.8248V30.8256H16.8212ZM1.54511 14.6076C1.35176 14.3967 1.36583 14.0627 1.57675 13.8694L13.4236 3.0056C13.617 2.8263 13.9193 2.82103 14.1162 2.99681L23.4706 11.0304L34.6583 1.04421H31.8372C31.5489 1.04421 31.3151 0.810414 31.3151 0.522105C31.3151 0.233795 31.5489 0 31.8372 0H36.031C36.3193 0 36.5531 0.233795 36.5531 0.522105V4.71636C36.5531 5.00464 36.3193 5.23846 36.031 5.23846C35.7428 5.23846 35.509 5.00467 35.509 4.71636L35.5072 1.69281L23.8273 12.1151C23.634 12.2909 23.3369 12.2909 23.1383 12.1204L13.7875 4.09215L2.28167 14.6395C2.18324 14.7292 2.05669 14.7784 1.93013 14.7784C1.78776 14.7802 1.64706 14.7201 1.54511 14.6076ZM38.1175 23.1264V10.162C38.1175 9.87368 37.8837 9.63987 37.5954 9.63987H30.9003C30.612 9.63987 30.3782 9.87366 30.3782 10.162V20.7319C29.5556 20.8092 28.7541 20.9745 27.993 21.2276V17.9246C27.993 17.6363 27.7592 17.4025 27.471 17.4025H20.7758C20.4876 17.4025 20.2538 17.6363 20.2538 17.9246V31.344C20.2538 31.6094 20.4524 31.8256 20.7037 31.8608C20.9744 37.4999 25.6444 42 31.3447 42C37.2209 42 42 37.2204 42 31.3437C42.0018 28.0407 40.4884 25.084 38.1172 23.1256L38.1175 23.1264ZM31.4223 10.6876H37.0735V22.365C35.4406 21.3208 33.5001 20.7091 31.4223 20.6915V10.6876ZM21.298 18.4503H26.9492V21.6408C24.3267 22.8326 22.2704 25.0616 21.298 27.797V18.4503ZM31.3449 40.9613C26.0438 40.9613 21.734 36.651 21.734 31.3495C21.734 26.0479 26.0439 21.7376 31.3449 21.7376C36.646 21.7376 40.9559 26.0479 40.9559 31.3495C40.9576 36.6493 36.646 40.9613 31.3449 40.9613ZM31.3449 23.2929C26.9032 23.2929 23.2913 26.907 23.2913 31.3472C23.2913 35.7893 26.9052 39.4015 31.3449 39.4015C35.7867 39.4015 39.3985 35.7874 39.3985 31.3472C39.4003 26.9068 35.7865 23.2929 31.3449 23.2929ZM37.6585 34.3902L37.0784 34.0527C36.8271 33.9085 36.5072 33.9947 36.3631 34.2461C36.2189 34.4974 36.3051 34.8173 36.5564 34.9615L37.1365 35.2937C36.6408 36.018 36.0168 36.6438 35.2909 37.1395L34.9587 36.5594C34.8145 36.308 34.4947 36.2219 34.2433 36.366C33.992 36.5102 33.9058 36.8301 34.05 37.0814L34.3874 37.6616C33.614 38.0342 32.7633 38.2698 31.8669 38.3366V37.6668C31.8669 37.3785 31.6331 37.1447 31.3448 37.1447C31.0565 37.1447 30.8228 37.3785 30.8228 37.6668V38.3366C29.9281 38.2698 29.0774 38.0342 28.3022 37.6616L28.6397 37.0814C28.7838 36.8301 28.6977 36.5102 28.4463 36.366C28.195 36.2219 27.8751 36.308 27.731 36.5594L27.3988 37.1395C26.6746 36.6438 26.0488 36.0197 25.5532 35.2937L26.1332 34.9615C26.3846 34.8173 26.4707 34.4974 26.3266 34.2461C26.1824 33.9947 25.8625 33.9085 25.6112 34.0527L25.0311 34.3902C24.6585 33.6167 24.423 32.7659 24.3562 31.8694H25.0259C25.3141 31.8694 25.5479 31.6356 25.5479 31.3473C25.5479 31.059 25.3142 30.8252 25.0259 30.8252H24.3562C24.423 29.9304 24.6585 29.0796 25.0311 28.3044L25.6112 28.6419C25.692 28.6911 25.7817 28.714 25.8713 28.714C26.0506 28.714 26.2264 28.6191 26.3266 28.4538C26.4707 28.2025 26.3846 27.8825 26.1332 27.7384L25.5532 27.4062C26.0488 26.6819 26.6728 26.0561 27.3988 25.5604L27.731 26.1405C27.8294 26.3075 28.0052 26.4007 28.1862 26.4007C28.2758 26.4007 28.3655 26.3778 28.4463 26.3286C28.6977 26.1844 28.7838 25.8645 28.6397 25.6132L28.3022 25.0331C29.0756 24.6604 29.9263 24.4248 30.8228 24.358V25.0278C30.8228 25.3161 31.0565 25.5499 31.3448 25.5499C31.6331 25.5499 31.8669 25.3161 31.8669 25.0278V24.358C32.7616 24.4248 33.6123 24.6604 34.3875 25.0331L34.05 25.6149C33.9058 25.8663 33.992 26.1862 34.2433 26.3303C34.3242 26.3796 34.4138 26.4024 34.5035 26.4024C34.6827 26.4024 34.8585 26.3075 34.9587 26.1423L35.2909 25.5621C36.0151 26.0579 36.6408 26.6819 37.1365 27.4079L36.5564 27.7402C36.3051 27.8843 36.219 28.2042 36.3631 28.4556C36.4615 28.6226 36.6373 28.7157 36.8183 28.7157C36.908 28.7157 36.9976 28.6929 37.0785 28.6437L37.6585 28.3062C38.0312 29.0796 38.2667 29.9304 38.3335 30.827H37.6638C37.3755 30.827 37.1417 31.0607 37.1417 31.3491C37.1417 31.6373 37.3755 31.8712 37.6638 31.8712H38.3335C38.2667 32.7659 38.0329 33.6167 37.6585 34.3902ZM34.5227 31.3473C34.5227 31.6356 34.289 31.8695 34.0007 31.8695H31.3466C31.0583 31.8695 30.8245 31.6357 30.8245 31.3473V27.4097C30.8245 27.1214 31.0583 26.8876 31.3466 26.8876C31.6348 26.8876 31.8686 27.1214 31.8686 27.4097V30.8252H34.0007C34.289 30.8252 34.5227 31.0608 34.5227 31.3473Z" fill="#25242C"/>
</svg>
