<svg width="57" height="56" viewBox="0 0 57 56" fill="none" xmlns="http://www.w3.org/2000/svg">
<path fill-rule="evenodd" clip-rule="evenodd" d="M31.3224 14.3504C32.519 14.6833 33.6537 15.1533 34.7148 15.7435C35.0789 15.9477 35.4994 15.9281 35.8438 15.6903L37.7149 14.4063C38.1411 14.1126 38.7084 14.163 39.0753 14.5266L41.844 17.2708C42.2109 17.6344 42.2617 18.1939 41.9653 18.6191L40.667 20.4737C40.43 20.815 40.4102 21.2318 40.6134 21.5926C41.2089 22.6416 41.6859 23.769 42.0189 24.9522C42.1318 25.3494 42.4423 25.632 42.8543 25.7075L45.0924 26.1103C45.6033 26.2026 45.9673 26.6334 45.9673 27.1481V31.028C45.9673 31.5427 45.6033 31.9735 45.0924 32.0658L42.8543 32.4686C42.4422 32.5414 42.1318 32.8239 42.0189 33.2239C41.6831 34.41 41.2089 35.5346 40.6134 36.5863C40.4074 36.9472 40.4271 37.364 40.667 37.7053L41.9625 39.5599C42.2589 39.9822 42.2081 40.5445 41.8412 40.9082L39.0725 43.6523C38.7056 44.016 38.1411 44.0663 37.7121 43.7726L35.8409 42.4858C35.4966 42.2508 35.0761 42.2313 34.712 42.4327C33.6537 43.0229 32.5162 43.4957 31.3196 43.8257C30.9188 43.9376 30.6338 44.2453 30.5604 44.6537L30.1539 46.872C30.0608 47.3783 29.6262 47.7392 29.1069 47.7392H25.1895C24.6702 47.7392 24.2355 47.3783 24.1424 46.872L23.736 44.6537C23.6626 44.2453 23.3775 43.9376 22.9739 43.8257C21.7773 43.4928 20.6427 43.0229 19.5815 42.4327C19.2174 42.2285 18.7969 42.248 18.4526 42.4858L16.5814 43.7698C16.1552 44.0635 15.5879 44.0132 15.221 43.6495L12.4524 40.9054C12.0855 40.5417 12.0347 39.9822 12.331 39.5571L13.6293 37.7025C13.8664 37.3612 13.8861 36.9444 13.6829 36.5835C13.0874 35.5346 12.6104 34.4072 12.2774 33.2211C12.1645 32.8239 11.854 32.5414 11.442 32.4686L9.20388 32.0658C8.69304 31.9735 8.32899 31.5427 8.32899 31.028V27.1481C8.32899 26.6334 8.69307 26.2026 9.20388 26.1103L11.442 25.7075C11.8541 25.6348 12.1645 25.3522 12.2774 24.9522C12.6133 23.7662 13.0874 22.6416 13.6829 21.5898C13.8889 21.229 13.8692 20.8122 13.6293 20.4709L12.3338 18.6163C12.0375 18.1939 12.0883 17.6316 12.4552 17.268L15.2239 14.5238C15.5908 14.1602 16.1553 14.1098 16.5842 14.4035L18.4554 15.6903C18.7997 15.9253 19.2202 15.9449 19.5843 15.7435C20.6427 15.1532 21.7801 14.6805 22.9768 14.3504C23.3775 14.2385 23.6626 13.9308 23.736 13.5224L24.1424 11.3041C24.2355 10.7978 24.6702 10.437 25.1895 10.437H29.1041C29.6234 10.437 30.058 10.7978 30.1511 11.3041L30.5575 13.5224C30.6366 13.9281 30.9216 14.2386 31.3224 14.3504ZM27.151 20.7703C22.5139 20.7703 18.7547 24.4963 18.7547 29.0923C18.7547 33.6883 22.514 37.4143 27.151 37.4143C31.7881 37.4143 35.5474 33.6882 35.5474 29.0923C35.5474 24.4934 31.7881 20.7703 27.151 20.7703ZM27.151 0C28.8839 0 30.2895 1.39306 30.2895 3.11067C30.2895 4.82821 28.884 6.22134 27.151 6.22134C25.4181 6.22134 24.0126 4.82828 24.0126 3.11067C24.0126 1.39313 25.4181 0 27.151 0ZM49.851 38.9725C51.5839 38.9725 52.9895 40.3656 52.9895 42.0832C52.9895 43.8007 51.584 45.1939 49.851 45.1939C48.1182 45.1939 46.7126 43.8008 46.7126 42.0832C46.7126 40.3629 48.1181 38.9725 49.851 38.9725ZM4.45099 38.9725C6.18387 38.9725 7.58946 40.3656 7.58946 42.0832C7.58946 43.8007 6.18395 45.1939 4.45099 45.1939C2.71811 45.1939 1.31252 43.8008 1.31252 42.0832C1.31252 40.3629 2.71803 38.9725 4.45099 38.9725ZM8.89895 51.776L8.87072 48.9843C11.1878 51.0767 13.8747 52.7775 16.8213 53.9803C20.0077 55.2811 23.4961 56 27.1511 56C30.854 56 34.3878 55.2643 37.6081 53.93C40.9526 52.5453 43.9556 50.5173 46.4647 47.9997C46.6961 47.7675 46.6933 47.3899 46.4591 47.1605C46.2248 46.9311 45.8438 46.9339 45.6123 47.1661C43.2162 49.569 40.3459 51.5075 37.1481 52.8307C34.0717 54.1035 30.6962 54.8084 27.1513 54.8084C23.6516 54.8084 20.3185 54.123 17.276 52.881C14.4875 51.7426 11.9446 50.1369 9.74301 48.1648L12.492 48.1368C12.8222 48.134 13.0875 47.8654 13.0847 47.541C13.0818 47.2137 12.8109 46.9507 12.4835 46.9535L8.25562 46.9955C7.92541 46.9983 7.66011 47.2668 7.66294 47.5913L7.70527 51.7817C7.70809 52.109 7.97904 52.372 8.30643 52.3692C8.63664 52.372 8.90177 52.1033 8.89895 51.776ZM56.0966 33.414L53.6807 34.8267C53.8528 34.0463 53.9883 33.2546 54.0899 32.4518C54.2282 31.3496 54.3016 30.2279 54.3016 29.0922C54.3016 22.9101 52.1961 17.2118 48.6541 12.6637C45.0359 8.01736 39.9189 4.57663 34.0174 3.05202C33.6984 2.9709 33.3711 3.16111 33.2892 3.47721C33.2074 3.79332 33.3993 4.1178 33.7182 4.19892C39.3544 5.65636 44.2482 8.94599 47.7054 13.3881C51.0866 17.7296 53.0989 23.176 53.0989 29.0897C53.0989 30.1806 53.0311 31.2548 52.8985 32.3067C52.8053 33.0451 52.6811 33.7753 52.5259 34.4942L51.126 32.1445C50.9567 31.8619 50.5898 31.7696 50.3048 31.9347C50.0197 32.1025 49.9266 32.4662 50.0931 32.7487L52.2437 36.3573C52.4131 36.6398 52.78 36.7321 53.065 36.5671L56.7059 34.4355C56.9909 34.2676 57.084 33.904 56.9175 33.6214C56.7482 33.3417 56.3817 33.2462 56.0966 33.414ZM16.4572 2.08104L18.8985 3.4461C13.5022 5.14967 8.83963 8.48126 5.4951 12.8566C2.04624 17.3687 0 22.9939 0 29.0895C0 30.3008 0.0818462 31.5008 0.242722 32.6869C0.403597 33.8842 0.646312 35.059 0.965238 36.2087C1.05273 36.5248 1.38012 36.7095 1.69903 36.6255C2.01795 36.5388 2.20422 36.2143 2.11955 35.8983C1.81756 34.8073 1.58613 33.6799 1.43091 32.5303C1.28133 31.4141 1.2023 30.2644 1.2023 29.0896C1.2023 23.2599 3.15815 17.8859 6.45463 13.5727C9.63537 9.4103 14.0663 6.2354 19.1948 4.60193L17.8372 6.98524C17.6764 7.27057 17.778 7.63142 18.0658 7.79087C18.3537 7.95033 18.7178 7.84962 18.8787 7.56429L20.9559 3.91374C21.1168 3.62841 21.0152 3.26756 20.7273 3.10811L17.0441 1.04927C16.7562 0.889819 16.3922 0.990526 16.2313 1.27586C16.0676 1.56119 16.1693 1.92159 16.4572 2.08104Z" fill="#20B1CC"/>
</svg>
