<svg width="60" height="60" viewBox="0 0 60 60" fill="none" xmlns="http://www.w3.org/2000/svg">
<path fill-rule="evenodd" clip-rule="evenodd" d="M32.9709 15.3754C34.2306 15.7321 35.4249 16.2356 36.5419 16.868C36.9252 17.0868 37.3678 17.0658 37.7303 16.8111L39.6999 15.4354C40.1485 15.1207 40.7457 15.1746 41.1319 15.5642L44.0463 18.5044C44.4325 18.894 44.486 19.4935 44.174 19.949L42.8074 21.9361C42.5579 22.3017 42.5371 22.7483 42.751 23.1349C43.3778 24.2588 43.8799 25.4668 44.2304 26.7345C44.3493 27.1601 44.6761 27.4628 45.1098 27.5437L47.4657 27.9753C48.0035 28.0742 48.3867 28.5358 48.3867 29.0873V33.2443C48.3867 33.7958 48.0034 34.2573 47.4657 34.3562L45.1098 34.7878C44.676 34.8658 44.3492 35.1685 44.2304 35.5971C43.8769 36.8678 43.3778 38.0727 42.751 39.1996C42.5341 39.5863 42.5549 40.0328 42.8074 40.3985L44.1711 42.3856C44.483 42.8381 44.4295 43.4406 44.0433 43.8302L41.1289 46.7703C40.7427 47.16 40.1485 47.2139 39.697 46.8992L37.7273 45.5205C37.3649 45.2688 36.9222 45.2478 36.539 45.4636C35.4249 46.096 34.2276 46.6025 32.968 46.9561C32.5461 47.076 32.2461 47.4057 32.1688 47.8433L31.741 50.22C31.6429 50.7625 31.1854 51.1491 30.6388 51.1491H26.5152C25.9686 51.1491 25.5111 50.7625 25.413 50.22L24.9852 47.8433C24.908 47.4057 24.6079 47.076 24.1831 46.9561C22.9235 46.5995 21.7291 46.096 20.6121 45.4636C20.2289 45.2448 19.7862 45.2658 19.4238 45.5205L17.4541 46.8962C17.0055 47.2109 16.4084 47.157 16.0221 46.7674L13.1077 43.8272C12.7215 43.4376 12.6681 42.8381 12.98 42.3826L14.3466 40.3955C14.5962 40.0298 14.617 39.5833 14.4031 39.1966C13.7762 38.0727 13.2741 36.8648 12.9236 35.5941C12.8047 35.1685 12.4779 34.8658 12.0442 34.7878L9.6883 34.3562C9.15057 34.2573 8.76736 33.7958 8.76736 33.2443V29.0873C8.76736 28.5358 9.1506 28.0742 9.6883 27.9753L12.0442 27.5437C12.478 27.4658 12.8048 27.1631 12.9236 26.7345C13.2771 25.4638 13.7762 24.2588 14.4031 23.132C14.6199 22.7453 14.5991 22.2988 14.3466 21.9331L12.983 19.946C12.671 19.4935 12.7245 18.891 13.1107 18.5014L16.0251 15.5612C16.4113 15.1716 17.0055 15.1177 17.4571 15.4324L19.4267 16.8111C19.7892 17.0628 20.2318 17.0838 20.6151 16.868C21.7291 16.2356 22.9264 15.7291 24.1861 15.3754C24.6079 15.2556 24.908 14.9259 24.9852 14.4883L25.413 12.1116C25.5111 11.5691 25.9686 11.1825 26.5152 11.1825H30.6358C31.1825 11.1825 31.64 11.5691 31.738 12.1116L32.1658 14.4883C32.249 14.9229 32.5491 15.2556 32.9709 15.3754ZM28.58 22.2539C23.6988 22.2539 19.7417 26.246 19.7417 31.1703C19.7417 36.0946 23.6989 40.0867 28.58 40.0867C33.4612 40.0867 37.4183 36.0945 37.4183 31.1703C37.4183 26.243 33.4611 22.2539 28.58 22.2539ZM28.58 0C30.4041 0 31.8837 1.49257 31.8837 3.33286C31.8837 5.17308 30.4042 6.66572 28.58 6.66572C26.7559 6.66572 25.2764 5.17315 25.2764 3.33286C25.2764 1.49264 26.7559 0 28.58 0ZM52.4748 41.7563C54.2989 41.7563 55.7784 43.2488 55.7784 45.0891C55.7784 46.9294 54.2989 48.422 52.4748 48.422C50.6507 48.422 49.1711 46.9294 49.1711 45.0891C49.1711 43.2459 50.6506 41.7563 52.4748 41.7563ZM4.68525 41.7563C6.50934 41.7563 7.9889 43.2488 7.9889 45.0891C7.9889 46.9294 6.50942 48.422 4.68525 48.422C2.86117 48.422 1.3816 46.9294 1.3816 45.0891C1.3816 43.2459 2.86109 41.7563 4.68525 41.7563ZM9.36731 55.4743L9.3376 52.4832C11.7767 54.725 14.605 56.5473 17.7066 57.8361C21.0608 59.2297 24.7328 60 28.5801 60C32.4779 60 36.1977 59.2118 39.5875 57.7821C43.108 56.2985 46.269 54.1256 48.9102 51.4282C49.1538 51.1795 49.1509 50.7749 48.9043 50.5291C48.6577 50.2833 48.2566 50.2863 48.013 50.5351C45.4907 53.1096 42.4693 55.1866 39.1032 56.6043C35.865 57.968 32.3118 58.7233 28.5803 58.7233C24.8964 58.7233 21.3879 57.989 18.1852 56.6583C15.25 55.4385 12.5733 53.7181 10.2558 51.6051L13.1494 51.5751C13.497 51.5721 13.7763 51.2844 13.7733 50.9367C13.7704 50.5861 13.4851 50.3043 13.1405 50.3073L8.69013 50.3523C8.34254 50.3553 8.06327 50.643 8.06625 50.9907L8.11081 55.4804C8.11378 55.8311 8.39899 56.1128 8.74361 56.1098C9.0912 56.1128 9.37029 55.8249 9.36731 55.4743ZM59.0491 35.8007L56.506 37.3143C56.6872 36.4782 56.8298 35.63 56.9367 34.7698C57.0823 33.5889 57.1596 32.387 57.1596 31.1702C57.1596 24.5465 54.9433 18.4412 51.2149 13.5683C47.4062 8.59003 42.0199 4.90354 35.8078 3.27002C35.472 3.18311 35.1274 3.38691 35.0413 3.72559C34.9551 4.06427 35.1571 4.41193 35.4929 4.49884C41.4257 6.06039 46.577 9.58499 50.2162 14.3444C53.7753 18.996 55.8935 24.8315 55.8935 31.1676C55.8935 32.3364 55.8222 33.4873 55.6826 34.6143C55.5846 35.4055 55.4538 36.1878 55.2904 36.9581L53.8169 34.4405C53.6386 34.1378 53.2524 34.0389 52.9524 34.2157C52.6523 34.3955 52.5543 34.7852 52.7296 35.0879L54.9934 38.9542C55.1717 39.2569 55.5579 39.3558 55.8579 39.179L59.6904 36.8951C59.9904 36.7153 60.0885 36.3257 59.9132 36.023C59.7349 35.7233 59.3491 35.6209 59.0491 35.8007ZM17.3234 2.22968L19.8932 3.69225C14.2128 5.5175 9.30487 9.08707 5.78432 13.7749C2.15394 18.6093 0 24.6364 0 31.1674C0 32.4651 0.0861539 33.7509 0.255497 35.0217C0.424839 36.3045 0.680329 37.5632 1.01604 38.7951C1.10813 39.1338 1.45276 39.3316 1.78845 39.2417C2.12416 39.1488 2.32024 38.8011 2.23111 38.4624C1.91322 37.2936 1.66961 36.0857 1.50622 34.8539C1.34876 33.658 1.26557 32.4262 1.26557 31.1674C1.26557 24.9214 3.32437 19.1635 6.79435 14.5422C10.1425 10.0825 14.8067 6.68078 20.205 4.93064L18.776 7.48419C18.6067 7.7899 18.7136 8.17653 19.0167 8.34737C19.3197 8.51821 19.7029 8.41031 19.8723 8.10459L22.0589 4.19329C22.2282 3.88758 22.1212 3.50095 21.8182 3.33011L17.9412 1.12422C17.6382 0.953377 17.2549 1.06128 17.0856 1.36699C16.9133 1.6727 17.0203 2.05884 17.3234 2.22968Z" fill="#20B1CC"/>
</svg>
