<svg width="49" height="55" viewBox="0 0 49 55" fill="none" xmlns="http://www.w3.org/2000/svg">
<path d="M24.4999 0C21.3757 0 18.843 2.54061 18.843 5.67465C18.843 8.17638 20.4569 10.3 22.6971 11.055V14.9967C22.5317 15.0678 22.3694 15.1492 22.2113 15.2408L15.0603 19.3824C14.9023 19.474 14.7511 19.5741 14.607 19.6821L11.2041 17.7113C11.6723 15.3876 10.6459 12.9239 8.48617 11.6731C5.78055 10.106 2.32093 11.0359 0.758831 13.7501C-0.803269 16.4642 0.123712 19.9348 2.82933 21.5019C4.98882 22.7525 7.62854 22.4126 9.40052 20.8445L12.8036 22.8154C12.7823 22.9946 12.7714 23.1762 12.7714 23.3593V31.6426C12.7714 31.8256 12.7823 32.0069 12.8035 32.186L9.40163 34.1563C7.62965 32.5876 4.98951 32.2475 2.82975 33.4983C0.124129 35.0653 -0.802853 38.5359 0.759247 41.25C2.32135 43.9642 5.78097 44.8941 8.48658 43.3271C10.646 42.0764 11.6724 39.6132 11.2047 37.2897L14.6066 35.3195C14.7507 35.4277 14.9021 35.5279 15.0603 35.6195L22.2113 39.7612C22.3694 39.8528 22.5317 39.9341 22.6971 40.0053V43.945C20.4569 44.7 18.843 46.8236 18.843 49.3253C18.843 52.4594 21.3757 55 24.4999 55C27.6241 55 30.1567 52.4594 30.1567 49.3253C30.1567 46.824 28.5434 44.7007 26.3038 43.9453V40.0051C26.469 39.934 26.6311 39.8527 26.789 39.7612L33.94 35.6195C34.0983 35.5278 34.2498 35.4275 34.394 35.3193L37.7954 37.2893C37.3274 39.613 38.3538 42.0765 40.5134 43.3273C43.2191 44.8944 46.6787 43.9644 48.2408 41.2502C49.8029 38.5362 48.8758 35.0656 46.1702 33.4985C44.0107 32.2478 41.3708 32.5878 39.5989 34.1561L36.1968 32.1858C36.218 32.0068 36.2289 31.8255 36.2289 31.6426V23.3593C36.2289 23.176 36.218 22.9943 36.1967 22.8149L39.5994 20.8442C41.3714 22.4123 44.0112 22.7522 46.1706 21.5016C48.8762 19.9346 49.8033 16.464 48.2412 13.7498C46.6791 11.0357 43.2195 10.1058 40.5139 11.6728C38.3542 12.9236 37.3277 15.3873 37.7959 17.711L34.3929 19.6819C34.249 19.5739 34.098 19.4739 33.94 19.3824L26.789 15.2408C26.6311 15.1493 26.469 15.068 26.3038 14.9969V11.0547C28.5434 10.2993 30.1567 8.17596 30.1567 5.67465C30.1567 2.54061 27.6241 0 24.4999 0Z" fill="#20B1CC"/>
</svg>
