<svg width="268" height="288" viewBox="0 0 268 288" fill="none" xmlns="http://www.w3.org/2000/svg">
<g filter="url(#filter0_d_4163_3281)">
<path fill-rule="evenodd" clip-rule="evenodd" d="M123.067 60H190.653V104.177C190.653 105.96 192.095 107.404 193.876 107.404H238V235.895C238 248.047 228.067 257.983 215.938 257.983L117.062 258C104.924 258 95 248.064 95 235.912V137.468C112.974 133.706 129.726 122.513 135.732 104.536C141.169 88.2644 135.605 71.3555 123.068 60.0026L123.067 60ZM197.107 63.235V100.95H234.777L197.107 63.235ZM132.456 127.989L162.331 159.198V140.387H181.441C189.101 140.387 195.751 144.965 198.788 151.521C199.203 152.412 200.552 152.115 200.552 151.13V134.714C200.552 124.192 191.951 115.581 181.441 115.581H162.331V96.7702L132.456 127.989ZM122.464 180.082H210.542C212.323 180.082 213.765 178.638 213.765 176.854C213.765 175.071 212.323 173.627 210.542 173.627L122.464 173.619C120.683 173.619 119.241 175.062 119.241 176.846C119.241 178.638 120.683 180.082 122.464 180.082ZM122.464 202.272H210.542C212.323 202.272 213.765 200.828 213.765 199.045C213.765 197.261 212.323 195.818 210.542 195.818L122.464 195.809C120.683 195.809 119.241 197.253 119.241 199.036C119.241 200.82 120.683 202.272 122.464 202.272ZM122.464 224.454H210.542C212.323 224.454 213.765 223.01 213.765 221.227C213.765 219.443 212.323 218 210.542 218L122.464 217.991C120.683 217.991 119.241 219.435 119.241 221.218C119.241 223.01 120.683 224.454 122.464 224.454Z" fill="#6524EB"/>
</g>
<g filter="url(#filter1_d_4163_3281)">
<rect x="30" y="30" width="112" height="112" rx="56" fill="white" shape-rendering="crispEdges"/>
<path fill-rule="evenodd" clip-rule="evenodd" d="M86 69.1719C87.1046 69.1719 88 70.0673 88 71.1719V80.0519C88 81.1564 87.1046 82.0519 86 82.0519C84.8954 82.0519 84 81.1564 84 80.0519V71.1719C84 70.0673 84.8954 69.1719 86 69.1719Z" fill="#6524EB"/>
<path fill-rule="evenodd" clip-rule="evenodd" d="M66.2934 77.092C66.2934 66.1741 75.1355 57.332 86.0533 57.332C96.9189 57.332 105.81 66.2273 105.84 77.0866L105.84 77.0893V82.692C105.84 83.3491 105.985 84.2957 106.258 85.2919C106.533 86.289 106.892 87.1747 107.232 87.7387L107.234 87.7415L110.622 93.3976L110.623 93.3984C113.222 97.7422 111.159 103.383 106.339 104.989L106.338 104.99L106.338 104.99C93.1814 109.366 78.9519 109.366 65.7954 104.99L65.7948 104.99L65.7942 104.989C63.3513 104.175 61.5395 102.471 60.7306 100.282C59.922 98.093 60.1889 95.618 61.5082 93.4022L61.5096 93.3999L64.8993 87.7415L64.901 87.7387C65.2428 87.1723 65.602 86.2915 65.8753 85.3004C66.1483 84.3103 66.2934 83.3635 66.2934 82.692V77.092ZM86.0533 61.332C77.3446 61.332 70.2934 68.3833 70.2934 77.092V82.692C70.2934 83.8339 70.065 85.1538 69.7314 86.3637C69.3984 87.5712 68.9183 88.8224 68.3276 89.8022C68.327 89.8033 68.3264 89.8043 68.3257 89.8054L64.9451 95.4486C64.9447 95.4492 64.9443 95.4499 64.9439 95.4506C64.1844 96.7274 64.1315 97.9449 64.4828 98.8956C64.8339 99.846 65.6621 100.729 67.0591 101.195C79.3953 105.298 92.738 105.298 105.074 101.195C107.454 100.401 108.485 97.6152 107.19 95.4523L103.808 89.8054C103.807 89.8046 103.807 89.8039 103.806 89.8032C103.214 88.8208 102.734 87.5608 102.402 86.3522C102.069 85.1417 101.84 83.8217 101.84 82.692V77.0949C101.815 68.4353 94.7068 61.332 86.0533 61.332Z" fill="#6524EB"/>
<path fill-rule="evenodd" clip-rule="evenodd" d="M79.1191 104.188C79.1191 106.054 79.9005 107.794 81.1467 109.04L81.1467 109.04C82.3928 110.286 84.1321 111.067 85.999 111.067C89.7745 111.067 92.879 107.963 92.879 104.188H96.879C96.879 110.172 91.9836 115.067 85.999 115.067C83.0126 115.067 80.272 113.822 78.3183 111.868M78.3182 111.868C76.3644 109.915 75.1191 107.174 75.1191 104.188H79.1191" fill="#6524EB"/>
</g>
<defs>
<filter id="filter0_d_4163_3281" x="65" y="30" width="203" height="258" filterUnits="userSpaceOnUse" color-interpolation-filters="sRGB">
<feFlood flood-opacity="0" result="BackgroundImageFix"/>
<feColorMatrix in="SourceAlpha" type="matrix" values="0 0 0 0 0 0 0 0 0 0 0 0 0 0 0 0 0 0 127 0" result="hardAlpha"/>
<feOffset/>
<feGaussianBlur stdDeviation="15"/>
<feComposite in2="hardAlpha" operator="out"/>
<feColorMatrix type="matrix" values="0 0 0 0 0 0 0 0 0 0 0 0 0 0 0 0 0 0 0.05 0"/>
<feBlend mode="normal" in2="BackgroundImageFix" result="effect1_dropShadow_4163_3281"/>
<feBlend mode="normal" in="SourceGraphic" in2="effect1_dropShadow_4163_3281" result="shape"/>
</filter>
<filter id="filter1_d_4163_3281" x="0" y="0" width="172" height="172" filterUnits="userSpaceOnUse" color-interpolation-filters="sRGB">
<feFlood flood-opacity="0" result="BackgroundImageFix"/>
<feColorMatrix in="SourceAlpha" type="matrix" values="0 0 0 0 0 0 0 0 0 0 0 0 0 0 0 0 0 0 127 0" result="hardAlpha"/>
<feOffset/>
<feGaussianBlur stdDeviation="15"/>
<feComposite in2="hardAlpha" operator="out"/>
<feColorMatrix type="matrix" values="0 0 0 0 0 0 0 0 0 0 0 0 0 0 0 0 0 0 0.05 0"/>
<feBlend mode="normal" in2="BackgroundImageFix" result="effect1_dropShadow_4163_3281"/>
<feBlend mode="normal" in="SourceGraphic" in2="effect1_dropShadow_4163_3281" result="shape"/>
</filter>
</defs>
</svg>
