<svg width="750" height="227" viewBox="0 0 750 227" fill="none" xmlns="http://www.w3.org/2000/svg">
<ellipse cx="375" cy="44.5" rx="375" ry="44.5" fill="#7B52CF"/>
<path d="M623.449 74.5398C682.259 66.9221 723.759 56.9843 750 44C726.652 88.1481 706.341 127.863 688.225 164.881C686.286 168.897 684.31 172.914 682.37 176.896C681.455 178.766 679.882 180.29 677.942 181.224C632.051 203.281 517.692 227 375 227C232.307 227 117.945 203.281 72.0572 181.224C70.1176 180.29 68.544 178.766 67.629 176.896C65.6528 172.914 63.6766 168.898 61.7371 164.812C43.6585 127.866 23.3474 88.1507 0 44.0018C26.2395 56.986 67.7395 66.9237 126.551 74.5415C228.546 87.7687 342.506 88.8076 375.005 88.8076C407.505 88.8076 521.465 87.7688 623.46 74.5415L623.449 74.5398Z" fill="#936FE3"/>
</svg>
