<svg width="380" height="175" viewBox="0 0 380 175" fill="none" xmlns="http://www.w3.org/2000/svg">
<path d="M315.881 40.0488C345.678 34.4863 366.704 37.2294 380 27.748C368.17 59.9859 357.879 102.356 348.701 129.387C347.718 132.32 346.717 135.253 345.734 138.161C345.271 139.527 344.473 140.639 343.491 141.322C320.239 157.428 262.297 174.748 190 174.748C117.702 174.748 59.7585 157.428 36.509 141.322C35.5263 140.639 34.729 139.527 34.2654 138.161C33.2641 135.254 32.2628 132.321 31.2801 129.337C22.1203 102.358 11.8294 59.9878 0 27.7493C13.2947 37.2307 34.3214 34.4874 64.1191 40.0501C115.797 49.7088 173.536 50.4674 190.003 50.4674C206.469 50.4674 264.209 49.7089 315.887 40.0501L315.881 40.0488Z" fill="#4B15BA"/>
<ellipse cx="190" cy="25.6416" rx="190" ry="25.6416" fill="#7B52CF"/>
</svg>
