<svg width="544" height="181" viewBox="0 0 544 181" fill="none" xmlns="http://www.w3.org/2000/svg">
<path d="M452.208 54.2449C494.865 48.7367 524.966 41.5508 544 32.1621C527.065 64.0849 512.332 108.802 499.193 135.569C497.786 138.473 496.353 141.378 494.946 144.257C494.282 145.609 493.141 146.711 491.734 147.387C458.448 163.336 375.5 180.486 272 180.486C168.5 180.486 85.5491 163.336 52.2655 147.387C50.8587 146.711 49.7172 145.609 49.0536 144.257C47.6202 141.378 46.1868 138.474 44.7799 135.519C31.667 108.804 16.9347 64.0868 0 32.1634C19.0324 41.5521 49.1337 48.7378 91.7915 54.2462C165.772 63.8105 248.431 64.5617 272.004 64.5617C295.577 64.5617 378.236 63.8106 452.217 54.2462L452.208 54.2449Z" fill="#5523BE"/>
<ellipse cx="272" cy="32.6216" rx="272" ry="32.6216" fill="#7B52CF"/>
</svg>
