<svg width="262" height="194" viewBox="0 0 262 194" fill="none" xmlns="http://www.w3.org/2000/svg">
<path d="M217.792 42.03C238.336 39.3772 252.833 35.9163 262 31.3945C253.844 46.7691 246.748 154.077 240.42 166.968C239.743 168.367 239.052 169.766 238.375 171.153C238.055 171.804 237.505 172.334 236.828 172.66C220.796 180.341 180.847 193.262 131 193.262C81.1525 193.262 41.2019 180.341 25.172 172.66C24.4944 172.334 23.9447 171.804 23.6251 171.153C22.9347 169.766 22.2444 168.367 21.5668 166.944C15.2514 154.078 8.15604 46.77 0 31.3951C9.16634 35.9169 23.6637 39.3777 44.2084 42.0306C79.8389 46.637 119.649 46.9988 131.002 46.9988C142.355 46.9988 182.165 46.637 217.795 42.0306L217.792 42.03Z" fill="#34088E"/>
<path d="M262 29.9543C262 46.4976 203.349 69.6523 131 69.6523C58.6507 69.6523 0 46.4976 0 29.9543C0 13.411 58.6507 0 131 0C203.349 0 262 13.411 262 29.9543Z" fill="#5621C1"/>
</svg>
