<svg width="440" height="303" viewBox="0 0 440 303" fill="none" xmlns="http://www.w3.org/2000/svg">
<rect width="440" height="303" fill="white"/>
<path d="M0 93C0 73.1177 16.1177 57 36 57H404C423.882 57 440 73.1178 440 93V187H0V93Z" fill="url(#paint0_linear_3338_1408)"/>
<rect x="21" y="80" width="50" height="50" rx="25" fill="#F9F9F9"/>
<path fill-rule="evenodd" clip-rule="evenodd" d="M42.293 105.707C41.9025 105.317 41.9025 104.683 42.293 104.293L47.9499 98.636C48.3404 98.2455 48.9736 98.2455 49.3641 98.636C49.7546 99.0266 49.7546 99.6597 49.3641 100.05L44.4144 105L49.3641 109.95C49.7546 110.34 49.7546 110.973 49.3641 111.364C48.9736 111.754 48.3404 111.754 47.9499 111.364L42.293 105.707Z" fill="#0A0A0A" fill-opacity="0.9"/>
<rect x="370" y="79" width="50" height="50" rx="25" fill="#F9F9F9"/>
<path d="M390.887 106.196C390.696 105.772 390.412 105.397 390.055 105.1C389.698 104.803 389.278 104.591 388.827 104.48V96.7777C388.827 96.5795 388.749 96.3894 388.608 96.2492C388.468 96.109 388.278 96.0303 388.08 96.0303C387.882 96.0303 387.691 96.109 387.551 96.2492C387.411 96.3894 387.332 96.5795 387.332 96.7777V104.477C387.153 104.522 386.979 104.582 386.809 104.656C386.227 104.92 385.741 105.358 385.419 105.91C385.097 106.463 384.955 107.102 385.012 107.738C385.07 108.375 385.324 108.978 385.74 109.464C386.156 109.949 386.712 110.294 387.332 110.449V113.222C387.332 113.42 387.411 113.61 387.551 113.75C387.691 113.891 387.882 113.969 388.08 113.969C388.278 113.969 388.468 113.891 388.608 113.75C388.749 113.61 388.827 113.42 388.827 113.222V110.453C389.311 110.334 389.759 110.099 390.132 109.769C390.504 109.438 390.79 109.021 390.965 108.554C391.109 108.175 391.176 107.772 391.163 107.367C391.149 106.962 391.055 106.564 390.887 106.196ZM389.567 108.027C389.475 108.271 389.324 108.489 389.128 108.662C388.931 108.834 388.696 108.955 388.441 109.014C388.187 109.073 387.922 109.069 387.669 109.001C387.417 108.933 387.185 108.805 386.995 108.626C386.804 108.447 386.661 108.225 386.577 107.977C386.493 107.73 386.471 107.466 386.514 107.208C386.556 106.95 386.662 106.707 386.821 106.5C386.98 106.293 387.188 106.128 387.426 106.02C387.63 105.926 387.852 105.878 388.076 105.878C388.382 105.878 388.681 105.966 388.939 106.132C389.196 106.298 389.4 106.534 389.526 106.812C389.614 107.002 389.664 107.206 389.673 107.415C389.681 107.623 389.648 107.831 389.575 108.027H389.567Z" fill="#0A0A0A"/>
<path d="M404.715 106.196C404.525 105.772 404.24 105.397 403.883 105.1C403.526 104.803 403.107 104.591 402.655 104.48V96.7777C402.655 96.5795 402.577 96.3894 402.437 96.2492C402.296 96.109 402.106 96.0303 401.908 96.0303C401.71 96.0303 401.52 96.109 401.379 96.2492C401.239 96.3894 401.161 96.5795 401.161 96.7777V104.477C400.982 104.522 400.807 104.582 400.637 104.656C400.055 104.92 399.569 105.358 399.247 105.91C398.925 106.463 398.783 107.102 398.841 107.738C398.898 108.375 399.152 108.978 399.568 109.464C399.984 109.949 400.54 110.294 401.161 110.449V113.222C401.161 113.42 401.239 113.61 401.379 113.75C401.52 113.891 401.71 113.969 401.908 113.969C402.106 113.969 402.296 113.891 402.437 113.75C402.577 113.61 402.655 113.42 402.655 113.222V110.453C403.14 110.334 403.587 110.099 403.96 109.769C404.333 109.438 404.619 109.021 404.793 108.554C404.937 108.175 405.004 107.772 404.991 107.367C404.977 106.962 404.884 106.564 404.715 106.196ZM403.395 108.027C403.303 108.271 403.152 108.489 402.956 108.662C402.76 108.834 402.524 108.955 402.269 109.014C402.015 109.073 401.75 109.069 401.497 109.001C401.245 108.933 401.013 108.805 400.823 108.626C400.632 108.447 400.489 108.225 400.405 107.977C400.321 107.73 400.299 107.466 400.342 107.208C400.385 106.95 400.49 106.707 400.649 106.5C400.808 106.293 401.016 106.128 401.254 106.02C401.458 105.926 401.68 105.878 401.904 105.878C402.21 105.878 402.51 105.966 402.767 106.132C403.024 106.298 403.228 106.534 403.354 106.812C403.441 107.002 403.49 107.207 403.497 107.416C403.504 107.624 403.469 107.832 403.395 108.027Z" fill="#0A0A0A"/>
<path d="M396.081 99.7676C395.969 99.7265 395.857 99.6928 395.741 99.6629V96.7777C395.741 96.5795 395.663 96.3894 395.522 96.2492C395.382 96.109 395.192 96.0303 394.994 96.0303C394.796 96.0303 394.606 96.109 394.465 96.2492C394.325 96.3894 394.246 96.5795 394.246 96.7777V99.6741C393.809 99.7846 393.401 99.9895 393.052 100.275C392.702 100.56 392.419 100.918 392.223 101.324C392.026 101.73 391.921 102.174 391.915 102.625C391.909 103.076 392.002 103.523 392.187 103.935C392.353 104.304 392.59 104.637 392.885 104.914C393.18 105.191 393.527 105.407 393.906 105.549C394.018 105.59 394.134 105.624 394.246 105.654V113.222C394.246 113.42 394.325 113.61 394.465 113.75C394.606 113.891 394.796 113.969 394.994 113.969C395.192 113.969 395.382 113.891 395.522 113.75C395.663 113.61 395.741 113.42 395.741 113.222V105.65C395.921 105.607 396.096 105.547 396.265 105.471C396.824 105.222 397.297 104.812 397.623 104.293C397.949 103.774 398.112 103.17 398.092 102.558C398.073 101.945 397.871 101.353 397.513 100.856C397.154 100.359 396.656 99.9799 396.081 99.7676ZM396.493 103.225C396.382 103.519 396.186 103.773 395.931 103.956C395.675 104.139 395.371 104.242 395.057 104.252C394.743 104.262 394.433 104.178 394.166 104.012C393.9 103.846 393.688 103.604 393.559 103.318C393.45 103.076 393.403 102.811 393.422 102.546C393.442 102.282 393.528 102.026 393.671 101.803C393.815 101.58 394.013 101.397 394.246 101.27C394.479 101.142 394.74 101.076 395.005 101.076C395.197 101.076 395.386 101.11 395.566 101.177C395.759 101.251 395.936 101.363 396.086 101.506C396.236 101.649 396.356 101.82 396.44 102.01C396.529 102.199 396.58 102.403 396.588 102.612C396.597 102.821 396.565 103.029 396.493 103.225Z" fill="#0A0A0A"/>
<path d="M94.54 108.249C94.7013 108.249 94.8407 108.311 94.958 108.436L96.124 109.701C95.4787 110.5 94.683 111.113 93.737 111.538C92.7983 111.963 91.669 112.176 90.349 112.176C89.1683 112.176 88.105 111.974 87.159 111.571C86.2203 111.168 85.4173 110.607 84.75 109.888C84.0827 109.169 83.5693 108.311 83.21 107.314C82.858 106.317 82.682 105.228 82.682 104.047C82.682 102.852 82.88 101.759 83.276 100.769C83.672 99.7717 84.2293 98.9137 84.948 98.195C85.6667 97.4763 86.5247 96.919 87.522 96.523C88.5267 96.1197 89.634 95.918 90.844 95.918C92.0247 95.918 93.055 96.1087 93.935 96.49C94.8223 96.864 95.5813 97.3627 96.212 97.986L95.222 99.361C95.1633 99.449 95.0863 99.526 94.991 99.592C94.903 99.658 94.7783 99.691 94.617 99.691C94.4483 99.691 94.276 99.625 94.1 99.493C93.924 99.361 93.7003 99.218 93.429 99.064C93.1577 98.91 92.813 98.767 92.395 98.635C91.9843 98.503 91.46 98.437 90.822 98.437C90.074 98.437 89.3847 98.569 88.754 98.833C88.1307 99.0897 87.5917 99.46 87.137 99.944C86.6897 100.428 86.3377 101.018 86.081 101.715C85.8317 102.404 85.707 103.182 85.707 104.047C85.707 104.942 85.8317 105.737 86.081 106.434C86.3377 107.131 86.6823 107.717 87.115 108.194C87.5477 108.671 88.0573 109.037 88.644 109.294C89.2307 109.543 89.8613 109.668 90.536 109.668C90.9393 109.668 91.3023 109.646 91.625 109.602C91.955 109.558 92.2557 109.488 92.527 109.393C92.8057 109.298 93.066 109.177 93.308 109.03C93.5573 108.876 93.803 108.689 94.045 108.469C94.1183 108.403 94.1953 108.352 94.276 108.315C94.3567 108.271 94.4447 108.249 94.54 108.249ZM107.056 112H105.835C105.578 112 105.376 111.963 105.23 111.89C105.083 111.809 104.973 111.652 104.9 111.417L104.658 110.614C104.372 110.871 104.089 111.098 103.811 111.296C103.539 111.487 103.257 111.648 102.964 111.78C102.67 111.912 102.359 112.011 102.029 112.077C101.699 112.143 101.332 112.176 100.929 112.176C100.452 112.176 100.012 112.114 99.6088 111.989C99.2054 111.857 98.8571 111.663 98.5638 111.406C98.2778 111.149 98.0541 110.83 97.8928 110.449C97.7314 110.068 97.6508 109.624 97.6508 109.118C97.6508 108.693 97.7608 108.275 97.9808 107.864C98.2081 107.446 98.5821 107.072 99.1028 106.742C99.6234 106.405 100.316 106.126 101.182 105.906C102.047 105.686 103.121 105.561 104.405 105.532V104.872C104.405 104.117 104.243 103.559 103.921 103.2C103.605 102.833 103.143 102.65 102.535 102.65C102.095 102.65 101.728 102.701 101.435 102.804C101.141 102.907 100.885 103.024 100.665 103.156C100.452 103.281 100.254 103.394 100.071 103.497C99.8874 103.6 99.6858 103.651 99.4658 103.651C99.2824 103.651 99.1248 103.603 98.9928 103.508C98.8608 103.413 98.7544 103.295 98.6738 103.156L98.1788 102.287C99.4768 101.099 101.042 100.505 102.876 100.505C103.536 100.505 104.122 100.615 104.636 100.835C105.156 101.048 105.596 101.348 105.956 101.737C106.315 102.118 106.586 102.577 106.77 103.112C106.96 103.647 107.056 104.234 107.056 104.872V112ZM101.776 110.306C102.054 110.306 102.311 110.28 102.546 110.229C102.78 110.178 103 110.101 103.206 109.998C103.418 109.895 103.62 109.771 103.811 109.624C104.009 109.47 104.207 109.29 104.405 109.085V107.182C103.613 107.219 102.949 107.288 102.414 107.391C101.886 107.486 101.46 107.611 101.138 107.765C100.815 107.919 100.584 108.099 100.445 108.304C100.313 108.509 100.247 108.733 100.247 108.975C100.247 109.452 100.386 109.793 100.665 109.998C100.951 110.203 101.321 110.306 101.776 110.306ZM112.62 95.654V112H109.903V95.654H112.62ZM118.593 95.654V112H115.876V95.654H118.593ZM140.205 104.047C140.205 105.213 140.01 106.284 139.622 107.259C139.233 108.234 138.687 109.074 137.983 109.778C137.279 110.482 136.432 111.028 135.442 111.417C134.452 111.806 133.355 112 132.153 112H126.081V96.094H132.153C133.355 96.094 134.452 96.292 135.442 96.688C136.432 97.0767 137.279 97.623 137.983 98.327C138.687 99.0237 139.233 99.8597 139.622 100.835C140.01 101.81 140.205 102.881 140.205 104.047ZM137.18 104.047C137.18 103.174 137.062 102.393 136.828 101.704C136.593 101.007 136.259 100.421 135.827 99.944C135.394 99.46 134.866 99.0897 134.243 98.833C133.627 98.5763 132.93 98.448 132.153 98.448H129.062V109.646H132.153C132.93 109.646 133.627 109.518 134.243 109.261C134.866 109.004 135.394 108.638 135.827 108.161C136.259 107.677 136.593 107.09 136.828 106.401C137.062 105.704 137.18 104.92 137.18 104.047ZM147.026 100.538C147.737 100.538 148.39 100.652 148.984 100.879C149.585 101.106 150.102 101.44 150.535 101.88C150.968 102.313 151.305 102.848 151.547 103.486C151.789 104.117 151.91 104.839 151.91 105.653C151.91 105.858 151.899 106.031 151.877 106.17C151.862 106.302 151.829 106.408 151.778 106.489C151.734 106.562 151.672 106.617 151.591 106.654C151.51 106.683 151.408 106.698 151.283 106.698H144.309C144.39 107.857 144.701 108.707 145.244 109.25C145.787 109.793 146.505 110.064 147.4 110.064C147.84 110.064 148.218 110.013 148.533 109.91C148.856 109.807 149.134 109.694 149.369 109.569C149.611 109.444 149.82 109.331 149.996 109.228C150.179 109.125 150.355 109.074 150.524 109.074C150.634 109.074 150.729 109.096 150.81 109.14C150.891 109.184 150.96 109.246 151.019 109.327L151.811 110.317C151.51 110.669 151.173 110.966 150.799 111.208C150.425 111.443 150.033 111.633 149.622 111.78C149.219 111.919 148.804 112.018 148.379 112.077C147.961 112.136 147.554 112.165 147.158 112.165C146.373 112.165 145.644 112.037 144.969 111.78C144.294 111.516 143.708 111.131 143.209 110.625C142.71 110.112 142.318 109.481 142.032 108.733C141.746 107.978 141.603 107.105 141.603 106.115C141.603 105.345 141.728 104.623 141.977 103.948C142.226 103.266 142.582 102.676 143.044 102.177C143.513 101.671 144.082 101.271 144.749 100.978C145.424 100.685 146.183 100.538 147.026 100.538ZM147.081 102.485C146.289 102.485 145.669 102.709 145.222 103.156C144.775 103.603 144.489 104.238 144.364 105.059H149.468C149.468 104.707 149.42 104.377 149.325 104.069C149.23 103.754 149.083 103.479 148.885 103.244C148.687 103.009 148.438 102.826 148.137 102.694C147.836 102.555 147.484 102.485 147.081 102.485ZM157.821 112.176C156.846 112.176 156.094 111.901 155.566 111.351C155.038 110.794 154.774 110.027 154.774 109.052V102.749H153.63C153.483 102.749 153.355 102.701 153.245 102.606C153.142 102.511 153.091 102.368 153.091 102.177V101.099L154.906 100.802L155.478 97.722C155.507 97.5753 155.573 97.4617 155.676 97.381C155.786 97.3003 155.922 97.26 156.083 97.26H157.491V100.813H160.461V102.749H157.491V108.865C157.491 109.217 157.579 109.492 157.755 109.69C157.931 109.888 158.166 109.987 158.459 109.987C158.628 109.987 158.767 109.969 158.877 109.932C158.994 109.888 159.093 109.844 159.174 109.8C159.262 109.756 159.339 109.716 159.405 109.679C159.471 109.635 159.537 109.613 159.603 109.613C159.684 109.613 159.75 109.635 159.801 109.679C159.852 109.716 159.907 109.774 159.966 109.855L160.78 111.175C160.384 111.505 159.929 111.754 159.416 111.923C158.903 112.092 158.371 112.176 157.821 112.176ZM171.466 112H170.245C169.988 112 169.787 111.963 169.64 111.89C169.493 111.809 169.383 111.652 169.31 111.417L169.068 110.614C168.782 110.871 168.5 111.098 168.221 111.296C167.95 111.487 167.667 111.648 167.374 111.78C167.081 111.912 166.769 112.011 166.439 112.077C166.109 112.143 165.742 112.176 165.339 112.176C164.862 112.176 164.422 112.114 164.019 111.989C163.616 111.857 163.267 111.663 162.974 111.406C162.688 111.149 162.464 110.83 162.303 110.449C162.142 110.068 162.061 109.624 162.061 109.118C162.061 108.693 162.171 108.275 162.391 107.864C162.618 107.446 162.992 107.072 163.513 106.742C164.034 106.405 164.727 106.126 165.592 105.906C166.457 105.686 167.532 105.561 168.815 105.532V104.872C168.815 104.117 168.654 103.559 168.331 103.2C168.016 102.833 167.554 102.65 166.945 102.65C166.505 102.65 166.138 102.701 165.845 102.804C165.552 102.907 165.295 103.024 165.075 103.156C164.862 103.281 164.664 103.394 164.481 103.497C164.298 103.6 164.096 103.651 163.876 103.651C163.693 103.651 163.535 103.603 163.403 103.508C163.271 103.413 163.165 103.295 163.084 103.156L162.589 102.287C163.887 101.099 165.453 100.505 167.286 100.505C167.946 100.505 168.533 100.615 169.046 100.835C169.567 101.048 170.007 101.348 170.366 101.737C170.725 102.118 170.997 102.577 171.18 103.112C171.371 103.647 171.466 104.234 171.466 104.872V112ZM166.186 110.306C166.465 110.306 166.721 110.28 166.956 110.229C167.191 110.178 167.411 110.101 167.616 109.998C167.829 109.895 168.03 109.771 168.221 109.624C168.419 109.47 168.617 109.29 168.815 109.085V107.182C168.023 107.219 167.359 107.288 166.824 107.391C166.296 107.486 165.871 107.611 165.548 107.765C165.225 107.919 164.994 108.099 164.855 108.304C164.723 108.509 164.657 108.733 164.657 108.975C164.657 109.452 164.796 109.793 165.075 109.998C165.361 110.203 165.731 110.306 166.186 110.306ZM177.031 100.714V112H174.314V100.714H177.031ZM177.438 97.425C177.438 97.6597 177.39 97.8797 177.295 98.085C177.199 98.2903 177.071 98.47 176.91 98.624C176.756 98.778 176.572 98.9027 176.36 98.998C176.147 99.086 175.92 99.13 175.678 99.13C175.443 99.13 175.219 99.086 175.007 98.998C174.801 98.9027 174.622 98.778 174.468 98.624C174.314 98.47 174.189 98.2903 174.094 98.085C174.006 97.8797 173.962 97.6597 173.962 97.425C173.962 97.183 174.006 96.9557 174.094 96.743C174.189 96.5303 174.314 96.347 174.468 96.193C174.622 96.039 174.801 95.918 175.007 95.83C175.219 95.7347 175.443 95.687 175.678 95.687C175.92 95.687 176.147 95.7347 176.36 95.83C176.572 95.918 176.756 96.039 176.91 96.193C177.071 96.347 177.199 96.5303 177.295 96.743C177.39 96.9557 177.438 97.183 177.438 97.425ZM183.003 95.654V112H180.286V95.654H183.003ZM192.782 102.914C192.709 103.031 192.632 103.116 192.551 103.167C192.47 103.211 192.368 103.233 192.243 103.233C192.111 103.233 191.968 103.196 191.814 103.123C191.667 103.05 191.495 102.969 191.297 102.881C191.099 102.786 190.872 102.701 190.615 102.628C190.366 102.555 190.069 102.518 189.724 102.518C189.189 102.518 188.767 102.632 188.459 102.859C188.151 103.086 187.997 103.383 187.997 103.75C187.997 103.992 188.074 104.197 188.228 104.366C188.389 104.527 188.598 104.67 188.855 104.795C189.119 104.92 189.416 105.033 189.746 105.136C190.076 105.231 190.413 105.338 190.758 105.455C191.103 105.572 191.44 105.708 191.77 105.862C192.1 106.009 192.393 106.199 192.65 106.434C192.914 106.661 193.123 106.936 193.277 107.259C193.438 107.582 193.519 107.97 193.519 108.425C193.519 108.968 193.42 109.47 193.222 109.932C193.024 110.387 192.734 110.783 192.353 111.12C191.972 111.45 191.499 111.71 190.934 111.901C190.377 112.084 189.735 112.176 189.009 112.176C188.62 112.176 188.239 112.139 187.865 112.066C187.498 112 187.143 111.905 186.798 111.78C186.461 111.655 186.145 111.509 185.852 111.34C185.566 111.171 185.313 110.988 185.093 110.79L185.72 109.756C185.801 109.631 185.896 109.536 186.006 109.47C186.116 109.404 186.255 109.371 186.424 109.371C186.593 109.371 186.75 109.419 186.897 109.514C187.051 109.609 187.227 109.712 187.425 109.822C187.623 109.932 187.854 110.035 188.118 110.13C188.389 110.225 188.73 110.273 189.141 110.273C189.464 110.273 189.739 110.236 189.966 110.163C190.201 110.082 190.391 109.98 190.538 109.855C190.692 109.73 190.802 109.587 190.868 109.426C190.941 109.257 190.978 109.085 190.978 108.909C190.978 108.645 190.897 108.429 190.736 108.26C190.582 108.091 190.373 107.945 190.109 107.82C189.852 107.695 189.555 107.585 189.218 107.49C188.888 107.387 188.547 107.277 188.195 107.16C187.85 107.043 187.509 106.907 187.172 106.753C186.842 106.592 186.545 106.39 186.281 106.148C186.024 105.906 185.815 105.609 185.654 105.257C185.5 104.905 185.423 104.48 185.423 103.981C185.423 103.519 185.515 103.079 185.698 102.661C185.881 102.243 186.149 101.88 186.501 101.572C186.86 101.257 187.304 101.007 187.832 100.824C188.367 100.633 188.983 100.538 189.68 100.538C190.457 100.538 191.165 100.666 191.803 100.923C192.441 101.18 192.973 101.517 193.398 101.935L192.782 102.914Z" fill="white"/>
<rect y="152" width="440" height="150" rx="25" fill="url(#paint1_linear_3338_1408)"/>
<path d="M38.4375 190.862V209H36.5C36.2083 209 35.9625 208.954 35.7625 208.862C35.5625 208.762 35.3667 208.596 35.175 208.362L26.1375 196.862C26.1625 197.154 26.1792 197.442 26.1875 197.725C26.2042 198.008 26.2125 198.271 26.2125 198.512V209H22.9V190.862H24.875C25.0333 190.862 25.1667 190.871 25.275 190.887C25.3917 190.896 25.4958 190.925 25.5875 190.975C25.6792 191.017 25.7667 191.075 25.85 191.15C25.9333 191.225 26.025 191.325 26.125 191.45L35.225 203C35.1917 202.683 35.1667 202.379 35.15 202.087C35.1333 201.787 35.125 201.504 35.125 201.237V190.862H38.4375ZM46.0109 209H42.2359V190.862H46.0109V209ZM62.6418 193.887H57.3418V209H53.5793V193.887H48.2793V190.862H62.6418V193.887ZM68.6672 209H64.8922V190.862H68.6672V209ZM82.2855 194.337C82.1689 194.529 82.048 194.671 81.923 194.762C81.8064 194.846 81.6522 194.887 81.4605 194.887C81.2772 194.887 81.0772 194.825 80.8605 194.7C80.6522 194.567 80.4064 194.425 80.123 194.275C79.8397 194.125 79.5147 193.987 79.148 193.862C78.7814 193.729 78.3522 193.662 77.8605 193.662C76.9939 193.662 76.3439 193.858 75.9105 194.25C75.4772 194.633 75.2605 195.137 75.2605 195.762C75.2605 196.162 75.3772 196.496 75.6105 196.762C75.8522 197.021 76.1647 197.246 76.548 197.437C76.9397 197.629 77.3814 197.8 77.873 197.95C78.3647 198.1 78.8689 198.267 79.3855 198.45C79.9022 198.625 80.4064 198.833 80.898 199.075C81.3897 199.317 81.8272 199.621 82.2105 199.987C82.6022 200.354 82.9147 200.804 83.148 201.337C83.3897 201.862 83.5105 202.504 83.5105 203.262C83.5105 204.087 83.3647 204.862 83.073 205.587C82.7897 206.304 82.3772 206.933 81.8355 207.475C81.2939 208.008 80.623 208.429 79.823 208.737C79.0314 209.046 78.1314 209.2 77.123 209.2C76.548 209.2 75.973 209.142 75.398 209.025C74.8314 208.908 74.2814 208.746 73.748 208.537C73.223 208.329 72.7272 208.079 72.2605 207.787C71.7939 207.496 71.3855 207.171 71.0355 206.812L72.1355 205.037C72.2272 204.904 72.348 204.796 72.498 204.712C72.648 204.621 72.8064 204.575 72.973 204.575C73.198 204.575 73.4355 204.658 73.6855 204.825C73.9355 204.992 74.223 205.175 74.548 205.375C74.873 205.575 75.248 205.758 75.673 205.925C76.1064 206.092 76.623 206.175 77.223 206.175C78.098 206.175 78.773 205.975 79.248 205.575C79.7314 205.175 79.973 204.579 79.973 203.787C79.973 203.329 79.8522 202.958 79.6105 202.675C79.3772 202.392 79.0689 202.154 78.6855 201.962C78.3022 201.771 77.8647 201.608 77.373 201.475C76.8814 201.333 76.3772 201.179 75.8605 201.012C75.3439 200.846 74.8397 200.646 74.348 200.412C73.8564 200.179 73.4189 199.871 73.0355 199.487C72.6522 199.104 72.3397 198.629 72.098 198.062C71.8647 197.496 71.748 196.792 71.748 195.95C71.748 195.275 71.8814 194.621 72.148 193.987C72.4147 193.354 72.8064 192.792 73.323 192.3C73.8397 191.808 74.473 191.412 75.223 191.112C75.9814 190.812 76.848 190.662 77.823 190.662C78.9147 190.662 79.923 190.833 80.848 191.175C81.7814 191.508 82.5689 191.975 83.2105 192.575L82.2855 194.337ZM101.768 190.862V209H97.9926V201.188H90.0051V209H86.2301V190.862H90.0051V198.562H97.9926V190.862H101.768Z" fill="#24252C"/>
<path d="M28.896 253.648C29.0507 253.648 29.1733 253.693 29.264 253.784C29.3547 253.875 29.4 253.992 29.4 254.136V255H21.752V254.512C21.752 254.411 21.7733 254.307 21.816 254.2C21.8587 254.093 21.9253 253.995 22.016 253.904L25.688 250.216C25.992 249.907 26.2693 249.611 26.52 249.328C26.7707 249.04 26.984 248.752 27.16 248.464C27.336 248.176 27.472 247.885 27.568 247.592C27.664 247.293 27.712 246.976 27.712 246.64C27.712 246.304 27.6587 246.011 27.552 245.76C27.4453 245.504 27.2987 245.293 27.112 245.128C26.9307 244.963 26.7147 244.84 26.464 244.76C26.2133 244.675 25.944 244.632 25.656 244.632C25.3627 244.632 25.0933 244.675 24.848 244.76C24.6027 244.845 24.384 244.965 24.192 245.12C24.0053 245.269 23.848 245.448 23.72 245.656C23.592 245.864 23.5013 246.093 23.448 246.344C23.384 246.531 23.296 246.656 23.184 246.72C23.0773 246.779 22.9253 246.795 22.728 246.768L21.984 246.64C22.0587 246.117 22.2027 245.656 22.416 245.256C22.6347 244.851 22.9067 244.512 23.232 244.24C23.5627 243.968 23.9387 243.763 24.36 243.624C24.7813 243.48 25.2373 243.408 25.728 243.408C26.2133 243.408 26.6667 243.48 27.088 243.624C27.5093 243.768 27.8747 243.979 28.184 244.256C28.4933 244.528 28.736 244.861 28.912 245.256C29.088 245.651 29.176 246.099 29.176 246.6C29.176 247.027 29.112 247.424 28.984 247.792C28.856 248.155 28.6827 248.501 28.464 248.832C28.2453 249.163 27.992 249.485 27.704 249.8C27.4213 250.115 27.12 250.432 26.8 250.752L23.776 253.84C23.9893 253.781 24.2053 253.736 24.424 253.704C24.6427 253.667 24.8533 253.648 25.056 253.648H28.896ZM34.9213 253.992C35.2946 253.992 35.6279 253.941 35.9213 253.84C36.2199 253.733 36.4706 253.587 36.6733 253.4C36.8813 253.208 37.0386 252.981 37.1453 252.72C37.2573 252.453 37.3133 252.16 37.3133 251.84C37.3133 251.445 37.2466 251.109 37.1133 250.832C36.9853 250.549 36.8093 250.32 36.5853 250.144C36.3666 249.968 36.1133 249.84 35.8253 249.76C35.5373 249.675 35.2359 249.632 34.9213 249.632C34.6066 249.632 34.3053 249.675 34.0173 249.76C33.7293 249.84 33.4733 249.968 33.2493 250.144C33.0306 250.32 32.8546 250.549 32.7213 250.832C32.5933 251.109 32.5293 251.445 32.5293 251.84C32.5293 252.16 32.5826 252.453 32.6893 252.72C32.8013 252.981 32.9586 253.208 33.1613 253.4C33.3693 253.587 33.6199 253.733 33.9133 253.84C34.2119 253.941 34.5479 253.992 34.9213 253.992ZM34.9213 244.512C34.5799 244.512 34.2786 244.563 34.0173 244.664C33.7613 244.765 33.5453 244.904 33.3693 245.08C33.1986 245.256 33.0679 245.461 32.9773 245.696C32.8919 245.931 32.8493 246.181 32.8493 246.448C32.8493 246.709 32.8866 246.963 32.9613 247.208C33.0359 247.453 33.1559 247.672 33.3213 247.864C33.4866 248.051 33.6999 248.203 33.9613 248.32C34.2279 248.432 34.5479 248.488 34.9213 248.488C35.2946 248.488 35.6119 248.432 35.8733 248.32C36.1399 248.203 36.3559 248.051 36.5213 247.864C36.6866 247.672 36.8066 247.453 36.8813 247.208C36.9559 246.963 36.9933 246.709 36.9933 246.448C36.9933 246.181 36.9479 245.931 36.8573 245.696C36.7719 245.461 36.6413 245.256 36.4653 245.08C36.2946 244.904 36.0786 244.765 35.8173 244.664C35.5613 244.563 35.2626 244.512 34.9213 244.512ZM36.5613 249.024C37.2759 249.227 37.8253 249.565 38.2093 250.04C38.5933 250.515 38.7853 251.123 38.7853 251.864C38.7853 252.365 38.6893 252.819 38.4973 253.224C38.3106 253.624 38.0466 253.965 37.7053 254.248C37.3693 254.531 36.9639 254.749 36.4893 254.904C36.0146 255.053 35.4919 255.128 34.9213 255.128C34.3506 255.128 33.8279 255.053 33.3533 254.904C32.8786 254.749 32.4706 254.531 32.1293 254.248C31.7879 253.965 31.5239 253.624 31.3372 253.224C31.1506 252.819 31.0573 252.365 31.0573 251.864C31.0573 251.123 31.2493 250.515 31.6333 250.04C32.0173 249.565 32.5666 249.227 33.2813 249.024C32.6786 248.8 32.2226 248.467 31.9133 248.024C31.6093 247.576 31.4572 247.043 31.4572 246.424C31.4572 246.003 31.5399 245.608 31.7053 245.24C31.8706 244.872 32.1053 244.552 32.4093 244.28C32.7133 244.008 33.0759 243.795 33.4973 243.64C33.9239 243.485 34.3986 243.408 34.9213 243.408C35.4386 243.408 35.9106 243.485 36.3373 243.64C36.7639 243.795 37.1293 244.008 37.4333 244.28C37.7373 244.552 37.9719 244.872 38.1373 245.24C38.3026 245.608 38.3853 246.003 38.3853 246.424C38.3853 247.043 38.2306 247.576 37.9213 248.024C37.6173 248.467 37.1639 248.8 36.5613 249.024ZM57.0483 243.536V255H55.6883V246.576C55.6883 246.464 55.6909 246.344 55.6963 246.216C55.7069 246.088 55.7176 245.957 55.7283 245.824L51.7923 252.992C51.6696 253.232 51.4829 253.352 51.2323 253.352H51.0083C50.7576 253.352 50.5709 253.232 50.4483 252.992L46.4323 245.792C46.4643 246.075 46.4803 246.336 46.4803 246.576V255H45.1203V243.536H46.2643C46.4029 243.536 46.5096 243.549 46.5843 243.576C46.6589 243.603 46.7309 243.677 46.8003 243.8L50.7603 250.856C50.8243 250.984 50.8856 251.117 50.9443 251.256C51.0083 251.395 51.0669 251.536 51.1203 251.68C51.1736 251.536 51.2296 251.395 51.2883 251.256C51.3469 251.112 51.4109 250.976 51.4803 250.848L55.3683 243.8C55.4323 243.677 55.5016 243.603 55.5763 243.576C55.6563 243.549 55.7656 243.536 55.9043 243.536H57.0483ZM63.8013 251.352C63.1453 251.373 62.5853 251.427 62.1213 251.512C61.6626 251.592 61.2866 251.699 60.9933 251.832C60.7053 251.965 60.4946 252.123 60.3613 252.304C60.2333 252.485 60.1693 252.688 60.1693 252.912C60.1693 253.125 60.2039 253.309 60.2733 253.464C60.3426 253.619 60.4359 253.747 60.5533 253.848C60.6759 253.944 60.8173 254.016 60.9773 254.064C61.1426 254.107 61.3186 254.128 61.5053 254.128C61.7559 254.128 61.9853 254.104 62.1933 254.056C62.4013 254.003 62.5959 253.928 62.7773 253.832C62.9639 253.736 63.1399 253.621 63.3053 253.488C63.4759 253.355 63.6413 253.203 63.8013 253.032V251.352ZM59.2013 248.04C59.6493 247.608 60.1319 247.285 60.6493 247.072C61.1666 246.859 61.7399 246.752 62.3693 246.752C62.8226 246.752 63.2253 246.827 63.5773 246.976C63.9293 247.125 64.2253 247.333 64.4653 247.6C64.7053 247.867 64.8866 248.189 65.0093 248.568C65.1319 248.947 65.1933 249.363 65.1933 249.816V255H64.5613C64.4226 255 64.3159 254.979 64.2413 254.936C64.1666 254.888 64.1079 254.797 64.0653 254.664L63.9053 253.896C63.6919 254.093 63.4839 254.269 63.2812 254.424C63.0786 254.573 62.8653 254.701 62.6413 254.808C62.4173 254.909 62.1773 254.987 61.9213 255.04C61.6706 255.099 61.3906 255.128 61.0813 255.128C60.7666 255.128 60.4706 255.085 60.1933 255C59.9159 254.909 59.6733 254.776 59.4653 254.6C59.2626 254.424 59.0999 254.203 58.9773 253.936C58.8599 253.664 58.8013 253.344 58.8013 252.976C58.8013 252.656 58.8893 252.349 59.0653 252.056C59.2413 251.757 59.5266 251.493 59.9213 251.264C60.3159 251.035 60.8306 250.848 61.4653 250.704C62.0999 250.555 62.8786 250.469 63.8013 250.448V249.816C63.8013 249.187 63.6653 248.712 63.3933 248.392C63.1213 248.067 62.7239 247.904 62.2013 247.904C61.8493 247.904 61.5533 247.949 61.3133 248.04C61.0786 248.125 60.8733 248.224 60.6973 248.336C60.5266 248.443 60.3773 248.541 60.2493 248.632C60.1266 248.717 60.0039 248.76 59.8813 248.76C59.7853 248.76 59.7026 248.736 59.6333 248.688C59.5639 248.635 59.5053 248.571 59.4572 248.496L59.2013 248.04ZM74.1669 246.896L69.6469 257.392C69.5989 257.499 69.5375 257.584 69.4629 257.648C69.3935 257.712 69.2842 257.744 69.1349 257.744H68.0789L69.5589 254.528L66.2149 246.896H67.4469C67.5695 246.896 67.6655 246.928 67.7349 246.992C67.8095 247.051 67.8602 247.117 67.8869 247.192L70.0549 252.296C70.1402 252.52 70.2122 252.755 70.2709 253C70.3455 252.749 70.4255 252.512 70.5109 252.288L72.6149 247.192C72.6469 247.107 72.7002 247.037 72.7749 246.984C72.8549 246.925 72.9429 246.896 73.0389 246.896H74.1669ZM85.896 253.648C86.0507 253.648 86.1733 253.693 86.264 253.784C86.3547 253.875 86.4 253.992 86.4 254.136V255H78.752V254.512C78.752 254.411 78.7733 254.307 78.816 254.2C78.8587 254.093 78.9253 253.995 79.016 253.904L82.688 250.216C82.992 249.907 83.2693 249.611 83.52 249.328C83.7707 249.04 83.984 248.752 84.16 248.464C84.336 248.176 84.472 247.885 84.568 247.592C84.664 247.293 84.712 246.976 84.712 246.64C84.712 246.304 84.6587 246.011 84.552 245.76C84.4453 245.504 84.2987 245.293 84.112 245.128C83.9307 244.963 83.7147 244.84 83.464 244.76C83.2133 244.675 82.944 244.632 82.656 244.632C82.3627 244.632 82.0933 244.675 81.848 244.76C81.6027 244.845 81.384 244.965 81.192 245.12C81.0053 245.269 80.848 245.448 80.72 245.656C80.592 245.864 80.5013 246.093 80.448 246.344C80.384 246.531 80.296 246.656 80.184 246.72C80.0773 246.779 79.9253 246.795 79.728 246.768L78.984 246.64C79.0587 246.117 79.2027 245.656 79.416 245.256C79.6347 244.851 79.9067 244.512 80.232 244.24C80.5627 243.968 80.9387 243.763 81.36 243.624C81.7813 243.48 82.2373 243.408 82.728 243.408C83.2133 243.408 83.6667 243.48 84.088 243.624C84.5093 243.768 84.8747 243.979 85.184 244.256C85.4933 244.528 85.736 244.861 85.912 245.256C86.088 245.651 86.176 246.099 86.176 246.6C86.176 247.027 86.112 247.424 85.984 247.792C85.856 248.155 85.6827 248.501 85.464 248.832C85.2453 249.163 84.992 249.485 84.704 249.8C84.4213 250.115 84.12 250.432 83.8 250.752L80.776 253.84C80.9893 253.781 81.2053 253.736 81.424 253.704C81.6427 253.667 81.8533 253.648 82.056 253.648H85.896ZM96.0813 249.272C96.0813 250.275 95.9719 251.144 95.7533 251.88C95.5399 252.611 95.2466 253.216 94.8733 253.696C94.4999 254.176 94.0573 254.533 93.5453 254.768C93.0386 255.003 92.4946 255.12 91.9133 255.12C91.3266 255.12 90.7799 255.003 90.2733 254.768C89.7719 254.533 89.3346 254.176 88.9613 253.696C88.5879 253.216 88.2946 252.611 88.0813 251.88C87.8679 251.144 87.7613 250.275 87.7613 249.272C87.7613 248.269 87.8679 247.4 88.0813 246.664C88.2946 245.928 88.5879 245.32 88.9613 244.84C89.3346 244.355 89.7719 243.995 90.2733 243.76C90.7799 243.525 91.3266 243.408 91.9133 243.408C92.4946 243.408 93.0386 243.525 93.5453 243.76C94.0573 243.995 94.4999 244.355 94.8733 244.84C95.2466 245.32 95.5399 245.928 95.7533 246.664C95.9719 247.4 96.0813 248.269 96.0813 249.272ZM94.6013 249.272C94.6013 248.397 94.5266 247.664 94.3773 247.072C94.2333 246.475 94.0359 245.995 93.7853 245.632C93.5399 245.269 93.2546 245.011 92.9293 244.856C92.6039 244.696 92.2653 244.616 91.9133 244.616C91.5613 244.616 91.2226 244.696 90.8973 244.856C90.5719 245.011 90.2866 245.269 90.0413 245.632C89.7959 245.995 89.5986 246.475 89.4493 247.072C89.3053 247.664 89.2333 248.397 89.2333 249.272C89.2333 250.147 89.3053 250.88 89.4493 251.472C89.5986 252.064 89.7959 252.541 90.0413 252.904C90.2866 253.267 90.5719 253.528 90.8973 253.688C91.2226 253.843 91.5613 253.92 91.9133 253.92C92.2653 253.92 92.6039 253.843 92.9293 253.688C93.2546 253.528 93.5399 253.267 93.7853 252.904C94.0359 252.541 94.2333 252.064 94.3773 251.472C94.5266 250.88 94.6013 250.147 94.6013 249.272ZM104.459 253.648C104.613 253.648 104.736 253.693 104.826 253.784C104.917 253.875 104.963 253.992 104.963 254.136V255H97.3145V254.512C97.3145 254.411 97.3358 254.307 97.3785 254.2C97.4212 254.093 97.4878 253.995 97.5785 253.904L101.251 250.216C101.555 249.907 101.832 249.611 102.083 249.328C102.333 249.04 102.547 248.752 102.723 248.464C102.899 248.176 103.035 247.885 103.131 247.592C103.227 247.293 103.275 246.976 103.275 246.64C103.275 246.304 103.221 246.011 103.115 245.76C103.008 245.504 102.861 245.293 102.675 245.128C102.493 244.963 102.277 244.84 102.027 244.76C101.776 244.675 101.507 244.632 101.219 244.632C100.925 244.632 100.656 244.675 100.411 244.76C100.165 244.845 99.9465 244.965 99.7545 245.12C99.5678 245.269 99.4105 245.448 99.2825 245.656C99.1545 245.864 99.0638 246.093 99.0105 246.344C98.9465 246.531 98.8585 246.656 98.7465 246.72C98.6398 246.779 98.4878 246.795 98.2905 246.768L97.5465 246.64C97.6212 246.117 97.7652 245.656 97.9785 245.256C98.1972 244.851 98.4692 244.512 98.7945 244.24C99.1252 243.968 99.5012 243.763 99.9225 243.624C100.344 243.48 100.8 243.408 101.291 243.408C101.776 243.408 102.229 243.48 102.651 243.624C103.072 243.768 103.437 243.979 103.747 244.256C104.056 244.528 104.299 244.861 104.475 245.256C104.651 245.651 104.739 246.099 104.739 246.6C104.739 247.027 104.675 247.424 104.547 247.792C104.419 248.155 104.245 248.501 104.027 248.832C103.808 249.163 103.555 249.485 103.267 249.8C102.984 250.115 102.683 250.432 102.363 250.752L99.3385 253.84C99.5518 253.781 99.7678 253.736 99.9865 253.704C100.205 253.667 100.416 253.648 100.619 253.648H104.459ZM108.74 247.864C109.337 247.736 109.886 247.672 110.388 247.672C110.985 247.672 111.513 247.76 111.972 247.936C112.43 248.112 112.812 248.355 113.116 248.664C113.425 248.973 113.657 249.339 113.812 249.76C113.972 250.181 114.052 250.64 114.052 251.136C114.052 251.744 113.945 252.293 113.732 252.784C113.524 253.275 113.233 253.696 112.86 254.048C112.492 254.395 112.057 254.661 111.556 254.848C111.054 255.035 110.513 255.128 109.932 255.128C109.596 255.128 109.273 255.093 108.964 255.024C108.654 254.96 108.364 254.872 108.092 254.76C107.825 254.648 107.577 254.52 107.348 254.376C107.118 254.232 106.916 254.08 106.74 253.92L107.18 253.312C107.276 253.173 107.401 253.104 107.556 253.104C107.662 253.104 107.782 253.147 107.916 253.232C108.049 253.312 108.212 253.403 108.404 253.504C108.596 253.605 108.82 253.699 109.076 253.784C109.337 253.864 109.646 253.904 110.004 253.904C110.404 253.904 110.764 253.84 111.084 253.712C111.404 253.584 111.678 253.403 111.908 253.168C112.137 252.928 112.313 252.643 112.436 252.312C112.558 251.981 112.62 251.611 112.62 251.2C112.62 250.843 112.566 250.52 112.46 250.232C112.358 249.944 112.201 249.699 111.988 249.496C111.78 249.293 111.518 249.136 111.204 249.024C110.889 248.912 110.521 248.856 110.1 248.856C109.812 248.856 109.51 248.88 109.196 248.928C108.886 248.976 108.569 249.053 108.244 249.16L107.348 248.896L108.268 243.536H113.7V244.16C113.7 244.363 113.636 244.531 113.508 244.664C113.385 244.792 113.172 244.856 112.868 244.856H109.268L108.74 247.864ZM29.336 272.376V274H22.824V272.376H25.128V266.024C25.128 265.885 25.1307 265.744 25.136 265.6C25.1413 265.456 25.1493 265.309 25.16 265.16L23.64 266.424C23.5333 266.504 23.4293 266.555 23.328 266.576C23.2267 266.597 23.1307 266.6 23.04 266.584C22.9493 266.563 22.8693 266.531 22.8 266.488C22.7307 266.44 22.6773 266.392 22.64 266.344L21.944 265.408L25.512 262.384H27.328V272.376H29.336ZM38.1133 271.976C38.3533 271.976 38.5399 272.043 38.6733 272.176C38.8119 272.309 38.8813 272.485 38.8813 272.704V274H30.8333V273.28C30.8333 273.141 30.8626 272.992 30.9213 272.832C30.9799 272.667 31.0786 272.517 31.2173 272.384L34.6573 268.936C34.9506 268.643 35.2093 268.363 35.4333 268.096C35.6573 267.824 35.8439 267.56 35.9933 267.304C36.1426 267.043 36.2546 266.779 36.3293 266.512C36.4039 266.245 36.4413 265.965 36.4413 265.672C36.4413 265.155 36.3079 264.763 36.0413 264.496C35.7746 264.224 35.3986 264.088 34.9133 264.088C34.6999 264.088 34.5026 264.12 34.3212 264.184C34.1453 264.243 33.9853 264.325 33.8413 264.432C33.7026 264.539 33.5826 264.664 33.4813 264.808C33.3799 264.952 33.3053 265.109 33.2573 265.28C33.1613 265.547 33.0306 265.725 32.8653 265.816C32.7053 265.901 32.4759 265.92 32.1773 265.872L31.0093 265.664C31.0946 265.099 31.2546 264.603 31.4893 264.176C31.7239 263.749 32.0173 263.395 32.3693 263.112C32.7213 262.829 33.1239 262.619 33.5773 262.48C34.0306 262.336 34.5186 262.264 35.0413 262.264C35.5906 262.264 36.0893 262.347 36.5373 262.512C36.9906 262.672 37.3773 262.899 37.6973 263.192C38.0173 263.48 38.2653 263.829 38.4413 264.24C38.6173 264.651 38.7053 265.104 38.7053 265.6C38.7053 266.027 38.6439 266.421 38.5213 266.784C38.3986 267.147 38.2306 267.493 38.0173 267.824C37.8093 268.149 37.5666 268.467 37.2893 268.776C37.0119 269.085 36.7186 269.397 36.4093 269.712L33.9453 272.232C34.2173 272.152 34.4866 272.091 34.7533 272.048C35.0199 272 35.2706 271.976 35.5053 271.976H38.1133ZM40.3465 272.84C40.3465 272.664 40.3785 272.499 40.4425 272.344C40.5118 272.184 40.6052 272.048 40.7225 271.936C40.8398 271.819 40.9758 271.728 41.1305 271.664C41.2905 271.595 41.4638 271.56 41.6505 271.56C41.8318 271.56 42.0025 271.595 42.1625 271.664C42.3225 271.728 42.4612 271.819 42.5785 271.936C42.6958 272.048 42.7865 272.184 42.8505 272.344C42.9198 272.499 42.9545 272.664 42.9545 272.84C42.9545 273.021 42.9198 273.189 42.8505 273.344C42.7865 273.499 42.6958 273.635 42.5785 273.752C42.4612 273.864 42.3225 273.952 42.1625 274.016C42.0025 274.08 41.8318 274.112 41.6505 274.112C41.4638 274.112 41.2905 274.08 41.1305 274.016C40.9758 273.952 40.8398 273.864 40.7225 273.752C40.6052 273.635 40.5118 273.499 40.4425 273.344C40.3785 273.189 40.3465 273.021 40.3465 272.84ZM40.3465 267.24C40.3465 267.064 40.3785 266.899 40.4425 266.744C40.5118 266.584 40.6052 266.448 40.7225 266.336C40.8398 266.219 40.9758 266.128 41.1305 266.064C41.2905 265.995 41.4638 265.96 41.6505 265.96C41.8318 265.96 42.0025 265.995 42.1625 266.064C42.3225 266.128 42.4612 266.219 42.5785 266.336C42.6958 266.448 42.7865 266.584 42.8505 266.744C42.9198 266.899 42.9545 267.064 42.9545 267.24C42.9545 267.421 42.9198 267.589 42.8505 267.744C42.7865 267.899 42.6958 268.035 42.5785 268.152C42.4612 268.264 42.3225 268.352 42.1625 268.416C42.0025 268.48 41.8318 268.512 41.6505 268.512C41.4638 268.512 41.2905 268.48 41.1305 268.416C40.9758 268.352 40.8398 268.264 40.7225 268.152C40.6052 268.035 40.5118 267.899 40.4425 267.744C40.3785 267.589 40.3465 267.421 40.3465 267.24ZM52.6544 268.192C52.6544 269.205 52.545 270.085 52.3264 270.832C52.1077 271.579 51.8064 272.197 51.4224 272.688C51.0384 273.173 50.5824 273.536 50.0544 273.776C49.5317 274.011 48.9664 274.128 48.3584 274.128C47.7504 274.128 47.185 274.011 46.6624 273.776C46.1397 273.536 45.689 273.173 45.3104 272.688C44.9317 272.197 44.633 271.579 44.4144 270.832C44.201 270.085 44.0944 269.205 44.0944 268.192C44.0944 267.179 44.201 266.301 44.4144 265.56C44.633 264.813 44.9317 264.197 45.3104 263.712C45.689 263.221 46.1397 262.859 46.6624 262.624C47.185 262.384 47.7504 262.264 48.3584 262.264C48.9664 262.264 49.5317 262.384 50.0544 262.624C50.5824 262.859 51.0384 263.221 51.4224 263.712C51.8064 264.197 52.1077 264.813 52.3264 265.56C52.545 266.301 52.6544 267.179 52.6544 268.192ZM50.3744 268.192C50.3744 267.371 50.3157 266.693 50.1984 266.16C50.0864 265.627 49.937 265.205 49.7504 264.896C49.5637 264.587 49.3477 264.371 49.1024 264.248C48.8624 264.125 48.6144 264.064 48.3584 264.064C48.1024 264.064 47.8544 264.125 47.6144 264.248C47.3797 264.371 47.169 264.587 46.9824 264.896C46.801 265.205 46.6544 265.627 46.5424 266.16C46.4304 266.693 46.3744 267.371 46.3744 268.192C46.3744 269.019 46.4304 269.699 46.5424 270.232C46.6544 270.765 46.801 271.187 46.9824 271.496C47.169 271.805 47.3797 272.021 47.6144 272.144C47.8544 272.267 48.1024 272.328 48.3584 272.328C48.6144 272.328 48.8624 272.267 49.1024 272.144C49.3477 272.021 49.5637 271.805 49.7504 271.496C49.937 271.187 50.0864 270.765 50.1984 270.232C50.3157 269.699 50.3744 269.019 50.3744 268.192ZM57.3516 266.56L56.9996 266.984C57.2023 266.893 57.421 266.824 57.6556 266.776C57.8903 266.728 58.1436 266.704 58.4156 266.704C58.8476 266.704 59.269 266.776 59.6796 266.92C60.0903 267.064 60.4556 267.28 60.7756 267.568C61.0956 267.856 61.3516 268.219 61.5436 268.656C61.741 269.088 61.8396 269.597 61.8396 270.184C61.8396 270.723 61.7383 271.232 61.5356 271.712C61.3383 272.192 61.0556 272.611 60.6876 272.968C60.325 273.325 59.8876 273.608 59.3756 273.816C58.869 274.024 58.3036 274.128 57.6796 274.128C57.045 274.128 56.477 274.029 55.9756 273.832C55.4743 273.629 55.0476 273.347 54.6956 272.984C54.3436 272.621 54.0743 272.189 53.8876 271.688C53.701 271.181 53.6076 270.624 53.6076 270.016C53.6076 269.456 53.717 268.888 53.9356 268.312C54.1596 267.736 54.4983 267.144 54.9516 266.536L57.6476 262.904C57.7543 262.765 57.9116 262.645 58.1196 262.544C58.3276 262.443 58.565 262.392 58.8316 262.392H60.7916L57.3516 266.56ZM57.6396 272.352C57.9276 272.352 58.1943 272.301 58.4396 272.2C58.685 272.099 58.8956 271.957 59.0716 271.776C59.2476 271.595 59.3863 271.384 59.4876 271.144C59.589 270.899 59.6396 270.632 59.6396 270.344C59.6396 270.029 59.5916 269.747 59.4956 269.496C59.3996 269.245 59.2636 269.035 59.0876 268.864C58.9116 268.688 58.701 268.555 58.4556 268.464C58.2103 268.373 57.9383 268.328 57.6396 268.328C57.357 268.328 57.0983 268.379 56.8636 268.48C56.629 268.576 56.4263 268.715 56.2556 268.896C56.0903 269.072 55.9596 269.283 55.8636 269.528C55.773 269.773 55.7276 270.043 55.7276 270.336C55.7276 270.64 55.7676 270.917 55.8476 271.168C55.9276 271.413 56.0476 271.624 56.2076 271.8C56.3676 271.976 56.565 272.112 56.7996 272.208C57.0396 272.304 57.3196 272.352 57.6396 272.352ZM69.4169 271.824C69.6249 272.064 69.8489 272.232 70.0889 272.328C70.3342 272.424 70.5955 272.472 70.8729 272.472C71.1395 272.472 71.3822 272.421 71.6009 272.32C71.8195 272.219 72.0062 272.061 72.1609 271.848C72.3209 271.629 72.4435 271.352 72.5289 271.016C72.6142 270.68 72.6569 270.28 72.6569 269.816C72.6569 269.357 72.6195 268.968 72.5449 268.648C72.4755 268.328 72.3742 268.069 72.2409 267.872C72.1129 267.675 71.9555 267.533 71.7689 267.448C71.5822 267.357 71.3742 267.312 71.1449 267.312C70.7555 267.312 70.4275 267.389 70.1609 267.544C69.8995 267.693 69.6515 267.915 69.4169 268.208V271.824ZM69.2889 266.832C69.4542 266.651 69.6302 266.485 69.8169 266.336C70.0035 266.181 70.2035 266.051 70.4169 265.944C70.6302 265.832 70.8595 265.747 71.1049 265.688C71.3502 265.624 71.6169 265.592 71.9049 265.592C72.3475 265.592 72.7529 265.688 73.1209 265.88C73.4942 266.067 73.8142 266.341 74.0809 266.704C74.3475 267.061 74.5555 267.501 74.7049 268.024C74.8542 268.547 74.9289 269.144 74.9289 269.816C74.9289 270.435 74.8435 271.008 74.6729 271.536C74.5075 272.059 74.2702 272.512 73.9609 272.896C73.6515 273.28 73.2782 273.581 72.8409 273.8C72.4089 274.013 71.9262 274.12 71.3929 274.12C70.9449 274.12 70.5635 274.053 70.2489 273.92C69.9395 273.787 69.6622 273.605 69.4169 273.376V276.664H67.2089V265.752H68.5689C68.8462 265.752 69.0302 265.88 69.1209 266.136L69.2889 266.832ZM76.3495 274V265.752H77.7095C77.9868 265.752 78.1708 265.88 78.2615 266.136L78.3895 266.672C78.5335 266.523 78.6802 266.384 78.8295 266.256C78.9842 266.128 79.1495 266.019 79.3255 265.928C79.5015 265.832 79.6908 265.757 79.8935 265.704C80.1015 265.651 80.3255 265.624 80.5655 265.624C81.0722 265.624 81.4908 265.76 81.8215 266.032C82.1522 266.299 82.4028 266.656 82.5735 267.104C82.7068 266.843 82.8695 266.619 83.0615 266.432C83.2588 266.24 83.4722 266.085 83.7015 265.968C83.9362 265.851 84.1815 265.765 84.4375 265.712C84.6988 265.653 84.9602 265.624 85.2215 265.624C85.6855 265.624 86.0962 265.693 86.4535 265.832C86.8108 265.971 87.1095 266.176 87.3495 266.448C87.5948 266.715 87.7815 267.043 87.9095 267.432C88.0375 267.821 88.1015 268.264 88.1015 268.76V274H85.8935V268.76C85.8935 267.795 85.4802 267.312 84.6535 267.312C84.4668 267.312 84.2935 267.344 84.1335 267.408C83.9788 267.467 83.8402 267.557 83.7175 267.68C83.6002 267.803 83.5068 267.955 83.4375 268.136C83.3735 268.317 83.3415 268.525 83.3415 268.76V274H81.1335V268.76C81.1335 268.237 81.0295 267.867 80.8215 267.648C80.6188 267.424 80.3175 267.312 79.9175 267.312C79.6615 267.312 79.4188 267.373 79.1895 267.496C78.9655 267.613 78.7548 267.779 78.5575 267.992V274H76.3495Z" fill="#24252C"/>
<path d="M189.552 250.744L187.752 246.08C187.699 245.941 187.643 245.781 187.584 245.6C187.525 245.413 187.469 245.216 187.416 245.008C187.304 245.44 187.189 245.8 187.072 246.088L185.272 250.744H189.552ZM192.784 255H191.584C191.445 255 191.333 254.965 191.248 254.896C191.163 254.827 191.099 254.739 191.056 254.632L189.984 251.864H184.84L183.768 254.632C183.736 254.728 183.675 254.813 183.584 254.888C183.493 254.963 183.381 255 183.248 255H182.048L186.632 243.536H188.2L192.784 255ZM195.96 255.128C195.32 255.128 194.826 254.949 194.48 254.592C194.138 254.235 193.968 253.72 193.968 253.048V248.088H192.992C192.906 248.088 192.834 248.064 192.776 248.016C192.717 247.963 192.688 247.883 192.688 247.776V247.208L194.016 247.04L194.344 244.536C194.36 244.456 194.394 244.392 194.448 244.344C194.506 244.291 194.581 244.264 194.672 244.264H195.392V247.056H199.208L199.536 244.536C199.552 244.456 199.586 244.392 199.64 244.344C199.698 244.291 199.773 244.264 199.864 244.264H200.584V247.056H202.928V248.088H200.584V252.952C200.584 253.293 200.666 253.547 200.832 253.712C201.002 253.877 201.216 253.96 201.472 253.96C201.621 253.96 201.749 253.941 201.856 253.904C201.968 253.861 202.064 253.816 202.144 253.768C202.224 253.72 202.29 253.677 202.344 253.64C202.402 253.597 202.453 253.576 202.496 253.576C202.576 253.576 202.642 253.621 202.696 253.712L203.12 254.392C202.869 254.621 202.57 254.803 202.224 254.936C201.877 255.064 201.52 255.128 201.152 255.128C200.517 255.128 200.026 254.949 199.68 254.592C199.333 254.235 199.16 253.72 199.16 253.048V248.088H195.392V252.952C195.392 253.293 195.474 253.547 195.64 253.712C195.805 253.877 196.018 253.96 196.28 253.96C196.429 253.96 196.557 253.941 196.664 253.904C196.776 253.861 196.872 253.816 196.952 253.768C197.032 253.72 197.098 253.677 197.152 253.64C197.21 253.597 197.261 253.576 197.304 253.576C197.378 253.576 197.445 253.621 197.504 253.712L197.92 254.392C197.674 254.621 197.378 254.803 197.032 254.936C196.685 255.064 196.328 255.128 195.96 255.128ZM209.771 250.064C209.771 249.733 209.723 249.432 209.627 249.16C209.536 248.883 209.4 248.645 209.219 248.448C209.043 248.245 208.827 248.091 208.571 247.984C208.315 247.872 208.024 247.816 207.699 247.816C207.016 247.816 206.475 248.016 206.075 248.416C205.68 248.811 205.435 249.36 205.339 250.064H209.771ZM210.923 253.864C210.747 254.077 210.536 254.264 210.291 254.424C210.045 254.579 209.781 254.707 209.499 254.808C209.221 254.909 208.933 254.984 208.635 255.032C208.336 255.085 208.04 255.112 207.747 255.112C207.187 255.112 206.669 255.019 206.195 254.832C205.725 254.64 205.317 254.363 204.971 254C204.629 253.632 204.363 253.179 204.171 252.64C203.979 252.101 203.883 251.483 203.883 250.784C203.883 250.219 203.968 249.691 204.139 249.2C204.315 248.709 204.565 248.285 204.891 247.928C205.216 247.565 205.613 247.283 206.083 247.08C206.552 246.872 207.08 246.768 207.667 246.768C208.152 246.768 208.6 246.851 209.011 247.016C209.427 247.176 209.784 247.411 210.083 247.72C210.387 248.024 210.624 248.403 210.795 248.856C210.965 249.304 211.051 249.816 211.051 250.392C211.051 250.616 211.027 250.765 210.979 250.84C210.931 250.915 210.84 250.952 210.707 250.952H205.291C205.307 251.464 205.376 251.909 205.499 252.288C205.627 252.667 205.803 252.984 206.027 253.24C206.251 253.491 206.517 253.68 206.827 253.808C207.136 253.931 207.483 253.992 207.867 253.992C208.224 253.992 208.531 253.952 208.787 253.872C209.048 253.787 209.272 253.696 209.459 253.6C209.645 253.504 209.8 253.416 209.923 253.336C210.051 253.251 210.16 253.208 210.251 253.208C210.368 253.208 210.459 253.253 210.523 253.344L210.923 253.864ZM214.144 248.072C214.32 247.875 214.507 247.696 214.704 247.536C214.901 247.376 215.109 247.24 215.328 247.128C215.552 247.011 215.787 246.923 216.032 246.864C216.283 246.8 216.552 246.768 216.84 246.768C217.283 246.768 217.672 246.843 218.008 246.992C218.349 247.136 218.632 247.344 218.856 247.616C219.085 247.883 219.259 248.205 219.376 248.584C219.493 248.963 219.552 249.381 219.552 249.84V255H218.12V249.84C218.12 249.227 217.979 248.752 217.696 248.416C217.419 248.075 216.995 247.904 216.424 247.904C216.003 247.904 215.608 248.005 215.24 248.208C214.877 248.411 214.541 248.685 214.232 249.032V255H212.8V246.896H213.656C213.859 246.896 213.984 246.995 214.032 247.192L214.144 248.072ZM227.002 248.824C226.735 248.467 226.447 248.219 226.138 248.08C225.828 247.936 225.482 247.864 225.098 247.864C224.346 247.864 223.767 248.133 223.362 248.672C222.956 249.211 222.754 249.979 222.754 250.976C222.754 251.504 222.799 251.957 222.89 252.336C222.98 252.709 223.114 253.019 223.29 253.264C223.466 253.504 223.682 253.68 223.938 253.792C224.194 253.904 224.484 253.96 224.81 253.96C225.279 253.96 225.687 253.853 226.034 253.64C226.386 253.427 226.708 253.125 227.002 252.736V248.824ZM228.426 243.216V255H227.578C227.375 255 227.247 254.901 227.194 254.704L227.066 253.72C226.719 254.136 226.324 254.472 225.882 254.728C225.439 254.984 224.927 255.112 224.346 255.112C223.882 255.112 223.46 255.024 223.082 254.848C222.703 254.667 222.38 254.403 222.114 254.056C221.847 253.709 221.642 253.277 221.498 252.76C221.354 252.243 221.282 251.648 221.282 250.976C221.282 250.379 221.362 249.824 221.522 249.312C221.682 248.795 221.911 248.347 222.21 247.968C222.508 247.589 222.874 247.293 223.306 247.08C223.743 246.861 224.234 246.752 224.778 246.752C225.274 246.752 225.698 246.837 226.05 247.008C226.407 247.173 226.724 247.405 227.002 247.704V243.216H228.426ZM236.099 250.064C236.099 249.733 236.051 249.432 235.955 249.16C235.864 248.883 235.728 248.645 235.547 248.448C235.371 248.245 235.155 248.091 234.899 247.984C234.643 247.872 234.352 247.816 234.027 247.816C233.344 247.816 232.803 248.016 232.403 248.416C232.008 248.811 231.763 249.36 231.667 250.064H236.099ZM237.251 253.864C237.075 254.077 236.864 254.264 236.619 254.424C236.374 254.579 236.11 254.707 235.827 254.808C235.55 254.909 235.262 254.984 234.963 255.032C234.664 255.085 234.368 255.112 234.075 255.112C233.515 255.112 232.998 255.019 232.523 254.832C232.054 254.64 231.646 254.363 231.299 254C230.958 253.632 230.691 253.179 230.499 252.64C230.307 252.101 230.211 251.483 230.211 250.784C230.211 250.219 230.296 249.691 230.467 249.2C230.643 248.709 230.894 248.285 231.219 247.928C231.544 247.565 231.942 247.283 232.411 247.08C232.88 246.872 233.408 246.768 233.995 246.768C234.48 246.768 234.928 246.851 235.339 247.016C235.755 247.176 236.112 247.411 236.411 247.72C236.715 248.024 236.952 248.403 237.123 248.856C237.294 249.304 237.379 249.816 237.379 250.392C237.379 250.616 237.355 250.765 237.307 250.84C237.259 250.915 237.168 250.952 237.035 250.952H231.619C231.635 251.464 231.704 251.909 231.827 252.288C231.955 252.667 232.131 252.984 232.355 253.24C232.579 253.491 232.846 253.68 233.155 253.808C233.464 253.931 233.811 253.992 234.195 253.992C234.552 253.992 234.859 253.952 235.115 253.872C235.376 253.787 235.6 253.696 235.787 253.6C235.974 253.504 236.128 253.416 236.251 253.336C236.379 253.251 236.488 253.208 236.579 253.208C236.696 253.208 236.787 253.253 236.851 253.344L237.251 253.864ZM244.408 248.824C244.141 248.467 243.853 248.219 243.544 248.08C243.235 247.936 242.888 247.864 242.504 247.864C241.752 247.864 241.173 248.133 240.768 248.672C240.363 249.211 240.16 249.979 240.16 250.976C240.16 251.504 240.205 251.957 240.296 252.336C240.387 252.709 240.52 253.019 240.696 253.264C240.872 253.504 241.088 253.68 241.344 253.792C241.6 253.904 241.891 253.96 242.216 253.96C242.685 253.96 243.093 253.853 243.44 253.64C243.792 253.427 244.115 253.125 244.408 252.736V248.824ZM245.832 243.216V255H244.984C244.781 255 244.653 254.901 244.6 254.704L244.472 253.72C244.125 254.136 243.731 254.472 243.288 254.728C242.845 254.984 242.333 255.112 241.752 255.112C241.288 255.112 240.867 255.024 240.488 254.848C240.109 254.667 239.787 254.403 239.52 254.056C239.253 253.709 239.048 253.277 238.904 252.76C238.76 252.243 238.688 251.648 238.688 250.976C238.688 250.379 238.768 249.824 238.928 249.312C239.088 248.795 239.317 248.347 239.616 247.968C239.915 247.589 240.28 247.293 240.712 247.08C241.149 246.861 241.64 246.752 242.184 246.752C242.68 246.752 243.104 246.837 243.456 247.008C243.813 247.173 244.131 247.405 244.408 247.704V243.216H245.832ZM253.607 253.048C253.868 253.4 254.154 253.648 254.463 253.792C254.778 253.936 255.122 254.008 255.495 254.008C256.258 254.008 256.842 253.739 257.247 253.2C257.652 252.661 257.855 251.859 257.855 250.792C257.855 249.8 257.674 249.072 257.311 248.608C256.954 248.139 256.442 247.904 255.775 247.904C255.311 247.904 254.906 248.011 254.559 248.224C254.218 248.437 253.9 248.739 253.607 249.128V253.048ZM253.607 248.064C253.948 247.669 254.332 247.355 254.759 247.12C255.191 246.885 255.687 246.768 256.247 246.768C256.722 246.768 257.148 246.859 257.527 247.04C257.911 247.221 258.236 247.485 258.503 247.832C258.77 248.173 258.972 248.589 259.111 249.08C259.255 249.571 259.327 250.123 259.327 250.736C259.327 251.392 259.247 251.989 259.087 252.528C258.927 253.067 258.695 253.528 258.391 253.912C258.092 254.291 257.727 254.587 257.295 254.8C256.863 255.008 256.378 255.112 255.839 255.112C255.306 255.112 254.855 255.013 254.487 254.816C254.124 254.613 253.807 254.328 253.535 253.96L253.463 254.696C253.42 254.899 253.298 255 253.095 255H252.175V243.216H253.607V248.064ZM267.917 246.896L263.397 257.392C263.349 257.499 263.288 257.584 263.213 257.648C263.144 257.712 263.034 257.744 262.885 257.744H261.829L263.309 254.528L259.965 246.896H261.197C261.32 246.896 261.416 246.928 261.485 246.992C261.56 247.051 261.61 247.117 261.637 247.192L263.805 252.296C263.89 252.52 263.962 252.755 264.021 253C264.096 252.749 264.176 252.512 264.261 252.288L266.365 247.192C266.397 247.107 266.45 247.037 266.525 246.984C266.605 246.925 266.693 246.896 266.789 246.896H267.917ZM189.504 264.616C189.429 264.739 189.352 264.829 189.272 264.888C189.197 264.941 189.099 264.968 188.976 264.968C188.859 264.968 188.731 264.928 188.592 264.848C188.459 264.763 188.301 264.672 188.12 264.576C187.939 264.48 187.731 264.392 187.496 264.312C187.261 264.227 186.987 264.184 186.672 264.184C186.117 264.184 185.701 264.309 185.424 264.56C185.147 264.805 185.008 265.128 185.008 265.528C185.008 265.784 185.083 265.997 185.232 266.168C185.387 266.333 185.587 266.477 185.832 266.6C186.083 266.723 186.365 266.832 186.68 266.928C186.995 267.024 187.317 267.131 187.648 267.248C187.979 267.36 188.301 267.493 188.616 267.648C188.931 267.803 189.211 267.997 189.456 268.232C189.707 268.467 189.907 268.755 190.056 269.096C190.211 269.432 190.288 269.843 190.288 270.328C190.288 270.856 190.195 271.352 190.008 271.816C189.827 272.275 189.563 272.677 189.216 273.024C188.869 273.365 188.44 273.635 187.928 273.832C187.421 274.029 186.845 274.128 186.2 274.128C185.832 274.128 185.464 274.091 185.096 274.016C184.733 273.941 184.381 273.837 184.04 273.704C183.704 273.571 183.387 273.411 183.088 273.224C182.789 273.037 182.528 272.829 182.304 272.6L183.008 271.464C183.067 271.379 183.144 271.309 183.24 271.256C183.336 271.197 183.437 271.168 183.544 271.168C183.688 271.168 183.84 271.221 184 271.328C184.16 271.435 184.344 271.552 184.552 271.68C184.76 271.808 185 271.925 185.272 272.032C185.549 272.139 185.88 272.192 186.264 272.192C186.824 272.192 187.256 272.064 187.56 271.808C187.869 271.552 188.024 271.171 188.024 270.664C188.024 270.371 187.947 270.133 187.792 269.952C187.643 269.771 187.445 269.619 187.2 269.496C186.955 269.373 186.675 269.269 186.36 269.184C186.045 269.093 185.723 268.995 185.392 268.888C185.061 268.781 184.739 268.653 184.424 268.504C184.109 268.355 183.829 268.157 183.584 267.912C183.339 267.667 183.139 267.363 182.984 267C182.835 266.637 182.76 266.187 182.76 265.648C182.76 265.216 182.845 264.797 183.016 264.392C183.187 263.987 183.437 263.627 183.768 263.312C184.099 262.997 184.504 262.744 184.984 262.552C185.469 262.36 186.024 262.264 186.648 262.264C187.347 262.264 187.992 262.373 188.584 262.592C189.181 262.805 189.685 263.104 190.096 263.488L189.504 264.616ZM203.245 268.192C203.245 269.04 203.101 269.827 202.813 270.552C202.53 271.277 202.127 271.904 201.605 272.432C201.087 272.96 200.463 273.376 199.733 273.68C199.002 273.979 198.191 274.128 197.301 274.128C196.41 274.128 195.599 273.979 194.869 273.68C194.138 273.376 193.511 272.96 192.989 272.432C192.466 271.904 192.061 271.277 191.773 270.552C191.49 269.827 191.349 269.04 191.349 268.192C191.349 267.344 191.49 266.56 191.773 265.84C192.061 265.115 192.466 264.488 192.989 263.96C193.511 263.432 194.138 263.019 194.869 262.72C195.599 262.416 196.41 262.264 197.301 262.264C198.191 262.264 199.002 262.416 199.733 262.72C200.463 263.019 201.087 263.435 201.605 263.968C202.127 264.496 202.53 265.123 202.813 265.848C203.101 266.568 203.245 267.349 203.245 268.192ZM200.789 268.192C200.789 267.584 200.709 267.04 200.549 266.56C200.389 266.075 200.157 265.664 199.852 265.328C199.554 264.987 199.189 264.728 198.757 264.552C198.33 264.371 197.845 264.28 197.301 264.28C196.757 264.28 196.269 264.371 195.837 264.552C195.405 264.728 195.037 264.987 194.733 265.328C194.434 265.664 194.205 266.075 194.045 266.56C193.885 267.04 193.805 267.584 193.805 268.192C193.805 268.805 193.885 269.355 194.045 269.84C194.205 270.32 194.434 270.728 194.733 271.064C195.037 271.4 195.405 271.659 195.837 271.84C196.269 272.016 196.757 272.104 197.301 272.104C197.845 272.104 198.33 272.016 198.757 271.84C199.189 271.659 199.554 271.4 199.852 271.064C200.157 270.728 200.389 270.32 200.549 269.84C200.709 269.355 200.789 268.805 200.789 268.192ZM207.413 264.272V267.48H211.589V269.368H207.413V274H204.997V262.392H212.389V264.272H207.413ZM216.476 274H214.06V262.392H216.476V274ZM225.032 269.592L223.776 266.04C223.701 265.853 223.621 265.635 223.536 265.384C223.456 265.133 223.378 264.861 223.304 264.568C223.229 264.867 223.149 265.144 223.064 265.4C222.984 265.651 222.906 265.869 222.832 266.056L221.584 269.592H225.032ZM229.064 274H227.2C226.992 274 226.821 273.952 226.688 273.856C226.56 273.755 226.464 273.627 226.4 273.472L225.616 271.256H220.992L220.208 273.472C220.154 273.605 220.061 273.728 219.928 273.84C219.794 273.947 219.626 274 219.424 274H217.543L222.08 262.392H224.536L229.064 274Z" fill="#24252C"/>
<path d="M362.103 249.272C362.103 250.131 361.967 250.912 361.695 251.616C361.423 252.32 361.039 252.923 360.543 253.424C360.047 253.925 359.45 254.315 358.751 254.592C358.058 254.864 357.29 255 356.447 255H352.167V243.536H356.447C357.29 243.536 358.058 243.675 358.751 243.952C359.45 244.224 360.047 244.613 360.543 245.12C361.039 245.621 361.423 246.224 361.695 246.928C361.967 247.632 362.103 248.413 362.103 249.272ZM360.511 249.272C360.511 248.568 360.415 247.939 360.223 247.384C360.031 246.829 359.759 246.36 359.407 245.976C359.055 245.592 358.628 245.299 358.127 245.096C357.626 244.893 357.066 244.792 356.447 244.792H353.719V253.744H356.447C357.066 253.744 357.626 253.643 358.127 253.44C358.628 253.237 359.055 252.947 359.407 252.568C359.759 252.184 360.031 251.715 360.223 251.16C360.415 250.605 360.511 249.976 360.511 249.272ZM370.542 246.896V255H369.694C369.491 255 369.363 254.901 369.31 254.704L369.198 253.832C368.846 254.221 368.451 254.536 368.014 254.776C367.577 255.011 367.075 255.128 366.51 255.128C366.067 255.128 365.675 255.056 365.334 254.912C364.998 254.763 364.715 254.555 364.486 254.288C364.257 254.021 364.083 253.699 363.966 253.32C363.854 252.941 363.798 252.523 363.798 252.064V246.896H365.222V252.064C365.222 252.677 365.361 253.152 365.638 253.488C365.921 253.824 366.35 253.992 366.926 253.992C367.347 253.992 367.739 253.893 368.102 253.696C368.47 253.493 368.809 253.216 369.118 252.864V246.896H370.542ZM374.152 248.52C374.408 247.965 374.723 247.533 375.096 247.224C375.469 246.909 375.925 246.752 376.464 246.752C376.635 246.752 376.797 246.771 376.952 246.808C377.112 246.845 377.253 246.904 377.376 246.984L377.272 248.048C377.24 248.181 377.16 248.248 377.032 248.248C376.957 248.248 376.848 248.232 376.704 248.2C376.56 248.168 376.397 248.152 376.216 248.152C375.96 248.152 375.731 248.189 375.528 248.264C375.331 248.339 375.152 248.451 374.992 248.6C374.837 248.744 374.696 248.925 374.568 249.144C374.445 249.357 374.333 249.603 374.232 249.88V255H372.8V246.896H373.616C373.771 246.896 373.877 246.925 373.936 246.984C373.995 247.043 374.035 247.144 374.056 247.288L374.152 248.52ZM382.895 251.352C382.239 251.373 381.679 251.427 381.215 251.512C380.756 251.592 380.38 251.699 380.087 251.832C379.799 251.965 379.588 252.123 379.455 252.304C379.327 252.485 379.263 252.688 379.263 252.912C379.263 253.125 379.298 253.309 379.367 253.464C379.436 253.619 379.53 253.747 379.647 253.848C379.77 253.944 379.911 254.016 380.071 254.064C380.236 254.107 380.412 254.128 380.599 254.128C380.85 254.128 381.079 254.104 381.287 254.056C381.495 254.003 381.69 253.928 381.871 253.832C382.058 253.736 382.234 253.621 382.399 253.488C382.57 253.355 382.735 253.203 382.895 253.032V251.352ZM378.295 248.04C378.743 247.608 379.226 247.285 379.743 247.072C380.26 246.859 380.834 246.752 381.463 246.752C381.916 246.752 382.319 246.827 382.671 246.976C383.023 247.125 383.319 247.333 383.559 247.6C383.799 247.867 383.98 248.189 384.103 248.568C384.226 248.947 384.287 249.363 384.287 249.816V255H383.655C383.516 255 383.41 254.979 383.335 254.936C383.26 254.888 383.202 254.797 383.159 254.664L382.999 253.896C382.786 254.093 382.578 254.269 382.375 254.424C382.172 254.573 381.959 254.701 381.735 254.808C381.511 254.909 381.271 254.987 381.015 255.04C380.764 255.099 380.484 255.128 380.175 255.128C379.86 255.128 379.564 255.085 379.287 255C379.01 254.909 378.767 254.776 378.559 254.6C378.356 254.424 378.194 254.203 378.071 253.936C377.954 253.664 377.895 253.344 377.895 252.976C377.895 252.656 377.983 252.349 378.159 252.056C378.335 251.757 378.62 251.493 379.015 251.264C379.41 251.035 379.924 250.848 380.559 250.704C381.194 250.555 381.972 250.469 382.895 250.448V249.816C382.895 249.187 382.759 248.712 382.487 248.392C382.215 248.067 381.818 247.904 381.295 247.904C380.943 247.904 380.647 247.949 380.407 248.04C380.172 248.125 379.967 248.224 379.791 248.336C379.62 248.443 379.471 248.541 379.343 248.632C379.22 248.717 379.098 248.76 378.975 248.76C378.879 248.76 378.796 248.736 378.727 248.688C378.658 248.635 378.599 248.571 378.551 248.496L378.295 248.04ZM393.867 255H392.443V248.088H388.267V252.952C388.267 253.293 388.349 253.547 388.515 253.712C388.68 253.877 388.893 253.96 389.155 253.96C389.304 253.96 389.432 253.941 389.539 253.904C389.651 253.861 389.747 253.816 389.827 253.768C389.907 253.72 389.973 253.677 390.027 253.64C390.085 253.597 390.136 253.576 390.179 253.576C390.253 253.576 390.32 253.621 390.379 253.712L390.795 254.392C390.549 254.621 390.253 254.803 389.907 254.936C389.56 255.064 389.203 255.128 388.835 255.128C388.195 255.128 387.701 254.949 387.355 254.592C387.013 254.235 386.843 253.72 386.843 253.048V248.088H385.867C385.781 248.088 385.709 248.064 385.651 248.016C385.592 247.963 385.563 247.883 385.563 247.776V247.208L386.891 247.032L387.219 244.536C387.235 244.456 387.269 244.392 387.323 244.344C387.381 244.291 387.456 244.264 387.547 244.264H388.267V247.056H393.867V255ZM394.219 244.296C394.219 244.435 394.189 244.565 394.131 244.688C394.077 244.805 394.003 244.909 393.907 245C393.816 245.091 393.709 245.163 393.587 245.216C393.464 245.269 393.333 245.296 393.195 245.296C393.056 245.296 392.925 245.269 392.803 245.216C392.685 245.163 392.581 245.091 392.491 245C392.4 244.909 392.328 244.805 392.275 244.688C392.221 244.565 392.195 244.435 392.195 244.296C392.195 244.157 392.221 244.027 392.275 243.904C392.328 243.776 392.4 243.667 392.491 243.576C392.581 243.48 392.685 243.405 392.803 243.352C392.925 243.299 393.056 243.272 393.195 243.272C393.333 243.272 393.464 243.299 393.587 243.352C393.709 243.405 393.816 243.48 393.907 243.576C394.003 243.667 394.077 243.776 394.131 243.904C394.189 244.027 394.219 244.157 394.219 244.296ZM399.622 246.768C400.214 246.768 400.747 246.867 401.222 247.064C401.697 247.261 402.102 247.541 402.438 247.904C402.774 248.267 403.03 248.707 403.206 249.224C403.387 249.736 403.478 250.309 403.478 250.944C403.478 251.584 403.387 252.16 403.206 252.672C403.03 253.184 402.774 253.621 402.438 253.984C402.102 254.347 401.697 254.627 401.222 254.824C400.747 255.016 400.214 255.112 399.622 255.112C399.025 255.112 398.486 255.016 398.006 254.824C397.531 254.627 397.126 254.347 396.79 253.984C396.454 253.621 396.195 253.184 396.014 252.672C395.838 252.16 395.75 251.584 395.75 250.944C395.75 250.309 395.838 249.736 396.014 249.224C396.195 248.707 396.454 248.267 396.79 247.904C397.126 247.541 397.531 247.261 398.006 247.064C398.486 246.867 399.025 246.768 399.622 246.768ZM399.622 254C400.422 254 401.019 253.733 401.414 253.2C401.809 252.661 402.006 251.912 402.006 250.952C402.006 249.987 401.809 249.235 401.414 248.696C401.019 248.157 400.422 247.888 399.622 247.888C399.217 247.888 398.862 247.957 398.558 248.096C398.259 248.235 398.009 248.435 397.806 248.696C397.609 248.957 397.459 249.28 397.358 249.664C397.262 250.043 397.214 250.472 397.214 250.952C397.214 251.912 397.411 252.661 397.806 253.2C398.206 253.733 398.811 254 399.622 254ZM406.628 248.072C406.804 247.875 406.991 247.696 407.188 247.536C407.386 247.376 407.594 247.24 407.812 247.128C408.036 247.011 408.271 246.923 408.516 246.864C408.767 246.8 409.036 246.768 409.324 246.768C409.767 246.768 410.156 246.843 410.492 246.992C410.834 247.136 411.116 247.344 411.34 247.616C411.57 247.883 411.743 248.205 411.86 248.584C411.978 248.963 412.036 249.381 412.036 249.84V255H410.604V249.84C410.604 249.227 410.463 248.752 410.18 248.416C409.903 248.075 409.479 247.904 408.908 247.904C408.487 247.904 408.092 248.005 407.724 248.208C407.362 248.411 407.026 248.685 406.716 249.032V255H405.284V246.896H406.14C406.343 246.896 406.468 246.995 406.516 247.192L406.628 248.072ZM418.926 248.232C418.862 248.349 418.763 248.408 418.63 248.408C418.55 248.408 418.459 248.379 418.358 248.32C418.257 248.261 418.131 248.197 417.982 248.128C417.838 248.053 417.665 247.987 417.462 247.928C417.259 247.864 417.019 247.832 416.742 247.832C416.502 247.832 416.286 247.864 416.094 247.928C415.902 247.987 415.737 248.069 415.598 248.176C415.465 248.283 415.361 248.408 415.286 248.552C415.217 248.691 415.182 248.843 415.182 249.008C415.182 249.216 415.241 249.389 415.358 249.528C415.481 249.667 415.641 249.787 415.838 249.888C416.035 249.989 416.259 250.08 416.51 250.16C416.761 250.235 417.017 250.317 417.278 250.408C417.545 250.493 417.803 250.589 418.054 250.696C418.305 250.803 418.529 250.936 418.726 251.096C418.923 251.256 419.081 251.453 419.198 251.688C419.321 251.917 419.382 252.195 419.382 252.52C419.382 252.893 419.315 253.24 419.182 253.56C419.049 253.875 418.851 254.149 418.59 254.384C418.329 254.613 418.009 254.795 417.63 254.928C417.251 255.061 416.814 255.128 416.318 255.128C415.753 255.128 415.241 255.037 414.782 254.856C414.323 254.669 413.934 254.432 413.614 254.144L413.95 253.6C413.993 253.531 414.043 253.477 414.102 253.44C414.161 253.403 414.235 253.384 414.326 253.384C414.422 253.384 414.523 253.421 414.63 253.496C414.737 253.571 414.865 253.653 415.014 253.744C415.169 253.835 415.355 253.917 415.574 253.992C415.793 254.067 416.065 254.104 416.39 254.104C416.667 254.104 416.91 254.069 417.118 254C417.326 253.925 417.499 253.827 417.638 253.704C417.777 253.581 417.878 253.44 417.942 253.28C418.011 253.12 418.046 252.949 418.046 252.768C418.046 252.544 417.985 252.36 417.862 252.216C417.745 252.067 417.587 251.941 417.39 251.84C417.193 251.733 416.966 251.643 416.71 251.568C416.459 251.488 416.201 251.405 415.934 251.32C415.673 251.235 415.414 251.139 415.158 251.032C414.907 250.92 414.683 250.781 414.486 250.616C414.289 250.451 414.129 250.248 414.006 250.008C413.889 249.763 413.83 249.467 413.83 249.12C413.83 248.811 413.894 248.515 414.022 248.232C414.15 247.944 414.337 247.693 414.582 247.48C414.827 247.261 415.129 247.088 415.486 246.96C415.843 246.832 416.251 246.768 416.71 246.768C417.243 246.768 417.721 246.853 418.142 247.024C418.569 247.189 418.937 247.419 419.246 247.712L418.926 248.232ZM379.242 272.376V274H372.73V272.376H375.034V266.024C375.034 265.885 375.037 265.744 375.042 265.6C375.048 265.456 375.056 265.309 375.066 265.16L373.546 266.424C373.44 266.504 373.336 266.555 373.234 266.576C373.133 266.597 373.037 266.6 372.946 266.584C372.856 266.563 372.776 266.531 372.706 266.488C372.637 266.44 372.584 266.392 372.546 266.344L371.85 265.408L375.418 262.384H377.234V272.376H379.242ZM385.82 269.568V266.112C385.82 265.931 385.825 265.739 385.836 265.536C385.852 265.328 385.873 265.112 385.9 264.888L382.539 269.568H385.82ZM389.084 269.568V270.816C389.084 270.933 389.044 271.035 388.964 271.12C388.889 271.2 388.782 271.24 388.644 271.24H387.74V274H385.82V271.24H381.028C380.889 271.24 380.761 271.197 380.644 271.112C380.532 271.027 380.462 270.915 380.436 270.776L380.204 269.672L385.644 262.384H387.74V269.568H389.084ZM394.178 274V265.752H395.538C395.815 265.752 395.999 265.88 396.09 266.136L396.218 266.672C396.362 266.523 396.508 266.384 396.658 266.256C396.812 266.128 396.978 266.019 397.154 265.928C397.33 265.832 397.519 265.757 397.722 265.704C397.93 265.651 398.154 265.624 398.394 265.624C398.9 265.624 399.319 265.76 399.65 266.032C399.98 266.299 400.231 266.656 400.402 267.104C400.535 266.843 400.698 266.619 400.89 266.432C401.087 266.24 401.3 266.085 401.53 265.968C401.764 265.851 402.01 265.765 402.266 265.712C402.527 265.653 402.788 265.624 403.05 265.624C403.514 265.624 403.924 265.693 404.282 265.832C404.639 265.971 404.938 266.176 405.178 266.448C405.423 266.715 405.61 267.043 405.738 267.432C405.866 267.821 405.93 268.264 405.93 268.76V274H403.722V268.76C403.722 267.795 403.308 267.312 402.482 267.312C402.295 267.312 402.122 267.344 401.962 267.408C401.807 267.467 401.668 267.557 401.546 267.68C401.428 267.803 401.335 267.955 401.266 268.136C401.202 268.317 401.17 268.525 401.17 268.76V274H398.962V268.76C398.962 268.237 398.858 267.867 398.65 267.648C398.447 267.424 398.146 267.312 397.746 267.312C397.49 267.312 397.247 267.373 397.018 267.496C396.794 267.613 396.583 267.779 396.386 267.992V274H394.178ZM409.95 265.752V274H407.742V265.752H409.95ZM410.214 263.408C410.214 263.595 410.176 263.768 410.102 263.928C410.027 264.088 409.926 264.229 409.798 264.352C409.675 264.475 409.528 264.571 409.358 264.64C409.192 264.709 409.014 264.744 408.822 264.744C408.64 264.744 408.467 264.709 408.302 264.64C408.142 264.571 408 264.475 407.878 264.352C407.755 264.229 407.656 264.088 407.582 263.928C407.512 263.768 407.478 263.595 407.478 263.408C407.478 263.221 407.512 263.048 407.582 262.888C407.656 262.723 407.755 262.579 407.878 262.456C408 262.333 408.142 262.237 408.302 262.168C408.467 262.099 408.64 262.064 408.822 262.064C409.014 262.064 409.192 262.099 409.358 262.168C409.528 262.237 409.675 262.333 409.798 262.456C409.926 262.579 410.027 262.723 410.102 262.888C410.176 263.048 410.214 263.221 410.214 263.408ZM413.882 266.712C414.047 266.552 414.218 266.405 414.394 266.272C414.575 266.139 414.765 266.024 414.962 265.928C415.165 265.832 415.381 265.757 415.61 265.704C415.845 265.651 416.098 265.624 416.37 265.624C416.818 265.624 417.215 265.701 417.562 265.856C417.909 266.011 418.199 266.227 418.434 266.504C418.674 266.781 418.853 267.112 418.97 267.496C419.093 267.88 419.154 268.301 419.154 268.76V274H416.954V268.76C416.954 268.301 416.847 267.947 416.634 267.696C416.421 267.44 416.106 267.312 415.69 267.312C415.381 267.312 415.09 267.379 414.818 267.512C414.546 267.645 414.287 267.832 414.042 268.072V274H411.834V265.752H413.194C413.471 265.752 413.655 265.88 413.746 266.136L413.882 266.712Z" fill="#24252C"/>
<path d="M357.299 174.364C357.242 173.797 356.992 173.346 356.548 173.011C356.104 172.677 355.545 172.509 354.873 172.509C354.399 172.509 353.981 172.59 353.62 172.753C353.262 172.915 352.98 173.141 352.775 173.429C352.572 173.714 352.471 174.039 352.471 174.403C352.471 174.672 352.529 174.907 352.645 175.109C352.761 175.312 352.917 175.486 353.113 175.631C353.311 175.774 353.53 175.897 353.769 175.999C354.011 176.102 354.254 176.188 354.5 176.258L355.574 176.566C355.898 176.656 356.223 176.77 356.548 176.909C356.873 177.048 357.169 177.224 357.438 177.436C357.71 177.645 357.927 177.902 358.089 178.207C358.255 178.508 358.338 178.871 358.338 179.295C358.338 179.839 358.197 180.328 357.915 180.762C357.633 181.196 357.229 181.541 356.702 181.796C356.175 182.048 355.544 182.174 354.808 182.174C354.115 182.174 353.514 182.06 353.003 181.831C352.493 181.599 352.092 181.279 351.8 180.871C351.508 180.464 351.344 179.991 351.308 179.455H352.262C352.296 179.856 352.428 180.195 352.66 180.474C352.892 180.752 353.194 180.964 353.565 181.11C353.936 181.253 354.35 181.324 354.808 181.324C355.315 181.324 355.766 181.239 356.16 181.07C356.558 180.898 356.869 180.659 357.095 180.354C357.324 180.046 357.438 179.688 357.438 179.281C357.438 178.936 357.348 178.647 357.169 178.415C356.99 178.18 356.74 177.983 356.419 177.824C356.1 177.665 355.731 177.524 355.31 177.401L354.092 177.043C353.293 176.805 352.673 176.475 352.233 176.054C351.792 175.633 351.571 175.096 351.571 174.443C351.571 173.896 351.717 173.416 352.009 173.001C352.304 172.584 352.702 172.259 353.202 172.027C353.706 171.792 354.271 171.674 354.897 171.674C355.53 171.674 356.091 171.79 356.578 172.022C357.065 172.254 357.451 172.574 357.736 172.982C358.025 173.386 358.179 173.847 358.199 174.364H357.299ZM363.478 182.159C362.766 182.159 362.149 181.993 361.629 181.662C361.109 181.327 360.706 180.865 360.421 180.275C360.139 179.682 359.998 178.999 359.998 178.227C359.998 177.458 360.139 176.775 360.421 176.178C360.706 175.578 361.099 175.109 361.599 174.771C362.103 174.43 362.685 174.259 363.344 174.259C363.758 174.259 364.158 174.335 364.542 174.488C364.927 174.637 365.271 174.867 365.576 175.179C365.885 175.487 366.128 175.877 366.307 176.347C366.486 176.815 366.576 177.368 366.576 178.008V178.445H360.61V177.665H365.671C365.671 177.174 365.571 176.733 365.373 176.342C365.177 175.948 364.904 175.636 364.552 175.408C364.204 175.179 363.801 175.065 363.344 175.065C362.86 175.065 362.434 175.194 362.066 175.452C361.699 175.711 361.41 176.052 361.201 176.477C360.996 176.901 360.891 177.365 360.888 177.869V178.336C360.888 178.942 360.993 179.473 361.201 179.927C361.413 180.378 361.713 180.727 362.101 180.976C362.489 181.224 362.948 181.349 363.478 181.349C363.84 181.349 364.156 181.292 364.428 181.18C364.703 181.067 364.933 180.916 365.119 180.727C365.308 180.535 365.45 180.325 365.547 180.096L366.387 180.369C366.271 180.691 366.08 180.987 365.815 181.259C365.553 181.531 365.225 181.75 364.831 181.915C364.44 182.078 363.989 182.159 363.478 182.159ZM369.411 177.227V182H368.526V174.364H369.386V175.562H369.465C369.644 175.171 369.923 174.857 370.301 174.622C370.682 174.384 371.152 174.264 371.713 174.264C372.226 174.264 372.677 174.372 373.065 174.587C373.456 174.799 373.759 175.113 373.975 175.527C374.193 175.941 374.303 176.45 374.303 177.053V182H373.418V177.108C373.418 176.482 373.242 175.986 372.891 175.621C372.543 175.257 372.075 175.075 371.489 175.075C371.088 175.075 370.731 175.161 370.42 175.333C370.108 175.505 369.861 175.754 369.679 176.079C369.5 176.4 369.411 176.783 369.411 177.227ZM379.641 174.364V175.134H375.997V174.364H379.641ZM377.135 172.534H378.025V180.006C378.025 180.325 378.08 180.575 378.189 180.757C378.299 180.936 378.441 181.064 378.617 181.14C378.792 181.213 378.98 181.249 379.179 181.249C379.295 181.249 379.394 181.243 379.477 181.229C379.56 181.213 379.633 181.196 379.696 181.18L379.885 181.98C379.798 182.013 379.692 182.043 379.566 182.07C379.44 182.099 379.285 182.114 379.099 182.114C378.774 182.114 378.461 182.043 378.159 181.901C377.861 181.758 377.616 181.546 377.424 181.264C377.231 180.982 377.135 180.633 377.135 180.215V172.534ZM381.661 182V174.364H382.551V182H381.661ZM382.113 173.051C381.931 173.051 381.775 172.99 381.646 172.867C381.517 172.741 381.452 172.59 381.452 172.415C381.452 172.239 381.517 172.09 381.646 171.967C381.775 171.841 381.931 171.778 382.113 171.778C382.295 171.778 382.451 171.841 382.58 171.967C382.71 172.09 382.774 172.239 382.774 172.415C382.774 172.59 382.71 172.741 382.58 172.867C382.451 172.99 382.295 173.051 382.113 173.051ZM384.891 182V174.364H385.751V175.537H385.831C385.983 175.143 386.237 174.833 386.591 174.607C386.949 174.379 387.378 174.264 387.879 174.264C388.406 174.264 388.838 174.388 389.176 174.637C389.518 174.882 389.773 175.22 389.942 175.651H390.007C390.179 175.227 390.459 174.891 390.847 174.642C391.238 174.39 391.712 174.264 392.269 174.264C392.978 174.264 393.538 174.488 393.949 174.935C394.36 175.379 394.566 176.029 394.566 176.884V182H393.681V176.884C393.681 176.281 393.527 175.829 393.218 175.527C392.91 175.225 392.504 175.075 392 175.075C391.417 175.075 390.968 175.254 390.653 175.612C390.338 175.969 390.181 176.424 390.181 176.974V182H389.276V176.805C389.276 176.288 389.132 175.87 388.843 175.552C388.555 175.234 388.149 175.075 387.625 175.075C387.274 175.075 386.958 175.161 386.676 175.333C386.397 175.505 386.177 175.746 386.015 176.054C385.855 176.359 385.776 176.71 385.776 177.108V182H384.891ZM399.996 182.159C399.283 182.159 398.667 181.993 398.146 181.662C397.626 181.327 397.223 180.865 396.938 180.275C396.657 179.682 396.516 178.999 396.516 178.227C396.516 177.458 396.657 176.775 396.938 176.178C397.223 175.578 397.616 175.109 398.117 174.771C398.62 174.43 399.202 174.259 399.862 174.259C400.276 174.259 400.675 174.335 401.06 174.488C401.444 174.637 401.789 174.867 402.094 175.179C402.402 175.487 402.646 175.877 402.825 176.347C403.004 176.815 403.093 177.368 403.093 178.008V178.445H397.127V177.665H402.188C402.188 177.174 402.089 176.733 401.89 176.342C401.695 175.948 401.421 175.636 401.07 175.408C400.722 175.179 400.319 175.065 399.862 175.065C399.378 175.065 398.952 175.194 398.584 175.452C398.216 175.711 397.928 176.052 397.719 176.477C397.513 176.901 397.409 177.365 397.406 177.869V178.336C397.406 178.942 397.51 179.473 397.719 179.927C397.931 180.378 398.231 180.727 398.619 180.976C399.007 181.224 399.466 181.349 399.996 181.349C400.357 181.349 400.674 181.292 400.945 181.18C401.221 181.067 401.451 180.916 401.637 180.727C401.825 180.535 401.968 180.325 402.064 180.096L402.904 180.369C402.788 180.691 402.598 180.987 402.333 181.259C402.071 181.531 401.743 181.75 401.348 181.915C400.957 182.078 400.506 182.159 399.996 182.159ZM405.928 177.227V182H405.043V174.364H405.903V175.562H405.983C406.162 175.171 406.44 174.857 406.818 174.622C407.199 174.384 407.67 174.264 408.23 174.264C408.744 174.264 409.195 174.372 409.582 174.587C409.973 174.799 410.277 175.113 410.492 175.527C410.711 175.941 410.82 176.45 410.82 177.053V182H409.935V177.108C409.935 176.482 409.76 175.986 409.408 175.621C409.06 175.257 408.593 175.075 408.006 175.075C407.605 175.075 407.249 175.161 406.938 175.333C406.626 175.505 406.379 175.754 406.197 176.079C406.018 176.4 405.928 176.783 405.928 177.227ZM416.159 174.364V175.134H412.514V174.364H416.159ZM413.653 172.534H414.543V180.006C414.543 180.325 414.597 180.575 414.707 180.757C414.816 180.936 414.959 181.064 415.134 181.14C415.31 181.213 415.497 181.249 415.696 181.249C415.812 181.249 415.912 181.243 415.994 181.229C416.077 181.213 416.15 181.196 416.213 181.18L416.402 181.98C416.316 182.013 416.21 182.043 416.084 182.07C415.958 182.099 415.802 182.114 415.617 182.114C415.292 182.114 414.979 182.043 414.677 181.901C414.379 181.758 414.133 181.546 413.941 181.264C413.749 180.982 413.653 180.633 413.653 180.215V172.534Z" fill="#24252C"/>
<path d="M30.3267 175H29.392C29.3224 174.652 29.1965 174.33 29.0142 174.036C28.8352 173.737 28.6098 173.477 28.3381 173.255C28.0663 173.033 27.758 172.861 27.4134 172.738C27.0687 172.615 26.6958 172.554 26.2947 172.554C25.6518 172.554 25.0651 172.721 24.5348 173.056C24.0078 173.391 23.5852 173.883 23.267 174.533C22.9522 175.179 22.7947 175.971 22.7947 176.909C22.7947 177.854 22.9522 178.649 23.267 179.295C23.5852 179.942 24.0078 180.432 24.5348 180.767C25.0651 181.098 25.6518 181.264 26.2947 181.264C26.6958 181.264 27.0687 181.203 27.4134 181.08C27.758 180.958 28.0663 180.787 28.3381 180.568C28.6098 180.346 28.8352 180.086 29.0142 179.788C29.1965 179.489 29.3224 179.166 29.392 178.818H30.3267C30.2438 179.286 30.0881 179.721 29.8594 180.126C29.634 180.527 29.3456 180.878 28.9943 181.18C28.6463 181.481 28.2453 181.717 27.7912 181.886C27.3371 182.055 26.8383 182.139 26.2947 182.139C25.4396 182.139 24.6806 181.925 24.0178 181.498C23.3549 181.067 22.8345 180.46 22.4567 179.678C22.0821 178.896 21.8949 177.973 21.8949 176.909C21.8949 175.845 22.0821 174.922 22.4567 174.14C22.8345 173.358 23.3549 172.753 24.0178 172.325C24.6806 171.894 25.4396 171.679 26.2947 171.679C26.8383 171.679 27.3371 171.763 27.7912 171.933C28.2453 172.098 28.6463 172.334 28.9943 172.638C29.3456 172.94 29.634 173.291 29.8594 173.692C30.0881 174.094 30.2438 174.529 30.3267 175ZM34.4593 182.174C33.9986 182.174 33.5777 182.085 33.1966 181.906C32.8154 181.723 32.5121 181.461 32.2868 181.12C32.0614 180.775 31.9487 180.358 31.9487 179.867C31.9487 179.489 32.0199 179.171 32.1625 178.913C32.305 178.654 32.5072 178.442 32.769 178.276C33.0308 178.111 33.3407 177.98 33.6987 177.884C34.0566 177.787 34.4511 177.713 34.8819 177.66C35.3095 177.607 35.6708 177.56 35.9657 177.521C36.264 177.481 36.4911 177.418 36.6468 177.332C36.8026 177.246 36.8805 177.106 36.8805 176.914V176.735C36.8805 176.215 36.7247 175.805 36.4132 175.507C36.1049 175.205 35.6608 175.055 35.0808 175.055C34.5306 175.055 34.0815 175.176 33.7335 175.418C33.3888 175.66 33.1468 175.945 33.0076 176.273L32.1674 175.969C32.3398 175.552 32.5784 175.219 32.8833 174.97C33.1883 174.718 33.5297 174.538 33.9075 174.428C34.2853 174.316 34.6681 174.259 35.0559 174.259C35.3476 174.259 35.6509 174.297 35.9657 174.374C36.2839 174.45 36.5789 174.582 36.8507 174.771C37.1225 174.957 37.3429 175.217 37.5119 175.552C37.6809 175.883 37.7654 176.304 37.7654 176.815V182H36.8805V180.792H36.8258C36.7198 181.017 36.5623 181.236 36.3535 181.448C36.1447 181.66 35.8829 181.834 35.568 181.97C35.2531 182.106 34.8836 182.174 34.4593 182.174ZM34.5787 181.364C35.0493 181.364 35.457 181.259 35.8017 181.05C36.1464 180.842 36.4115 180.565 36.5971 180.22C36.786 179.872 36.8805 179.489 36.8805 179.072V177.968C36.8142 178.031 36.7032 178.087 36.5474 178.137C36.3949 178.187 36.2176 178.232 36.0154 178.271C35.8166 178.308 35.6177 178.339 35.4189 178.366C35.22 178.392 35.041 178.415 34.8819 178.435C34.4511 178.488 34.0832 178.571 33.7782 178.684C33.4733 178.797 33.2396 178.952 33.0772 179.151C32.9148 179.347 32.8336 179.599 32.8336 179.907C32.8336 180.371 32.9993 180.731 33.3308 180.986C33.6622 181.238 34.0782 181.364 34.5787 181.364ZM41.0044 171.818V182H40.1195V171.818H41.0044ZM44.231 171.818V182H43.3461V171.818H44.231ZM49.66 182.159C48.9474 182.159 48.3309 181.993 47.8105 181.662C47.2902 181.327 46.8875 180.865 46.6025 180.275C46.3207 179.682 46.1799 178.999 46.1799 178.227C46.1799 177.458 46.3207 176.775 46.6025 176.178C46.8875 175.578 47.2802 175.109 47.7807 174.771C48.2845 174.43 48.8662 174.259 49.5257 174.259C49.94 174.259 50.3394 174.335 50.7239 174.488C51.1084 174.637 51.4531 174.867 51.758 175.179C52.0662 175.487 52.3098 175.877 52.4888 176.347C52.6678 176.815 52.7573 177.368 52.7573 178.008V178.445H46.7914V177.665H51.8525C51.8525 177.174 51.753 176.733 51.5542 176.342C51.3586 175.948 51.0852 175.636 50.7338 175.408C50.3858 175.179 49.9831 175.065 49.5257 175.065C49.0418 175.065 48.6159 175.194 48.248 175.452C47.8801 175.711 47.5918 176.052 47.383 176.477C47.1775 176.901 47.0731 177.365 47.0698 177.869V178.336C47.0698 178.942 47.1742 179.473 47.383 179.927C47.5951 180.378 47.8951 180.727 48.2828 180.976C48.6706 181.224 49.1297 181.349 49.66 181.349C50.0212 181.349 50.3378 181.292 50.6096 181.18C50.8846 181.067 51.115 180.916 51.3006 180.727C51.4895 180.535 51.632 180.325 51.7282 180.096L52.5684 180.369C52.4524 180.691 52.2618 180.987 51.9966 181.259C51.7348 181.531 51.4067 181.75 51.0123 181.915C50.6212 182.078 50.1704 182.159 49.66 182.159ZM54.7074 182V174.364H55.5675V175.537H55.6321C55.7846 175.152 56.0497 174.843 56.4276 174.607C56.8087 174.369 57.2396 174.249 57.7202 174.249C57.7931 174.249 57.8743 174.251 57.9638 174.254C58.0533 174.258 58.1278 174.261 58.1875 174.264V175.164C58.1477 175.157 58.0781 175.147 57.9787 175.134C57.8793 175.121 57.7715 175.114 57.6555 175.114C57.2578 175.114 56.9032 175.199 56.5916 175.368C56.2834 175.534 56.0398 175.764 55.8608 176.059C55.6818 176.354 55.5923 176.69 55.5923 177.068V182H54.7074ZM71.7488 171.818V182H70.8439L64.8283 173.474H64.7488V182H63.8191V171.818H64.7189L70.7544 180.354H70.834V171.818H71.7488ZM76.4047 182.174C75.944 182.174 75.523 182.085 75.1419 181.906C74.7607 181.723 74.4574 181.461 74.2321 181.12C74.0067 180.775 73.894 180.358 73.894 179.867C73.894 179.489 73.9653 179.171 74.1078 178.913C74.2503 178.654 74.4525 178.442 74.7143 178.276C74.9761 178.111 75.286 177.98 75.644 177.884C76.002 177.787 76.3964 177.713 76.8272 177.66C77.2548 177.607 77.6161 177.56 77.911 177.521C78.2093 177.481 78.4364 177.418 78.5922 177.332C78.7479 177.246 78.8258 177.106 78.8258 176.914V176.735C78.8258 176.215 78.67 175.805 78.3585 175.507C78.0502 175.205 77.6061 175.055 77.0261 175.055C76.4759 175.055 76.0268 175.176 75.6788 175.418C75.3341 175.66 75.0922 175.945 74.9529 176.273L74.1127 175.969C74.2851 175.552 74.5237 175.219 74.8287 174.97C75.1336 174.718 75.475 174.538 75.8528 174.428C76.2306 174.316 76.6135 174.259 77.0012 174.259C77.2929 174.259 77.5962 174.297 77.911 174.374C78.2292 174.45 78.5242 174.582 78.796 174.771C79.0678 174.957 79.2882 175.217 79.4572 175.552C79.6262 175.883 79.7108 176.304 79.7108 176.815V182H78.8258V180.792H78.7711C78.6651 181.017 78.5076 181.236 78.2988 181.448C78.09 181.66 77.8282 181.834 77.5133 181.97C77.1984 182.106 76.8289 182.174 76.4047 182.174ZM76.524 181.364C76.9946 181.364 77.4023 181.259 77.747 181.05C78.0917 180.842 78.3568 180.565 78.5424 180.22C78.7314 179.872 78.8258 179.489 78.8258 179.072V177.968C78.7595 178.031 78.6485 178.087 78.4927 178.137C78.3403 178.187 78.1629 178.232 77.9608 178.271C77.7619 178.308 77.563 178.339 77.3642 178.366C77.1653 178.392 76.9863 178.415 76.8272 178.435C76.3964 178.488 76.0285 178.571 75.7235 178.684C75.4186 178.797 75.185 178.952 75.0225 179.151C74.8601 179.347 74.7789 179.599 74.7789 179.907C74.7789 180.371 74.9447 180.731 75.2761 180.986C75.6075 181.238 76.0235 181.364 76.524 181.364ZM82.0648 182V174.364H82.9249V175.537H83.0044C83.1569 175.143 83.4105 174.833 83.7651 174.607C84.123 174.379 84.5523 174.264 85.0527 174.264C85.5797 174.264 86.0123 174.388 86.3503 174.637C86.6917 174.882 86.9469 175.22 87.1159 175.651H87.1806C87.3529 175.227 87.633 174.891 88.0208 174.642C88.4119 174.39 88.8858 174.264 89.4426 174.264C90.1519 174.264 90.7121 174.488 91.123 174.935C91.534 175.379 91.7395 176.029 91.7395 176.884V182H90.8546V176.884C90.8546 176.281 90.7005 175.829 90.3922 175.527C90.084 175.225 89.678 175.075 89.1742 175.075C88.5909 175.075 88.1418 175.254 87.8269 175.612C87.512 175.969 87.3546 176.424 87.3546 176.974V182H86.4498V176.805C86.4498 176.288 86.3056 175.87 86.0172 175.552C85.7289 175.234 85.3229 175.075 84.7992 175.075C84.4479 175.075 84.1313 175.161 83.8496 175.333C83.5712 175.505 83.3508 175.746 83.1884 176.054C83.0293 176.359 82.9498 176.71 82.9498 177.108V182H82.0648ZM97.1697 182.159C96.4571 182.159 95.8407 181.993 95.3203 181.662C94.8 181.327 94.3973 180.865 94.1122 180.275C93.8305 179.682 93.6896 178.999 93.6896 178.227C93.6896 177.458 93.8305 176.775 94.1122 176.178C94.3973 175.578 94.79 175.109 95.2905 174.771C95.7943 174.43 96.3759 174.259 97.0355 174.259C97.4498 174.259 97.8492 174.335 98.2337 174.488C98.6181 174.637 98.9628 174.867 99.2678 175.179C99.576 175.487 99.8196 175.877 99.9986 176.347C100.178 176.815 100.267 177.368 100.267 178.008V178.445H94.3011V177.665H99.3622C99.3622 177.174 99.2628 176.733 99.0639 176.342C98.8684 175.948 98.5949 175.636 98.2436 175.408C97.8956 175.179 97.4929 175.065 97.0355 175.065C96.5516 175.065 96.1257 175.194 95.7578 175.452C95.3899 175.711 95.1016 176.052 94.8928 176.477C94.6873 176.901 94.5829 177.365 94.5795 177.869V178.336C94.5795 178.942 94.6839 179.473 94.8928 179.927C95.1049 180.378 95.4048 180.727 95.7926 180.976C96.1804 181.224 96.6394 181.349 97.1697 181.349C97.531 181.349 97.8475 181.292 98.1193 181.18C98.3944 181.067 98.6248 180.916 98.8104 180.727C98.9993 180.535 99.1418 180.325 99.2379 180.096L100.078 180.369C99.9621 180.691 99.7715 180.987 99.5064 181.259C99.2446 181.531 98.9164 181.75 98.522 181.915C98.1309 182.078 97.6802 182.159 97.1697 182.159Z" fill="#24252C"/>
<rect x="21" y="224" width="399" height="1" fill="white"/>
<rect x="347" y="187" width="73" height="22" rx="4" fill="#1AA850"/>
<path d="M359.297 203V192.818H362.738C363.537 192.818 364.189 192.962 364.697 193.251C365.207 193.536 365.585 193.922 365.83 194.409C366.075 194.896 366.198 195.44 366.198 196.04C366.198 196.64 366.075 197.185 365.83 197.675C365.588 198.166 365.214 198.557 364.706 198.849C364.199 199.137 363.55 199.281 362.758 199.281H360.292V198.188H362.718C363.265 198.188 363.704 198.093 364.035 197.904C364.367 197.715 364.607 197.46 364.756 197.138C364.909 196.814 364.985 196.447 364.985 196.04C364.985 195.632 364.909 195.268 364.756 194.946C364.607 194.625 364.365 194.373 364.03 194.19C363.696 194.005 363.251 193.912 362.698 193.912H360.53V203H359.297ZM371.045 203.159C370.356 203.159 369.751 202.995 369.231 202.667C368.714 202.339 368.309 201.88 368.018 201.29C367.729 200.7 367.585 200.01 367.585 199.222C367.585 198.426 367.729 197.732 368.018 197.138C368.309 196.545 368.714 196.085 369.231 195.756C369.751 195.428 370.356 195.264 371.045 195.264C371.735 195.264 372.338 195.428 372.855 195.756C373.375 196.085 373.78 196.545 374.068 197.138C374.36 197.732 374.506 198.426 374.506 199.222C374.506 200.01 374.36 200.7 374.068 201.29C373.78 201.88 373.375 202.339 372.855 202.667C372.338 202.995 371.735 203.159 371.045 203.159ZM371.045 202.105C371.569 202.105 372 201.971 372.338 201.702C372.676 201.434 372.926 201.081 373.089 200.643C373.251 200.206 373.332 199.732 373.332 199.222C373.332 198.711 373.251 198.236 373.089 197.795C372.926 197.354 372.676 196.998 372.338 196.726C372 196.454 371.569 196.318 371.045 196.318C370.522 196.318 370.091 196.454 369.753 196.726C369.415 196.998 369.164 197.354 369.002 197.795C368.84 198.236 368.758 198.711 368.758 199.222C368.758 199.732 368.84 200.206 369.002 200.643C369.164 201.081 369.415 201.434 369.753 201.702C370.091 201.971 370.522 202.105 371.045 202.105ZM381.706 197.074L380.652 197.372C380.585 197.196 380.488 197.026 380.358 196.86C380.232 196.691 380.06 196.552 379.841 196.442C379.623 196.333 379.342 196.278 379.001 196.278C378.534 196.278 378.144 196.386 377.833 196.602C377.525 196.814 377.37 197.084 377.37 197.412C377.37 197.704 377.476 197.934 377.689 198.103C377.901 198.272 378.232 198.413 378.683 198.526L379.816 198.804C380.499 198.97 381.008 199.223 381.343 199.565C381.677 199.903 381.845 200.339 381.845 200.872C381.845 201.31 381.719 201.701 381.467 202.045C381.218 202.39 380.87 202.662 380.423 202.861C379.975 203.06 379.455 203.159 378.862 203.159C378.083 203.159 377.438 202.99 376.928 202.652C376.417 202.314 376.094 201.82 375.958 201.17L377.072 200.892C377.178 201.303 377.379 201.611 377.674 201.817C377.972 202.022 378.361 202.125 378.842 202.125C379.389 202.125 379.823 202.009 380.145 201.777C380.469 201.542 380.632 201.26 380.632 200.932C380.632 200.667 380.539 200.445 380.353 200.266C380.168 200.083 379.883 199.947 379.498 199.858L378.225 199.56C377.526 199.394 377.012 199.137 376.684 198.789C376.359 198.438 376.197 197.999 376.197 197.472C376.197 197.041 376.318 196.66 376.56 196.328C376.805 195.997 377.138 195.737 377.559 195.548C377.984 195.359 378.464 195.264 379.001 195.264C379.757 195.264 380.35 195.43 380.781 195.761C381.215 196.093 381.523 196.53 381.706 197.074ZM383.611 203V195.364H384.784V203H383.611ZM384.208 194.091C383.979 194.091 383.782 194.013 383.616 193.857C383.454 193.701 383.372 193.514 383.372 193.295C383.372 193.077 383.454 192.889 383.616 192.734C383.782 192.578 383.979 192.5 384.208 192.5C384.436 192.5 384.632 192.578 384.794 192.734C384.96 192.889 385.043 193.077 385.043 193.295C385.043 193.514 384.96 193.701 384.794 193.857C384.632 194.013 384.436 194.091 384.208 194.091ZM390.254 195.364V196.358H386.297V195.364H390.254ZM387.45 193.534H388.624V200.812C388.624 201.144 388.672 201.393 388.768 201.558C388.867 201.721 388.993 201.83 389.146 201.886C389.301 201.939 389.465 201.966 389.638 201.966C389.767 201.966 389.873 201.959 389.956 201.946C390.039 201.929 390.105 201.916 390.155 201.906L390.393 202.96C390.314 202.99 390.203 203.02 390.06 203.05C389.918 203.083 389.737 203.099 389.518 203.099C389.187 203.099 388.862 203.028 388.544 202.886C388.229 202.743 387.967 202.526 387.759 202.234C387.553 201.943 387.45 201.575 387.45 201.131V193.534ZM392.019 203V195.364H393.192V203H392.019ZM392.616 194.091C392.387 194.091 392.19 194.013 392.024 193.857C391.862 193.701 391.781 193.514 391.781 193.295C391.781 193.077 391.862 192.889 392.024 192.734C392.19 192.578 392.387 192.5 392.616 192.5C392.844 192.5 393.04 192.578 393.202 192.734C393.368 192.889 393.451 193.077 393.451 193.295C393.451 193.514 393.368 193.701 393.202 193.857C393.04 194.013 392.844 194.091 392.616 194.091ZM401.586 195.364L398.762 203H397.569L394.745 195.364H396.018L398.126 201.449H398.205L400.313 195.364H401.586ZM406.063 203.159C405.327 203.159 404.692 202.997 404.159 202.672C403.628 202.344 403.219 201.886 402.931 201.3C402.646 200.71 402.503 200.024 402.503 199.241C402.503 198.459 402.646 197.77 402.931 197.173C403.219 196.573 403.62 196.106 404.134 195.771C404.651 195.433 405.254 195.264 405.943 195.264C406.341 195.264 406.734 195.33 407.122 195.463C407.509 195.596 407.862 195.811 408.181 196.109C408.499 196.404 408.752 196.795 408.941 197.283C409.13 197.77 409.225 198.37 409.225 199.082V199.58H403.338V198.565H408.031C408.031 198.134 407.945 197.75 407.773 197.412C407.604 197.074 407.362 196.807 407.047 196.612C406.735 196.416 406.368 196.318 405.943 196.318C405.476 196.318 405.072 196.434 404.73 196.666C404.392 196.895 404.132 197.193 403.95 197.561C403.767 197.929 403.676 198.323 403.676 198.744V199.42C403.676 199.997 403.776 200.486 403.975 200.887C404.177 201.285 404.457 201.588 404.815 201.797C405.173 202.002 405.589 202.105 406.063 202.105C406.371 202.105 406.649 202.062 406.898 201.976C407.15 201.886 407.367 201.754 407.549 201.578C407.731 201.399 407.872 201.177 407.972 200.912L409.105 201.23C408.986 201.615 408.785 201.953 408.504 202.244C408.222 202.533 407.874 202.758 407.46 202.92C407.045 203.08 406.58 203.159 406.063 203.159Z" fill="white"/>
<g clip-path="url(#clip0_3338_1408)">
<rect opacity="0.35" x="391.401" y="21.4008" width="25.2" height="12.4" rx="2.6" stroke="black" stroke-width="1.2"/>
<path opacity="0.4" d="M418.4 25.2012V30.0012C419.366 29.5946 419.994 28.6489 419.994 27.6012C419.994 26.5534 419.366 25.6077 418.4 25.2012" fill="black"/>
<rect x="393.201" y="23.2012" width="21.6" height="8.8" rx="1.6" fill="black"/>
<path d="M372.944 30.877C374.475 29.5823 376.717 29.5823 378.248 30.877C378.325 30.9466 378.37 31.0456 378.372 31.1494C378.374 31.2531 378.333 31.3531 378.259 31.4258L375.862 33.8447C375.792 33.9156 375.696 33.9549 375.597 33.9551C375.497 33.9551 375.4 33.9158 375.33 33.8447L372.933 31.4258C372.859 31.3531 372.818 31.253 372.82 31.1494C372.823 31.0456 372.867 30.9465 372.944 30.877ZM369.747 27.6504C373.045 24.5829 378.151 24.583 381.449 27.6504C381.524 27.7223 381.566 27.8213 381.567 27.9248C381.568 28.0282 381.528 28.1278 381.455 28.2012L380.069 29.6016C379.927 29.7441 379.696 29.7472 379.55 29.6084C378.467 28.6277 377.058 28.0839 375.597 28.084C374.137 28.0846 372.729 28.6284 371.646 29.6084C371.5 29.7471 371.27 29.7441 371.127 29.6016L369.741 28.2012C369.668 28.1279 369.628 28.0282 369.629 27.9248C369.63 27.8213 369.673 27.7223 369.747 27.6504ZM366.548 24.4326C371.606 19.5852 379.586 19.5852 384.645 24.4326C384.718 24.5045 384.759 24.6026 384.76 24.7051C384.76 24.8077 384.72 24.9066 384.647 24.9795L383.26 26.3799C383.117 26.5232 382.885 26.525 382.74 26.3838C380.813 24.5517 378.256 23.5294 375.597 23.5293C372.937 23.5293 370.38 24.5515 368.452 26.3838C368.307 26.5253 368.075 26.5234 367.933 26.3799L366.545 24.9795C366.473 24.9066 366.432 24.8078 366.433 24.7051C366.433 24.6026 366.475 24.5045 366.548 24.4326Z" fill="black"/>
<path d="M353.601 24C354.263 24.0002 354.8 24.5376 354.8 25.2002V32.7998C354.8 33.4624 354.263 33.9998 353.601 34H352.4C351.738 34 351.2 33.4625 351.2 32.7998V25.2002C351.2 24.5375 351.738 24 352.4 24H353.601ZM342.4 29.1992C343.063 29.1994 343.6 29.7368 343.6 30.3994V32.7998C343.599 33.4622 343.063 33.9988 342.4 33.999H341.2C340.538 33.999 340 33.4623 340 32.7998V30.3994C340 29.7367 340.537 29.1992 341.2 29.1992H342.4ZM348 26.7988C348.663 26.799 349.199 27.3364 349.199 27.999V32.7988C349.199 33.4614 348.663 33.9988 348 33.999H346.8C346.137 33.999 345.6 33.4616 345.6 32.7988V27.999C345.6 27.3363 346.137 26.7988 346.8 26.7988H348ZM359.2 21.1992C359.863 21.1993 360.4 21.7367 360.4 22.3994V32.7988C360.4 33.4615 359.863 33.9989 359.2 33.999H358C357.337 33.999 356.8 33.4616 356.8 32.7988V22.3994C356.8 21.7367 357.337 21.1992 358 21.1992H359.2Z" fill="black"/>
<path d="M25.3887 35.0379C28.3992 35.0379 30.2039 32.6918 30.2039 28.7461C30.2039 24.3574 27.8496 22.7168 25.4215 22.7168C22.8621 22.7168 21 24.4477 21 26.8594C21 29.148 22.7145 30.7395 24.9293 30.7395C26.4633 30.7395 27.6773 29.9684 28.1367 28.8199H28.1695C28.1695 31.5762 27.2672 33.3234 25.4051 33.3234C24.3223 33.3234 23.5266 32.8312 23.2312 31.8961H21.1312C21.4594 33.7664 23.1738 35.0379 25.3887 35.0379ZM25.4215 29.0988C24.0762 29.0988 23.0754 28.1309 23.0754 26.7773C23.0754 25.4812 24.1254 24.4559 25.4461 24.4559C26.7832 24.4559 27.8168 25.4895 27.8168 26.8184C27.8168 28.1391 26.7914 29.0988 25.4215 29.0988Z" fill="black"/>
<path d="M32.8374 33.1184C33.4937 33.1184 34.0105 32.6016 34.0105 31.9371C34.0105 31.2809 33.4937 30.7559 32.8374 30.7559C32.173 30.7559 31.6562 31.2809 31.6562 31.9371C31.6562 32.6016 32.173 33.1184 32.8374 33.1184ZM32.8374 26.9906C33.4937 26.9906 34.0105 26.4656 34.0105 25.8094C34.0105 25.1531 33.4937 24.6281 32.8374 24.6281C32.173 24.6281 31.6562 25.1531 31.6562 25.8094C31.6562 26.4656 32.173 26.9906 32.8374 26.9906Z" fill="black"/>
<path d="M41.2788 34.8H43.2967V32.5277H44.9046V30.7887H43.2967V22.9629H40.2862C37.7186 26.6953 36.3979 28.7953 35.3725 30.723V32.5277H41.2788V34.8ZM37.2757 30.7805C38.219 29.0578 39.3675 27.2777 41.2788 24.5379H41.3116V30.8379H37.2757V30.7805Z" fill="black"/>
<path d="M48.908 34.8H50.9834V22.9629H48.8916L45.799 25.1367V27.0809L48.8588 24.9809H48.908V34.8Z" fill="black"/>
</g>
<defs>
<linearGradient id="paint0_linear_3338_1408" x1="0" y1="122" x2="440" y2="122" gradientUnits="userSpaceOnUse">
<stop offset="0.9999" stop-color="#6524EB"/>
<stop offset="1" stop-color="#EAE7FF"/>
</linearGradient>
<linearGradient id="paint1_linear_3338_1408" x1="0" y1="227" x2="440" y2="227" gradientUnits="userSpaceOnUse">
<stop offset="0.347938" stop-color="#E9E6FF"/>
<stop offset="0.675161" stop-color="#E1F6FF"/>
</linearGradient>
<clipPath id="clip0_3338_1408">
<rect width="440" height="39" fill="white"/>
</clipPath>
</defs>
</svg>
