<svg width="440" height="231" viewBox="0 0 440 231" fill="none" xmlns="http://www.w3.org/2000/svg">
<rect width="440" height="231" fill="white"/>
<path d="M0 93C0 73.1177 16.1177 57 36 57H404C423.882 57 440 73.1178 440 93V187H0V93Z" fill="url(#paint0_linear_3337_1029)"/>
<rect x="21" y="80" width="50" height="50" rx="25" fill="#F9F9F9"/>
<path fill-rule="evenodd" clip-rule="evenodd" d="M42.293 105.707C41.9025 105.317 41.9025 104.683 42.293 104.293L47.9499 98.636C48.3404 98.2455 48.9736 98.2455 49.3641 98.636C49.7546 99.0266 49.7546 99.6597 49.3641 100.05L44.4144 105L49.3641 109.95C49.7546 110.34 49.7546 110.973 49.3641 111.364C48.9736 111.754 48.3404 111.754 47.9499 111.364L42.293 105.707Z" fill="#0A0A0A" fill-opacity="0.9"/>
<path d="M94.881 98.525H90.085V112H87.126V98.525H82.33V96.094H94.881V98.525ZM98.8848 100.538C99.7208 100.538 100.48 100.674 101.162 100.945C101.851 101.216 102.438 101.601 102.922 102.1C103.413 102.599 103.791 103.207 104.055 103.926C104.319 104.645 104.451 105.448 104.451 106.335C104.451 107.23 104.319 108.036 104.055 108.755C103.791 109.474 103.413 110.086 102.922 110.592C102.438 111.098 101.851 111.487 101.162 111.758C100.48 112.029 99.7208 112.165 98.8848 112.165C98.0415 112.165 97.2752 112.029 96.5858 111.758C95.8965 111.487 95.3062 111.098 94.8148 110.592C94.3308 110.086 93.9532 109.474 93.6818 108.755C93.4178 108.036 93.2858 107.23 93.2858 106.335C93.2858 105.448 93.4178 104.645 93.6818 103.926C93.9532 103.207 94.3308 102.599 94.8148 102.1C95.3062 101.601 95.8965 101.216 96.5858 100.945C97.2752 100.674 98.0415 100.538 98.8848 100.538ZM98.8848 110.075C99.8235 110.075 100.516 109.76 100.964 109.129C101.418 108.498 101.646 107.574 101.646 106.357C101.646 105.14 101.418 104.212 100.964 103.574C100.516 102.936 99.8235 102.617 98.8848 102.617C97.9315 102.617 97.2238 102.94 96.7618 103.585C96.3072 104.223 96.0798 105.147 96.0798 106.357C96.0798 107.567 96.3072 108.491 96.7618 109.129C97.2238 109.76 97.9315 110.075 98.8848 110.075ZM110.071 112.176C109.088 112.176 108.333 111.901 107.805 111.351C107.284 110.794 107.024 110.027 107.024 109.052V102.749H105.869C105.722 102.749 105.597 102.701 105.495 102.606C105.392 102.511 105.341 102.368 105.341 102.177V101.099L107.156 100.802L107.728 97.722C107.764 97.5753 107.834 97.4617 107.937 97.381C108.039 97.3003 108.171 97.26 108.333 97.26H109.741V100.813H112.755V102.749H109.741V108.865C109.741 109.217 109.825 109.492 109.994 109.69C110.17 109.888 110.408 109.987 110.709 109.987C110.877 109.987 111.017 109.969 111.127 109.932C111.244 109.888 111.343 109.844 111.424 109.8C111.512 109.756 111.589 109.716 111.655 109.679C111.721 109.635 111.787 109.613 111.853 109.613C111.933 109.613 111.999 109.635 112.051 109.679C112.102 109.716 112.157 109.774 112.216 109.855L113.03 111.175C112.634 111.505 112.179 111.754 111.666 111.923C111.152 112.092 110.621 112.176 110.071 112.176ZM120.456 107.182C119.672 107.219 119.012 107.288 118.476 107.391C117.941 107.486 117.512 107.611 117.189 107.765C116.867 107.919 116.636 108.099 116.496 108.304C116.357 108.509 116.287 108.733 116.287 108.975C116.287 109.452 116.427 109.793 116.705 109.998C116.991 110.203 117.362 110.306 117.816 110.306C118.374 110.306 118.854 110.207 119.257 110.009C119.668 109.804 120.068 109.496 120.456 109.085V107.182ZM114.23 102.287C115.528 101.099 117.09 100.505 118.916 100.505C119.576 100.505 120.167 100.615 120.687 100.835C121.208 101.048 121.648 101.348 122.007 101.737C122.367 102.118 122.638 102.577 122.821 103.112C123.012 103.647 123.107 104.234 123.107 104.872V112H121.875C121.619 112 121.421 111.963 121.281 111.89C121.142 111.809 121.032 111.652 120.951 111.417L120.709 110.603C120.423 110.86 120.145 111.087 119.873 111.285C119.602 111.476 119.32 111.637 119.026 111.769C118.733 111.901 118.418 112 118.08 112.066C117.75 112.139 117.384 112.176 116.98 112.176C116.504 112.176 116.064 112.114 115.66 111.989C115.257 111.857 114.909 111.663 114.615 111.406C114.322 111.149 114.095 110.83 113.933 110.449C113.772 110.068 113.691 109.624 113.691 109.118C113.691 108.832 113.739 108.55 113.834 108.271C113.93 107.985 114.084 107.714 114.296 107.457C114.516 107.2 114.799 106.958 115.143 106.731C115.488 106.504 115.91 106.306 116.408 106.137C116.914 105.968 117.501 105.833 118.168 105.73C118.836 105.62 119.598 105.554 120.456 105.532V104.872C120.456 104.117 120.295 103.559 119.972 103.2C119.65 102.833 119.184 102.65 118.575 102.65C118.135 102.65 117.769 102.701 117.475 102.804C117.189 102.907 116.936 103.024 116.716 103.156C116.496 103.281 116.295 103.394 116.111 103.497C115.935 103.6 115.737 103.651 115.517 103.651C115.327 103.651 115.165 103.603 115.033 103.508C114.901 103.405 114.795 103.288 114.714 103.156L114.23 102.287ZM128.416 95.654V112H125.699V95.654H128.416ZM147.825 108.249C147.986 108.249 148.129 108.311 148.254 108.436L149.42 109.701C148.775 110.5 147.979 111.113 147.033 111.538C146.094 111.963 144.965 112.176 143.645 112.176C142.464 112.176 141.401 111.974 140.455 111.571C139.516 111.168 138.713 110.607 138.046 109.888C137.379 109.169 136.865 108.311 136.506 107.314C136.154 106.317 135.978 105.228 135.978 104.047C135.978 102.852 136.169 101.759 136.55 100.769C136.931 99.7717 137.467 98.9137 138.156 98.195C138.853 97.4763 139.681 96.919 140.642 96.523C141.603 96.1197 142.666 95.918 143.832 95.918C144.991 95.918 146.017 96.1087 146.912 96.49C147.814 96.8713 148.58 97.37 149.211 97.986L148.221 99.361C148.162 99.449 148.085 99.526 147.99 99.592C147.902 99.658 147.777 99.691 147.616 99.691C147.506 99.691 147.392 99.6617 147.275 99.603C147.158 99.537 147.029 99.46 146.89 99.372C146.751 99.2767 146.589 99.174 146.406 99.064C146.223 98.954 146.01 98.855 145.768 98.767C145.526 98.6717 145.244 98.5947 144.921 98.536C144.606 98.47 144.239 98.437 143.821 98.437C143.11 98.437 142.457 98.5653 141.863 98.822C141.276 99.0713 140.77 99.438 140.345 99.922C139.92 100.399 139.59 100.985 139.355 101.682C139.12 102.371 139.003 103.16 139.003 104.047C139.003 104.942 139.128 105.737 139.377 106.434C139.634 107.131 139.978 107.717 140.411 108.194C140.844 108.671 141.353 109.037 141.94 109.294C142.527 109.543 143.157 109.668 143.832 109.668C144.235 109.668 144.598 109.646 144.921 109.602C145.251 109.558 145.552 109.488 145.823 109.393C146.102 109.298 146.362 109.177 146.604 109.03C146.853 108.876 147.099 108.689 147.341 108.469C147.414 108.403 147.491 108.352 147.572 108.315C147.653 108.271 147.737 108.249 147.825 108.249ZM156.98 107.182C156.195 107.219 155.535 107.288 155 107.391C154.464 107.486 154.035 107.611 153.713 107.765C153.39 107.919 153.159 108.099 153.02 108.304C152.88 108.509 152.811 108.733 152.811 108.975C152.811 109.452 152.95 109.793 153.229 109.998C153.515 110.203 153.885 110.306 154.34 110.306C154.897 110.306 155.377 110.207 155.781 110.009C156.191 109.804 156.591 109.496 156.98 109.085V107.182ZM150.754 102.287C152.052 101.099 153.614 100.505 155.44 100.505C156.1 100.505 156.69 100.615 157.211 100.835C157.731 101.048 158.171 101.348 158.531 101.737C158.89 102.118 159.161 102.577 159.345 103.112C159.535 103.647 159.631 104.234 159.631 104.872V112H158.399C158.142 112 157.944 111.963 157.805 111.89C157.665 111.809 157.555 111.652 157.475 111.417L157.233 110.603C156.947 110.86 156.668 111.087 156.397 111.285C156.125 111.476 155.843 111.637 155.55 111.769C155.256 111.901 154.941 112 154.604 112.066C154.274 112.139 153.907 112.176 153.504 112.176C153.027 112.176 152.587 112.114 152.184 111.989C151.78 111.857 151.432 111.663 151.139 111.406C150.845 111.149 150.618 110.83 150.457 110.449C150.295 110.068 150.215 109.624 150.215 109.118C150.215 108.832 150.262 108.55 150.358 108.271C150.453 107.985 150.607 107.714 150.82 107.457C151.04 107.2 151.322 106.958 151.667 106.731C152.011 106.504 152.433 106.306 152.932 106.137C153.438 105.968 154.024 105.833 154.692 105.73C155.359 105.62 156.122 105.554 156.98 105.532V104.872C156.98 104.117 156.818 103.559 156.496 103.2C156.173 102.833 155.707 102.65 155.099 102.65C154.659 102.65 154.292 102.701 153.999 102.804C153.713 102.907 153.46 103.024 153.24 103.156C153.02 103.281 152.818 103.394 152.635 103.497C152.459 103.6 152.261 103.651 152.041 103.651C151.85 103.651 151.689 103.603 151.557 103.508C151.425 103.405 151.318 103.288 151.238 103.156L150.754 102.287ZM164.94 95.654V112H162.223V95.654H164.94ZM170.397 95.654V112H167.68V95.654H170.397ZM179.99 102.914C179.916 103.031 179.839 103.116 179.759 103.167C179.678 103.211 179.575 103.233 179.451 103.233C179.319 103.233 179.176 103.196 179.022 103.123C178.875 103.05 178.703 102.969 178.505 102.881C178.307 102.786 178.079 102.701 177.823 102.628C177.573 102.555 177.276 102.518 176.932 102.518C176.396 102.518 175.975 102.632 175.667 102.859C175.366 103.086 175.216 103.383 175.216 103.75C175.216 103.992 175.293 104.197 175.447 104.366C175.608 104.527 175.817 104.67 176.074 104.795C176.338 104.92 176.635 105.033 176.965 105.136C177.295 105.231 177.628 105.338 177.966 105.455C178.31 105.572 178.648 105.708 178.978 105.862C179.308 106.009 179.601 106.199 179.858 106.434C180.122 106.661 180.331 106.936 180.485 107.259C180.646 107.582 180.727 107.97 180.727 108.425C180.727 108.968 180.628 109.47 180.43 109.932C180.239 110.387 179.953 110.783 179.572 111.12C179.19 111.45 178.717 111.71 178.153 111.901C177.595 112.084 176.95 112.176 176.217 112.176C175.828 112.176 175.447 112.139 175.073 112.066C174.706 112 174.35 111.905 174.006 111.78C173.668 111.655 173.353 111.509 173.06 111.34C172.774 111.171 172.521 110.988 172.301 110.79L172.928 109.756C173.008 109.631 173.104 109.536 173.214 109.47C173.324 109.404 173.463 109.371 173.632 109.371C173.8 109.371 173.958 109.419 174.105 109.514C174.259 109.609 174.435 109.712 174.633 109.822C174.831 109.932 175.062 110.035 175.326 110.13C175.597 110.225 175.938 110.273 176.349 110.273C176.671 110.273 176.946 110.236 177.174 110.163C177.408 110.082 177.599 109.98 177.746 109.855C177.9 109.73 178.01 109.587 178.076 109.426C178.149 109.257 178.186 109.085 178.186 108.909C178.186 108.645 178.105 108.429 177.944 108.26C177.79 108.091 177.581 107.945 177.317 107.82C177.06 107.695 176.763 107.585 176.426 107.49C176.096 107.387 175.755 107.277 175.403 107.16C175.058 107.043 174.717 106.907 174.38 106.753C174.05 106.592 173.753 106.39 173.489 106.148C173.232 105.906 173.023 105.609 172.862 105.257C172.708 104.905 172.631 104.48 172.631 103.981C172.631 103.519 172.722 103.079 172.906 102.661C173.089 102.243 173.357 101.88 173.709 101.572C174.068 101.257 174.512 101.007 175.04 100.824C175.575 100.633 176.191 100.538 176.888 100.538C177.665 100.538 178.373 100.666 179.011 100.923C179.649 101.18 180.18 101.517 180.606 101.935L179.99 102.914Z" fill="white"/>
<rect y="152" width="440" height="78" rx="25" fill="url(#paint1_linear_3337_1029)"/>
<path d="M258.912 190.424C258.752 190.68 258.581 190.872 258.4 191C258.229 191.128 258.005 191.192 257.728 191.192C257.483 191.192 257.216 191.117 256.928 190.968C256.651 190.808 256.331 190.632 255.968 190.44C255.616 190.248 255.211 190.077 254.752 189.928C254.293 189.768 253.771 189.688 253.184 189.688C252.171 189.688 251.413 189.907 250.912 190.344C250.421 190.771 250.176 191.352 250.176 192.088C250.176 192.557 250.325 192.947 250.624 193.256C250.923 193.565 251.312 193.832 251.792 194.056C252.283 194.28 252.837 194.488 253.456 194.68C254.085 194.861 254.725 195.069 255.376 195.304C256.027 195.528 256.661 195.795 257.28 196.104C257.909 196.413 258.464 196.808 258.944 197.288C259.435 197.768 259.829 198.355 260.128 199.048C260.427 199.731 260.576 200.557 260.576 201.528C260.576 202.605 260.389 203.613 260.016 204.552C259.643 205.491 259.099 206.312 258.384 207.016C257.68 207.709 256.805 208.259 255.76 208.664C254.725 209.059 253.547 209.256 252.224 209.256C251.499 209.256 250.757 209.181 250 209.032C249.253 208.883 248.528 208.675 247.824 208.408C247.12 208.131 246.459 207.805 245.84 207.432C245.221 207.059 244.683 206.643 244.224 206.184L245.824 203.656C245.941 203.464 246.107 203.309 246.32 203.192C246.533 203.075 246.763 203.016 247.008 203.016C247.328 203.016 247.648 203.117 247.968 203.32C248.299 203.523 248.667 203.747 249.072 203.992C249.488 204.237 249.963 204.461 250.496 204.664C251.029 204.867 251.659 204.968 252.384 204.968C253.365 204.968 254.128 204.755 254.672 204.328C255.216 203.891 255.488 203.203 255.488 202.264C255.488 201.72 255.339 201.277 255.04 200.936C254.741 200.595 254.347 200.312 253.856 200.088C253.376 199.864 252.827 199.667 252.208 199.496C251.589 199.325 250.955 199.139 250.304 198.936C249.653 198.723 249.019 198.467 248.4 198.168C247.781 197.859 247.227 197.459 246.736 196.968C246.256 196.467 245.867 195.848 245.568 195.112C245.269 194.365 245.12 193.448 245.12 192.36C245.12 191.485 245.296 190.632 245.648 189.8C246 188.968 246.517 188.227 247.2 187.576C247.883 186.925 248.72 186.408 249.712 186.024C250.704 185.629 251.84 185.432 253.12 185.432C253.835 185.432 254.528 185.491 255.2 185.608C255.883 185.715 256.528 185.88 257.136 186.104C257.744 186.317 258.309 186.579 258.832 186.888C259.365 187.187 259.84 187.528 260.256 187.912L258.912 190.424ZM270.656 192.152C271.914 192.152 273.061 192.349 274.096 192.744C275.13 193.139 276.016 193.704 276.752 194.44C277.498 195.176 278.074 196.072 278.48 197.128C278.896 198.173 279.104 199.352 279.104 200.664C279.104 201.987 278.896 203.181 278.48 204.248C278.074 205.304 277.498 206.205 276.752 206.952C276.016 207.688 275.13 208.259 274.096 208.664C273.061 209.059 271.914 209.256 270.656 209.256C269.386 209.256 268.229 209.059 267.184 208.664C266.149 208.259 265.253 207.688 264.496 206.952C263.749 206.205 263.168 205.304 262.752 204.248C262.346 203.181 262.144 201.987 262.144 200.664C262.144 199.352 262.346 198.173 262.752 197.128C263.168 196.072 263.749 195.176 264.496 194.44C265.253 193.704 266.149 193.139 267.184 192.744C268.229 192.349 269.386 192.152 270.656 192.152ZM270.656 205.576C271.797 205.576 272.634 205.176 273.168 204.376C273.712 203.565 273.984 202.339 273.984 200.696C273.984 199.053 273.712 197.832 273.168 197.032C272.634 196.232 271.797 195.832 270.656 195.832C269.482 195.832 268.624 196.232 268.08 197.032C267.536 197.832 267.264 199.053 267.264 200.696C267.264 202.339 267.536 203.565 268.08 204.376C268.624 205.176 269.482 205.576 270.656 205.576ZM282.562 209V195.816L281.474 195.592C281.101 195.507 280.797 195.373 280.562 195.192C280.338 195.011 280.226 194.744 280.226 194.392V192.44H282.562V192.2C282.562 191.197 282.733 190.253 283.074 189.368C283.426 188.472 283.965 187.699 284.69 187.048C285.416 186.387 286.338 185.864 287.458 185.48C288.589 185.096 289.933 184.904 291.49 184.904C291.97 184.904 292.466 184.931 292.978 184.984C293.49 185.027 293.933 185.096 294.306 185.192L294.146 187.704C294.125 187.971 293.992 188.147 293.746 188.232C293.501 188.317 293.24 188.36 292.962 188.36C291.853 188.36 290.936 188.445 290.21 188.616C289.485 188.787 288.909 189.043 288.482 189.384C288.066 189.715 287.773 190.131 287.602 190.632C287.442 191.133 287.362 191.709 287.362 192.36V192.44H297.89V209H292.93V195.832H287.522V209H282.562ZM313.407 209C312.938 209 312.581 208.936 312.335 208.808C312.101 208.68 311.903 208.413 311.743 208.008L311.391 207.096C310.975 207.448 310.575 207.757 310.191 208.024C309.807 208.291 309.407 208.52 308.991 208.712C308.586 208.893 308.149 209.027 307.679 209.112C307.221 209.208 306.709 209.256 306.143 209.256C305.386 209.256 304.698 209.16 304.079 208.968C303.461 208.765 302.933 208.472 302.495 208.088C302.069 207.704 301.738 207.229 301.503 206.664C301.269 206.088 301.151 205.427 301.151 204.68C301.151 204.093 301.301 203.491 301.599 202.872C301.898 202.253 302.415 201.693 303.151 201.192C303.887 200.68 304.879 200.253 306.127 199.912C307.375 199.571 308.949 199.379 310.847 199.336V198.632C310.847 197.661 310.645 196.963 310.239 196.536C309.845 196.099 309.279 195.88 308.543 195.88C307.957 195.88 307.477 195.944 307.103 196.072C306.73 196.2 306.394 196.344 306.095 196.504C305.807 196.664 305.525 196.808 305.247 196.936C304.97 197.064 304.639 197.128 304.255 197.128C303.914 197.128 303.621 197.048 303.375 196.888C303.141 196.717 302.954 196.509 302.815 196.264L301.919 194.712C302.922 193.827 304.031 193.171 305.247 192.744C306.474 192.307 307.786 192.088 309.183 192.088C310.186 192.088 311.087 192.253 311.887 192.584C312.698 192.904 313.381 193.357 313.935 193.944C314.501 194.52 314.933 195.208 315.231 196.008C315.53 196.808 315.679 197.683 315.679 198.632V209H313.407ZM307.711 205.976C308.351 205.976 308.911 205.864 309.391 205.64C309.871 205.416 310.357 205.053 310.847 204.552V202.248C309.855 202.291 309.039 202.376 308.399 202.504C307.759 202.632 307.253 202.792 306.879 202.984C306.506 203.176 306.245 203.395 306.095 203.64C305.957 203.885 305.887 204.152 305.887 204.44C305.887 205.005 306.042 205.405 306.351 205.64C306.661 205.864 307.114 205.976 307.711 205.976Z" fill="#24252C"/>
<path d="M246.979 178H245.348L249.012 167.818H250.787L254.451 178H252.82L249.942 169.668H249.862L246.979 178ZM247.252 174.013H252.542V175.305H247.252V174.013ZM258.881 181.023C258.274 181.023 257.752 180.943 257.315 180.784C256.88 180.625 256.526 180.415 256.251 180.153C255.976 179.891 255.77 179.604 255.634 179.293L256.912 178.766C257.001 178.911 257.121 179.066 257.27 179.228C257.422 179.394 257.628 179.535 257.886 179.651C258.148 179.767 258.485 179.825 258.896 179.825C259.459 179.825 259.925 179.687 260.293 179.412C260.661 179.14 260.844 178.706 260.844 178.109V176.608H260.75C260.661 176.77 260.531 176.951 260.362 177.15C260.196 177.349 259.968 177.521 259.676 177.667C259.384 177.813 259.005 177.886 258.538 177.886C257.934 177.886 257.391 177.745 256.907 177.463C256.426 177.178 256.045 176.759 255.763 176.205C255.485 175.648 255.346 174.964 255.346 174.152C255.346 173.34 255.483 172.644 255.759 172.064C256.037 171.484 256.418 171.04 256.902 170.732C257.386 170.42 257.934 170.264 258.548 170.264C259.022 170.264 259.404 170.344 259.696 170.503C259.988 170.659 260.215 170.841 260.377 171.05C260.543 171.259 260.67 171.442 260.76 171.602H260.869V170.364H262.326V178.169C262.326 178.825 262.174 179.364 261.869 179.785C261.564 180.206 261.151 180.517 260.631 180.719C260.114 180.922 259.53 181.023 258.881 181.023ZM258.866 176.653C259.293 176.653 259.655 176.553 259.95 176.354C260.248 176.152 260.473 175.864 260.626 175.489C260.781 175.112 260.859 174.659 260.859 174.132C260.859 173.618 260.783 173.166 260.631 172.775C260.478 172.384 260.254 172.079 259.96 171.86C259.665 171.638 259.3 171.527 258.866 171.527C258.418 171.527 258.045 171.643 257.747 171.875C257.449 172.104 257.223 172.415 257.071 172.81C256.922 173.204 256.847 173.645 256.847 174.132C256.847 174.633 256.924 175.072 257.076 175.45C257.228 175.827 257.454 176.122 257.752 176.335C258.054 176.547 258.425 176.653 258.866 176.653ZM267.611 178.154C266.858 178.154 266.21 177.993 265.667 177.672C265.127 177.347 264.709 176.891 264.414 176.305C264.122 175.715 263.977 175.024 263.977 174.232C263.977 173.449 264.122 172.76 264.414 172.163C264.709 171.567 265.12 171.101 265.647 170.766C266.177 170.432 266.797 170.264 267.506 170.264C267.937 170.264 268.355 170.335 268.759 170.478C269.164 170.621 269.527 170.844 269.848 171.149C270.17 171.454 270.423 171.85 270.609 172.337C270.794 172.821 270.887 173.41 270.887 174.102V174.629H264.817V173.516H269.43C269.43 173.125 269.351 172.778 269.192 172.477C269.033 172.172 268.809 171.931 268.521 171.756C268.236 171.58 267.901 171.492 267.516 171.492C267.099 171.492 266.734 171.595 266.423 171.8C266.114 172.003 265.876 172.268 265.707 172.596C265.541 172.921 265.458 173.274 265.458 173.655V174.525C265.458 175.035 265.548 175.469 265.727 175.827C265.909 176.185 266.162 176.459 266.487 176.648C266.812 176.833 267.192 176.926 267.626 176.926C267.907 176.926 268.164 176.886 268.396 176.807C268.628 176.724 268.829 176.601 268.998 176.439C269.167 176.277 269.296 176.076 269.386 175.837L270.793 176.091C270.68 176.505 270.478 176.868 270.186 177.18C269.898 177.488 269.535 177.728 269.097 177.901C268.663 178.07 268.168 178.154 267.611 178.154ZM274.023 173.466V178H272.536V170.364H273.963V171.607H274.058C274.233 171.202 274.508 170.877 274.883 170.632C275.261 170.387 275.736 170.264 276.31 170.264C276.83 170.264 277.286 170.374 277.677 170.592C278.068 170.808 278.371 171.129 278.587 171.557C278.802 171.984 278.91 172.513 278.91 173.143V178H277.423V173.322C277.423 172.768 277.279 172.336 276.991 172.024C276.703 171.709 276.307 171.552 275.803 171.552C275.458 171.552 275.151 171.626 274.883 171.776C274.618 171.925 274.407 172.143 274.252 172.432C274.099 172.717 274.023 173.062 274.023 173.466ZM284.468 170.364V171.557H280.297V170.364H284.468ZM281.416 168.534H282.902V175.758C282.902 176.046 282.945 176.263 283.031 176.409C283.118 176.552 283.229 176.649 283.365 176.702C283.504 176.752 283.655 176.777 283.817 176.777C283.936 176.777 284.041 176.769 284.13 176.752C284.22 176.736 284.289 176.722 284.339 176.712L284.607 177.94C284.521 177.973 284.399 178.007 284.24 178.04C284.08 178.076 283.882 178.096 283.643 178.099C283.252 178.106 282.887 178.036 282.549 177.891C282.211 177.745 281.938 177.519 281.729 177.214C281.52 176.91 281.416 176.527 281.416 176.066V168.534Z" fill="#24252C"/>
<path d="M36.664 204.952C37.144 204.952 37.5173 205.085 37.784 205.352C38.0613 205.619 38.2 205.971 38.2 206.408V209H22.104V207.56C22.104 207.283 22.1627 206.984 22.28 206.664C22.3973 206.333 22.5947 206.035 22.872 205.768L29.752 198.872C30.3387 198.285 30.856 197.725 31.304 197.192C31.752 196.648 32.1253 196.12 32.424 195.608C32.7227 195.085 32.9467 194.557 33.096 194.024C33.2453 193.491 33.32 192.931 33.32 192.344C33.32 191.309 33.0533 190.525 32.52 189.992C31.9867 189.448 31.2347 189.176 30.264 189.176C29.8373 189.176 29.4427 189.24 29.08 189.368C28.728 189.485 28.408 189.651 28.12 189.864C27.8427 190.077 27.6027 190.328 27.4 190.616C27.1973 190.904 27.048 191.219 26.952 191.56C26.76 192.093 26.4987 192.451 26.168 192.632C25.848 192.803 25.3893 192.84 24.792 192.744L22.456 192.328C22.6267 191.197 22.9467 190.205 23.416 189.352C23.8853 188.499 24.472 187.789 25.176 187.224C25.88 186.659 26.6853 186.237 27.592 185.96C28.4987 185.672 29.4747 185.528 30.52 185.528C31.6187 185.528 32.616 185.693 33.512 186.024C34.4187 186.344 35.192 186.797 35.832 187.384C36.472 187.96 36.968 188.659 37.32 189.48C37.672 190.301 37.848 191.208 37.848 192.2C37.848 193.053 37.7253 193.843 37.48 194.568C37.2347 195.293 36.8987 195.987 36.472 196.648C36.056 197.299 35.5707 197.933 35.016 198.552C34.4613 199.171 33.8747 199.795 33.256 200.424L28.328 205.464C28.872 205.304 29.4107 205.181 29.944 205.096C30.4773 205 30.9787 204.952 31.448 204.952H36.664ZM55.2265 204.952C55.7065 204.952 56.0798 205.085 56.3465 205.352C56.6238 205.619 56.7625 205.971 56.7625 206.408V209H40.6665V207.56C40.6665 207.283 40.7252 206.984 40.8425 206.664C40.9598 206.333 41.1572 206.035 41.4345 205.768L48.3145 198.872C48.9012 198.285 49.4185 197.725 49.8665 197.192C50.3145 196.648 50.6878 196.12 50.9865 195.608C51.2852 195.085 51.5092 194.557 51.6585 194.024C51.8078 193.491 51.8825 192.931 51.8825 192.344C51.8825 191.309 51.6158 190.525 51.0825 189.992C50.5492 189.448 49.7972 189.176 48.8265 189.176C48.3998 189.176 48.0052 189.24 47.6425 189.368C47.2905 189.485 46.9705 189.651 46.6825 189.864C46.4052 190.077 46.1652 190.328 45.9625 190.616C45.7598 190.904 45.6105 191.219 45.5145 191.56C45.3225 192.093 45.0612 192.451 44.7305 192.632C44.4105 192.803 43.9518 192.84 43.3545 192.744L41.0185 192.328C41.1892 191.197 41.5092 190.205 41.9785 189.352C42.4478 188.499 43.0345 187.789 43.7385 187.224C44.4425 186.659 45.2478 186.237 46.1545 185.96C47.0612 185.672 48.0372 185.528 49.0825 185.528C50.1812 185.528 51.1785 185.693 52.0745 186.024C52.9812 186.344 53.7545 186.797 54.3945 187.384C55.0345 187.96 55.5305 188.659 55.8825 189.48C56.2345 190.301 56.4105 191.208 56.4105 192.2C56.4105 193.053 56.2878 193.843 56.0425 194.568C55.7972 195.293 55.4612 195.987 55.0345 196.648C54.6185 197.299 54.1332 197.933 53.5785 198.552C53.0238 199.171 52.4372 199.795 51.8185 200.424L46.8905 205.464C47.4345 205.304 47.9732 205.181 48.5065 205.096C49.0398 205 49.5412 204.952 50.0105 204.952H55.2265Z" fill="#24252C"/>
<path d="M114.664 204.952C115.144 204.952 115.517 205.085 115.784 205.352C116.061 205.619 116.2 205.971 116.2 206.408V209H100.104V207.56C100.104 207.283 100.163 206.984 100.28 206.664C100.397 206.333 100.595 206.035 100.872 205.768L107.752 198.872C108.339 198.285 108.856 197.725 109.304 197.192C109.752 196.648 110.125 196.12 110.424 195.608C110.723 195.085 110.947 194.557 111.096 194.024C111.245 193.491 111.32 192.931 111.32 192.344C111.32 191.309 111.053 190.525 110.52 189.992C109.987 189.448 109.235 189.176 108.264 189.176C107.837 189.176 107.443 189.24 107.08 189.368C106.728 189.485 106.408 189.651 106.12 189.864C105.843 190.077 105.603 190.328 105.4 190.616C105.197 190.904 105.048 191.219 104.952 191.56C104.76 192.093 104.499 192.451 104.168 192.632C103.848 192.803 103.389 192.84 102.792 192.744L100.456 192.328C100.627 191.197 100.947 190.205 101.416 189.352C101.885 188.499 102.472 187.789 103.176 187.224C103.88 186.659 104.685 186.237 105.592 185.96C106.499 185.672 107.475 185.528 108.52 185.528C109.619 185.528 110.616 185.693 111.512 186.024C112.419 186.344 113.192 186.797 113.832 187.384C114.472 187.96 114.968 188.659 115.32 189.48C115.672 190.301 115.848 191.208 115.848 192.2C115.848 193.053 115.725 193.843 115.48 194.568C115.235 195.293 114.899 195.987 114.472 196.648C114.056 197.299 113.571 197.933 113.016 198.552C112.461 199.171 111.875 199.795 111.256 200.424L106.328 205.464C106.872 205.304 107.411 205.181 107.944 205.096C108.477 205 108.979 204.952 109.448 204.952H114.664ZM126.843 205.88C127.451 205.88 127.979 205.789 128.427 205.608C128.885 205.427 129.264 205.181 129.563 204.872C129.861 204.552 130.085 204.179 130.235 203.752C130.384 203.315 130.459 202.845 130.459 202.344C130.459 201.192 130.16 200.301 129.563 199.672C128.976 199.032 128.069 198.712 126.843 198.712C125.616 198.712 124.704 199.032 124.107 199.672C123.52 200.301 123.227 201.192 123.227 202.344C123.227 202.845 123.301 203.315 123.451 203.752C123.6 204.179 123.824 204.552 124.123 204.872C124.421 205.181 124.795 205.427 125.243 205.608C125.701 205.789 126.235 205.88 126.843 205.88ZM126.843 188.792C126.299 188.792 125.829 188.877 125.435 189.048C125.051 189.219 124.731 189.448 124.475 189.736C124.229 190.013 124.048 190.339 123.931 190.712C123.813 191.085 123.755 191.475 123.755 191.88C123.755 192.317 123.803 192.744 123.899 193.16C123.995 193.565 124.16 193.928 124.395 194.248C124.629 194.568 124.944 194.824 125.339 195.016C125.733 195.208 126.235 195.304 126.843 195.304C127.451 195.304 127.952 195.208 128.347 195.016C128.741 194.824 129.056 194.568 129.291 194.248C129.525 193.928 129.691 193.565 129.787 193.16C129.883 192.744 129.931 192.317 129.931 191.88C129.931 191.475 129.872 191.085 129.755 190.712C129.637 190.339 129.451 190.013 129.195 189.736C128.949 189.448 128.629 189.219 128.235 189.048C127.851 188.877 127.387 188.792 126.843 188.792ZM130.971 196.904C132.379 197.373 133.403 198.083 134.043 199.032C134.683 199.971 135.003 201.101 135.003 202.424C135.003 203.459 134.805 204.397 134.411 205.24C134.016 206.083 133.461 206.803 132.747 207.4C132.032 207.987 131.173 208.445 130.171 208.776C129.168 209.096 128.059 209.256 126.843 209.256C125.627 209.256 124.517 209.096 123.515 208.776C122.512 208.445 121.653 207.987 120.939 207.4C120.224 206.803 119.669 206.083 119.275 205.24C118.88 204.397 118.683 203.459 118.683 202.424C118.683 201.101 119.003 199.971 119.643 199.032C120.283 198.083 121.307 197.373 122.715 196.904C121.616 196.424 120.795 195.752 120.251 194.888C119.717 194.024 119.451 192.995 119.451 191.8C119.451 190.904 119.632 190.077 119.995 189.32C120.357 188.552 120.864 187.891 121.515 187.336C122.176 186.771 122.96 186.328 123.867 186.008C124.773 185.688 125.765 185.528 126.843 185.528C127.92 185.528 128.912 185.688 129.819 186.008C130.725 186.328 131.504 186.771 132.155 187.336C132.816 187.891 133.328 188.552 133.691 189.32C134.053 190.077 134.235 190.904 134.235 191.8C134.235 192.995 133.963 194.024 133.419 194.888C132.885 195.752 132.069 196.424 130.971 196.904Z" fill="#24252C"/>
<path d="M23.9787 178H22.348L26.0121 167.818H27.7869L31.451 178H29.8203L26.9418 169.668H26.8622L23.9787 178ZM24.2521 174.013H29.5419V175.305H24.2521V174.013ZM37.6394 174.833V170.364H39.1309V178H37.6692V176.678H37.5897C37.414 177.085 37.1323 177.425 36.7445 177.697C36.36 177.965 35.8811 178.099 35.3077 178.099C34.8172 178.099 34.383 177.992 34.0051 177.776C33.6306 177.558 33.3356 177.234 33.1202 176.807C32.9081 176.379 32.802 175.851 32.802 175.221V170.364H34.2885V175.042C34.2885 175.562 34.4327 175.977 34.7211 176.285C35.0094 176.593 35.3839 176.747 35.8446 176.747C36.123 176.747 36.3998 176.678 36.6749 176.538C36.9533 176.399 37.1837 176.189 37.3659 175.907C37.5516 175.625 37.6427 175.267 37.6394 174.833ZM44.3299 181.023C43.7234 181.023 43.2013 180.943 42.7638 180.784C42.3297 180.625 41.975 180.415 41.6999 180.153C41.4248 179.891 41.2193 179.604 41.0835 179.293L42.3612 178.766C42.4506 178.911 42.57 179.066 42.7191 179.228C42.8716 179.394 43.0771 179.535 43.3356 179.651C43.5974 179.767 43.9338 179.825 44.3448 179.825C44.9083 179.825 45.3739 179.687 45.7418 179.412C46.1097 179.14 46.2937 178.706 46.2937 178.109V176.608H46.1992C46.1097 176.77 45.9805 176.951 45.8114 177.15C45.6457 177.349 45.417 177.521 45.1254 177.667C44.8337 177.813 44.4542 177.886 43.9869 177.886C43.3836 177.886 42.8401 177.745 42.3562 177.463C41.8756 177.178 41.4944 176.759 41.2127 176.205C40.9343 175.648 40.7951 174.964 40.7951 174.152C40.7951 173.34 40.9326 172.644 41.2077 172.064C41.4862 171.484 41.8673 171.04 42.3512 170.732C42.8351 170.42 43.3836 170.264 43.9968 170.264C44.4708 170.264 44.8536 170.344 45.1452 170.503C45.4369 170.659 45.6639 170.841 45.8263 171.05C45.9921 171.259 46.1197 171.442 46.2092 171.602H46.3185V170.364H47.7752V178.169C47.7752 178.825 47.6228 179.364 47.3178 179.785C47.0129 180.206 46.6003 180.517 46.0799 180.719C45.5629 180.922 44.9795 181.023 44.3299 181.023ZM44.315 176.653C44.7425 176.653 45.1038 176.553 45.3988 176.354C45.6971 176.152 45.9225 175.864 46.0749 175.489C46.2307 175.112 46.3086 174.659 46.3086 174.132C46.3086 173.618 46.2324 173.166 46.0799 172.775C45.9274 172.384 45.7037 172.079 45.4087 171.86C45.1138 171.638 44.7492 171.527 44.315 171.527C43.8675 171.527 43.4947 171.643 43.1964 171.875C42.8981 172.104 42.6727 172.415 42.5202 172.81C42.3711 173.204 42.2965 173.645 42.2965 174.132C42.2965 174.633 42.3728 175.072 42.5252 175.45C42.6777 175.827 42.9031 176.122 43.2013 176.335C43.503 176.547 43.8742 176.653 44.315 176.653ZM54.6062 174.833V170.364H56.0977V178H54.636V176.678H54.5565C54.3808 177.085 54.0991 177.425 53.7113 177.697C53.3268 177.965 52.8479 178.099 52.2745 178.099C51.784 178.099 51.3498 177.992 50.9719 177.776C50.5974 177.558 50.3024 177.234 50.087 176.807C49.8749 176.379 49.7688 175.851 49.7688 175.221V170.364H51.2553V175.042C51.2553 175.562 51.3995 175.977 51.6879 176.285C51.9762 176.593 52.3507 176.747 52.8114 176.747C53.0898 176.747 53.3666 176.678 53.6417 176.538C53.9201 176.399 54.1504 176.189 54.3327 175.907C54.5183 175.625 54.6095 175.267 54.6062 174.833ZM63.8173 172.228L62.47 172.467C62.4136 172.294 62.3242 172.13 62.2015 171.974C62.0822 171.819 61.9198 171.691 61.7143 171.592C61.5088 171.492 61.252 171.442 60.9437 171.442C60.5228 171.442 60.1715 171.537 59.8897 171.726C59.608 171.911 59.4672 172.152 59.4672 172.447C59.4672 172.702 59.5616 172.907 59.7505 173.063C59.9395 173.219 60.2444 173.347 60.6653 173.446L61.8784 173.724C62.581 173.887 63.1047 174.137 63.4494 174.475C63.7941 174.813 63.9664 175.252 63.9664 175.793C63.9664 176.25 63.8339 176.658 63.5687 177.016C63.3069 177.37 62.9406 177.649 62.47 177.851C62.0027 178.053 61.4608 178.154 60.8443 178.154C59.9892 178.154 59.2915 177.972 58.7512 177.607C58.211 177.239 57.8796 176.717 57.7569 176.041L59.1937 175.822C59.2832 176.197 59.4672 176.48 59.7456 176.673C60.024 176.862 60.3869 176.956 60.8343 176.956C61.3216 176.956 61.711 176.855 62.0027 176.653C62.2943 176.447 62.4402 176.197 62.4402 175.902C62.4402 175.663 62.3507 175.463 62.1717 175.3C61.996 175.138 61.7259 175.015 61.3613 174.933L60.0687 174.649C59.3561 174.487 58.8291 174.228 58.4877 173.874C58.1497 173.519 57.9806 173.07 57.9806 172.526C57.9806 172.076 58.1066 171.681 58.3585 171.343C58.6104 171.005 58.9584 170.741 59.4025 170.553C59.8467 170.36 60.3554 170.264 60.9288 170.264C61.7541 170.264 62.4037 170.443 62.8777 170.801C63.3516 171.156 63.6648 171.631 63.8173 172.228ZM69.1655 170.364V171.557H64.9943V170.364H69.1655ZM66.1129 168.534H67.5994V175.758C67.5994 176.046 67.6425 176.263 67.7287 176.409C67.8149 176.552 67.9259 176.649 68.0618 176.702C68.201 176.752 68.3518 176.777 68.5142 176.777C68.6335 176.777 68.7379 176.769 68.8274 176.752C68.9169 176.736 68.9865 176.722 69.0362 176.712L69.3047 177.94C69.2185 177.973 69.0959 178.007 68.9368 178.04C68.7777 178.076 68.5788 178.096 68.3402 178.099C67.9491 178.106 67.5845 178.036 67.2464 177.891C66.9084 177.745 66.6349 177.519 66.4261 177.214C66.2173 176.91 66.1129 176.527 66.1129 176.066V168.534ZM74.495 178V176.886L77.9403 173.317C78.3082 172.929 78.6115 172.589 78.8501 172.298C79.0921 172.003 79.2727 171.723 79.392 171.457C79.5114 171.192 79.571 170.911 79.571 170.612C79.571 170.274 79.4915 169.982 79.3324 169.737C79.1733 169.489 78.9562 169.298 78.6811 169.165C78.406 169.03 78.0961 168.962 77.7514 168.962C77.3868 168.962 77.0687 169.036 76.7969 169.185C76.5251 169.335 76.3163 169.545 76.1705 169.817C76.0246 170.089 75.9517 170.407 75.9517 170.771H74.4851C74.4851 170.152 74.6276 169.61 74.9126 169.146C75.1977 168.682 75.5888 168.322 76.0859 168.067C76.5831 167.808 77.1482 167.679 77.7812 167.679C78.4209 167.679 78.9844 167.807 79.4716 168.062C79.9621 168.314 80.3449 168.658 80.62 169.096C80.8951 169.53 81.0327 170.021 81.0327 170.567C81.0327 170.945 80.9614 171.315 80.8189 171.676C80.6797 172.037 80.4361 172.44 80.0881 172.884C79.7401 173.325 79.2562 173.86 78.6364 174.49L76.6129 176.608V176.683H81.1967V178H74.495ZM86.6257 178.169C85.8402 178.166 85.169 177.959 84.6122 177.548C84.0554 177.137 83.6295 176.538 83.3345 175.753C83.0395 174.967 82.892 174.021 82.892 172.914C82.892 171.81 83.0395 170.867 83.3345 170.085C83.6328 169.303 84.0604 168.706 84.6172 168.295C85.1773 167.884 85.8468 167.679 86.6257 167.679C87.4046 167.679 88.0724 167.886 88.6293 168.3C89.1861 168.711 89.612 169.308 89.907 170.09C90.2053 170.869 90.3544 171.81 90.3544 172.914C90.3544 174.024 90.2069 174.972 89.9119 175.758C89.617 176.54 89.1911 177.138 88.6342 177.553C88.0774 177.964 87.4079 178.169 86.6257 178.169ZM86.6257 176.842C87.3151 176.842 87.8537 176.505 88.2415 175.832C88.6326 175.16 88.8281 174.187 88.8281 172.914C88.8281 172.069 88.7386 171.355 88.5597 170.771C88.384 170.185 88.1304 169.741 87.799 169.439C87.4709 169.134 87.0798 168.982 86.6257 168.982C85.9396 168.982 85.401 169.32 85.0099 169.996C84.6188 170.672 84.4216 171.645 84.4183 172.914C84.4183 173.763 84.5062 174.48 84.6818 175.067C84.8608 175.65 85.1143 176.093 85.4425 176.394C85.7706 176.692 86.165 176.842 86.6257 176.842ZM92.1181 178V176.886L95.5634 173.317C95.9313 172.929 96.2346 172.589 96.4732 172.298C96.7151 172.003 96.8958 171.723 97.0151 171.457C97.1344 171.192 97.1941 170.911 97.1941 170.612C97.1941 170.274 97.1145 169.982 96.9554 169.737C96.7963 169.489 96.5792 169.298 96.3042 169.165C96.0291 169.03 95.7192 168.962 95.3745 168.962C95.0099 168.962 94.6917 169.036 94.4199 169.185C94.1481 169.335 93.9393 169.545 93.7935 169.817C93.6477 170.089 93.5748 170.407 93.5748 170.771H92.1081C92.1081 170.152 92.2507 169.61 92.5357 169.146C92.8207 168.682 93.2118 168.322 93.709 168.067C94.2061 167.808 94.7712 167.679 95.4043 167.679C96.044 167.679 96.6074 167.807 97.0946 168.062C97.5852 168.314 97.968 168.658 98.2431 169.096C98.5182 169.53 98.6557 170.021 98.6557 170.567C98.6557 170.945 98.5845 171.315 98.4419 171.676C98.3027 172.037 98.0591 172.44 97.7111 172.884C97.3631 173.325 96.8792 173.86 96.2594 174.49L94.236 176.608V176.683H98.8198V178H92.1181ZM104.065 178.139C103.442 178.139 102.882 178.02 102.384 177.781C101.891 177.539 101.496 177.208 101.201 176.787C100.906 176.366 100.749 175.885 100.729 175.345H102.22C102.257 175.783 102.451 176.142 102.802 176.424C103.153 176.706 103.574 176.847 104.065 176.847C104.456 176.847 104.802 176.757 105.104 176.578C105.409 176.396 105.647 176.146 105.82 175.827C105.995 175.509 106.083 175.146 106.083 174.739C106.083 174.324 105.994 173.955 105.815 173.63C105.636 173.305 105.389 173.05 105.074 172.864C104.762 172.679 104.405 172.584 104 172.581C103.692 172.581 103.382 172.634 103.07 172.74C102.759 172.846 102.507 172.985 102.315 173.158L100.908 172.949L101.48 167.818H107.078V169.136H102.757L102.434 171.984H102.494C102.693 171.792 102.956 171.631 103.284 171.502C103.616 171.373 103.97 171.308 104.348 171.308C104.968 171.308 105.52 171.456 106.004 171.751C106.491 172.046 106.874 172.448 107.152 172.959C107.434 173.466 107.573 174.049 107.57 174.709C107.573 175.368 107.424 175.957 107.122 176.474C106.824 176.991 106.41 177.398 105.879 177.697C105.352 177.992 104.748 178.139 104.065 178.139Z" fill="#24252C"/>
<rect x="220" y="168" width="1" height="46" fill="white"/>
<path fill-rule="evenodd" clip-rule="evenodd" d="M70 198C70 197.632 70.2878 197.333 70.6429 197.333H85.8051L81.7597 193.138C81.5087 192.878 81.5087 192.456 81.7597 192.195C82.0108 191.935 82.4178 191.935 82.6689 192.195L87.8117 197.529C88.0628 197.789 88.0628 198.211 87.8117 198.471L82.6689 203.805C82.4178 204.065 82.0108 204.065 81.7597 203.805C81.5087 203.544 81.5087 203.122 81.7597 202.862L85.8051 198.667H70.6429C70.2878 198.667 70 198.368 70 198Z" fill="black"/>
<path fill-rule="evenodd" clip-rule="evenodd" d="M372.203 194.209C372.473 193.93 372.911 193.93 373.182 194.209L381 202.276L388.818 194.209C389.089 193.93 389.527 193.93 389.797 194.209C390.068 194.488 390.068 194.94 389.797 195.219L381.49 203.791C381.219 204.07 380.781 204.07 380.51 203.791L372.203 195.219C371.932 194.94 371.932 194.488 372.203 194.209Z" fill="black"/>
<path d="M195 187.822V185.104C195.001 184.208 194.655 183.349 194.036 182.715C193.416 182.082 192.577 181.727 191.702 181.729H189.742V180.096C189.742 179.49 189.263 179 188.671 179C188.08 179 187.6 179.49 187.6 180.096V181.729H183.071V180.096C183.071 179.49 182.592 179 182 179C181.408 179 180.929 179.49 180.929 180.096V181.729H176.399V180.096C176.399 179.49 175.92 179 175.329 179C174.737 179 174.258 179.49 174.258 180.096V181.729H172.298C171.423 181.727 170.583 182.082 169.964 182.715C169.345 183.349 168.999 184.208 169 185.104V187.822H195Z" fill="#5F33E1"/>
<path d="M169 190.016V205.96C168.999 206.856 169.345 207.715 169.964 208.349C170.583 208.982 171.423 209.337 172.298 209.336H191.702C192.577 209.337 193.416 208.982 194.036 208.349C194.654 207.715 195.001 206.856 195 205.96V190.016H169ZM176.306 206.307H174.354C173.768 206.299 173.298 205.81 173.298 205.211C173.298 204.612 173.768 204.123 174.354 204.115H176.307H176.306C176.891 204.125 177.36 204.612 177.36 205.211C177.36 205.81 176.891 206.297 176.306 206.307ZM176.306 200.771H174.354C173.768 200.763 173.298 200.274 173.298 199.676C173.298 199.077 173.768 198.588 174.354 198.58H176.307H176.306C176.891 198.588 177.362 199.077 177.362 199.676C177.362 200.274 176.892 200.763 176.306 200.771ZM176.306 195.236H174.354C173.768 195.228 173.298 194.739 173.298 194.14C173.298 193.542 173.768 193.053 174.354 193.044H176.307H176.306C176.891 193.054 177.36 193.542 177.36 194.14C177.36 194.739 176.891 195.227 176.306 195.236ZM182.943 206.307H180.99C180.406 206.299 179.934 205.81 179.934 205.211C179.934 204.612 180.406 204.123 180.99 204.115H182.943C183.528 204.125 183.997 204.612 183.997 205.211C183.997 205.81 183.528 206.297 182.943 206.307ZM182.943 200.771H180.99C180.406 200.763 179.934 200.274 179.934 199.676C179.934 199.077 180.406 198.588 180.99 198.58H182.943C183.528 198.588 183.998 199.077 183.998 199.676C183.998 200.274 183.528 200.763 182.943 200.771ZM182.943 195.236H180.99C180.406 195.228 179.934 194.739 179.934 194.14C179.934 193.542 180.406 193.053 180.99 193.044H182.943C183.528 193.054 183.997 193.542 183.997 194.14C183.997 194.739 183.528 195.227 182.943 195.236ZM189.647 206.307H187.694C187.107 206.299 186.638 205.81 186.638 205.211C186.638 204.612 187.109 204.123 187.694 204.115H189.647H189.645C190.23 204.125 190.7 204.612 190.7 205.211C190.7 205.81 190.23 206.297 189.645 206.307H189.647ZM189.647 200.771H187.694C187.107 200.763 186.638 200.274 186.638 199.676C186.638 199.077 187.109 198.588 187.694 198.58H189.647H189.645C190.232 198.588 190.701 199.077 190.701 199.676C190.701 200.274 190.232 200.763 189.645 200.771H189.647ZM189.647 195.236H187.694C187.107 195.228 186.638 194.739 186.638 194.14C186.638 193.542 187.109 193.053 187.694 193.044H189.647H189.645C190.23 193.054 190.7 193.542 190.7 194.14C190.7 194.739 190.23 195.227 189.645 195.236H189.647Z" fill="#B5A0F3"/>
<rect x="269" y="79" width="89" height="50" rx="25" fill="#F9F9F9"/>
<path d="M296.617 106.066C297.129 106.209 297.672 106.281 298.234 106.281C298.797 106.281 299.34 106.209 299.851 106.066C301.724 105.554 303.239 104.183 303.945 102.402C304.221 101.706 304.375 100.939 304.375 100.14C304.375 96.7529 301.622 94 298.234 94C294.847 94 292.094 96.7529 292.094 100.14C292.094 100.939 292.247 101.706 292.524 102.402C293.23 104.183 294.744 105.554 296.617 106.066Z" fill="#72E2B7"/>
<path d="M300.281 107.86C300.281 109.672 299.493 111.309 298.234 112.425C297.149 113.407 295.716 114.001 294.14 114.001C290.753 114.001 288 111.248 288 107.86C288 105.578 289.259 103.582 291.111 102.528C292.002 104.759 293.905 106.448 296.208 107.072C296.853 107.256 297.528 107.349 298.234 107.349C298.93 107.349 299.585 107.256 300.22 107.093C300.26 107.338 300.281 107.604 300.281 107.86Z" fill="#F3DA32"/>
<path d="M304.931 102.528C304.235 104.278 302.914 105.691 301.257 106.52L301.308 106.837C301.359 107.164 301.39 107.512 301.39 107.86C301.39 109.928 300.561 111.893 299.087 113.315C299.926 113.755 300.888 114.001 301.901 114.001C305.289 114.001 308.042 111.248 308.042 107.86C308.042 105.578 306.783 103.582 304.931 102.528Z" fill="#FF6767"/>
<path fill-rule="evenodd" clip-rule="evenodd" d="M324.158 100.167C324.368 99.9442 324.709 99.9442 324.919 100.167L331 106.62L337.081 100.167C337.291 99.9442 337.632 99.9442 337.842 100.167C338.053 100.391 338.053 100.752 337.842 100.975L331.381 107.833C331.17 108.056 330.83 108.056 330.619 107.833L324.158 100.975C323.947 100.752 323.947 100.391 324.158 100.167Z" fill="black"/>
<rect x="370" y="79" width="50" height="50" rx="25" fill="#F9F9F9"/>
<path d="M390.887 106.196C390.696 105.772 390.412 105.397 390.055 105.1C389.698 104.803 389.278 104.591 388.827 104.48V96.7777C388.827 96.5795 388.749 96.3894 388.608 96.2492C388.468 96.109 388.278 96.0303 388.08 96.0303C387.882 96.0303 387.691 96.109 387.551 96.2492C387.411 96.3894 387.332 96.5795 387.332 96.7777V104.477C387.153 104.522 386.979 104.582 386.809 104.656C386.227 104.92 385.741 105.358 385.419 105.91C385.097 106.463 384.955 107.102 385.012 107.738C385.07 108.375 385.324 108.978 385.74 109.464C386.156 109.949 386.712 110.294 387.332 110.449V113.222C387.332 113.42 387.411 113.61 387.551 113.75C387.691 113.891 387.882 113.969 388.08 113.969C388.278 113.969 388.468 113.891 388.608 113.75C388.749 113.61 388.827 113.42 388.827 113.222V110.453C389.311 110.334 389.759 110.099 390.132 109.769C390.504 109.438 390.79 109.021 390.965 108.554C391.109 108.175 391.176 107.772 391.163 107.367C391.149 106.962 391.055 106.564 390.887 106.196ZM389.567 108.027C389.475 108.271 389.324 108.489 389.128 108.662C388.931 108.834 388.696 108.955 388.441 109.014C388.187 109.073 387.922 109.069 387.669 109.001C387.417 108.933 387.185 108.805 386.995 108.626C386.804 108.447 386.661 108.225 386.577 107.977C386.493 107.73 386.471 107.466 386.514 107.208C386.556 106.95 386.662 106.707 386.821 106.5C386.98 106.293 387.188 106.128 387.426 106.02C387.63 105.926 387.852 105.878 388.076 105.878C388.382 105.878 388.681 105.966 388.939 106.132C389.196 106.298 389.4 106.534 389.526 106.812C389.614 107.002 389.664 107.206 389.673 107.415C389.681 107.623 389.648 107.831 389.575 108.027H389.567Z" fill="#0A0A0A"/>
<path d="M404.715 106.196C404.525 105.772 404.24 105.397 403.883 105.1C403.526 104.803 403.107 104.591 402.655 104.48V96.7777C402.655 96.5795 402.577 96.3894 402.437 96.2492C402.296 96.109 402.106 96.0303 401.908 96.0303C401.71 96.0303 401.52 96.109 401.379 96.2492C401.239 96.3894 401.161 96.5795 401.161 96.7777V104.477C400.982 104.522 400.807 104.582 400.637 104.656C400.055 104.92 399.569 105.358 399.247 105.91C398.925 106.463 398.783 107.102 398.841 107.738C398.898 108.375 399.152 108.978 399.568 109.464C399.984 109.949 400.54 110.294 401.161 110.449V113.222C401.161 113.42 401.239 113.61 401.379 113.75C401.52 113.891 401.71 113.969 401.908 113.969C402.106 113.969 402.296 113.891 402.437 113.75C402.577 113.61 402.655 113.42 402.655 113.222V110.453C403.14 110.334 403.587 110.099 403.96 109.769C404.333 109.438 404.619 109.021 404.793 108.554C404.937 108.175 405.004 107.772 404.991 107.367C404.977 106.962 404.884 106.564 404.715 106.196ZM403.395 108.027C403.303 108.271 403.152 108.489 402.956 108.662C402.76 108.834 402.524 108.955 402.269 109.014C402.015 109.073 401.75 109.069 401.497 109.001C401.245 108.933 401.013 108.805 400.823 108.626C400.632 108.447 400.489 108.225 400.405 107.977C400.321 107.73 400.299 107.466 400.342 107.208C400.385 106.95 400.49 106.707 400.649 106.5C400.808 106.293 401.016 106.128 401.254 106.02C401.458 105.926 401.68 105.878 401.904 105.878C402.21 105.878 402.51 105.966 402.767 106.132C403.024 106.298 403.228 106.534 403.354 106.812C403.441 107.002 403.49 107.207 403.497 107.416C403.504 107.624 403.469 107.832 403.395 108.027Z" fill="#0A0A0A"/>
<path d="M396.081 99.7676C395.969 99.7265 395.857 99.6928 395.741 99.6629V96.7777C395.741 96.5795 395.663 96.3894 395.522 96.2492C395.382 96.109 395.192 96.0303 394.994 96.0303C394.796 96.0303 394.606 96.109 394.465 96.2492C394.325 96.3894 394.246 96.5795 394.246 96.7777V99.6741C393.809 99.7846 393.401 99.9895 393.052 100.275C392.702 100.56 392.419 100.918 392.223 101.324C392.026 101.73 391.921 102.174 391.915 102.625C391.909 103.076 392.002 103.523 392.187 103.935C392.353 104.304 392.59 104.637 392.885 104.914C393.18 105.191 393.527 105.407 393.906 105.549C394.018 105.59 394.134 105.624 394.246 105.654V113.222C394.246 113.42 394.325 113.61 394.465 113.75C394.606 113.891 394.796 113.969 394.994 113.969C395.192 113.969 395.382 113.891 395.522 113.75C395.663 113.61 395.741 113.42 395.741 113.222V105.65C395.921 105.607 396.096 105.547 396.265 105.471C396.824 105.222 397.297 104.812 397.623 104.293C397.949 103.774 398.112 103.17 398.092 102.558C398.073 101.945 397.871 101.353 397.513 100.856C397.154 100.359 396.656 99.9799 396.081 99.7676ZM396.493 103.225C396.382 103.519 396.186 103.773 395.931 103.956C395.675 104.139 395.371 104.242 395.057 104.252C394.743 104.262 394.433 104.178 394.166 104.012C393.9 103.846 393.688 103.604 393.559 103.318C393.45 103.076 393.403 102.811 393.422 102.546C393.442 102.282 393.528 102.026 393.671 101.803C393.815 101.58 394.013 101.397 394.246 101.27C394.479 101.142 394.74 101.076 395.005 101.076C395.197 101.076 395.386 101.11 395.566 101.177C395.759 101.251 395.936 101.363 396.086 101.506C396.236 101.649 396.356 101.82 396.44 102.01C396.529 102.199 396.58 102.403 396.588 102.612C396.597 102.821 396.565 103.029 396.493 103.225Z" fill="#0A0A0A"/>
<g clip-path="url(#clip0_3337_1029)">
<rect opacity="0.35" x="391.401" y="21.4008" width="25.2" height="12.4" rx="2.6" stroke="black" stroke-width="1.2"/>
<path opacity="0.4" d="M418.4 25.2012V30.0012C419.366 29.5946 419.994 28.6489 419.994 27.6012C419.994 26.5534 419.366 25.6077 418.4 25.2012" fill="black"/>
<rect x="393.201" y="23.2012" width="21.6" height="8.8" rx="1.6" fill="black"/>
<path d="M372.944 30.877C374.475 29.5823 376.717 29.5823 378.248 30.877C378.325 30.9466 378.37 31.0456 378.372 31.1494C378.374 31.2531 378.333 31.3531 378.259 31.4258L375.862 33.8447C375.792 33.9156 375.696 33.9549 375.597 33.9551C375.497 33.9551 375.4 33.9158 375.33 33.8447L372.933 31.4258C372.859 31.3531 372.818 31.253 372.82 31.1494C372.823 31.0456 372.867 30.9465 372.944 30.877ZM369.747 27.6504C373.045 24.5829 378.151 24.583 381.449 27.6504C381.524 27.7223 381.566 27.8213 381.567 27.9248C381.568 28.0282 381.528 28.1278 381.455 28.2012L380.069 29.6016C379.927 29.7441 379.696 29.7472 379.55 29.6084C378.467 28.6277 377.058 28.0839 375.597 28.084C374.137 28.0846 372.729 28.6284 371.646 29.6084C371.5 29.7471 371.27 29.7441 371.127 29.6016L369.741 28.2012C369.668 28.1279 369.628 28.0282 369.629 27.9248C369.63 27.8213 369.673 27.7223 369.747 27.6504ZM366.548 24.4326C371.606 19.5852 379.586 19.5852 384.645 24.4326C384.718 24.5045 384.759 24.6026 384.76 24.7051C384.76 24.8077 384.72 24.9066 384.647 24.9795L383.26 26.3799C383.117 26.5232 382.885 26.525 382.74 26.3838C380.813 24.5517 378.256 23.5294 375.597 23.5293C372.937 23.5293 370.38 24.5515 368.452 26.3838C368.307 26.5253 368.075 26.5234 367.933 26.3799L366.545 24.9795C366.473 24.9066 366.432 24.8078 366.433 24.7051C366.433 24.6026 366.475 24.5045 366.548 24.4326Z" fill="black"/>
<path d="M353.601 24C354.263 24.0002 354.8 24.5376 354.8 25.2002V32.7998C354.8 33.4624 354.263 33.9998 353.601 34H352.4C351.738 34 351.2 33.4625 351.2 32.7998V25.2002C351.2 24.5375 351.738 24 352.4 24H353.601ZM342.4 29.1992C343.063 29.1994 343.6 29.7368 343.6 30.3994V32.7998C343.599 33.4622 343.063 33.9988 342.4 33.999H341.2C340.538 33.999 340 33.4623 340 32.7998V30.3994C340 29.7367 340.537 29.1992 341.2 29.1992H342.4ZM348 26.7988C348.663 26.799 349.199 27.3364 349.199 27.999V32.7988C349.199 33.4614 348.663 33.9988 348 33.999H346.8C346.137 33.999 345.6 33.4616 345.6 32.7988V27.999C345.6 27.3363 346.137 26.7988 346.8 26.7988H348ZM359.2 21.1992C359.863 21.1993 360.4 21.7367 360.4 22.3994V32.7988C360.4 33.4615 359.863 33.9989 359.2 33.999H358C357.337 33.999 356.8 33.4616 356.8 32.7988V22.3994C356.8 21.7367 357.337 21.1992 358 21.1992H359.2Z" fill="black"/>
<path d="M25.3887 35.0379C28.3992 35.0379 30.2039 32.6918 30.2039 28.7461C30.2039 24.3574 27.8496 22.7168 25.4215 22.7168C22.8621 22.7168 21 24.4477 21 26.8594C21 29.148 22.7145 30.7395 24.9293 30.7395C26.4633 30.7395 27.6773 29.9684 28.1367 28.8199H28.1695C28.1695 31.5762 27.2672 33.3234 25.4051 33.3234C24.3223 33.3234 23.5266 32.8312 23.2312 31.8961H21.1312C21.4594 33.7664 23.1738 35.0379 25.3887 35.0379ZM25.4215 29.0988C24.0762 29.0988 23.0754 28.1309 23.0754 26.7773C23.0754 25.4812 24.1254 24.4559 25.4461 24.4559C26.7832 24.4559 27.8168 25.4895 27.8168 26.8184C27.8168 28.1391 26.7914 29.0988 25.4215 29.0988Z" fill="black"/>
<path d="M32.8374 33.1184C33.4937 33.1184 34.0105 32.6016 34.0105 31.9371C34.0105 31.2809 33.4937 30.7559 32.8374 30.7559C32.173 30.7559 31.6562 31.2809 31.6562 31.9371C31.6562 32.6016 32.173 33.1184 32.8374 33.1184ZM32.8374 26.9906C33.4937 26.9906 34.0105 26.4656 34.0105 25.8094C34.0105 25.1531 33.4937 24.6281 32.8374 24.6281C32.173 24.6281 31.6562 25.1531 31.6562 25.8094C31.6562 26.4656 32.173 26.9906 32.8374 26.9906Z" fill="black"/>
<path d="M41.2788 34.8H43.2967V32.5277H44.9046V30.7887H43.2967V22.9629H40.2862C37.7186 26.6953 36.3979 28.7953 35.3725 30.723V32.5277H41.2788V34.8ZM37.2757 30.7805C38.219 29.0578 39.3675 27.2777 41.2788 24.5379H41.3116V30.8379H37.2757V30.7805Z" fill="black"/>
<path d="M48.908 34.8H50.9834V22.9629H48.8916L45.799 25.1367V27.0809L48.8588 24.9809H48.908V34.8Z" fill="black"/>
</g>
<defs>
<linearGradient id="paint0_linear_3337_1029" x1="0" y1="122" x2="440" y2="122" gradientUnits="userSpaceOnUse">
<stop offset="0.9999" stop-color="#6524EB"/>
<stop offset="1" stop-color="#EAE7FF"/>
</linearGradient>
<linearGradient id="paint1_linear_3337_1029" x1="0" y1="191" x2="440" y2="191" gradientUnits="userSpaceOnUse">
<stop offset="0.347938" stop-color="#E9E6FF"/>
<stop offset="0.675161" stop-color="#E1F6FF"/>
</linearGradient>
<clipPath id="clip0_3337_1029">
<rect width="440" height="33.9007" fill="white"/>
</clipPath>
</defs>
</svg>
