<svg width="97" height="85" viewBox="0 0 97 85" fill="none" xmlns="http://www.w3.org/2000/svg">
<path d="M67.9933 39.3336C68.0404 39.3336 68.0875 39.3336 68.1336 39.3336C68.5849 39.3303 68.9935 39.0645 69.1787 38.6531C69.3638 38.2417 69.2915 37.7603 68.9946 37.4211C67.9451 36.2241 67.0611 34.9035 66.3588 33.4823C74.1873 30.5117 79.1751 24.4098 79.1751 17.6635C79.1751 12.8822 76.7256 8.40831 72.2767 5.06687C67.9265 1.79873 62.1598 0 56.0403 0C53.4582 0 50.9276 0.32386 48.5099 0.957355C46.1129 0.32933 43.5702 0 40.963 0C34.8424 0 29.0768 1.79983 24.7265 5.06687C20.2777 8.40831 17.8282 12.8822 17.8282 17.6635C17.8282 24.4098 22.8171 30.5117 30.6444 33.4823C29.9411 34.9035 29.0581 36.2241 28.0087 37.4211C27.7107 37.7603 27.6395 38.2417 27.8246 38.6531C28.0098 39.0645 28.4184 39.3303 28.8697 39.3336C28.9168 39.3336 28.9628 39.3336 29.0099 39.3336C33.3547 39.3336 37.6337 37.9156 41.1196 35.3259C43.6721 35.3127 46.16 34.9834 48.5099 34.3685C50.8794 34.9889 53.3574 35.3138 55.887 35.3259C59.3728 37.9156 63.6519 39.3336 67.9966 39.3336H67.9933ZM40.9619 33.0194L40.7395 33.0173C40.4776 33.014 40.2279 33.1004 40.023 33.2591C37.5012 35.2132 34.4831 36.4594 31.3357 36.874C32.1015 35.7383 32.7522 34.5271 33.2802 33.2536C33.4029 32.9571 33.3963 32.6223 33.2627 32.3302C33.1279 32.038 32.8782 31.8159 32.5725 31.7164C25.0179 29.2524 20.1364 23.7358 20.1364 17.6635C20.1364 9.19608 29.4788 2.30641 40.9619 2.30641C52.4449 2.30641 61.7873 9.19499 61.7873 17.6635C61.7873 26.132 52.4449 33.0205 40.9619 33.0205V33.0194ZM57.1983 30.259C61.6471 26.9175 64.0966 22.4437 64.0966 17.6624C64.0966 12.8811 61.6471 8.40722 57.1983 5.06578C55.8672 4.06575 54.4026 3.20577 52.836 2.49022C53.8899 2.36986 54.9591 2.30531 56.0381 2.30531C67.5212 2.30531 76.8636 9.19389 76.8636 17.6624C76.8636 23.7347 71.9821 29.2513 64.4275 31.7153C64.1218 31.8148 63.8721 32.038 63.7373 32.3291C63.6026 32.6212 63.596 32.956 63.7198 33.2525C64.2478 34.5261 64.8985 35.7372 65.6643 36.874C62.5169 36.4594 59.4988 35.2132 56.977 33.2591C56.7743 33.1026 56.5256 33.0173 56.2693 33.0173H56.2605L56.0381 33.0194C54.9591 33.0194 53.891 32.9549 52.8371 32.8345C54.4026 32.119 55.8672 31.2579 57.1983 30.259ZM29.4175 60.728C31.9678 58.5332 33.5869 55.2881 33.5869 51.6698C33.5869 45.0766 28.2157 39.7122 21.6142 39.7122C15.0127 39.7122 9.6415 45.0766 9.6415 51.6698C9.6415 55.2881 11.2606 58.5332 13.811 60.728C5.4523 62.7139 0.237724 67.7359 0 74.2481C0 74.2623 0 74.2765 0 74.2897V83.8468C0 84.4836 0.517076 85 1.15466 85H42.0738C42.7114 85 43.2284 84.4836 43.2284 83.8468V74.2897C43.2284 74.2754 43.2284 74.2612 43.2284 74.2481C42.9907 67.7359 37.7761 62.7139 29.4175 60.728ZM11.9519 51.6698C11.9519 46.348 16.2868 42.0186 21.6153 42.0186C26.9438 42.0186 31.2787 46.348 31.2787 51.6698C31.2787 56.9916 26.9438 61.3211 21.6153 61.3211C16.2868 61.3211 11.9519 56.9916 11.9519 51.6698ZM40.9202 82.6936H2.30931V74.3115C2.58209 67.237 9.81021 63.6023 16.61 62.529C18.1338 63.2325 19.8275 63.6275 21.6131 63.6275C23.3988 63.6275 25.0935 63.2325 26.6174 62.529C33.4182 63.6034 40.6464 67.237 40.9191 74.3115L40.9202 82.6936ZM97 74.2481C96.7623 67.7359 91.5477 62.7139 83.189 60.728C85.7393 58.5332 87.3585 55.2881 87.3585 51.6698C87.3585 45.0766 81.9873 39.7122 75.3858 39.7122C68.7843 39.7122 63.413 45.0766 63.413 51.6698C63.413 55.2881 65.0322 58.5332 67.5825 60.728C59.2238 62.7139 54.0093 67.7359 53.7715 74.2481C53.7715 74.2623 53.7715 74.2765 53.7715 74.2897V83.8468C53.7715 84.4836 54.2886 85 54.9262 85H95.8453C96.4829 85 97 84.4836 97 83.8468V74.2897C97 74.2754 97 74.2612 97 74.2481ZM65.7235 51.6698C65.7235 46.348 70.0584 42.0186 75.3869 42.0186C80.7154 42.0186 85.0503 46.348 85.0503 51.6698C85.0503 56.9916 80.7154 61.3211 75.3869 61.3211C70.0584 61.3211 65.7235 56.9916 65.7235 51.6698ZM94.6918 82.6936H56.082V74.3115C56.3547 67.237 63.5828 63.6023 70.3826 62.529C71.9065 63.2325 73.6001 63.6275 75.3858 63.6275C77.1714 63.6275 78.8662 63.2325 80.39 62.529C87.1909 63.6034 94.419 67.237 94.6918 74.3115V82.6936ZM53.1581 10.9521C53.1581 11.5889 52.641 12.1053 52.0034 12.1053H29.9181C29.2805 12.1053 28.7635 11.5889 28.7635 10.9521C28.7635 10.3154 29.2805 9.79894 29.9181 9.79894H52.0034C52.641 9.79894 53.1581 10.3154 53.1581 10.9521ZM53.1581 17.6624C53.1581 18.2992 52.641 18.8156 52.0034 18.8156H29.9181C29.2805 18.8156 28.7635 18.2992 28.7635 17.6624C28.7635 17.0256 29.2805 16.5092 29.9181 16.5092H52.0034C52.641 16.5092 53.1581 17.0256 53.1581 17.6624ZM53.1581 24.3726C53.1581 25.0094 52.641 25.5258 52.0034 25.5258H29.9181C29.2805 25.5258 28.7635 25.0094 28.7635 24.3726C28.7635 23.7358 29.2805 23.2194 29.9181 23.2194H52.0034C52.641 23.2194 53.1581 23.7358 53.1581 24.3726Z" fill="#24252C"/>
</svg>
