<svg width="268" height="76" viewBox="0 0 268 76" fill="none" xmlns="http://www.w3.org/2000/svg">
<path d="M0 12.8139C0 7.29815 4.05615 2.77871 9.22468 2.60667C32.0382 1.8473 92.2744 -0.0147478 133.997 8.81382e-05C175.354 0.0147937 235.223 1.85675 257.96 2.60877C263.129 2.77975 267.188 7.29973 267.188 12.8166V63.1833C267.188 68.7001 263.129 73.2201 257.96 73.3911C235.223 74.1432 175.354 75.9852 133.997 75.9999C92.2744 76.0147 32.0381 74.1526 9.22467 73.3932C4.05614 73.2212 0 68.7017 0 63.186V12.8139Z" fill="#6524EB"/>
<path d="M54.9297 49.5561L56.8131 33.7726H58.1985C58.8211 33.7726 59.1324 34.0839 59.1324 34.7065L58.8989 37.7574C59.7394 36.3669 60.6838 35.3188 61.7318 34.6131C62.7903 33.9075 63.8851 33.5547 65.0162 33.5547C66.1888 33.5547 67.0968 33.949 67.7402 34.7377C68.3939 35.5263 68.7208 36.6782 68.7208 38.1932C68.7208 38.4008 68.7156 38.6135 68.7052 38.8314C68.6948 39.0493 68.6741 39.2776 68.643 39.5163L67.46 49.5561H64.6893L65.8723 39.5163C65.893 39.3088 65.9086 39.1116 65.919 38.9248C65.9397 38.7276 65.9501 38.5409 65.9501 38.3645C65.9501 37.5135 65.7893 36.8857 65.4676 36.481C65.1563 36.0659 64.6634 35.8584 63.9889 35.8584C63.4908 35.8584 62.9823 35.9933 62.4634 36.2631C61.955 36.5329 61.462 36.9169 60.9847 37.415C60.5074 37.9027 60.0611 38.4994 59.6461 39.205C59.2414 39.9003 58.8937 40.6785 58.6032 41.5398L57.7004 49.5561H54.9297Z" fill="white"/>
<path d="M52.3613 33.7899L50.4623 49.5578H47.7383L49.6373 33.7899H52.3613ZM53.4042 28.8401C53.4042 29.1099 53.3471 29.3641 53.2329 29.6028C53.1292 29.8311 52.9839 30.0386 52.7971 30.2254C52.6207 30.4018 52.4183 30.5419 52.19 30.6457C51.9617 30.7494 51.7231 30.8013 51.474 30.8013C51.2353 30.8013 51.0019 30.7494 50.7736 30.6457C50.5453 30.5419 50.3429 30.4018 50.1665 30.2254C50.0005 30.0386 49.8656 29.8311 49.7618 29.6028C49.658 29.3641 49.6062 29.1099 49.6062 28.8401C49.6062 28.5702 49.658 28.316 49.7618 28.0773C49.8656 27.8387 50.0057 27.6311 50.1821 27.4547C50.3585 27.2679 50.5608 27.1226 50.7891 27.0189C51.0174 26.9047 51.2509 26.8477 51.4896 26.8477C51.7386 26.8477 51.9773 26.8995 52.2056 27.0033C52.4339 27.1071 52.6363 27.2524 52.8127 27.4391C52.9994 27.6156 53.1447 27.8283 53.2485 28.0773C53.3523 28.316 53.4042 28.5702 53.4042 28.8401Z" fill="white"/>
<path d="M37.5704 47.6113C38.3279 47.6113 39.018 47.4038 39.6406 46.9887C40.2632 46.5736 40.7925 46.0236 41.2283 45.3387C41.6641 44.6435 42.0014 43.8445 42.2401 42.9416C42.4787 42.0388 42.5981 41.0945 42.5981 40.1087C42.5981 38.6559 42.3127 37.5611 41.742 36.8244C41.1712 36.0876 40.3463 35.7192 39.267 35.7192C38.4991 35.7192 37.8039 35.9268 37.1813 36.3418C36.569 36.7465 36.045 37.2965 35.6091 37.9918C35.1733 38.6767 34.836 39.4705 34.5974 40.3733C34.3587 41.2761 34.2394 42.2204 34.2394 43.2063C34.2394 44.6591 34.5195 45.759 35.0799 46.5062C35.6506 47.2429 36.4808 47.6113 37.5704 47.6113ZM37.3213 49.7749C36.4601 49.7749 35.6714 49.6297 34.9554 49.3391C34.2394 49.0382 33.6219 48.6075 33.1031 48.0472C32.5842 47.4868 32.1795 46.8019 31.889 45.9925C31.5984 45.1831 31.4531 44.2595 31.4531 43.2218C31.4531 41.8936 31.6607 40.6431 32.0757 39.4705C32.4908 38.2979 33.0564 37.2706 33.7724 36.3885C34.4988 35.5065 35.3497 34.8112 36.3252 34.3028C37.311 33.7943 38.3746 33.54 39.5161 33.54C40.3774 33.54 41.166 33.6905 41.8821 33.9914C42.5981 34.282 43.2155 34.7075 43.7344 35.2678C44.2532 35.8282 44.6579 36.5183 44.9485 37.338C45.239 38.1475 45.3843 39.0658 45.3843 40.0931C45.3843 41.411 45.1768 42.6563 44.7617 43.8289C44.3466 45.0015 43.7759 46.0288 43.0495 46.9109C42.3335 47.7929 41.4825 48.4934 40.4967 49.0122C39.5109 49.5207 38.4524 49.7749 37.3213 49.7749Z" fill="white"/>
<path d="M28.1169 42.1628C27.816 44.6325 27.0429 46.5264 25.7976 47.8442C24.5628 49.1517 22.918 49.8055 20.8634 49.8055C20.303 49.8055 19.779 49.7692 19.2912 49.6965C18.8035 49.6239 18.3106 49.5149 17.8125 49.3697L18.0304 47.673C18.0512 47.5174 18.1082 47.3825 18.2016 47.2683C18.3054 47.1542 18.4611 47.0971 18.6686 47.0971C18.7724 47.0971 18.8917 47.1127 19.0266 47.1438C19.1615 47.1645 19.312 47.1957 19.478 47.2372C19.6544 47.2683 19.8516 47.2994 20.0695 47.3306C20.2978 47.3513 20.5572 47.3617 20.8478 47.3617C21.3874 47.3617 21.8959 47.2735 22.3732 47.0971C22.8506 46.9207 23.2812 46.6301 23.6652 46.2254C24.0491 45.8207 24.3708 45.2915 24.6302 44.6377C24.9 43.984 25.092 43.1798 25.2062 42.2251L27.0273 27.251H29.9381L28.1169 42.1628Z" fill="white"/>
<path d="M203.119 41.9481C203.119 42.7511 203.398 43.4319 203.956 43.9905C204.55 44.5491 205.248 44.8284 206.051 44.8284H211.131V50.9033H206.051C204.69 50.9033 203.398 50.6589 202.176 50.1701C200.989 49.6464 199.941 48.9482 199.034 48.0754C198.161 47.1676 197.463 46.1202 196.939 44.9332C196.415 43.7461 196.153 42.4718 196.153 41.1102V33.2548H192.383V27.4418H196.153V17.9629H203.119V41.9481Z" fill="white"/>
<path d="M176.016 24.2979C177.901 24.2979 179.682 24.6644 181.358 25.3976C183.034 26.0959 184.483 27.0734 185.704 28.3303C186.961 29.5523 187.939 30.9837 188.637 32.6246C189.37 34.2655 189.737 36.0286 189.737 37.9139C189.737 39.8341 189.37 41.6322 188.637 43.308C187.939 44.9838 186.961 46.4502 185.704 47.707C184.483 48.929 183.034 49.9065 181.358 50.6397C179.682 51.338 177.901 51.6871 176.016 51.6871C173.433 51.6871 171.285 50.9888 169.575 49.5923V49.54L172.193 44.722L172.246 44.7743C173.188 45.1933 174.148 45.4028 175.126 45.4028C176.138 45.4028 177.098 45.2107 178.006 44.8267C178.914 44.4427 179.699 43.919 180.363 43.2556C181.061 42.5574 181.602 41.7544 181.986 40.8466C182.37 39.9389 182.562 38.9613 182.562 37.9139C182.562 36.9014 182.37 35.9588 181.986 35.086C181.602 34.1782 181.061 33.3927 180.363 32.7293C179.699 32.066 178.914 31.5423 178.006 31.1583C177.098 30.7742 176.138 30.5822 175.126 30.5822C174.078 30.5822 173.101 30.7742 172.193 31.1583C171.32 31.5423 170.552 32.066 169.889 32.7293C169.226 33.3927 168.702 34.1782 168.318 35.086C167.934 35.9588 167.742 36.9014 167.742 37.9139V61.3755H160.672V24.7168H167.742V28.2779C169.627 25.6245 172.385 24.2979 176.016 24.2979Z" fill="white"/>
<path d="M130.312 50.9025L137.33 41.3713L143.719 44.304L138.849 50.9025H130.312ZM148.432 37.9149L158.068 50.9025H149.48V50.8501L139.948 37.9673L130.365 24.7178H138.849L144.138 33.6206L149.48 24.7178H158.068L157.964 24.7701L148.432 37.9149Z" fill="white"/>
<path d="M118.718 24.2979C120.568 24.2979 122.314 24.6644 123.955 25.3976C125.595 26.0959 127.027 27.056 128.249 28.2779C129.471 29.4999 130.431 30.9313 131.129 32.5722C131.862 34.2131 132.229 35.9763 132.229 37.8616C132.229 38.874 132.124 39.8516 131.915 40.7942L131.862 40.899H118.561L115.209 35.5573H125.159C124.67 34.0909 123.85 32.8865 122.698 31.9438C121.58 31.0011 120.254 30.5298 118.718 30.5298C117.775 30.5298 116.885 30.7218 116.047 31.1059C115.209 31.4899 114.476 32.0136 113.847 32.677C113.254 33.3054 112.782 34.0735 112.433 34.9812C112.084 35.8541 111.91 36.8142 111.91 37.8616C111.91 38.6646 112.067 39.5025 112.381 40.3753C112.695 41.2132 113.149 41.9813 113.743 42.6795C114.336 43.3778 115.052 43.9713 115.89 44.4601C116.728 44.914 117.67 45.1409 118.718 45.1409C119.66 45.1409 120.516 45.0187 121.284 44.7743C122.087 44.495 122.837 43.9015 123.536 42.9938L123.588 42.9414L123.693 42.9938L129.768 45.6646L129.663 45.7693C128.406 47.515 126.8 48.8766 124.845 49.8542C122.925 50.8317 120.882 51.3205 118.718 51.3205C116.832 51.3205 115.052 50.9714 113.376 50.2731C111.735 49.5749 110.304 48.6148 109.082 47.3928C107.86 46.1708 106.882 44.7394 106.149 43.0985C105.451 41.4576 105.102 39.7119 105.102 37.8616C105.102 35.9763 105.451 34.2131 106.149 32.5722C106.882 30.9313 107.86 29.4999 109.082 28.2779C110.304 27.056 111.735 26.0959 113.376 25.3976C115.052 24.6644 116.832 24.2979 118.718 24.2979Z" fill="white"/>
<path d="M106.726 25.7642L106.098 26.8116L103.427 31.5772L103.374 31.5248C102.222 30.8615 100.983 30.5298 99.6562 30.5298C98.7485 30.5298 97.8931 30.6869 97.0901 31.0011C96.2871 31.2804 95.5714 31.6994 94.943 32.258C94.3146 32.7817 93.7734 33.4101 93.3195 34.1433C92.9006 34.8765 92.6213 35.662 92.4816 36.4999V50.9015H85.3594V24.7168H92.4816V28.1208C94.332 25.5722 97.0378 24.2979 100.599 24.2979C102.694 24.2979 104.719 24.7866 106.674 25.7642H106.726Z" fill="white"/>
<path d="M203.453 27.3887H209.868V33.2802L203.453 27.3887Z" fill="white"/>
<path d="M157.01 57.5443L157.557 57.6119C157.47 57.9315 157.311 58.1795 157.077 58.3559C156.844 58.5324 156.546 58.6206 156.183 58.6206C155.727 58.6206 155.364 58.4804 155.095 58.2001C154.829 57.9178 154.695 57.5227 154.695 57.015C154.695 56.4896 154.831 56.0818 155.101 55.7917C155.372 55.5015 155.723 55.3564 156.154 55.3564C156.571 55.3564 156.913 55.4986 157.177 55.7828C157.442 56.0671 157.574 56.467 157.574 56.9826C157.574 57.014 157.573 57.0611 157.571 57.1238H155.242C155.262 57.4669 155.359 57.7296 155.533 57.9119C155.708 58.0942 155.925 58.1854 156.186 58.1854C156.38 58.1854 156.546 58.1344 156.683 58.0325C156.82 57.9305 156.929 57.7678 157.01 57.5443ZM155.272 56.6886H157.016C156.992 56.4259 156.925 56.2288 156.816 56.0975C156.647 55.8936 156.428 55.7917 156.16 55.7917C155.917 55.7917 155.712 55.873 155.545 56.0357C155.38 56.1985 155.289 56.4161 155.272 56.6886Z" fill="white"/>
<path d="M153.961 57.4061L154.482 57.4737C154.425 57.8325 154.279 58.1138 154.044 58.3177C153.81 58.5196 153.523 58.6206 153.182 58.6206C152.755 58.6206 152.411 58.4814 152.15 58.203C151.891 57.9227 151.762 57.5218 151.762 57.0003C151.762 56.6631 151.818 56.368 151.929 56.1151C152.041 55.8622 152.211 55.6731 152.438 55.5476C152.667 55.4202 152.916 55.3564 153.185 55.3564C153.524 55.3564 153.802 55.4427 154.017 55.6152C154.233 55.7858 154.371 56.0289 154.432 56.3445L153.917 56.4239C153.868 56.2141 153.781 56.0563 153.656 55.9505C153.532 55.8446 153.382 55.7917 153.206 55.7917C152.939 55.7917 152.722 55.8877 152.556 56.0799C152.389 56.27 152.306 56.5719 152.306 56.9856C152.306 57.4051 152.386 57.71 152.547 57.9001C152.708 58.0903 152.917 58.1854 153.176 58.1854C153.384 58.1854 153.557 58.1217 153.697 57.9942C153.836 57.8668 153.924 57.6708 153.961 57.4061Z" fill="white"/>
<path d="M150.641 54.847V54.2383H151.17V54.847H150.641ZM150.641 58.5493V55.4263H151.17V58.5493H150.641Z" fill="white"/>
<path d="M148.555 58.5488L147.367 55.4258H147.926L148.596 57.296C148.669 57.498 148.736 57.7077 148.796 57.9253C148.843 57.7607 148.909 57.5627 148.993 57.3313L149.687 55.4258H150.231L149.049 58.5488H148.555Z" fill="white"/>
<path d="M145.738 58.55V55.427H146.215V55.9005C146.336 55.6789 146.448 55.5329 146.55 55.4623C146.654 55.3917 146.768 55.3564 146.891 55.3564C147.069 55.3564 147.251 55.4133 147.435 55.527L147.253 56.0181C147.123 55.9416 146.994 55.9034 146.865 55.9034C146.749 55.9034 146.645 55.9387 146.553 56.0093C146.461 56.0779 146.395 56.174 146.356 56.2975C146.297 56.4857 146.268 56.6915 146.268 56.915V58.55H145.738Z" fill="white"/>
<path d="M144.592 57.5443L145.139 57.6119C145.052 57.9315 144.893 58.1795 144.659 58.3559C144.426 58.5324 144.128 58.6206 143.765 58.6206C143.309 58.6206 142.946 58.4804 142.677 58.2001C142.411 57.9178 142.277 57.5227 142.277 57.015C142.277 56.4896 142.413 56.0818 142.683 55.7917C142.954 55.5015 143.305 55.3564 143.736 55.3564C144.153 55.3564 144.495 55.4986 144.759 55.7828C145.024 56.0671 145.156 56.467 145.156 56.9826C145.156 57.014 145.155 57.0611 145.153 57.1238H142.824C142.844 57.4669 142.941 57.7296 143.115 57.9119C143.29 58.0942 143.508 58.1854 143.768 58.1854C143.962 58.1854 144.128 58.1344 144.265 58.0325C144.402 57.9305 144.511 57.7678 144.592 57.5443ZM142.854 56.6886H144.598C144.574 56.4259 144.507 56.2288 144.398 56.0975C144.229 55.8936 144.01 55.7917 143.742 55.7917C143.499 55.7917 143.294 55.873 143.127 56.0357C142.963 56.1985 142.871 56.4161 142.854 56.6886Z" fill="white"/>
<path d="M138.371 57.1635L138.909 57.1165C138.935 57.3321 138.994 57.5096 139.086 57.6488C139.18 57.786 139.325 57.8977 139.521 57.984C139.717 58.0683 139.937 58.1104 140.183 58.1104C140.4 58.1104 140.592 58.0781 140.759 58.0134C140.926 57.9487 141.049 57.8605 141.129 57.7487C141.212 57.635 141.253 57.5115 141.253 57.3782C141.253 57.2429 141.214 57.1253 141.135 57.0253C141.057 56.9234 140.928 56.8381 140.747 56.7695C140.631 56.7244 140.376 56.6548 139.98 56.5607C139.584 56.4646 139.306 56.3745 139.147 56.2902C138.942 56.1823 138.788 56.049 138.686 55.8902C138.586 55.7295 138.536 55.5501 138.536 55.3521C138.536 55.1345 138.598 54.9316 138.721 54.7434C138.845 54.5532 139.025 54.4091 139.262 54.3111C139.499 54.2131 139.763 54.1641 140.053 54.1641C140.373 54.1641 140.654 54.216 140.897 54.3199C141.142 54.4219 141.33 54.5728 141.462 54.7728C141.593 54.9727 141.664 55.1992 141.673 55.4521L141.127 55.4932C141.097 55.2207 140.997 55.0149 140.827 54.8757C140.658 54.7365 140.408 54.6669 140.077 54.6669C139.732 54.6669 139.48 54.7306 139.321 54.8581C139.164 54.9835 139.086 55.1355 139.086 55.3139C139.086 55.4687 139.142 55.5962 139.253 55.6962C139.363 55.7961 139.649 55.8991 140.112 56.0049C140.577 56.1088 140.895 56.2 141.068 56.2784C141.319 56.3941 141.504 56.5411 141.623 56.7195C141.743 56.8959 141.803 57.0998 141.803 57.3312C141.803 57.5605 141.737 57.7772 141.606 57.9811C141.474 58.183 141.285 58.3408 141.038 58.4545C140.793 58.5662 140.517 58.6221 140.209 58.6221C139.819 58.6221 139.491 58.5653 139.227 58.4516C138.964 58.3379 138.757 58.1673 138.606 57.9399C138.457 57.7105 138.379 57.4517 138.371 57.1635Z" fill="white"/>
<path d="M136.419 58.0755L136.496 58.5431C136.347 58.5744 136.214 58.5901 136.096 58.5901C135.904 58.5901 135.755 58.5597 135.649 58.499C135.543 58.4382 135.469 58.3588 135.426 58.2608C135.382 58.1608 135.361 57.952 135.361 57.6344V55.8376H134.973V55.4259H135.361V54.6526L135.887 54.335V55.4259H136.419V55.8376H135.887V57.6638C135.887 57.8148 135.896 57.9118 135.914 57.9549C135.933 57.9981 135.964 58.0324 136.005 58.0579C136.048 58.0833 136.109 58.0961 136.187 58.0961C136.246 58.0961 136.323 58.0892 136.419 58.0755Z" fill="white"/>
<path d="M132.102 57.6178L132.625 57.5355C132.654 57.7452 132.736 57.906 132.869 58.0178C133.004 58.1295 133.193 58.1854 133.434 58.1854C133.677 58.1854 133.857 58.1364 133.975 58.0383C134.092 57.9384 134.151 57.8217 134.151 57.6884C134.151 57.5688 134.099 57.4747 133.995 57.4061C133.923 57.359 133.742 57.2992 133.454 57.2267C133.066 57.1287 132.797 57.0444 132.646 56.9738C132.497 56.9013 132.383 56.8023 132.304 56.6768C132.228 56.5494 132.19 56.4092 132.19 56.2563C132.19 56.1171 132.221 55.9887 132.284 55.8711C132.349 55.7515 132.436 55.6525 132.546 55.5741C132.628 55.5133 132.74 55.4623 132.881 55.4211C133.024 55.378 133.177 55.3564 133.34 55.3564C133.585 55.3564 133.799 55.3917 133.984 55.4623C134.17 55.5329 134.307 55.6289 134.395 55.7505C134.484 55.8701 134.544 56.0308 134.578 56.2328L134.06 56.3033C134.037 56.1426 133.968 56.0171 133.854 55.9269C133.742 55.8368 133.584 55.7917 133.378 55.7917C133.135 55.7917 132.961 55.8319 132.857 55.9122C132.753 55.9926 132.701 56.0867 132.701 56.1945C132.701 56.2632 132.723 56.3249 132.766 56.3798C132.809 56.4367 132.877 56.4837 132.969 56.521C133.022 56.5406 133.178 56.5856 133.437 56.6562C133.811 56.7562 134.072 56.8385 134.219 56.9032C134.368 56.966 134.484 57.0581 134.569 57.1797C134.653 57.3012 134.695 57.4522 134.695 57.6325C134.695 57.809 134.643 57.9756 134.539 58.1324C134.437 58.2873 134.289 58.4079 134.095 58.4941C133.901 58.5784 133.682 58.6206 133.437 58.6206C133.031 58.6206 132.721 58.5363 132.507 58.3677C132.296 58.1991 132.16 57.9491 132.102 57.6178Z" fill="white"/>
<path d="M131.031 54.847V54.2383H131.561V54.847H131.031ZM131.031 58.5493V55.4263H131.561V58.5493H131.031Z" fill="white"/>
<path d="M127.738 58.55V55.427H128.215V55.8711C128.444 55.528 128.775 55.3564 129.209 55.3564C129.397 55.3564 129.569 55.3908 129.726 55.4594C129.885 55.526 130.004 55.6142 130.082 55.724C130.16 55.8338 130.215 55.9642 130.247 56.1151C130.266 56.2132 130.276 56.3847 130.276 56.6298V58.55H129.747V56.6503C129.747 56.4347 129.726 56.2739 129.685 56.1681C129.644 56.0602 129.57 55.975 129.464 55.9122C129.361 55.8475 129.238 55.8152 129.097 55.8152C128.871 55.8152 128.676 55.8867 128.512 56.0299C128.349 56.173 128.268 56.4445 128.268 56.8444V58.55H127.738Z" fill="white"/>
<path d="M124.25 56.9885C124.25 56.4102 124.411 55.9818 124.732 55.7034C125.001 55.4721 125.328 55.3564 125.714 55.3564C126.144 55.3564 126.495 55.4976 126.767 55.7799C127.04 56.0602 127.176 56.4484 127.176 56.9444C127.176 57.3463 127.115 57.6629 126.994 57.8942C126.874 58.1236 126.699 58.302 126.467 58.4294C126.238 58.5569 125.987 58.6206 125.714 58.6206C125.277 58.6206 124.923 58.4804 124.653 58.2001C124.384 57.9197 124.25 57.5159 124.25 56.9885ZM124.794 56.9885C124.794 57.3884 124.881 57.6884 125.056 57.8884C125.23 58.0864 125.45 58.1854 125.714 58.1854C125.977 58.1854 126.196 58.0854 126.37 57.8854C126.545 57.6855 126.632 57.3806 126.632 56.9709C126.632 56.5847 126.544 56.2926 126.367 56.0946C126.193 55.8946 125.975 55.7946 125.714 55.7946C125.45 55.7946 125.23 55.8936 125.056 56.0916C124.881 56.2896 124.794 56.5886 124.794 56.9885Z" fill="white"/>
<path d="M123.164 54.847V54.2383H123.693V54.847H123.164ZM123.164 58.5493V55.4263H123.693V58.5493H123.164Z" fill="white"/>
<path d="M122.705 58.0755L122.781 58.5431C122.632 58.5744 122.499 58.5901 122.381 58.5901C122.189 58.5901 122.04 58.5597 121.934 58.499C121.828 58.4382 121.754 58.3588 121.711 58.2608C121.668 58.1608 121.646 57.952 121.646 57.6344V55.8376H121.258V55.4259H121.646V54.6526L122.172 54.335V55.4259H122.705V55.8376H122.172V57.6638C122.172 57.8148 122.181 57.9118 122.199 57.9549C122.218 57.9981 122.249 58.0324 122.29 58.0579C122.333 58.0833 122.394 58.0961 122.472 58.0961C122.531 58.0961 122.609 58.0892 122.705 58.0755Z" fill="white"/>
<path d="M118.258 59.7469V55.427H118.74V55.8328C118.854 55.674 118.982 55.5554 119.125 55.477C119.268 55.3966 119.442 55.3564 119.646 55.3564C119.912 55.3564 120.148 55.4251 120.352 55.5623C120.555 55.6995 120.709 55.8936 120.813 56.1445C120.917 56.3935 120.969 56.667 120.969 56.965C120.969 57.2845 120.911 57.5727 120.796 57.8295C120.682 58.0844 120.515 58.2805 120.296 58.4177C120.078 58.553 119.849 58.6206 119.608 58.6206C119.431 58.6206 119.272 58.5833 119.131 58.5088C118.992 58.4343 118.877 58.3402 118.787 58.2265V59.7469H118.258ZM118.737 57.0062C118.737 57.4081 118.819 57.7051 118.981 57.8972C119.144 58.0893 119.341 58.1854 119.572 58.1854C119.808 58.1854 120.008 58.0864 120.175 57.8884C120.344 57.6884 120.428 57.3796 120.428 56.9621C120.428 56.5641 120.346 56.2661 120.181 56.0681C120.018 55.8701 119.823 55.7711 119.596 55.7711C119.37 55.7711 119.17 55.8769 118.996 56.0887C118.823 56.2984 118.737 56.6043 118.737 57.0062Z" fill="white"/>
<path d="M117.103 57.5443L117.65 57.6119C117.564 57.9315 117.404 58.1795 117.171 58.3559C116.938 58.5324 116.64 58.6206 116.277 58.6206C115.82 58.6206 115.458 58.4804 115.189 58.2001C114.922 57.9178 114.789 57.5227 114.789 57.015C114.789 56.4896 114.924 56.0818 115.195 55.7917C115.465 55.5015 115.816 55.3564 116.248 55.3564C116.665 55.3564 117.006 55.4986 117.271 55.7828C117.536 56.0671 117.668 56.467 117.668 56.9826C117.668 57.014 117.667 57.0611 117.665 57.1238H115.336C115.356 57.4669 115.453 57.7296 115.627 57.9119C115.802 58.0942 116.019 58.1854 116.28 58.1854C116.474 58.1854 116.64 58.1344 116.777 58.0325C116.914 57.9305 117.023 57.7678 117.103 57.5443ZM115.365 56.6886H117.109C117.086 56.4259 117.019 56.2288 116.909 56.0975C116.741 55.8936 116.522 55.7917 116.254 55.7917C116.01 55.7917 115.806 55.873 115.639 56.0357C115.474 56.1985 115.383 56.4161 115.365 56.6886Z" fill="white"/>
<path d="M114.055 57.4061L114.576 57.4737C114.519 57.8325 114.373 58.1138 114.137 58.3177C113.904 58.5196 113.617 58.6206 113.276 58.6206C112.848 58.6206 112.504 58.4814 112.244 58.203C111.985 57.9227 111.855 57.5218 111.855 57.0003C111.855 56.6631 111.911 56.368 112.023 56.1151C112.135 55.8622 112.304 55.6731 112.532 55.5476C112.761 55.4202 113.01 55.3564 113.279 55.3564C113.618 55.3564 113.895 55.4427 114.111 55.6152C114.327 55.7858 114.465 56.0289 114.526 56.3445L114.011 56.4239C113.962 56.2141 113.875 56.0563 113.749 55.9505C113.626 55.8446 113.476 55.7917 113.299 55.7917C113.033 55.7917 112.816 55.8877 112.649 56.0799C112.483 56.27 112.399 56.5719 112.399 56.9856C112.399 57.4051 112.48 57.71 112.641 57.9001C112.801 58.0903 113.011 58.1854 113.27 58.1854C113.478 58.1854 113.651 58.1217 113.79 57.9942C113.93 57.8668 114.018 57.6708 114.055 57.4061Z" fill="white"/>
<path d="M110.865 57.5443L111.412 57.6119C111.326 57.9315 111.166 58.1795 110.933 58.3559C110.699 58.5324 110.401 58.6206 110.039 58.6206C109.582 58.6206 109.219 58.4804 108.951 58.2001C108.684 57.9178 108.551 57.5227 108.551 57.015C108.551 56.4896 108.686 56.0818 108.957 55.7917C109.227 55.5015 109.578 55.3564 110.009 55.3564C110.427 55.3564 110.768 55.4986 111.033 55.7828C111.297 56.0671 111.43 56.467 111.43 56.9826C111.43 57.014 111.429 57.0611 111.427 57.1238H109.098C109.117 57.4669 109.214 57.7296 109.389 57.9119C109.563 58.0942 109.781 58.1854 110.042 58.1854C110.236 58.1854 110.401 58.1344 110.539 58.0325C110.676 57.9305 110.785 57.7678 110.865 57.5443ZM109.127 56.6886H110.871C110.847 56.4259 110.781 56.2288 110.671 56.0975C110.502 55.8936 110.284 55.7917 110.015 55.7917C109.772 55.7917 109.567 55.873 109.401 56.0357C109.236 56.1985 109.145 56.4161 109.127 56.6886Z" fill="white"/>
<path d="M104.504 58.5493V54.2383H106.415C106.8 54.2383 107.092 54.2775 107.292 54.3559C107.492 54.4324 107.651 54.5686 107.771 54.7647C107.891 54.9607 107.95 55.1773 107.95 55.4145C107.95 55.7204 107.851 55.9782 107.653 56.1879C107.455 56.3977 107.15 56.531 106.736 56.5879C106.887 56.6604 107.002 56.732 107.08 56.8025C107.247 56.9555 107.404 57.1466 107.553 57.376L108.303 58.5493H107.586L107.015 57.6524C106.849 57.3936 106.711 57.1956 106.604 57.0584C106.496 56.9212 106.399 56.8251 106.312 56.7702C106.228 56.7153 106.142 56.6771 106.054 56.6555C105.989 56.6418 105.883 56.6349 105.736 56.6349H105.074V58.5493H104.504ZM105.074 56.1409H106.301C106.561 56.1409 106.765 56.1144 106.912 56.0615C107.059 56.0066 107.171 55.9203 107.248 55.8027C107.324 55.6831 107.362 55.5537 107.362 55.4145C107.362 55.2107 107.288 55.043 107.139 54.9117C106.992 54.7803 106.758 54.7147 106.439 54.7147H105.074V56.1409Z" fill="white"/>
<path d="M101.363 58.5493V54.2383H101.934V58.5493H101.363Z" fill="white"/>
<path d="M96.8359 58.5493L98.4915 54.2383H99.1061L100.871 58.5493H100.221L99.7178 57.2436H97.9152L97.4417 58.5493H96.8359ZM98.0798 56.779H99.5414L99.0914 55.5851C98.9542 55.2224 98.8523 54.9244 98.7856 54.6911C98.7307 54.9676 98.6533 55.242 98.5533 55.5145L98.0798 56.779Z" fill="white"/>
<path d="M94.8104 57.5443L95.3574 57.6119C95.2711 57.9315 95.1113 58.1795 94.878 58.3559C94.6447 58.5324 94.3468 58.6206 93.9841 58.6206C93.5273 58.6206 93.1646 58.4804 92.896 58.2001C92.6294 57.9178 92.4961 57.5227 92.4961 57.015C92.4961 56.4896 92.6314 56.0818 92.9019 55.7917C93.1724 55.5015 93.5234 55.3564 93.9547 55.3564C94.3722 55.3564 94.7134 55.4986 94.978 55.7828C95.2427 56.0671 95.375 56.467 95.375 56.9826C95.375 57.014 95.374 57.0611 95.3721 57.1238H93.0431C93.0627 57.4669 93.1597 57.7296 93.3342 57.9119C93.5087 58.0942 93.7263 58.1854 93.987 58.1854C94.1811 58.1854 94.3468 58.1344 94.484 58.0325C94.6212 57.9305 94.73 57.7678 94.8104 57.5443ZM93.0725 56.6886H94.8163C94.7928 56.4259 94.7261 56.2288 94.6163 56.0975C94.4477 55.8936 94.2291 55.7917 93.9605 55.7917C93.7175 55.7917 93.5126 55.873 93.3459 56.0357C93.1813 56.1985 93.0901 56.4161 93.0725 56.6886Z" fill="white"/>
<path d="M89.3789 58.5493V54.2383H89.9082V55.7851C90.1552 55.4988 90.467 55.3557 90.8434 55.3557C91.0747 55.3557 91.2756 55.4018 91.4462 55.4939C91.6168 55.5841 91.7383 55.7096 91.8108 55.8704C91.8853 56.0311 91.9226 56.2644 91.9226 56.5702V58.5493H91.3933V56.5702C91.3933 56.3056 91.3354 56.1134 91.2198 55.9939C91.1061 55.8723 90.9443 55.8115 90.7346 55.8115C90.5777 55.8115 90.4297 55.8527 90.2905 55.935C90.1533 56.0154 90.0553 56.1252 89.9964 56.2644C89.9376 56.4036 89.9082 56.5957 89.9082 56.8408V58.5493H89.3789Z" fill="white"/>
<path d="M86.9203 58.5493V54.747H85.5V54.2383H88.9171V54.747H87.4908V58.5493H86.9203Z" fill="white"/>
<rect x="213.84" y="17.5596" width="39.2378" height="36.2437" rx="18.1219" fill="#6524EB"/>
<path d="M247.206 35.0771C247.206 35.5798 247.287 36.3388 247.206 36.8238C244.363 50.3946 230.612 52.8266 229.202 52.0741C229.067 52.0025 230.612 48.7215 230.142 47.7745C225.372 47.7745 219.527 40.1829 219.527 35.8833C219.527 29.7377 225.253 24.1465 232.9 24.1465C240.546 24.1465 247.206 28.9315 247.206 35.0771Z" fill="white"/>
<path d="M246.88 35.5425C246.88 29.3969 240.949 24.4149 233.303 24.4149C225.656 24.4149 219.457 29.3969 219.457 35.5425L219.458 35.6863C219.538 40.7588 224.916 46.2227 230.747 47.4928C231.015 47.5513 230.005 51.402 230.005 51.402L231.818 50.9318C231.818 50.9318 243.844 49.1178 246.599 37.7836C246.764 37.1031 246.867 36.4038 246.878 35.6863L246.88 35.5425ZM248.492 35.5425C248.492 36.3769 248.367 37.1802 248.212 37.9656C245.484 51.8051 227.925 53.7534 227.925 53.7534C227.925 53.7534 229.259 48.6322 228.933 48.5132C223.219 46.4306 218.113 41.5941 218.113 35.5425C218.113 28.3956 225.203 23.0713 233.303 23.0713C241.402 23.0713 248.492 28.3956 248.492 35.5425Z" fill="#6524EB"/>
<path d="M226.579 51.9908C230.762 51.8291 235.032 51.168 237.935 49.7148C244.937 46.2087 246.865 42.0274 247.503 37.3076L229.323 44.9634L226.579 51.9908Z" fill="white"/>
<ellipse cx="236.862" cy="37.0264" rx="10.346" ry="11.7569" fill="white"/>
<ellipse cx="233.462" cy="36.626" rx="13.946" ry="12.1338" fill="white"/>
<rect x="222.621" y="30.6016" width="17.1585" height="8.83407" rx="4.41703" fill="#6524EB"/>
<rect x="224.828" y="32.8105" width="2.20852" height="4.41703" rx="1.10426" fill="white"/>
<rect x="228.398" y="32.8105" width="2.20852" height="4.41703" rx="1.10426" fill="white"/>
<path d="M235.381 17.5418C235.381 18.8404 234.358 19.8932 233.097 19.8932C231.835 19.8932 230.812 18.8404 230.812 17.5418C230.812 16.2432 231.835 15.1904 233.097 15.1904C234.358 15.1904 235.381 16.2432 235.381 17.5418Z" fill="white"/>
<path d="M235.352 17.6092C235.352 16.3837 234.374 15.3866 233.156 15.3557L233.097 15.355C231.853 15.355 230.843 16.3642 230.843 17.6092L230.844 17.6673C230.874 18.866 231.84 19.8321 233.039 19.8625L233.097 19.8632C234.323 19.8632 235.32 18.8853 235.351 17.6673L235.352 17.6092ZM236.456 17.6092C236.456 19.4643 234.953 20.9682 233.097 20.9682C231.242 20.9682 229.738 19.4643 229.738 17.6092C229.738 15.754 231.242 14.25 233.097 14.25C234.953 14.25 236.456 15.754 236.456 17.6092Z" fill="#6524EB"/>
<path d="M234.046 19.8945L234.576 24.4629H231.352L232.09 19.8945H234.046ZM232.799 20.6353L232.3 23.7221H233.666L233.308 20.6353H232.799Z" fill="#6524EB"/>
<path d="M232.828 20.2949H233.347L233.905 24.5946H232.023L232.828 20.2949Z" fill="white"/>
</svg>
