<svg width="55" height="51" viewBox="0 0 55 51" fill="none" xmlns="http://www.w3.org/2000/svg">
<path d="M48.8477 16.5405H34.2214V6.25783C34.2195 4.59875 33.5707 3.00818 32.4173 1.83503C31.264 0.661876 29.7002 0.00194557 28.0692 0H6.15228C4.52119 0.00194557 2.95745 0.661876 1.80409 1.83503C0.650728 3.00818 0.00193111 4.59875 1.83635e-05 6.25783V20.1978C-0.00297037 21.4353 0.358924 22.6452 1.03895 23.6713C3.20715 27.9167 13.208 34.193 13.3164 34.2573C13.5296 34.3867 13.7727 34.4564 14.021 34.4594C14.2432 34.461 14.4624 34.4067 14.659 34.3013C14.8555 34.1959 15.0234 34.0427 15.1477 33.8553C15.272 33.6679 15.3488 33.4522 15.3714 33.2274C15.3939 33.0025 15.3614 32.7755 15.2768 32.5665C14.5514 30.5772 13.9893 28.5302 13.5964 26.4465H20.7786V36.7384C20.7807 38.3965 21.4299 39.986 22.5835 41.1576C23.737 42.3293 25.3007 42.9872 26.9308 42.987H41.4036C41.0107 45.0707 40.4486 47.1177 39.7232 49.107C39.6386 49.316 39.6061 49.543 39.6286 49.7679C39.6512 49.9928 39.728 50.2085 39.8523 50.3958C39.9766 50.5832 40.1445 50.7364 40.341 50.8418C40.5376 50.9472 40.7568 51.0015 40.979 51C41.2273 50.9969 41.4704 50.9272 41.6836 50.7978C41.792 50.7335 51.7929 44.4573 53.9611 40.2119C54.6411 39.1858 55.003 37.9758 55 36.7384V22.7984C54.9981 21.1393 54.3493 19.5487 53.1959 18.3756C52.0426 17.2024 50.4788 16.5425 48.8477 16.5405ZM17.3004 19.9957C15.5596 21.0182 13.5731 21.5273 11.5637 21.4659H11.5366C11.1772 21.4659 10.8326 21.3207 10.5784 21.0622C10.3243 20.8037 10.1815 20.4531 10.1815 20.0876C10.1815 19.722 10.3243 19.3714 10.5784 19.1129C10.8326 18.8544 11.1772 18.7092 11.5366 18.7092H11.5637C12.7598 18.7365 13.9491 18.5177 15.06 18.0659C14.1506 16.9716 13.4353 15.7247 12.946 14.3811C12.8819 14.2121 12.8512 14.032 12.8556 13.851C12.8599 13.67 12.8993 13.4916 12.9715 13.3261C13.0436 13.1605 13.1471 13.011 13.276 12.8862C13.405 12.7613 13.5568 12.6635 13.7229 12.5984C13.889 12.5332 14.0661 12.502 14.2441 12.5064C14.422 12.5109 14.5974 12.5509 14.7601 12.6243C14.9229 12.6977 15.0698 12.8029 15.1926 12.9341C15.3153 13.0652 15.4115 13.2197 15.4755 13.3886C15.8775 14.5275 16.4978 15.5739 17.3004 16.467C18.4071 15.102 19.0979 13.4381 19.2879 11.6795H11.5366C11.1772 11.6795 10.8326 11.5342 10.5784 11.2757C10.3243 11.0172 10.1815 10.6666 10.1815 10.3011C10.1815 9.93551 10.3243 9.58491 10.5784 9.32642C10.8326 9.06792 11.1772 8.9227 11.5366 8.9227H15.7917V6.50594C15.7917 6.14037 15.9345 5.78978 16.1886 5.53128C16.4428 5.27279 16.7875 5.12756 17.1469 5.12756C17.5063 5.12756 17.8509 5.27279 18.1051 5.53128C18.3592 5.78978 18.502 6.14037 18.502 6.50594V8.9227H22.748C23.1074 8.9227 23.4521 9.06792 23.7063 9.32642C23.9604 9.58491 24.1032 9.93551 24.1032 10.3011C24.1032 10.6666 23.9604 11.0172 23.7063 11.2757C23.4521 11.5342 23.1074 11.6795 22.748 11.6795H22.0163C21.8138 14.0141 20.9439 16.2374 19.5138 18.0751C20.3954 18.4564 21.3388 18.6683 22.2963 18.7C21.6438 19.4501 21.1844 20.3531 20.9593 21.3281C19.663 21.1427 18.4178 20.6893 17.3004 19.9957ZM52.2897 36.7384C52.2971 37.4495 52.0819 38.1446 51.6754 38.7232C51.6216 38.8007 51.5761 38.8839 51.5399 38.9713C50.4739 41.0297 46.4717 44.1632 43.4363 46.3135C44.0415 43.9427 44.3487 41.9486 44.3668 41.82C44.3968 41.6245 44.3848 41.4248 44.3318 41.2344C44.2788 41.0441 44.186 40.8677 44.0596 40.7173C43.9314 40.5669 43.7733 40.4458 43.5958 40.3618C43.4183 40.2779 43.2254 40.2331 43.0297 40.2302H26.9308C26.0193 40.231 25.1448 39.8636 24.4994 39.2089C23.854 38.5541 23.4905 37.6655 23.4888 36.7384V22.7984C23.49 21.8702 23.8531 20.9804 24.4983 20.3241C25.1435 19.6678 26.0183 19.2985 26.9308 19.2973H48.8477C49.7602 19.2985 50.635 19.6678 51.2803 20.3241C51.9255 20.9804 52.2885 21.8702 52.2897 22.7984V36.7384ZM42.7858 31.6007V31.5961L39.1821 22.4336L39.1748 22.4189C39.1528 22.3682 39.1274 22.3191 39.099 22.2718C39.0818 22.2406 39.0682 22.2075 39.0493 22.1799C39.0212 22.1412 38.991 22.1041 38.9589 22.0687C38.9347 22.0367 38.9087 22.006 38.8812 21.9769C38.8504 21.9482 38.8182 21.9212 38.7846 21.896C38.7508 21.8633 38.7152 21.8326 38.678 21.8041C38.6473 21.783 38.612 21.7673 38.5795 21.749C38.5352 21.722 38.4893 21.6978 38.4422 21.6764L38.4268 21.6681C38.3934 21.6543 38.36 21.6488 38.3265 21.6387C38.281 21.6224 38.2345 21.6089 38.1874 21.5983C38.1432 21.5904 38.0985 21.5849 38.0537 21.5817C38.0108 21.5761 37.9677 21.5727 37.9245 21.5716C37.8775 21.5716 37.8342 21.578 37.7845 21.5826C37.7348 21.5872 37.7023 21.5891 37.6616 21.5973C37.6121 21.6085 37.5632 21.6226 37.5153 21.6396C37.4837 21.6506 37.4511 21.6552 37.4195 21.6681L37.4042 21.6764C37.3572 21.6976 37.3117 21.7219 37.2677 21.749C37.2343 21.7673 37.1991 21.783 37.1684 21.8041C37.1376 21.8252 37.0997 21.8601 37.0654 21.8886C37.031 21.9171 36.9958 21.9419 36.9651 21.9732C36.9344 22.0044 36.9163 22.0338 36.891 22.0651C36.8587 22.1018 36.8285 22.1405 36.8007 22.1809C36.7817 22.2093 36.7681 22.2424 36.751 22.2727C36.7227 22.3209 36.6971 22.3706 36.6742 22.4216L36.667 22.4363L33.0641 31.5988V31.6034L31.2483 36.2201C31.1785 36.3888 31.1425 36.57 31.1423 36.7531C31.1421 36.9361 31.1778 37.1174 31.2472 37.2862C31.3167 37.4551 31.4185 37.6082 31.5467 37.7366C31.675 37.8651 31.8271 37.9662 31.9942 38.0342C32.1612 38.1022 32.34 38.1356 32.5199 38.1326C32.6998 38.1296 32.8774 38.0901 33.0422 38.0165C33.207 37.9429 33.3557 37.8367 33.4797 37.704C33.6036 37.5714 33.7004 37.4149 33.7643 37.2438L35.2305 33.5157H40.623L42.0893 37.2438C42.1532 37.4149 42.2499 37.5714 42.3739 37.704C42.4979 37.8367 42.6466 37.9429 42.8114 38.0165C42.9762 38.0901 43.1537 38.1296 43.3336 38.1326C43.5136 38.1356 43.6923 38.1022 43.8594 38.0342C44.0265 37.9662 44.1786 37.8651 44.3068 37.7366C44.4351 37.6082 44.5369 37.4551 44.6063 37.2862C44.6758 37.1174 44.7114 36.9361 44.7112 36.7531C44.7111 36.57 44.675 36.3888 44.6053 36.2201L42.7858 31.6007ZM36.3101 30.7562L37.9227 26.6569L39.5344 30.7562H36.3101Z" fill="#476C43"/>
</svg>
