<svg width="75" height="86" viewBox="0 0 75 86" fill="none" xmlns="http://www.w3.org/2000/svg">
<mask id="path-1-outside-1_1035_703" maskUnits="userSpaceOnUse" x="0" y="0" width="75" height="86" fill="black">
<rect fill="white" width="75" height="86"/>
<path d="M37.4997 31.057C34.2626 31.057 31.6285 33.6715 31.6285 36.8845C31.6285 40.0975 34.2626 42.7121 37.4997 42.7121C40.7367 42.7121 43.3708 40.0975 43.3708 36.8845C43.3673 33.668 40.7367 31.057 37.4997 31.057ZM37.4997 41.603C34.8762 41.603 32.7428 39.4855 32.7428 36.8815C32.7428 34.2775 34.8762 32.16 37.4997 32.16C40.1231 32.16 42.2565 34.2775 42.2565 36.8815C42.2565 39.4855 40.1196 41.603 37.4997 41.603ZM12.8765 52.3273C12.8765 52.6318 13.1268 52.8803 13.4336 52.8803H25.0379C24.7523 53.9304 24.5972 55.0293 24.5936 56.1634V56.1914C24.5936 56.4959 24.844 56.7444 25.1508 56.7444H49.8444C49.9925 56.7444 50.1335 56.6814 50.2393 56.5799C50.3451 56.4749 50.4015 56.3314 50.4015 56.1844C50.4015 55.0434 50.2464 53.9339 49.9607 52.8804H61.5624C61.7105 52.8804 61.8515 52.8174 61.9573 52.7159C62.0631 52.6109 62.1195 52.4674 62.1195 52.3204C62.116 45.7543 56.7279 40.4097 50.1126 40.4097C46.8755 40.4097 43.7583 41.7222 41.5051 44.0253C40.2427 43.6158 38.8957 43.3883 37.4958 43.3883C36.0958 43.3883 34.7523 43.6158 33.49 44.0253C31.2367 41.7258 28.1231 40.4097 24.8825 40.4097C18.2814 40.4097 12.8972 45.7403 12.8755 52.2962L12.8765 52.3273ZM50.1132 41.5125C55.9314 41.5125 60.702 46.066 60.9918 51.7709L49.6095 51.7744C48.3929 48.4984 45.8577 45.8488 42.6523 44.4558C44.6623 42.5798 47.3381 41.5125 50.1132 41.5125ZM49.2775 55.6426H25.7258C26.015 49.4475 31.195 44.4917 37.4999 44.4917C43.8118 44.4917 48.985 49.4442 49.2775 55.6426ZM24.8863 41.5125C27.6614 41.5125 30.3379 42.58 32.3513 44.4561C29.1459 45.8491 26.6141 48.4986 25.3941 51.7747H14.0046C14.2973 46.0696 19.0713 41.5125 24.8863 41.5125ZM24.8863 29.2551C21.8608 29.2551 19.4031 31.6982 19.4031 34.6977C19.4031 37.7007 21.8644 40.1402 24.8863 40.1402C27.9118 40.1402 30.3695 37.6971 30.3695 34.6977C30.3695 31.6946 27.9082 29.2551 24.8863 29.2551ZM24.8863 39.0342C22.4779 39.0342 20.5174 37.0881 20.5174 34.6977C20.5174 32.3072 22.478 30.3612 24.8863 30.3612C27.2947 30.3612 29.2552 32.3072 29.2552 34.6977C29.2552 37.0881 27.2946 39.0342 24.8863 39.0342ZM50.1125 29.2551C47.087 29.2551 44.6293 31.6982 44.6293 34.6977C44.6293 37.7007 47.0906 40.1402 50.1125 40.1402C53.138 40.1402 55.5957 37.6971 55.5957 34.6977C55.5993 31.6946 53.1379 29.2551 50.1125 29.2551ZM50.1125 39.0342C47.7041 39.0342 45.7436 37.0881 45.7436 34.6977C45.7436 32.3072 47.7042 30.3612 50.1125 30.3612C52.5209 30.3612 54.4814 32.3072 54.4814 34.6977C54.485 37.0882 52.5244 39.0342 50.1125 39.0342ZM55.3031 66.7226C53.5188 66.8206 50.511 69.0991 48.0955 70.9296C47.4149 71.4441 46.8014 71.9097 46.3077 72.2562C46.1067 71.9237 45.8387 71.6682 45.5002 71.5457C42.3337 70.3871 29.3011 68.3292 25.6794 70.6532C24.8825 71.1642 23.9798 71.7416 23.0771 72.3157L21.8077 73.1242L21.1024 72.0321C21.0213 71.9096 20.8979 71.8221 20.7533 71.7906C20.6088 71.7591 20.4571 71.7871 20.3337 71.8641L16.9839 73.9992C16.7264 74.1637 16.6489 74.5067 16.8181 74.7622L23.2746 84.741C23.3557 84.8635 23.4791 84.951 23.6237 84.9825C23.6589 84.9965 23.7012 85 23.74 85C23.8458 85 23.9516 84.9685 24.0398 84.9125L27.3896 82.7775C27.647 82.613 27.7246 82.27 27.5554 82.0145L26.903 81.01C28.6485 80.415 30.6901 80.8805 33.4088 81.5C35.2037 81.9095 37.2383 82.3715 39.6079 82.6095C41.1665 82.767 42.5805 82.3645 43.8182 81.409L57.4681 70.8774C58.0111 70.4609 58.1346 69.7223 57.8066 68.8578C57.3976 67.7623 56.3468 66.6666 55.3031 66.7226ZM23.906 83.684L18.0524 74.6361L20.4679 73.0961L26.3214 82.144L23.906 83.684ZM56.7917 70.002L43.1382 80.5337C42.1226 81.3177 41.0048 81.6362 39.7249 81.5066C37.4257 81.2756 35.4264 80.8206 33.6633 80.4182C31.8121 79.9982 30.19 79.6272 28.7125 79.6272C27.8627 79.6272 27.0623 79.7497 26.29 80.0542L22.4076 74.0551L23.677 73.2431C24.5797 72.6656 25.4824 72.0916 26.2794 71.5771C29.2801 69.6521 41.5722 71.2866 45.109 72.5816C45.2465 72.6306 45.3946 72.8406 45.5039 73.1486C45.511 73.2151 45.5321 73.2781 45.5639 73.3411C45.6344 73.5966 45.6802 73.9011 45.6837 74.2266C45.6873 74.9686 45.4722 75.2836 45.3946 75.3081L37.2103 74.3946C36.9035 74.3596 36.6284 74.5801 36.5932 74.8811C36.5579 75.1856 36.7801 75.4586 37.0833 75.4936L45.2677 76.4071C45.5251 76.4351 46.389 76.4281 46.6993 75.1366C46.8227 74.622 46.8297 73.9501 46.6993 73.3236C47.2564 72.9491 47.9651 72.4101 48.7621 71.8081C50.8144 70.254 53.9139 67.9055 55.3562 67.825C55.744 67.8005 56.4634 68.4515 56.7596 69.2425C56.9042 69.603 56.9151 69.9075 56.7917 70.002ZM14.3752 69.5855C14.6079 69.785 14.6326 70.135 14.4316 70.366C14.3223 70.492 14.1671 70.5585 14.012 70.5585C13.8815 70.5585 13.7545 70.513 13.6488 70.4255C5.61257 63.5304 1 53.5339 1 42.9996C1 32.4652 5.60878 22.4684 13.6488 15.5772C13.8815 15.3777 14.2341 15.4022 14.4351 15.6332C14.6361 15.8642 14.6114 16.2142 14.3787 16.4137C6.58578 23.0953 2.11448 32.7865 2.11448 43.0001C2.11448 53.2137 6.58568 62.9049 14.3751 69.5865L14.3752 69.5855ZM74 42.9991C74 53.5344 69.3912 63.5303 61.3512 70.4215C61.2455 70.5125 61.115 70.5545 60.988 70.5545C60.8329 70.5545 60.6777 70.4915 60.5684 70.362C60.3674 70.131 60.3921 69.781 60.6248 69.5815C68.4178 62.8964 72.8854 53.2087 72.8854 42.9951C72.8854 32.7824 68.4178 23.0903 60.6248 16.4088C60.3921 16.2092 60.3674 15.8592 60.5684 15.6282C60.7694 15.3972 61.122 15.3727 61.3548 15.5722C69.3874 22.4673 73.9999 32.4638 73.9999 42.9982L74 42.9991ZM19.4746 19.2755C19.4992 19.2755 19.5275 19.2755 19.5557 19.272C21.34 19.174 24.3478 16.8955 26.7633 15.065C27.4438 14.5505 28.0574 14.0849 28.5511 13.7385C28.7521 14.071 29.0201 14.3265 29.3586 14.449C32.5251 15.6075 45.5577 17.6655 49.1794 15.3415C49.9798 14.827 50.8825 14.253 51.7852 13.6754L53.0476 12.8669L53.7528 13.959C53.9185 14.2145 54.2641 14.2915 54.5215 14.1235L57.8714 11.9885C57.9948 11.908 58.083 11.7855 58.1147 11.642C58.1464 11.4985 58.1182 11.348 58.0406 11.2255L51.5877 1.25379C51.422 0.998282 51.0764 0.921288 50.819 1.08929L47.4691 3.2208C47.3457 3.3013 47.2575 3.4238 47.2258 3.56731C47.1941 3.71081 47.2223 3.86131 47.2999 3.98381L47.9522 4.98832C46.2067 5.58333 44.1651 5.11782 41.4464 4.49831C39.6515 4.08881 37.6169 3.6268 35.2508 3.38879C33.6922 3.23129 32.2782 3.63379 31.0405 4.58926L17.387 15.1209C16.844 15.5374 16.7206 16.276 17.0485 17.1405C17.4505 18.208 18.4555 19.2755 19.4746 19.2755ZM50.9529 2.31409L56.8065 11.362L54.391 12.902L49.2463 4.95346C49.2427 4.94996 49.2392 4.94646 49.2392 4.93946L48.5375 3.85448L50.9529 2.31409ZM18.0708 15.9961L31.7207 5.46445C32.5917 4.79244 33.5332 4.46343 34.5911 4.46343C34.7674 4.46343 34.9507 4.47393 35.1341 4.49143C37.4332 4.72243 39.4325 5.17743 41.1956 5.5799C44.1118 6.24491 46.4567 6.77688 48.5689 5.9439L52.4513 11.9429L51.1854 12.7515C50.2827 13.329 49.3765 13.9065 48.5761 14.421C45.5753 16.346 33.2833 14.7115 29.7464 13.4165C29.6089 13.3675 29.4608 13.1575 29.3515 12.8495C29.3445 12.783 29.3233 12.72 29.2916 12.657C29.221 12.4015 29.1752 12.0935 29.1717 11.768C29.1682 11.026 29.3832 10.7109 29.4608 10.6865L37.6452 11.6C37.9519 11.635 38.227 11.4145 38.2622 11.1135C38.2975 10.809 38.0753 10.5359 37.7721 10.5009L29.5878 9.58747C29.3304 9.55947 28.4664 9.56647 28.1562 10.858C28.0327 11.3725 28.0257 12.0445 28.1562 12.671C27.599 13.0455 26.8903 13.5845 26.0933 14.1865C24.0411 15.7405 20.9415 18.0891 19.4993 18.1695C19.122 18.1975 18.392 17.543 18.0958 16.752C17.9548 16.395 17.9439 16.0906 18.0708 15.9961Z"/>
</mask>
<path d="M37.4997 31.057C34.2626 31.057 31.6285 33.6715 31.6285 36.8845C31.6285 40.0975 34.2626 42.7121 37.4997 42.7121C40.7367 42.7121 43.3708 40.0975 43.3708 36.8845C43.3673 33.668 40.7367 31.057 37.4997 31.057ZM37.4997 41.603C34.8762 41.603 32.7428 39.4855 32.7428 36.8815C32.7428 34.2775 34.8762 32.16 37.4997 32.16C40.1231 32.16 42.2565 34.2775 42.2565 36.8815C42.2565 39.4855 40.1196 41.603 37.4997 41.603ZM12.8765 52.3273C12.8765 52.6318 13.1268 52.8803 13.4336 52.8803H25.0379C24.7523 53.9304 24.5972 55.0293 24.5936 56.1634V56.1914C24.5936 56.4959 24.844 56.7444 25.1508 56.7444H49.8444C49.9925 56.7444 50.1335 56.6814 50.2393 56.5799C50.3451 56.4749 50.4015 56.3314 50.4015 56.1844C50.4015 55.0434 50.2464 53.9339 49.9607 52.8804H61.5624C61.7105 52.8804 61.8515 52.8174 61.9573 52.7159C62.0631 52.6109 62.1195 52.4674 62.1195 52.3204C62.116 45.7543 56.7279 40.4097 50.1126 40.4097C46.8755 40.4097 43.7583 41.7222 41.5051 44.0253C40.2427 43.6158 38.8957 43.3883 37.4958 43.3883C36.0958 43.3883 34.7523 43.6158 33.49 44.0253C31.2367 41.7258 28.1231 40.4097 24.8825 40.4097C18.2814 40.4097 12.8972 45.7403 12.8755 52.2962L12.8765 52.3273ZM50.1132 41.5125C55.9314 41.5125 60.702 46.066 60.9918 51.7709L49.6095 51.7744C48.3929 48.4984 45.8577 45.8488 42.6523 44.4558C44.6623 42.5798 47.3381 41.5125 50.1132 41.5125ZM49.2775 55.6426H25.7258C26.015 49.4475 31.195 44.4917 37.4999 44.4917C43.8118 44.4917 48.985 49.4442 49.2775 55.6426ZM24.8863 41.5125C27.6614 41.5125 30.3379 42.58 32.3513 44.4561C29.1459 45.8491 26.6141 48.4986 25.3941 51.7747H14.0046C14.2973 46.0696 19.0713 41.5125 24.8863 41.5125ZM24.8863 29.2551C21.8608 29.2551 19.4031 31.6982 19.4031 34.6977C19.4031 37.7007 21.8644 40.1402 24.8863 40.1402C27.9118 40.1402 30.3695 37.6971 30.3695 34.6977C30.3695 31.6946 27.9082 29.2551 24.8863 29.2551ZM24.8863 39.0342C22.4779 39.0342 20.5174 37.0881 20.5174 34.6977C20.5174 32.3072 22.478 30.3612 24.8863 30.3612C27.2947 30.3612 29.2552 32.3072 29.2552 34.6977C29.2552 37.0881 27.2946 39.0342 24.8863 39.0342ZM50.1125 29.2551C47.087 29.2551 44.6293 31.6982 44.6293 34.6977C44.6293 37.7007 47.0906 40.1402 50.1125 40.1402C53.138 40.1402 55.5957 37.6971 55.5957 34.6977C55.5993 31.6946 53.1379 29.2551 50.1125 29.2551ZM50.1125 39.0342C47.7041 39.0342 45.7436 37.0881 45.7436 34.6977C45.7436 32.3072 47.7042 30.3612 50.1125 30.3612C52.5209 30.3612 54.4814 32.3072 54.4814 34.6977C54.485 37.0882 52.5244 39.0342 50.1125 39.0342ZM55.3031 66.7226C53.5188 66.8206 50.511 69.0991 48.0955 70.9296C47.4149 71.4441 46.8014 71.9097 46.3077 72.2562C46.1067 71.9237 45.8387 71.6682 45.5002 71.5457C42.3337 70.3871 29.3011 68.3292 25.6794 70.6532C24.8825 71.1642 23.9798 71.7416 23.0771 72.3157L21.8077 73.1242L21.1024 72.0321C21.0213 71.9096 20.8979 71.8221 20.7533 71.7906C20.6088 71.7591 20.4571 71.7871 20.3337 71.8641L16.9839 73.9992C16.7264 74.1637 16.6489 74.5067 16.8181 74.7622L23.2746 84.741C23.3557 84.8635 23.4791 84.951 23.6237 84.9825C23.6589 84.9965 23.7012 85 23.74 85C23.8458 85 23.9516 84.9685 24.0398 84.9125L27.3896 82.7775C27.647 82.613 27.7246 82.27 27.5554 82.0145L26.903 81.01C28.6485 80.415 30.6901 80.8805 33.4088 81.5C35.2037 81.9095 37.2383 82.3715 39.6079 82.6095C41.1665 82.767 42.5805 82.3645 43.8182 81.409L57.4681 70.8774C58.0111 70.4609 58.1346 69.7223 57.8066 68.8578C57.3976 67.7623 56.3468 66.6666 55.3031 66.7226ZM23.906 83.684L18.0524 74.6361L20.4679 73.0961L26.3214 82.144L23.906 83.684ZM56.7917 70.002L43.1382 80.5337C42.1226 81.3177 41.0048 81.6362 39.7249 81.5066C37.4257 81.2756 35.4264 80.8206 33.6633 80.4182C31.8121 79.9982 30.19 79.6272 28.7125 79.6272C27.8627 79.6272 27.0623 79.7497 26.29 80.0542L22.4076 74.0551L23.677 73.2431C24.5797 72.6656 25.4824 72.0916 26.2794 71.5771C29.2801 69.6521 41.5722 71.2866 45.109 72.5816C45.2465 72.6306 45.3946 72.8406 45.5039 73.1486C45.511 73.2151 45.5321 73.2781 45.5639 73.3411C45.6344 73.5966 45.6802 73.9011 45.6837 74.2266C45.6873 74.9686 45.4722 75.2836 45.3946 75.3081L37.2103 74.3946C36.9035 74.3596 36.6284 74.5801 36.5932 74.8811C36.5579 75.1856 36.7801 75.4586 37.0833 75.4936L45.2677 76.4071C45.5251 76.4351 46.389 76.4281 46.6993 75.1366C46.8227 74.622 46.8297 73.9501 46.6993 73.3236C47.2564 72.9491 47.9651 72.4101 48.7621 71.8081C50.8144 70.254 53.9139 67.9055 55.3562 67.825C55.744 67.8005 56.4634 68.4515 56.7596 69.2425C56.9042 69.603 56.9151 69.9075 56.7917 70.002ZM14.3752 69.5855C14.6079 69.785 14.6326 70.135 14.4316 70.366C14.3223 70.492 14.1671 70.5585 14.012 70.5585C13.8815 70.5585 13.7545 70.513 13.6488 70.4255C5.61257 63.5304 1 53.5339 1 42.9996C1 32.4652 5.60878 22.4684 13.6488 15.5772C13.8815 15.3777 14.2341 15.4022 14.4351 15.6332C14.6361 15.8642 14.6114 16.2142 14.3787 16.4137C6.58578 23.0953 2.11448 32.7865 2.11448 43.0001C2.11448 53.2137 6.58568 62.9049 14.3751 69.5865L14.3752 69.5855ZM74 42.9991C74 53.5344 69.3912 63.5303 61.3512 70.4215C61.2455 70.5125 61.115 70.5545 60.988 70.5545C60.8329 70.5545 60.6777 70.4915 60.5684 70.362C60.3674 70.131 60.3921 69.781 60.6248 69.5815C68.4178 62.8964 72.8854 53.2087 72.8854 42.9951C72.8854 32.7824 68.4178 23.0903 60.6248 16.4088C60.3921 16.2092 60.3674 15.8592 60.5684 15.6282C60.7694 15.3972 61.122 15.3727 61.3548 15.5722C69.3874 22.4673 73.9999 32.4638 73.9999 42.9982L74 42.9991ZM19.4746 19.2755C19.4992 19.2755 19.5275 19.2755 19.5557 19.272C21.34 19.174 24.3478 16.8955 26.7633 15.065C27.4438 14.5505 28.0574 14.0849 28.5511 13.7385C28.7521 14.071 29.0201 14.3265 29.3586 14.449C32.5251 15.6075 45.5577 17.6655 49.1794 15.3415C49.9798 14.827 50.8825 14.253 51.7852 13.6754L53.0476 12.8669L53.7528 13.959C53.9185 14.2145 54.2641 14.2915 54.5215 14.1235L57.8714 11.9885C57.9948 11.908 58.083 11.7855 58.1147 11.642C58.1464 11.4985 58.1182 11.348 58.0406 11.2255L51.5877 1.25379C51.422 0.998282 51.0764 0.921288 50.819 1.08929L47.4691 3.2208C47.3457 3.3013 47.2575 3.4238 47.2258 3.56731C47.1941 3.71081 47.2223 3.86131 47.2999 3.98381L47.9522 4.98832C46.2067 5.58333 44.1651 5.11782 41.4464 4.49831C39.6515 4.08881 37.6169 3.6268 35.2508 3.38879C33.6922 3.23129 32.2782 3.63379 31.0405 4.58926L17.387 15.1209C16.844 15.5374 16.7206 16.276 17.0485 17.1405C17.4505 18.208 18.4555 19.2755 19.4746 19.2755ZM50.9529 2.31409L56.8065 11.362L54.391 12.902L49.2463 4.95346C49.2427 4.94996 49.2392 4.94646 49.2392 4.93946L48.5375 3.85448L50.9529 2.31409ZM18.0708 15.9961L31.7207 5.46445C32.5917 4.79244 33.5332 4.46343 34.5911 4.46343C34.7674 4.46343 34.9507 4.47393 35.1341 4.49143C37.4332 4.72243 39.4325 5.17743 41.1956 5.5799C44.1118 6.24491 46.4567 6.77688 48.5689 5.9439L52.4513 11.9429L51.1854 12.7515C50.2827 13.329 49.3765 13.9065 48.5761 14.421C45.5753 16.346 33.2833 14.7115 29.7464 13.4165C29.6089 13.3675 29.4608 13.1575 29.3515 12.8495C29.3445 12.783 29.3233 12.72 29.2916 12.657C29.221 12.4015 29.1752 12.0935 29.1717 11.768C29.1682 11.026 29.3832 10.7109 29.4608 10.6865L37.6452 11.6C37.9519 11.635 38.227 11.4145 38.2622 11.1135C38.2975 10.809 38.0753 10.5359 37.7721 10.5009L29.5878 9.58747C29.3304 9.55947 28.4664 9.56647 28.1562 10.858C28.0327 11.3725 28.0257 12.0445 28.1562 12.671C27.599 13.0455 26.8903 13.5845 26.0933 14.1865C24.0411 15.7405 20.9415 18.0891 19.4993 18.1695C19.122 18.1975 18.392 17.543 18.0958 16.752C17.9548 16.395 17.9439 16.0906 18.0708 15.9961Z" fill="black"/>
<path d="M37.4997 31.057C34.2626 31.057 31.6285 33.6715 31.6285 36.8845C31.6285 40.0975 34.2626 42.7121 37.4997 42.7121C40.7367 42.7121 43.3708 40.0975 43.3708 36.8845C43.3673 33.668 40.7367 31.057 37.4997 31.057ZM37.4997 41.603C34.8762 41.603 32.7428 39.4855 32.7428 36.8815C32.7428 34.2775 34.8762 32.16 37.4997 32.16C40.1231 32.16 42.2565 34.2775 42.2565 36.8815C42.2565 39.4855 40.1196 41.603 37.4997 41.603ZM12.8765 52.3273C12.8765 52.6318 13.1268 52.8803 13.4336 52.8803H25.0379C24.7523 53.9304 24.5972 55.0293 24.5936 56.1634V56.1914C24.5936 56.4959 24.844 56.7444 25.1508 56.7444H49.8444C49.9925 56.7444 50.1335 56.6814 50.2393 56.5799C50.3451 56.4749 50.4015 56.3314 50.4015 56.1844C50.4015 55.0434 50.2464 53.9339 49.9607 52.8804H61.5624C61.7105 52.8804 61.8515 52.8174 61.9573 52.7159C62.0631 52.6109 62.1195 52.4674 62.1195 52.3204C62.116 45.7543 56.7279 40.4097 50.1126 40.4097C46.8755 40.4097 43.7583 41.7222 41.5051 44.0253C40.2427 43.6158 38.8957 43.3883 37.4958 43.3883C36.0958 43.3883 34.7523 43.6158 33.49 44.0253C31.2367 41.7258 28.1231 40.4097 24.8825 40.4097C18.2814 40.4097 12.8972 45.7403 12.8755 52.2962L12.8765 52.3273ZM50.1132 41.5125C55.9314 41.5125 60.702 46.066 60.9918 51.7709L49.6095 51.7744C48.3929 48.4984 45.8577 45.8488 42.6523 44.4558C44.6623 42.5798 47.3381 41.5125 50.1132 41.5125ZM49.2775 55.6426H25.7258C26.015 49.4475 31.195 44.4917 37.4999 44.4917C43.8118 44.4917 48.985 49.4442 49.2775 55.6426ZM24.8863 41.5125C27.6614 41.5125 30.3379 42.58 32.3513 44.4561C29.1459 45.8491 26.6141 48.4986 25.3941 51.7747H14.0046C14.2973 46.0696 19.0713 41.5125 24.8863 41.5125ZM24.8863 29.2551C21.8608 29.2551 19.4031 31.6982 19.4031 34.6977C19.4031 37.7007 21.8644 40.1402 24.8863 40.1402C27.9118 40.1402 30.3695 37.6971 30.3695 34.6977C30.3695 31.6946 27.9082 29.2551 24.8863 29.2551ZM24.8863 39.0342C22.4779 39.0342 20.5174 37.0881 20.5174 34.6977C20.5174 32.3072 22.478 30.3612 24.8863 30.3612C27.2947 30.3612 29.2552 32.3072 29.2552 34.6977C29.2552 37.0881 27.2946 39.0342 24.8863 39.0342ZM50.1125 29.2551C47.087 29.2551 44.6293 31.6982 44.6293 34.6977C44.6293 37.7007 47.0906 40.1402 50.1125 40.1402C53.138 40.1402 55.5957 37.6971 55.5957 34.6977C55.5993 31.6946 53.1379 29.2551 50.1125 29.2551ZM50.1125 39.0342C47.7041 39.0342 45.7436 37.0881 45.7436 34.6977C45.7436 32.3072 47.7042 30.3612 50.1125 30.3612C52.5209 30.3612 54.4814 32.3072 54.4814 34.6977C54.485 37.0882 52.5244 39.0342 50.1125 39.0342ZM55.3031 66.7226C53.5188 66.8206 50.511 69.0991 48.0955 70.9296C47.4149 71.4441 46.8014 71.9097 46.3077 72.2562C46.1067 71.9237 45.8387 71.6682 45.5002 71.5457C42.3337 70.3871 29.3011 68.3292 25.6794 70.6532C24.8825 71.1642 23.9798 71.7416 23.0771 72.3157L21.8077 73.1242L21.1024 72.0321C21.0213 71.9096 20.8979 71.8221 20.7533 71.7906C20.6088 71.7591 20.4571 71.7871 20.3337 71.8641L16.9839 73.9992C16.7264 74.1637 16.6489 74.5067 16.8181 74.7622L23.2746 84.741C23.3557 84.8635 23.4791 84.951 23.6237 84.9825C23.6589 84.9965 23.7012 85 23.74 85C23.8458 85 23.9516 84.9685 24.0398 84.9125L27.3896 82.7775C27.647 82.613 27.7246 82.27 27.5554 82.0145L26.903 81.01C28.6485 80.415 30.6901 80.8805 33.4088 81.5C35.2037 81.9095 37.2383 82.3715 39.6079 82.6095C41.1665 82.767 42.5805 82.3645 43.8182 81.409L57.4681 70.8774C58.0111 70.4609 58.1346 69.7223 57.8066 68.8578C57.3976 67.7623 56.3468 66.6666 55.3031 66.7226ZM23.906 83.684L18.0524 74.6361L20.4679 73.0961L26.3214 82.144L23.906 83.684ZM56.7917 70.002L43.1382 80.5337C42.1226 81.3177 41.0048 81.6362 39.7249 81.5066C37.4257 81.2756 35.4264 80.8206 33.6633 80.4182C31.8121 79.9982 30.19 79.6272 28.7125 79.6272C27.8627 79.6272 27.0623 79.7497 26.29 80.0542L22.4076 74.0551L23.677 73.2431C24.5797 72.6656 25.4824 72.0916 26.2794 71.5771C29.2801 69.6521 41.5722 71.2866 45.109 72.5816C45.2465 72.6306 45.3946 72.8406 45.5039 73.1486C45.511 73.2151 45.5321 73.2781 45.5639 73.3411C45.6344 73.5966 45.6802 73.9011 45.6837 74.2266C45.6873 74.9686 45.4722 75.2836 45.3946 75.3081L37.2103 74.3946C36.9035 74.3596 36.6284 74.5801 36.5932 74.8811C36.5579 75.1856 36.7801 75.4586 37.0833 75.4936L45.2677 76.4071C45.5251 76.4351 46.389 76.4281 46.6993 75.1366C46.8227 74.622 46.8297 73.9501 46.6993 73.3236C47.2564 72.9491 47.9651 72.4101 48.7621 71.8081C50.8144 70.254 53.9139 67.9055 55.3562 67.825C55.744 67.8005 56.4634 68.4515 56.7596 69.2425C56.9042 69.603 56.9151 69.9075 56.7917 70.002ZM14.3752 69.5855C14.6079 69.785 14.6326 70.135 14.4316 70.366C14.3223 70.492 14.1671 70.5585 14.012 70.5585C13.8815 70.5585 13.7545 70.513 13.6488 70.4255C5.61257 63.5304 1 53.5339 1 42.9996C1 32.4652 5.60878 22.4684 13.6488 15.5772C13.8815 15.3777 14.2341 15.4022 14.4351 15.6332C14.6361 15.8642 14.6114 16.2142 14.3787 16.4137C6.58578 23.0953 2.11448 32.7865 2.11448 43.0001C2.11448 53.2137 6.58568 62.9049 14.3751 69.5865L14.3752 69.5855ZM74 42.9991C74 53.5344 69.3912 63.5303 61.3512 70.4215C61.2455 70.5125 61.115 70.5545 60.988 70.5545C60.8329 70.5545 60.6777 70.4915 60.5684 70.362C60.3674 70.131 60.3921 69.781 60.6248 69.5815C68.4178 62.8964 72.8854 53.2087 72.8854 42.9951C72.8854 32.7824 68.4178 23.0903 60.6248 16.4088C60.3921 16.2092 60.3674 15.8592 60.5684 15.6282C60.7694 15.3972 61.122 15.3727 61.3548 15.5722C69.3874 22.4673 73.9999 32.4638 73.9999 42.9982L74 42.9991ZM19.4746 19.2755C19.4992 19.2755 19.5275 19.2755 19.5557 19.272C21.34 19.174 24.3478 16.8955 26.7633 15.065C27.4438 14.5505 28.0574 14.0849 28.5511 13.7385C28.7521 14.071 29.0201 14.3265 29.3586 14.449C32.5251 15.6075 45.5577 17.6655 49.1794 15.3415C49.9798 14.827 50.8825 14.253 51.7852 13.6754L53.0476 12.8669L53.7528 13.959C53.9185 14.2145 54.2641 14.2915 54.5215 14.1235L57.8714 11.9885C57.9948 11.908 58.083 11.7855 58.1147 11.642C58.1464 11.4985 58.1182 11.348 58.0406 11.2255L51.5877 1.25379C51.422 0.998282 51.0764 0.921288 50.819 1.08929L47.4691 3.2208C47.3457 3.3013 47.2575 3.4238 47.2258 3.56731C47.1941 3.71081 47.2223 3.86131 47.2999 3.98381L47.9522 4.98832C46.2067 5.58333 44.1651 5.11782 41.4464 4.49831C39.6515 4.08881 37.6169 3.6268 35.2508 3.38879C33.6922 3.23129 32.2782 3.63379 31.0405 4.58926L17.387 15.1209C16.844 15.5374 16.7206 16.276 17.0485 17.1405C17.4505 18.208 18.4555 19.2755 19.4746 19.2755ZM50.9529 2.31409L56.8065 11.362L54.391 12.902L49.2463 4.95346C49.2427 4.94996 49.2392 4.94646 49.2392 4.93946L48.5375 3.85448L50.9529 2.31409ZM18.0708 15.9961L31.7207 5.46445C32.5917 4.79244 33.5332 4.46343 34.5911 4.46343C34.7674 4.46343 34.9507 4.47393 35.1341 4.49143C37.4332 4.72243 39.4325 5.17743 41.1956 5.5799C44.1118 6.24491 46.4567 6.77688 48.5689 5.9439L52.4513 11.9429L51.1854 12.7515C50.2827 13.329 49.3765 13.9065 48.5761 14.421C45.5753 16.346 33.2833 14.7115 29.7464 13.4165C29.6089 13.3675 29.4608 13.1575 29.3515 12.8495C29.3445 12.783 29.3233 12.72 29.2916 12.657C29.221 12.4015 29.1752 12.0935 29.1717 11.768C29.1682 11.026 29.3832 10.7109 29.4608 10.6865L37.6452 11.6C37.9519 11.635 38.227 11.4145 38.2622 11.1135C38.2975 10.809 38.0753 10.5359 37.7721 10.5009L29.5878 9.58747C29.3304 9.55947 28.4664 9.56647 28.1562 10.858C28.0327 11.3725 28.0257 12.0445 28.1562 12.671C27.599 13.0455 26.8903 13.5845 26.0933 14.1865C24.0411 15.7405 20.9415 18.0891 19.4993 18.1695C19.122 18.1975 18.392 17.543 18.0958 16.752C17.9548 16.395 17.9439 16.0906 18.0708 15.9961Z" stroke="black" stroke-width="0.8" mask="url(#path-1-outside-1_1035_703)"/>
</svg>
