<svg width="52" height="27" viewBox="0 0 52 27" fill="none" xmlns="http://www.w3.org/2000/svg">
<path d="M51.75 13.5C51.75 14.1904 51.1904 14.75 50.5 14.75L5.12109 14.75C5.02011 14.7501 4.92932 14.811 4.89063 14.9043C4.85195 14.9977 4.87293 15.1053 4.94434 15.1768L14.3838 24.6162C14.8719 25.1044 14.8719 25.8956 14.3838 26.3838C13.8956 26.8719 13.1044 26.8719 12.6162 26.3838L0.616211 14.3838C0.128056 13.8956 0.128057 13.1044 0.616211 12.6162L12.6162 0.616211C13.1044 0.128057 13.8956 0.128057 14.3838 0.616211C14.8719 1.10437 14.8719 1.89563 14.3838 2.38379L4.94434 11.8232C4.87293 11.8947 4.85195 12.0023 4.89063 12.0957C4.92932 12.189 5.02011 12.2499 5.12109 12.25L50.5 12.25C51.1904 12.25 51.75 12.8096 51.75 13.5Z" fill="black" stroke="white" stroke-width="0.5" stroke-linecap="round" stroke-linejoin="round"/>
</svg>
