<svg width="37" height="48" viewBox="0 0 37 48" fill="none" xmlns="http://www.w3.org/2000/svg">
<path d="M36.5813 0.787898C36.5631 0.754864 36.5429 0.723277 36.5206 0.693377C36.4763 0.614751 36.424 0.541826 36.3647 0.475982H36.2781C36.2112 0.435662 36.1417 0.400906 36.0701 0.37201C36.0243 0.362976 35.9774 0.362976 35.9315 0.37201H35.8189H13.2947C13.0649 0.37201 12.8445 0.471593 12.6821 0.648852C12.5196 0.826111 12.4283 1.06653 12.4283 1.31721V12.5178C12.4283 12.7685 12.5196 13.0089 12.6821 13.1862C12.8445 13.3634 13.0649 13.463 13.2947 13.463C13.5244 13.463 13.7448 13.3634 13.9072 13.1862C14.0697 13.0089 14.161 12.7685 14.161 12.5178V2.12063H27.9008L20.0086 4.01103C19.8132 4.05905 19.6391 4.17947 19.5158 4.35181C19.3926 4.52414 19.328 4.73773 19.3329 4.95623V41.819H14.135V31.4218C14.135 31.1711 14.0437 30.9307 13.8812 30.7535C13.7188 30.5762 13.4984 30.4766 13.2687 30.4766C13.0389 30.4766 12.8185 30.5762 12.6561 30.7535C12.4936 30.9307 12.4023 31.1711 12.4023 31.4218V42.7642C12.4023 43.0149 12.4936 43.2553 12.6561 43.4326C12.8185 43.6098 13.0389 43.7094 13.2687 43.7094H19.3329V46.545C19.3329 46.7957 19.4242 47.0361 19.5866 47.2134C19.7491 47.3906 19.9694 47.4902 20.1992 47.4902H20.3898L35.9835 43.7094H36.0615L36.1828 43.6527C36.2386 43.6216 36.2909 43.5835 36.3387 43.5393L36.4253 43.4542C36.4734 43.3975 36.5142 43.3339 36.5466 43.2652L36.5986 43.1612C36.6379 43.0528 36.6584 42.9375 36.6592 42.8209V1.17543C36.6551 1.04215 36.6286 0.910827 36.5813 0.787898ZM21.0655 45.3635V5.71239L34.9266 2.35693V42.0553L27.9008 43.7094L21.0655 45.3635Z" fill="#25242C" stroke="white" stroke-width="0.5"/>
<path d="M15.6321 23.3016C15.7045 23.2243 15.7606 23.1308 15.7967 23.0275C15.8313 22.9312 15.849 22.8286 15.8487 22.7251V22.6305C15.8428 22.5533 15.8283 22.4771 15.8054 22.4037C15.8102 22.3724 15.8102 22.3405 15.8054 22.3092C15.7664 22.2047 15.7107 22.1087 15.6408 22.0256L11.2312 17.2429C11.0655 17.0881 10.8523 17.0071 10.6343 17.0163C10.4162 17.0255 10.2094 17.1241 10.0551 17.2925C9.90084 17.4608 9.81046 17.6865 9.80204 17.9243C9.79361 18.1622 9.86778 18.3948 10.0097 18.5756L12.9119 21.7421H1.86632C1.63656 21.7421 1.4162 21.8416 1.25374 22.0189C1.09127 22.1962 1 22.4366 1 22.6873C1 22.9379 1.09127 23.1784 1.25374 23.3556C1.4162 23.5329 1.63656 23.6325 1.86632 23.6325H12.9032L10.0097 26.7894C9.84657 26.9661 9.75447 27.2063 9.75366 27.4572C9.75284 27.708 9.84339 27.9489 10.0054 28.1269C10.1674 28.3049 10.3875 28.4053 10.6174 28.4062C10.8473 28.4071 11.0681 28.3083 11.2312 28.1316L15.6148 23.3489L15.6321 23.3016Z" fill="#25242C" stroke="white" stroke-width="0.5"/>
<path d="M25.3976 20.5234C25.1678 20.5234 24.9475 20.623 24.785 20.8003C24.6225 20.9775 24.5312 21.218 24.5312 21.4686V23.86C24.5312 24.1107 24.6225 24.3511 24.785 24.5283C24.9475 24.7056 25.1678 24.8052 25.3976 24.8052C25.6273 24.8052 25.8477 24.7056 26.0101 24.5283C26.1726 24.3511 26.2639 24.1107 26.2639 23.86V21.4686C26.2639 21.218 26.1726 20.9775 26.0101 20.8003C25.8477 20.623 25.6273 20.5234 25.3976 20.5234Z" fill="#25242C" stroke="white" stroke-width="0.5"/>
</svg>
