<svg width="84" height="84" viewBox="0 0 84 84" fill="none" xmlns="http://www.w3.org/2000/svg">
<circle cx="42" cy="42" r="42" fill="#6524EB"/>
<rect x="13" y="15.4219" width="58.2017" height="53.7606" rx="5" fill="#6524EB"/>
<path d="M62.49 41.4009C62.49 42.1466 62.6092 43.2724 62.49 43.9919C58.2724 64.1215 37.8761 67.7289 35.7834 66.6128C35.5841 66.5065 37.8761 61.6398 37.1785 60.2351C30.1033 60.2351 21.4336 48.9745 21.4336 42.5968C21.4336 33.481 29.9263 25.1875 41.2688 25.1875C52.6113 25.1875 62.49 32.2852 62.49 41.4009Z" fill="white"/>
<path d="M62.0053 42.0924C62.0053 32.9766 53.2089 25.5868 41.8663 25.5868C30.5239 25.5868 21.329 32.9766 21.329 42.0924L21.3307 42.3057C21.4493 49.8298 29.4266 57.9345 38.0751 59.8183C38.4737 59.9051 36.9743 65.617 36.9743 65.617L39.6649 64.9194C39.6649 64.9194 57.5025 62.2288 61.5885 45.4167C61.8338 44.4073 61.9868 43.37 62.0036 42.3057L62.0053 42.0924ZM64.3969 42.0924C64.3969 43.3301 64.2109 44.5217 63.9813 45.6866C59.9352 66.2149 33.8897 69.1048 33.8897 69.1048C33.8897 69.1048 35.8688 61.5085 35.3845 61.3319C26.9095 58.2427 19.336 51.0688 19.3359 42.0924C19.3359 31.4913 29.8518 23.5938 41.8663 23.5938C53.8809 23.5938 64.3969 31.4913 64.3969 42.0924Z" fill="#6524EB"/>
<path d="M31.8912 66.4863C38.0951 66.2464 44.4297 65.2658 48.7347 63.1102C59.1207 57.9097 61.981 51.7075 62.9277 44.7065L35.9616 56.0624L31.8912 66.4863Z" fill="white"/>
<ellipse cx="47.1432" cy="44.2906" rx="15.3463" ry="17.439" fill="white"/>
<ellipse cx="42.0982" cy="43.7012" rx="20.6861" ry="17.9981" fill="white"/>
<rect x="26.0234" y="34.7656" width="25.4513" height="13.1036" rx="6.55182" fill="#6524EB"/>
<rect x="29.2969" y="38.0391" width="3.27591" height="6.55182" rx="1.63795" fill="white"/>
<rect x="34.5879" y="38.0391" width="3.27591" height="6.55182" rx="1.63795" fill="white"/>
<path d="M44.9501 15.3941C44.9501 17.3203 43.4332 18.8819 41.562 18.8819C39.6908 18.8819 38.1738 17.3203 38.1738 15.3941C38.1738 13.4678 39.6908 11.9062 41.562 11.9062C43.4332 11.9062 44.9501 13.4678 44.9501 15.3941Z" fill="white"/>
<path d="M44.9043 15.4905C44.9043 13.6727 43.4538 12.1937 41.6471 12.1479L41.5608 12.1468C39.7142 12.1468 38.2171 13.6439 38.2171 15.4905L38.2183 15.5767C38.2633 17.3548 39.6963 18.7878 41.4744 18.8328L41.5608 18.834C43.3785 18.8339 44.8574 17.3834 44.9032 15.5767L44.9043 15.4905ZM46.5433 15.4905C46.5433 18.2422 44.3125 20.4729 41.5608 20.473C38.809 20.473 36.5782 18.2423 36.5781 15.4905C36.5781 12.7387 38.809 10.5078 41.5608 10.5078C44.3126 10.5078 46.5433 12.7387 46.5433 15.4905Z" fill="#6524EB"/>
<path d="M42.9712 18.8828L43.7579 25.6591H38.9746L40.0702 18.8828H42.9712ZM41.1215 19.9817L40.3812 24.5603H42.4077L41.8762 19.9817H41.1215Z" fill="#6524EB"/>
<path d="M41.1646 19.4766H41.9342L42.7609 25.8543H39.9707L41.1646 19.4766Z" fill="white"/>
</svg>
