<svg width="80" height="85" viewBox="0 0 80 85" fill="none" xmlns="http://www.w3.org/2000/svg">
<path d="M50.3031 58.571L59.1218 55.3164C60.5454 54.8024 62.0334 54.4444 63.4473 54.5078C64.0645 54.5358 64.6612 54.6411 65.2257 54.84C68.9061 49.8576 70.7328 43.9601 70.7113 38.0745C70.6898 31.9782 68.676 25.8786 64.6816 20.8144C60.6894 15.7535 55.2275 12.3763 49.301 10.9345C43.6293 9.55607 37.5255 9.94315 31.8646 12.3064C31.9753 12.9945 31.9463 13.6956 31.8119 14.3998C31.5409 15.8116 30.827 17.1996 29.9765 18.4856L24.8199 26.2323C23.4393 28.7128 23.4791 32.0309 24.4941 35.5941C25.6306 39.583 27.9799 43.8376 30.9549 47.6126C33.93 51.3865 37.5158 54.6637 41.1284 56.699C44.354 58.5172 47.5699 59.329 50.3031 58.571ZM48.8591 22.8455C49.1386 22.1477 49.9321 21.8079 50.6299 22.0875C51.3277 22.367 51.6675 23.1605 51.3879 23.8583L44.7948 40.3432C44.611 40.8023 44.2046 41.1066 43.7498 41.1808L32.7344 43.6118C32.0011 43.7731 31.2743 43.3107 31.113 42.5774C30.9517 41.8442 31.4141 41.1173 32.1473 40.9561L42.5326 38.6648L48.8591 22.8455ZM67.475 56.3872L67.6599 56.612L69.7587 59.2731L69.7791 59.2462C74.6229 53.0101 77.0281 45.5235 77.0012 38.0519C76.9754 30.5858 74.5121 23.1197 69.6211 16.919C64.7397 10.727 58.0498 6.59606 50.7858 4.82844C43.525 3.06083 35.6815 3.65648 28.4938 6.91325L28.4648 6.92615L30.7474 9.81842C36.9717 7.2014 43.6949 6.77025 49.9418 8.2895C56.4521 9.87433 62.4474 13.5773 66.8256 19.1285C71.2027 24.6776 73.4068 31.3728 73.4316 38.0745C73.4563 44.5042 71.4715 50.9425 67.475 56.3872ZM71.4995 61.4804L73.4864 63.9996C74.5777 65.378 75.0014 67.0801 74.8111 68.7014C74.6197 70.3304 73.8068 71.8872 72.4284 72.9786L61.0894 81.9242C52.9459 88.2571 40.7983 82.8972 29.4561 72.6431C25.0726 68.681 20.7987 63.9889 16.9344 58.9806C13.0659 53.9681 9.59405 48.6254 6.82113 43.3742C-0.49342 29.5224 -2.95562 16.1384 4.60838 10.3087L15.9366 1.37492C17.3183 0.280372 19.0192 -0.14648 20.6428 0.0438297C22.2674 0.234139 23.8243 1.04699 24.9166 2.43076L26.7251 4.72093L27.3735 4.4274C35.1245 0.915812 43.5863 0.274996 51.4266 2.18347C59.267 4.09086 66.4869 8.54969 71.7597 15.2331C77.0378 21.9187 79.6924 29.9794 79.7215 38.0519C79.7516 46.1181 77.1571 54.1971 71.9338 60.9213L71.4995 61.4804ZM59.9906 57.9011L51.0976 61.1815C47.5914 62.1793 43.6455 61.2471 39.7952 59.0774C35.8654 56.8625 31.9947 53.3369 28.811 49.2985C25.6274 45.259 23.1049 40.6733 21.8706 36.3402C20.66 32.09 20.6718 28.0376 22.4598 24.8658L27.7036 16.9824C28.3799 15.9589 28.9422 14.8901 29.1346 13.888C29.2938 13.0537 29.1798 12.2355 28.6056 11.5065L22.7781 4.11667C22.1588 3.32747 21.2664 2.86299 20.3331 2.75332C19.3955 2.64365 18.416 2.88772 17.6225 3.51348L6.27278 12.4634C-0.0246355 17.3168 2.51605 29.388 9.23171 42.1054C11.9337 47.2234 15.3173 52.4284 19.0891 57.3162C22.8663 62.2094 27.0273 66.7822 31.2797 70.626C41.666 80.0157 52.547 85.11 59.4089 79.7749L70.7425 70.84C71.5285 70.2228 71.9908 69.3251 72.1016 68.3864C72.2102 67.4521 71.9682 66.4736 71.3478 65.6855L65.516 58.2979C64.9418 57.5689 64.1752 57.2657 63.329 57.228C62.3291 57.1829 61.184 57.4689 60.0519 57.8775L59.9906 57.9011Z" fill="black"/>
</svg>
