<svg width="29" height="25" viewBox="0 0 29 25" fill="none" xmlns="http://www.w3.org/2000/svg">
<path d="M27.7037 0L29 2.68256C26.4568 3.75062 24.7037 4.90561 23.7407 6.14754C22.7778 7.36463 22.2963 8.64382 22.2963 9.9851C22.2963 11.1277 22.5802 12.0343 23.1481 12.7049C23.716 13.3756 24.3704 13.9717 25.1111 14.4933C25.8519 15.0149 26.5062 15.6483 27.0741 16.3934C27.642 17.1138 27.9259 18.1321 27.9259 19.4486C27.9259 20.9886 27.358 22.305 26.2222 23.3979C25.0864 24.466 23.679 25 22 25C20.9136 25 19.8395 24.7268 18.7778 24.1803C17.7407 23.609 16.8765 22.7024 16.1852 21.4605C15.4938 20.1937 15.1481 18.5047 15.1481 16.3934C15.1481 12.8912 16.1605 9.72429 18.1852 6.8927C20.2099 4.0611 23.3827 1.76354 27.7037 0ZM12.5556 0L13.8519 2.68256C11.3086 3.75062 9.55556 4.90561 8.59259 6.14754C7.62963 7.36463 7.14815 8.64382 7.14815 9.9851C7.14815 11.1277 7.4321 12.0343 8 12.7049C8.5679 13.3756 9.22222 13.9717 9.96296 14.4933C10.7037 15.0149 11.358 15.6483 11.9259 16.3934C12.4938 17.1138 12.7778 18.1321 12.7778 19.4486C12.7778 20.9886 12.2099 22.305 11.0741 23.3979C9.93827 24.466 8.53086 25 6.85185 25C5.76543 25 4.69136 24.7268 3.62963 24.1803C2.59259 23.609 1.7284 22.7024 1.03704 21.4605C0.345679 20.1937 0 18.5047 0 16.3934C0 12.8912 1.01235 9.72429 3.03704 6.8927C5.06173 4.0611 8.23457 1.76354 12.5556 0Z" fill="#6524EB"/>
</svg>
