<svg width="184" height="54" viewBox="0 0 184 54" fill="none" xmlns="http://www.w3.org/2000/svg">
<path d="M145.108 29.5558C145.108 30.5453 145.452 31.3842 146.141 32.0725C146.872 32.7609 147.732 33.105 148.722 33.105H154.981V40.5908H148.722C147.044 40.5908 145.452 40.2896 143.946 39.6873C142.484 39.042 141.193 38.1816 140.074 37.106C138.999 35.9875 138.139 34.6968 137.493 33.2341C136.848 31.7714 136.525 30.2011 136.525 28.5232V18.8434H131.879V11.6803H136.525V0H145.108V29.5558Z" fill="black"/>
<path d="M111.72 7.80859C114.044 7.80859 116.238 8.26032 118.303 9.16377C120.368 10.0242 122.153 11.2288 123.659 12.7776C125.208 14.2833 126.412 16.0472 127.273 18.0692C128.176 20.0912 128.628 22.2638 128.628 24.587C128.628 26.9532 128.176 29.1688 127.273 31.2338C126.412 33.2988 125.208 35.1057 123.659 36.6545C122.153 38.1603 120.368 39.3649 118.303 40.2683C116.238 41.1287 114.044 41.5589 111.72 41.5589C108.537 41.5589 105.891 40.6985 103.783 38.9777V38.9131L107.01 32.9762L107.074 33.0407C108.236 33.557 109.419 33.8151 110.623 33.8151C111.871 33.8151 113.054 33.5785 114.173 33.1052C115.291 32.632 116.259 31.9867 117.077 31.1693C117.937 30.3088 118.604 29.3193 119.077 28.2008C119.55 27.0822 119.787 25.8776 119.787 24.587C119.787 23.3393 119.55 22.1778 119.077 21.1022C118.604 19.9837 117.937 19.0157 117.077 18.1983C116.259 17.3809 115.291 16.7356 114.173 16.2623C113.054 15.7891 111.871 15.5525 110.623 15.5525C109.333 15.5525 108.128 15.7891 107.01 16.2623C105.934 16.7356 104.988 17.3809 104.17 18.1983C103.353 19.0157 102.707 19.9837 102.234 21.1022C101.761 22.1778 101.524 23.3393 101.524 24.587V53.4974H92.8125V8.32485H101.524V12.713C103.848 9.44341 107.246 7.80859 111.72 7.80859Z" fill="black"/>
<path d="M55.3945 40.5894L64.0418 28.8445L71.9148 32.4583L65.9133 40.5894H55.3945ZM77.7227 24.5854L89.5966 40.5894H79.0133V40.5248L67.2685 24.6499L55.4591 8.32324H65.9133L72.431 19.2937L79.0133 8.32324H89.5966L89.4675 8.38777L77.7227 24.5854Z" fill="black"/>
<path d="M41.1026 7.80859C43.3827 7.80859 45.5338 8.26032 47.5558 9.16377C49.5778 10.0242 51.3417 11.2073 52.8475 12.713C54.3532 14.2188 55.5363 15.9827 56.3967 18.0047C57.3002 20.0267 57.7519 22.1993 57.7519 24.5224C57.7519 25.7701 57.6228 26.9747 57.3647 28.1362L57.3002 28.2653H40.909L36.7789 21.683H49.0401C48.4378 19.8761 47.4268 18.3919 46.007 17.2303C44.6304 16.0687 42.9955 15.4879 41.1026 15.4879C39.941 15.4879 38.844 15.7245 37.8115 16.1978C36.7789 16.671 35.8755 17.3163 35.1011 18.1337C34.3697 18.9081 33.7889 19.8546 33.3587 20.9732C32.9285 22.0487 32.7134 23.2318 32.7134 24.5224C32.7134 25.5119 32.907 26.5444 33.2942 27.62C33.6814 28.6525 34.2407 29.599 34.972 30.4594C35.7034 31.3198 36.5853 32.0512 37.6179 32.6535C38.6504 33.2128 39.8119 33.4924 41.1026 33.4924C42.2642 33.4924 43.3182 33.3418 44.2647 33.0407C45.2542 32.6965 46.1791 31.9652 47.0396 30.8466L47.1041 30.7821L47.2332 30.8466L54.7189 34.1377L54.5898 34.2668C53.0411 36.4179 51.0621 38.0957 48.6529 39.3003C46.2867 40.5049 43.7699 41.1072 41.1026 41.1072C38.7794 41.1072 36.5853 40.677 34.5203 39.8166C32.4983 38.9561 30.7344 37.7731 29.2287 36.2673C27.7229 34.7615 26.5183 32.9977 25.6149 30.9757C24.7544 28.9536 24.3242 26.8026 24.3242 24.5224C24.3242 22.1993 24.7544 20.0267 25.6149 18.0047C26.5183 15.9827 27.7229 14.2188 29.2287 12.713C30.7344 11.2073 32.4983 10.0242 34.5203 9.16377C36.5853 8.26032 38.7794 7.80859 41.1026 7.80859Z" fill="black"/>
<path d="M26.3291 9.6155L25.5548 10.9061L22.2636 16.7786L22.1991 16.714C20.7794 15.8966 19.2521 15.4879 17.6173 15.4879C16.4987 15.4879 15.4447 15.6815 14.4552 16.0687C13.4657 16.4129 12.5838 16.9291 11.8094 17.6175C11.035 18.2628 10.3682 19.0372 9.8089 19.9406C9.29264 20.8441 8.94847 21.8121 8.77638 22.8446V40.5909H0V8.32485H8.77638V12.5194C11.0565 9.37888 14.3907 7.80859 18.7789 7.80859C21.3602 7.80859 23.8554 8.4109 26.2646 9.6155H26.3291Z" fill="black"/>
<path d="M145.523 11.6133H153.429V18.8732L145.523 11.6133Z" fill="black"/>
<path d="M88.2893 48.7712L88.9633 48.8545C88.857 49.2483 88.6601 49.5539 88.3726 49.7713C88.0852 49.9887 87.718 50.0974 87.2711 50.0974C86.7082 50.0974 86.2613 49.9247 85.9303 49.5793C85.6018 49.2314 85.4375 48.7446 85.4375 48.1189C85.4375 47.4715 85.6042 46.969 85.9376 46.6115C86.2709 46.254 86.7034 46.0752 87.2348 46.0752C87.7494 46.0752 88.1697 46.2503 88.4958 46.6006C88.822 46.9509 88.985 47.4437 88.985 48.0791C88.985 48.1177 88.9838 48.1757 88.9814 48.253H86.1115C86.1357 48.6758 86.2552 48.9995 86.4702 49.2241C86.6852 49.4488 86.9534 49.5611 87.2747 49.5611C87.5138 49.5611 87.718 49.4983 87.8871 49.3727C88.0562 49.2471 88.1903 49.0466 88.2893 48.7712ZM86.1477 47.7167H88.2965C88.2676 47.393 88.1854 47.1502 88.0501 46.9884C87.8424 46.7371 87.573 46.6115 87.2421 46.6115C86.9425 46.6115 86.6901 46.7117 86.4847 46.9123C86.2818 47.1128 86.1695 47.3809 86.1477 47.7167Z" fill="black"/>
<path d="M84.5308 48.6009L85.1722 48.6842C85.1021 49.1263 84.9221 49.473 84.6323 49.7242C84.3448 49.973 83.9909 50.0974 83.5705 50.0974C83.0439 50.0974 82.6199 49.9259 82.2986 49.5829C81.9798 49.2374 81.8203 48.7434 81.8203 48.1008C81.8203 47.6853 81.8892 47.3217 82.0269 47.0101C82.1646 46.6985 82.3735 46.4653 82.6537 46.3107C82.9364 46.1537 83.2432 46.0752 83.5742 46.0752C83.9921 46.0752 84.3339 46.1815 84.5996 46.3941C84.8654 46.6042 85.0357 46.9038 85.1106 47.2927L84.4764 47.3906C84.416 47.1321 84.3085 46.9376 84.1539 46.8072C84.0017 46.6767 83.8169 46.6115 83.5995 46.6115C83.271 46.6115 83.004 46.7299 82.7987 46.9666C82.5934 47.2009 82.4907 47.573 82.4907 48.0827C82.4907 48.5997 82.5897 48.9753 82.7878 49.2096C82.9859 49.444 83.2444 49.5611 83.5633 49.5611C83.8194 49.5611 84.0331 49.4826 84.2047 49.3256C84.3762 49.1686 84.4849 48.927 84.5308 48.6009Z" fill="black"/>
<path d="M80.4453 45.4483V44.6982H81.0976V45.4483H80.4453ZM80.4453 50.0105V46.1622H81.0976V50.0105H80.4453Z" fill="black"/>
<path d="M77.8741 50.0104L76.4102 46.1621H77.0986L77.9248 48.4667C78.0142 48.7156 78.0964 48.9741 78.1712 49.2422C78.2292 49.0393 78.3101 48.7953 78.414 48.5102L79.2692 46.1621H79.9396L78.4829 50.0104H77.8741Z" fill="black"/>
<path d="M74.4023 50.0105V46.1622H74.9894V46.7456C75.1391 46.4726 75.2768 46.2926 75.4025 46.2056C75.5305 46.1187 75.6706 46.0752 75.8228 46.0752C76.0426 46.0752 76.2661 46.1453 76.4932 46.2854L76.2685 46.8905C76.1091 46.7963 75.9496 46.7492 75.7902 46.7492C75.6477 46.7492 75.5196 46.7927 75.4061 46.8796C75.2926 46.9642 75.2116 47.0826 75.1633 47.2348C75.0908 47.4667 75.0546 47.7203 75.0546 47.9957V50.0105H74.4023Z" fill="black"/>
<path d="M72.9846 48.7712L73.6586 48.8545C73.5523 49.2483 73.3554 49.5539 73.068 49.7713C72.7805 49.9887 72.4133 50.0974 71.9664 50.0974C71.4035 50.0974 70.9566 49.9247 70.6256 49.5793C70.2971 49.2314 70.1328 48.7446 70.1328 48.1189C70.1328 47.4715 70.2995 46.969 70.6329 46.6115C70.9662 46.254 71.3987 46.0752 71.9301 46.0752C72.4447 46.0752 72.865 46.2503 73.1912 46.6006C73.5173 46.9509 73.6804 47.4437 73.6804 48.0791C73.6804 48.1177 73.6791 48.1757 73.6767 48.253H70.8068C70.831 48.6758 70.9505 48.9995 71.1655 49.2241C71.3806 49.4488 71.6487 49.5611 71.97 49.5611C72.2092 49.5611 72.4133 49.4983 72.5824 49.3727C72.7515 49.2471 72.8856 49.0466 72.9846 48.7712ZM70.843 47.7167H72.9919C72.9629 47.393 72.8807 47.1502 72.7455 46.9884C72.5377 46.7371 72.2683 46.6115 71.9374 46.6115C71.6378 46.6115 71.3854 46.7117 71.18 46.9123C70.9771 47.1128 70.8648 47.3809 70.843 47.7167Z" fill="black"/>
<path d="M65.3203 48.3035L65.9834 48.2456C66.0148 48.5113 66.0873 48.7299 66.2009 48.9014C66.3168 49.0705 66.4956 49.2082 66.7372 49.3145C66.9787 49.4184 67.2505 49.4703 67.5525 49.4703C67.8206 49.4703 68.0574 49.4305 68.2627 49.3508C68.468 49.271 68.6202 49.1623 68.7193 49.0246C68.8207 48.8845 68.8715 48.7323 68.8715 48.5681C68.8715 48.4014 68.8232 48.2564 68.7265 48.1332C68.6299 48.0076 68.4705 47.9025 68.2482 47.818C68.1057 47.7624 67.7904 47.6766 67.3024 47.5607C66.8145 47.4423 66.4726 47.3312 66.277 47.2273C66.0233 47.0944 65.8337 46.9302 65.708 46.7345C65.5848 46.5364 65.5232 46.3154 65.5232 46.0714C65.5232 45.8032 65.5993 45.5532 65.7515 45.3213C65.9037 45.0869 66.126 44.9094 66.4183 44.7886C66.7106 44.6678 67.0355 44.6074 67.393 44.6074C67.7868 44.6074 68.1335 44.6714 68.433 44.7995C68.735 44.9251 68.9669 45.1111 69.1288 45.3575C69.2906 45.6039 69.3776 45.8829 69.3897 46.1946L68.7157 46.2453C68.6794 45.9095 68.5562 45.6559 68.346 45.4843C68.1383 45.3128 67.8303 45.2271 67.422 45.2271C66.9968 45.2271 66.6864 45.3056 66.4907 45.4626C66.2975 45.6172 66.2009 45.8044 66.2009 46.0243C66.2009 46.2151 66.2697 46.3721 66.4074 46.4953C66.5427 46.6185 66.8954 46.7454 67.4655 46.8758C68.038 47.0039 68.4306 47.1162 68.6432 47.2128C68.9524 47.3553 69.1807 47.5365 69.3281 47.7564C69.4754 47.9738 69.5491 48.225 69.5491 48.5101C69.5491 48.7927 69.4682 49.0597 69.3063 49.3109C69.1445 49.5597 68.9113 49.7542 68.607 49.8943C68.305 50.032 67.9644 50.1009 67.5851 50.1009C67.1043 50.1009 66.7009 50.0308 66.3748 49.8907C66.0511 49.7506 65.7962 49.5404 65.6102 49.2602C65.4266 48.9775 65.33 48.6586 65.3203 48.3035Z" fill="black"/>
<path d="M62.9156 49.4266L63.0099 50.0028C62.8263 50.0415 62.662 50.0608 62.517 50.0608C62.2803 50.0608 62.0967 50.0233 61.9662 49.9485C61.8358 49.8736 61.744 49.7757 61.6909 49.6549C61.6377 49.5317 61.6111 49.2745 61.6111 48.8831V46.6691H61.1328V46.1618H61.6111V45.2087L62.2598 44.8174V46.1618H62.9156V46.6691H62.2598V48.9193C62.2598 49.1054 62.2706 49.2249 62.2924 49.2781C62.3165 49.3312 62.354 49.3735 62.4047 49.4049C62.4579 49.4363 62.5327 49.452 62.6294 49.452C62.7018 49.452 62.7973 49.4436 62.9156 49.4266Z" fill="black"/>
<path d="M57.5938 48.8618L58.2388 48.7603C58.275 49.0188 58.3752 49.2169 58.5395 49.3546C58.7062 49.4923 58.9381 49.5611 59.2353 49.5611C59.5348 49.5611 59.7571 49.5007 59.902 49.38C60.047 49.2567 60.1194 49.113 60.1194 48.9487C60.1194 48.8014 60.0554 48.6854 59.9274 48.6009C59.838 48.5429 59.6157 48.4692 59.2606 48.3798C58.7823 48.259 58.4501 48.1552 58.2641 48.0682C58.0805 47.9788 57.9404 47.8568 57.8438 47.7022C57.7496 47.5452 57.7025 47.3725 57.7025 47.184C57.7025 47.0125 57.7411 46.8543 57.8184 46.7093C57.8981 46.562 58.0056 46.44 58.1409 46.3433C58.2424 46.2685 58.3801 46.2056 58.554 46.1549C58.7304 46.1018 58.9188 46.0752 59.1193 46.0752C59.4213 46.0752 59.6858 46.1187 59.9129 46.2056C60.1424 46.2926 60.3115 46.411 60.4202 46.5608C60.5289 46.7081 60.6038 46.9062 60.6449 47.155L60.0071 47.242C59.9781 47.0439 59.8936 46.8893 59.7534 46.7782C59.6157 46.6671 59.4201 46.6115 59.1664 46.6115C58.8669 46.6115 58.6531 46.661 58.525 46.7601C58.397 46.8591 58.333 46.9751 58.333 47.1079C58.333 47.1925 58.3595 47.2686 58.4127 47.3362C58.4658 47.4063 58.5492 47.4643 58.6627 47.5102C58.7279 47.5343 58.92 47.5899 59.2389 47.6768C59.7003 47.8 60.0216 47.9015 60.2028 47.9812C60.3864 48.0585 60.5301 48.1721 60.634 48.3218C60.7379 48.4716 60.7898 48.6576 60.7898 48.8799C60.7898 49.0973 60.7258 49.3026 60.5977 49.4959C60.4721 49.6868 60.2897 49.8353 60.0506 49.9416C59.8114 50.0455 59.5408 50.0974 59.2389 50.0974C58.7388 50.0974 58.3571 49.9936 58.0938 49.7858C57.8329 49.578 57.6662 49.27 57.5938 48.8618Z" fill="black"/>
<path d="M56.2812 45.4483V44.6982H56.9335V45.4483H56.2812ZM56.2812 50.0105V46.1622H56.9335V50.0105H56.2812Z" fill="black"/>
<path d="M52.2227 50.0105V46.1622H52.8097V46.7093C53.0923 46.2866 53.5006 46.0752 54.0345 46.0752C54.2664 46.0752 54.479 46.1175 54.6722 46.202C54.8679 46.2842 55.0141 46.3929 55.1107 46.5281C55.2073 46.6634 55.275 46.8241 55.3136 47.0101C55.3378 47.1309 55.3499 47.3423 55.3499 47.6442V50.0105H54.6976V47.6696C54.6976 47.4039 54.6722 47.2058 54.6215 47.0753C54.5708 46.9425 54.4802 46.8374 54.3497 46.7601C54.2217 46.6803 54.0707 46.6405 53.8968 46.6405C53.619 46.6405 53.3786 46.7287 53.1757 46.905C52.9752 47.0814 52.8749 47.4159 52.8749 47.9088V50.0105H52.2227Z" fill="black"/>
<path d="M47.9219 48.0863C47.9219 47.3737 48.12 46.8458 48.5162 46.5028C48.8471 46.2177 49.2505 46.0752 49.7264 46.0752C50.2555 46.0752 50.6879 46.2491 51.0237 46.597C51.3595 46.9425 51.5274 47.4208 51.5274 48.032C51.5274 48.5272 51.4525 48.9173 51.3027 49.2024C51.1554 49.485 50.9392 49.7049 50.6541 49.8619C50.3715 50.0189 50.0622 50.0974 49.7264 50.0974C49.1877 50.0974 48.7517 49.9247 48.4183 49.5793C48.0874 49.2338 47.9219 48.7362 47.9219 48.0863ZM48.5922 48.0863C48.5922 48.5791 48.6997 48.9487 48.9148 49.1951C49.1298 49.4391 49.4003 49.5611 49.7264 49.5611C50.0502 49.5611 50.3195 49.4379 50.5345 49.1915C50.7495 48.9451 50.857 48.5695 50.857 48.0646C50.857 47.5887 50.7483 47.2287 50.5309 46.9847C50.3159 46.7383 50.0477 46.6151 49.7264 46.6151C49.4003 46.6151 49.1298 46.7371 48.9148 46.9811C48.6997 47.2251 48.5922 47.5935 48.5922 48.0863Z" fill="black"/>
<path d="M46.5938 45.4483V44.6982H47.246V45.4483H46.5938ZM46.5938 50.0105V46.1622H47.246V50.0105H46.5938Z" fill="black"/>
<path d="M46.0211 49.4266L46.1153 50.0028C45.9317 50.0415 45.7675 50.0608 45.6225 50.0608C45.3858 50.0608 45.2022 50.0233 45.0717 49.9485C44.9413 49.8736 44.8495 49.7757 44.7963 49.6549C44.7432 49.5317 44.7166 49.2745 44.7166 48.8831V46.6691H44.2383V46.1618H44.7166V45.2087L45.3652 44.8174V46.1618H46.0211V46.6691H45.3652V48.9193C45.3652 49.1054 45.3761 49.2249 45.3978 49.2781C45.422 49.3312 45.4594 49.3735 45.5102 49.4049C45.5633 49.4363 45.6382 49.452 45.7348 49.452C45.8073 49.452 45.9027 49.4436 46.0211 49.4266Z" fill="black"/>
<path d="M40.5391 51.4853V46.1622H41.1333V46.6622C41.2735 46.4665 41.4317 46.3204 41.608 46.2238C41.7844 46.1247 41.9982 46.0752 42.2494 46.0752C42.578 46.0752 42.8679 46.1597 43.1191 46.3288C43.3703 46.498 43.56 46.7371 43.688 47.0463C43.816 47.3531 43.8801 47.6901 43.8801 48.0573C43.8801 48.4511 43.8088 48.8062 43.6663 49.1227C43.5261 49.4367 43.3208 49.6783 43.0502 49.8474C42.7821 50.0141 42.4994 50.0974 42.2023 50.0974C41.9849 50.0974 41.7892 50.0515 41.6153 49.9597C41.4438 49.8679 41.3024 49.752 41.1913 49.6119V51.4853H40.5391ZM41.1297 48.1081C41.1297 48.6033 41.23 48.9693 41.4305 49.206C41.631 49.4428 41.8738 49.5611 42.1588 49.5611C42.4487 49.5611 42.6963 49.4391 42.9017 49.1951C43.1094 48.9487 43.2133 48.5683 43.2133 48.0537C43.2133 47.5633 43.1118 47.1961 42.9089 46.9521C42.7084 46.7081 42.468 46.5861 42.1878 46.5861C41.91 46.5861 41.6636 46.7166 41.4486 46.9775C41.236 47.236 41.1297 47.6128 41.1297 48.1081Z" fill="black"/>
<path d="M39.1174 48.7712L39.7914 48.8545C39.6851 49.2483 39.4882 49.5539 39.2008 49.7713C38.9133 49.9887 38.5461 50.0974 38.0992 50.0974C37.5363 50.0974 37.0894 49.9247 36.7584 49.5793C36.4299 49.2314 36.2656 48.7446 36.2656 48.1189C36.2656 47.4715 36.4323 46.969 36.7657 46.6115C37.0991 46.254 37.5315 46.0752 38.0629 46.0752C38.5775 46.0752 38.9978 46.2503 39.324 46.6006C39.6501 46.9509 39.8132 47.4437 39.8132 48.0791C39.8132 48.1177 39.812 48.1757 39.8095 48.253H36.9396C36.9638 48.6758 37.0834 48.9995 37.2984 49.2241C37.5134 49.4488 37.7815 49.5611 38.1028 49.5611C38.342 49.5611 38.5461 49.4983 38.7152 49.3727C38.8843 49.2471 39.0184 49.0466 39.1174 48.7712ZM36.9759 47.7167H39.1247C39.0957 47.393 39.0135 47.1502 38.8783 46.9884C38.6705 46.7371 38.4012 46.6115 38.0702 46.6115C37.7706 46.6115 37.5182 46.7117 37.3129 46.9123C37.1099 47.1128 36.9976 47.3809 36.9759 47.7167Z" fill="black"/>
<path d="M35.3589 48.6009L36.0003 48.6842C35.9302 49.1263 35.7503 49.473 35.4604 49.7242C35.1729 49.973 34.819 50.0974 34.3987 50.0974C33.872 50.0974 33.4481 49.9259 33.1268 49.5829C32.8079 49.2374 32.6484 48.7434 32.6484 48.1008C32.6484 47.6853 32.7173 47.3217 32.855 47.0101C32.9927 46.6985 33.2016 46.4653 33.4819 46.3107C33.7645 46.1537 34.0713 46.0752 34.4023 46.0752C34.8202 46.0752 35.162 46.1815 35.4278 46.3941C35.6935 46.6042 35.8638 46.9038 35.9387 47.2927L35.3046 47.3906C35.2442 47.1321 35.1367 46.9376 34.9821 46.8072C34.8299 46.6767 34.6451 46.6115 34.4276 46.6115C34.0991 46.6115 33.8322 46.7299 33.6268 46.9666C33.4215 47.2009 33.3188 47.573 33.3188 48.0827C33.3188 48.5997 33.4179 48.9753 33.6159 49.2096C33.814 49.444 34.0725 49.5611 34.3914 49.5611C34.6475 49.5611 34.8613 49.4826 35.0328 49.3256C35.2043 49.1686 35.313 48.927 35.3589 48.6009Z" fill="black"/>
<path d="M31.426 48.7712L32.1 48.8545C31.9937 49.2483 31.7968 49.5539 31.5094 49.7713C31.2219 49.9887 30.8547 50.0974 30.4078 50.0974C29.8449 50.0974 29.398 49.9247 29.067 49.5793C28.7385 49.2314 28.5742 48.7446 28.5742 48.1189C28.5742 47.4715 28.7409 46.969 29.0743 46.6115C29.4077 46.254 29.8401 46.0752 30.3715 46.0752C30.8861 46.0752 31.3064 46.2503 31.6326 46.6006C31.9587 46.9509 32.1218 47.4437 32.1218 48.0791C32.1218 48.1177 32.1205 48.1757 32.1181 48.253H29.2482C29.2724 48.6758 29.392 48.9995 29.607 49.2241C29.822 49.4488 30.0901 49.5611 30.4114 49.5611C30.6506 49.5611 30.8547 49.4983 31.0238 49.3727C31.1929 49.2471 31.327 49.0466 31.426 48.7712ZM29.2845 47.7167H31.4333C31.4043 47.393 31.3221 47.1502 31.1869 46.9884C30.9791 46.7371 30.7097 46.6115 30.3788 46.6115C30.0792 46.6115 29.8268 46.7117 29.6214 46.9123C29.4185 47.1128 29.3062 47.3809 29.2845 47.7167Z" fill="black"/>
<path d="M23.5938 50.0105V44.6982H25.9491C26.4226 44.6982 26.7825 44.7466 27.029 44.8432C27.2754 44.9374 27.4722 45.1053 27.6196 45.3469C27.767 45.5884 27.8406 45.8554 27.8406 46.1477C27.8406 46.5246 27.7187 46.8422 27.4747 47.1007C27.2307 47.3592 26.8538 47.5235 26.3441 47.5935C26.5301 47.6829 26.6714 47.7711 26.7681 47.8581C26.9734 48.0465 27.1679 48.282 27.3515 48.5647L28.2755 50.0105H27.3913L26.6883 48.9053C26.483 48.5864 26.3139 48.3424 26.181 48.1733C26.0482 48.0042 25.9286 47.8858 25.8223 47.8182C25.7184 47.7506 25.6121 47.7034 25.5034 47.6769C25.4237 47.66 25.2932 47.6515 25.1121 47.6515H24.2967V50.0105H23.5938ZM24.2967 47.0427H25.8078C26.1291 47.0427 26.3803 47.0101 26.5615 46.9449C26.7427 46.8773 26.8804 46.771 26.9746 46.626C27.0688 46.4787 27.1159 46.3192 27.1159 46.1477C27.1159 45.8965 27.0241 45.6899 26.8405 45.5281C26.6593 45.3662 26.3719 45.2853 25.9781 45.2853H24.2967V47.0427Z" fill="black"/>
<path d="M19.7188 50.0105V44.6982H20.4217V50.0105H19.7188Z" fill="black"/>
<path d="M14.1406 50.0105L16.1807 44.6982H16.9381L19.1123 50.0105H18.3114L17.6918 48.4016H15.4705L14.8871 50.0105H14.1406ZM15.6734 47.8291H17.4744L16.92 46.3579C16.7509 45.911 16.6252 45.5438 16.5431 45.2563C16.4755 45.5969 16.38 45.9351 16.2568 46.2709L15.6734 47.8291Z" fill="black"/>
<path d="M11.6448 48.7712L12.3188 48.8545C12.2125 49.2483 12.0156 49.5539 11.7281 49.7713C11.4406 49.9887 11.0734 50.0974 10.6265 50.0974C10.0637 50.0974 9.61674 49.9247 9.28578 49.5793C8.95724 49.2314 8.79297 48.7446 8.79297 48.1189C8.79297 47.4715 8.95966 46.969 9.29303 46.6115C9.6264 46.254 10.0588 46.0752 10.5903 46.0752C11.1048 46.0752 11.5252 46.2503 11.8513 46.6006C12.1774 46.9509 12.3405 47.4437 12.3405 48.0791C12.3405 48.1177 12.3393 48.1757 12.3369 48.253H9.46696C9.49112 48.6758 9.6107 48.9995 9.8257 49.2241C10.0407 49.4488 10.3089 49.5611 10.6302 49.5611C10.8693 49.5611 11.0734 49.4983 11.2425 49.3727C11.4116 49.2471 11.5457 49.0466 11.6448 48.7712ZM9.5032 47.7167H11.652C11.623 47.393 11.5409 47.1502 11.4056 46.9884C11.1979 46.7371 10.9285 46.6115 10.5975 46.6115C10.298 46.6115 10.0455 46.7117 9.8402 46.9123C9.63728 47.1128 9.52494 47.3809 9.5032 47.7167Z" fill="black"/>
<path d="M4.95312 50.0105V44.6982H5.60538V46.6043C5.90976 46.2516 6.29387 46.0752 6.75769 46.0752C7.04275 46.0752 7.29037 46.132 7.50054 46.2455C7.71071 46.3567 7.86049 46.5113 7.94987 46.7094C8.04167 46.9075 8.08757 47.1949 8.08757 47.5718V50.0105H7.43531V47.5718C7.43531 47.2457 7.36405 47.0089 7.22152 46.8616C7.08141 46.7118 6.88211 46.6369 6.62362 46.6369C6.43036 46.6369 6.24797 46.6876 6.07645 46.7891C5.90735 46.8881 5.78656 47.0234 5.71409 47.1949C5.64162 47.3664 5.60538 47.6032 5.60538 47.9052V50.0105H4.95312Z" fill="black"/>
<path d="M1.92209 50.0105V45.3251H0.171875V44.6982H4.38254V45.3251H2.62508V50.0105H1.92209Z" fill="black"/>
<rect x="158.32" y="17.1445" width="25.5685" height="23.6175" rx="4" fill="#6524EB"/>
<path d="M180.064 28.5602C180.064 28.8878 180.116 29.3824 180.064 29.6984C178.211 38.5415 169.251 40.1263 168.331 39.636C168.244 39.5893 169.251 37.4513 168.944 36.8342C165.836 36.8342 162.027 31.8873 162.027 29.0855C162.027 25.0809 165.758 21.4375 170.741 21.4375C175.724 21.4375 180.064 24.5556 180.064 28.5602Z" fill="white"/>
<path d="M179.854 28.8619C179.854 24.8573 175.99 21.6109 171.007 21.6109C166.024 21.6109 161.985 24.8573 161.985 28.8619L161.986 28.9557C162.038 32.2611 165.542 35.8215 169.342 36.6491C169.517 36.6872 168.858 39.1965 168.858 39.1965L170.04 38.8901C170.04 38.8901 177.876 37.7081 179.671 30.3223C179.779 29.8789 179.846 29.4232 179.854 28.9557L179.854 28.8619ZM180.905 28.8619C180.905 29.4057 180.823 29.9292 180.722 30.4409C178.945 39.4592 167.503 40.7287 167.503 40.7287C167.503 40.7287 168.372 37.3916 168.16 37.3141C164.436 35.9569 161.109 32.8054 161.109 28.8619C161.109 24.2048 165.729 20.7354 171.007 20.7354C176.285 20.7354 180.905 24.2048 180.905 28.8619Z" fill="#6524EB"/>
<path d="M166.619 39.5803C169.344 39.475 172.127 39.0442 174.018 38.0972C178.581 35.8126 179.837 33.0879 180.253 30.0123L168.407 35.0011L166.619 39.5803Z" fill="white"/>
<ellipse cx="173.324" cy="29.8301" rx="6.74178" ry="7.66111" fill="white"/>
<ellipse cx="171.107" cy="29.5698" rx="9.08759" ry="7.90672" fill="white"/>
<rect x="164.043" y="25.6436" width="11.181" height="5.75654" rx="2.87827" fill="#6524EB"/>
<rect x="165.484" y="27.082" width="1.43913" height="2.87827" rx="0.719567" fill="white"/>
<rect x="167.805" y="27.082" width="1.43913" height="2.87827" rx="0.719567" fill="white"/>
<path d="M172.36 17.1328C172.36 17.979 171.693 18.665 170.871 18.665C170.049 18.665 169.383 17.979 169.383 17.1328C169.383 16.2866 170.049 15.6006 170.871 15.6006C171.693 15.6006 172.36 16.2866 172.36 17.1328Z" fill="white"/>
<path d="M172.341 17.1762C172.341 16.3777 171.704 15.7279 170.91 15.7078L170.873 15.7073C170.061 15.7073 169.404 16.365 169.404 17.1762L169.404 17.2141C169.424 17.9952 170.053 18.6248 170.835 18.6446L170.873 18.6451C171.671 18.645 172.321 18.0078 172.341 17.2141L172.341 17.1762ZM173.061 17.1762C173.061 18.3851 172.081 19.3651 170.873 19.3651C169.664 19.3651 168.684 18.3851 168.684 17.1762C168.684 15.9673 169.664 14.9873 170.873 14.9873C172.081 14.9873 173.061 15.9673 173.061 17.1762Z" fill="#6524EB"/>
<path d="M171.486 18.665L171.832 21.6419H169.73L170.212 18.665H171.486ZM170.674 19.1478L170.348 21.1592H171.239L171.005 19.1478H170.674Z" fill="#6524EB"/>
<path d="M170.696 18.9277H171.034L171.398 21.7295H170.172L170.696 18.9277Z" fill="white"/>
</svg>
