<svg width="168" height="48" viewBox="0 0 168 48" fill="none" xmlns="http://www.w3.org/2000/svg">
<path d="M117.759 27.6981C117.759 28.5011 118.038 29.1819 118.597 29.7405C119.191 30.2991 119.889 30.5784 120.692 30.5784H125.772V36.6533H120.692C119.33 36.6533 118.038 36.4089 116.817 35.9201C115.629 35.3964 114.582 34.6982 113.674 33.8254C112.802 32.9176 112.103 31.8702 111.58 30.6832C111.056 29.4961 110.794 28.2218 110.794 26.8602V19.0048H107.023V13.1918H110.794V3.71289H117.759V27.6981Z" fill="white"/>
<path d="M90.6568 10.0479C92.5421 10.0479 94.3226 10.4144 95.9984 11.1476C97.6743 11.8459 99.1232 12.8234 100.345 14.0803C101.602 15.3023 102.58 16.7337 103.278 18.3746C104.011 20.0155 104.378 21.7786 104.378 23.6639C104.378 25.5841 104.011 27.3822 103.278 29.058C102.58 30.7338 101.602 32.2002 100.345 33.457C99.1232 34.679 97.6743 35.6565 95.9984 36.3897C94.3226 37.088 92.5421 37.4371 90.6568 37.4371C88.0732 37.4371 85.926 36.7388 84.2153 35.3423V35.29L86.8338 30.472L86.8862 30.5243C87.8288 30.9433 88.7889 31.1528 89.7665 31.1528C90.779 31.1528 91.7391 30.9607 92.6468 30.5767C93.5545 30.1927 94.3401 29.669 95.0034 29.0056C95.7017 28.3074 96.2428 27.5044 96.6269 26.5966C97.0109 25.6889 97.2029 24.7113 97.2029 23.6639C97.2029 22.6514 97.0109 21.7088 96.6269 20.836C96.2428 19.9282 95.7017 19.1427 95.0034 18.4793C94.3401 17.816 93.5545 17.2923 92.6468 16.9083C91.7391 16.5242 90.779 16.3322 89.7665 16.3322C88.7191 16.3322 87.7415 16.5242 86.8338 16.9083C85.961 17.2923 85.1929 17.816 84.5295 18.4793C83.8662 19.1427 83.3425 19.9282 82.9584 20.836C82.5744 21.7088 82.3824 22.6514 82.3824 23.6639V47.1255H75.3125V10.4668H82.3824V14.0279C84.2677 11.3745 87.0258 10.0479 90.6568 10.0479Z" fill="white"/>
<path d="M44.9531 36.6525L51.9706 27.1213L58.3597 30.054L53.4894 36.6525H44.9531ZM63.073 23.6649L72.709 36.6525H64.1204V36.6001L54.5891 23.7173L45.0055 10.4678H53.4894L58.7787 19.3706L64.1204 10.4678H72.709L72.6042 10.5201L63.073 23.6649Z" fill="white"/>
<path d="M33.3583 10.0479C35.2086 10.0479 36.9543 10.4144 38.5952 11.1476C40.2361 11.8459 41.6676 12.806 42.8895 14.0279C44.1115 15.2499 45.0716 16.6813 45.7698 18.3222C46.503 19.9631 46.8696 21.7263 46.8696 23.6116C46.8696 24.624 46.7648 25.6016 46.5554 26.5442L46.503 26.649H33.2011L29.8495 21.3073H39.7997C39.3109 19.8409 38.4905 18.6365 37.3383 17.6938C36.2211 16.7511 34.8944 16.2798 33.3583 16.2798C32.4156 16.2798 31.5253 16.4718 30.6874 16.8559C29.8495 17.2399 29.1163 17.7636 28.4879 18.427C27.8944 19.0554 27.423 19.8235 27.0739 20.7312C26.7248 21.6041 26.5502 22.5642 26.5502 23.6116C26.5502 24.4146 26.7073 25.2525 27.0215 26.1253C27.3358 26.9632 27.7896 27.7313 28.3832 28.4295C28.9767 29.1278 29.6924 29.7213 30.5303 30.2101C31.3682 30.664 32.3109 30.8909 33.3583 30.8909C34.3009 30.8909 35.1563 30.7687 35.9244 30.5243C36.7274 30.245 37.478 29.6515 38.1763 28.7438L38.2286 28.6914L38.3334 28.7438L44.4082 31.4146L44.3035 31.5193C43.0466 33.265 41.4406 34.6266 39.4855 35.6042C37.5653 36.5817 35.5229 37.0705 33.3583 37.0705C31.473 37.0705 29.6924 36.7214 28.0166 36.0231C26.3757 35.3249 24.9442 34.3648 23.7223 33.1428C22.5003 31.9208 21.5228 30.4894 20.7896 28.8485C20.0913 27.2076 19.7422 25.4619 19.7422 23.6116C19.7422 21.7263 20.0913 19.9631 20.7896 18.3222C21.5228 16.6813 22.5003 15.2499 23.7223 14.0279C24.9442 12.806 26.3757 11.8459 28.0166 11.1476C29.6924 10.4144 31.473 10.0479 33.3583 10.0479Z" fill="white"/>
<path d="M21.3668 11.5142L20.7383 12.5616L18.0675 17.3272L18.0151 17.2748C16.863 16.6115 15.6236 16.2798 14.2969 16.2798C13.3891 16.2798 12.5338 16.4369 11.7308 16.7511C10.9278 17.0304 10.2121 17.4494 9.58362 18.008C8.95518 18.5317 8.41403 19.1601 7.96016 19.8933C7.54121 20.6265 7.2619 21.412 7.12225 22.2499V36.6515H0V10.4668H7.12225V13.8708C8.97264 11.3222 11.6784 10.0479 15.2395 10.0479C17.3343 10.0479 19.3593 10.5366 21.3144 11.5142H21.3668Z" fill="white"/>
<path d="M118.094 13.1387H124.509V19.0302L118.094 13.1387Z" fill="white"/>
<path d="M71.6502 43.2943L72.1972 43.3619C72.1109 43.6815 71.9512 43.9295 71.7179 44.1059C71.4846 44.2824 71.1866 44.3706 70.8239 44.3706C70.3671 44.3706 70.0044 44.2304 69.7359 43.9501C69.4692 43.6678 69.3359 43.2727 69.3359 42.765C69.3359 42.2396 69.4712 41.8318 69.7417 41.5417C70.0123 41.2515 70.3632 41.1064 70.7945 41.1064C71.2121 41.1064 71.5532 41.2486 71.8179 41.5328C72.0825 41.8171 72.2149 42.217 72.2149 42.7326C72.2149 42.764 72.2139 42.8111 72.2119 42.8738H69.8829C69.9025 43.2169 69.9995 43.4796 70.174 43.6619C70.3485 43.8442 70.5661 43.9354 70.8269 43.9354C71.0209 43.9354 71.1866 43.8844 71.3238 43.7825C71.4611 43.6805 71.5699 43.5178 71.6502 43.2943ZM69.9123 42.4386H71.6561C71.6326 42.1759 71.5659 41.9788 71.4562 41.8475C71.2876 41.6436 71.069 41.5417 70.8004 41.5417C70.5573 41.5417 70.3524 41.623 70.1858 41.7857C70.0211 41.9485 69.93 42.1661 69.9123 42.4386Z" fill="white"/>
<path d="M68.602 43.1561L69.1225 43.2237C69.0656 43.5825 68.9196 43.8638 68.6843 44.0677C68.451 44.2696 68.1638 44.3706 67.8227 44.3706C67.3953 44.3706 67.0513 44.2314 66.7905 43.953C66.5317 43.6727 66.4023 43.2718 66.4023 42.7503C66.4023 42.4131 66.4582 42.118 66.57 41.8651C66.6817 41.6122 66.8513 41.4231 67.0787 41.2976C67.3081 41.1702 67.557 41.1064 67.8256 41.1064C68.1648 41.1064 68.4422 41.1927 68.6578 41.3652C68.8735 41.5358 69.0117 41.7789 69.0725 42.0945L68.5579 42.1739C68.5088 41.9641 68.4216 41.8063 68.2961 41.7005C68.1726 41.5946 68.0227 41.5417 67.8462 41.5417C67.5796 41.5417 67.363 41.6377 67.1963 41.8299C67.0297 42.02 66.9464 42.3219 66.9464 42.7356C66.9464 43.1551 67.0267 43.46 67.1875 43.6501C67.3483 43.8403 67.558 43.9354 67.8168 43.9354C68.0246 43.9354 68.1981 43.8717 68.3373 43.7442C68.4765 43.6168 68.5647 43.4208 68.602 43.1561Z" fill="white"/>
<path d="M65.2812 40.597V39.9883H65.8106V40.597H65.2812ZM65.2812 44.2993V41.1763H65.8106V44.2993H65.2812Z" fill="white"/>
<path d="M63.1958 44.2988L62.0078 41.1758H62.5665L63.237 43.046C63.3095 43.248 63.3762 43.4577 63.437 43.6754C63.484 43.5107 63.5497 43.3127 63.634 43.0813L64.328 41.1758H64.872L63.6899 44.2988H63.1958Z" fill="white"/>
<path d="M60.3789 44.3V41.177H60.8553V41.6505C60.9768 41.4289 61.0886 41.2829 61.1905 41.2123C61.2944 41.1417 61.4081 41.1064 61.5316 41.1064C61.71 41.1064 61.8914 41.1633 62.0757 41.277L61.8934 41.7681C61.764 41.6916 61.6346 41.6534 61.5052 41.6534C61.3895 41.6534 61.2856 41.6887 61.1935 41.7593C61.1013 41.8279 61.0357 41.924 60.9964 42.0475C60.9376 42.2357 60.9082 42.4415 60.9082 42.665V44.3H60.3789Z" fill="white"/>
<path d="M59.2323 43.2943L59.7792 43.3619C59.693 43.6815 59.5332 43.9295 59.2999 44.1059C59.0666 44.2824 58.7686 44.3706 58.4059 44.3706C57.9492 44.3706 57.5865 44.2304 57.3179 43.9501C57.0513 43.6678 56.918 43.2727 56.918 42.765C56.918 42.2396 57.0532 41.8318 57.3238 41.5417C57.5943 41.2515 57.9452 41.1064 58.3765 41.1064C58.7941 41.1064 59.1352 41.2486 59.3999 41.5328C59.6646 41.8171 59.7969 42.217 59.7969 42.7326C59.7969 42.764 59.7959 42.8111 59.7939 42.8738H57.4649C57.4845 43.2169 57.5816 43.4796 57.7561 43.6619C57.9305 43.8442 58.1481 43.9354 58.4089 43.9354C58.603 43.9354 58.7686 43.8844 58.9059 43.7825C59.0431 43.6805 59.1519 43.5178 59.2323 43.2943ZM57.4943 42.4386H59.2382C59.2146 42.1759 59.148 41.9788 59.0382 41.8475C58.8696 41.6436 58.651 41.5417 58.3824 41.5417C58.1393 41.5417 57.9345 41.623 57.7678 41.7857C57.6031 41.9485 57.512 42.1661 57.4943 42.4386Z" fill="white"/>
<path d="M53.0117 42.9135L53.5499 42.8665C53.5753 43.0821 53.6342 43.2596 53.7263 43.3988C53.8204 43.536 53.9655 43.6477 54.1615 43.734C54.3576 43.8183 54.5781 43.8604 54.8232 43.8604C55.0408 43.8604 55.2329 43.8281 55.3995 43.7634C55.5662 43.6987 55.6897 43.6105 55.7701 43.4987C55.8524 43.385 55.8936 43.2615 55.8936 43.1282C55.8936 42.9929 55.8544 42.8753 55.7759 42.7753C55.6975 42.6734 55.5681 42.5881 55.3878 42.5195C55.2721 42.4744 55.0163 42.4048 54.6203 42.3107C54.2243 42.2146 53.9469 42.1245 53.7881 42.0402C53.5822 41.9323 53.4283 41.799 53.3264 41.6402C53.2264 41.4795 53.1764 41.3001 53.1764 41.1021C53.1764 40.8845 53.2382 40.6816 53.3617 40.4934C53.4852 40.3032 53.6655 40.1591 53.9027 40.0611C54.14 39.9631 54.4036 39.9141 54.6938 39.9141C55.0133 39.9141 55.2947 39.966 55.5378 40.0699C55.7828 40.1719 55.971 40.3228 56.1024 40.5228C56.2337 40.7227 56.3043 40.9492 56.3141 41.2021L55.7671 41.2432C55.7377 40.9707 55.6377 40.7649 55.4672 40.6257C55.2986 40.4865 55.0486 40.4169 54.7173 40.4169C54.3723 40.4169 54.1204 40.4806 53.9616 40.6081C53.8047 40.7335 53.7263 40.8855 53.7263 41.0639C53.7263 41.2187 53.7822 41.3462 53.8939 41.4462C54.0037 41.5461 54.2899 41.6491 54.7526 41.7549C55.2172 41.8588 55.5358 41.95 55.7083 42.0284C55.9593 42.1441 56.1445 42.2911 56.2641 42.4695C56.3837 42.6459 56.4435 42.8498 56.4435 43.0812C56.4435 43.3105 56.3778 43.5272 56.2465 43.7311C56.1151 43.933 55.9259 44.0908 55.6789 44.2045C55.4339 44.3162 55.1574 44.3721 54.8496 44.3721C54.4595 44.3721 54.1321 44.3153 53.8675 44.2016C53.6048 44.0879 53.3979 43.9173 53.247 43.6899C53.098 43.4605 53.0196 43.2017 53.0117 42.9135Z" fill="white"/>
<path d="M51.0601 43.8255L51.1365 44.2931C50.9876 44.3244 50.8542 44.3401 50.7366 44.3401C50.5445 44.3401 50.3955 44.3097 50.2896 44.249C50.1838 44.1882 50.1093 44.1088 50.0661 44.0108C50.023 43.9108 50.0014 43.702 50.0014 43.3844V41.5876H49.6133V41.1759H50.0014V40.4026L50.5278 40.085V41.1759H51.0601V41.5876H50.5278V43.4138C50.5278 43.5648 50.5367 43.6618 50.5543 43.7049C50.5739 43.7481 50.6043 43.7824 50.6455 43.8079C50.6886 43.8333 50.7494 43.8461 50.8278 43.8461C50.8866 43.8461 50.964 43.8392 51.0601 43.8255Z" fill="white"/>
<path d="M46.7422 43.3678L47.2656 43.2855C47.295 43.4952 47.3764 43.656 47.5097 43.7678C47.645 43.8795 47.8332 43.9354 48.0743 43.9354C48.3174 43.9354 48.4978 43.8864 48.6154 43.7883C48.733 43.6884 48.7918 43.5717 48.7918 43.4384C48.7918 43.3188 48.7399 43.2247 48.636 43.1561C48.5634 43.109 48.3831 43.0492 48.0949 42.9767C47.7067 42.8787 47.4372 42.7944 47.2862 42.7238C47.1372 42.6513 47.0235 42.5523 46.9451 42.4268C46.8686 42.2994 46.8304 42.1592 46.8304 42.0063C46.8304 41.8671 46.8618 41.7387 46.9245 41.6211C46.9892 41.5015 47.0764 41.4025 47.1862 41.3241C47.2686 41.2633 47.3803 41.2123 47.5215 41.1711C47.6646 41.128 47.8175 41.1064 47.9802 41.1064C48.2253 41.1064 48.4399 41.1417 48.6242 41.2123C48.8105 41.2829 48.9477 41.3789 49.0359 41.5005C49.1241 41.6201 49.1849 41.7808 49.2182 41.9828L48.7007 42.0533C48.6771 41.8926 48.6085 41.7671 48.4948 41.6769C48.3831 41.5868 48.2243 41.5417 48.0184 41.5417C47.7753 41.5417 47.6018 41.5819 47.4979 41.6622C47.394 41.7426 47.3421 41.8367 47.3421 41.9445C47.3421 42.0132 47.3636 42.0749 47.4068 42.1298C47.4499 42.1867 47.5175 42.2337 47.6097 42.271C47.6626 42.2906 47.8185 42.3356 48.0773 42.4062C48.4517 42.5062 48.7124 42.5885 48.8595 42.6532C49.0085 42.716 49.1251 42.8081 49.2094 42.9297C49.2937 43.0512 49.3359 43.2022 49.3359 43.3825C49.3359 43.559 49.2839 43.7256 49.18 43.8824C49.0781 44.0373 48.93 44.1579 48.736 44.2441C48.5419 44.3284 48.3223 44.3706 48.0773 44.3706C47.6714 44.3706 47.3617 44.2863 47.148 44.1177C46.9363 43.9491 46.801 43.6991 46.7422 43.3678Z" fill="white"/>
<path d="M45.6719 40.597V39.9883H46.2012V40.597H45.6719ZM45.6719 44.2993V41.1763H46.2012V44.2993H45.6719Z" fill="white"/>
<path d="M42.3789 44.3V41.177H42.8553V41.6211C43.0847 41.278 43.416 41.1064 43.8492 41.1064C44.0374 41.1064 44.21 41.1408 44.3668 41.2094C44.5256 41.276 44.6442 41.3642 44.7226 41.474C44.801 41.5838 44.8559 41.7142 44.8873 41.8651C44.9069 41.9632 44.9167 42.1347 44.9167 42.3798V44.3H44.3874V42.4003C44.3874 42.1847 44.3668 42.0239 44.3256 41.9181C44.2845 41.8102 44.2109 41.725 44.1051 41.6622C44.0012 41.5975 43.8786 41.5652 43.7375 41.5652C43.512 41.5652 43.317 41.6367 43.1523 41.7799C42.9896 41.923 42.9082 42.1945 42.9082 42.5944V44.3H42.3789Z" fill="white"/>
<path d="M38.8906 42.7385C38.8906 42.1602 39.0514 41.7318 39.3729 41.4534C39.6415 41.2221 39.9689 41.1064 40.3551 41.1064C40.7844 41.1064 41.1353 41.2476 41.4078 41.5299C41.6803 41.8102 41.8166 42.1984 41.8166 42.6944C41.8166 43.0963 41.7558 43.4129 41.6343 43.6442C41.5147 43.8736 41.3392 44.052 41.1079 44.1794C40.8785 44.3069 40.6276 44.3706 40.3551 44.3706C39.9179 44.3706 39.564 44.2304 39.2935 43.9501C39.0249 43.6697 38.8906 43.2659 38.8906 42.7385ZM39.4346 42.7385C39.4346 43.1384 39.5219 43.4384 39.6964 43.6384C39.8708 43.8364 40.0904 43.9354 40.3551 43.9354C40.6178 43.9354 40.8364 43.8354 41.0108 43.6354C41.1853 43.4355 41.2726 43.1306 41.2726 42.7209C41.2726 42.3347 41.1843 42.0426 41.0079 41.8446C40.8334 41.6446 40.6158 41.5446 40.3551 41.5446C40.0904 41.5446 39.8708 41.6436 39.6964 41.8416C39.5219 42.0396 39.4346 42.3386 39.4346 42.7385Z" fill="white"/>
<path d="M37.8047 40.597V39.9883H38.334V40.597H37.8047ZM37.8047 44.2993V41.1763H38.334V44.2993H37.8047Z" fill="white"/>
<path d="M37.3452 43.8255L37.4217 44.2931C37.2727 44.3244 37.1394 44.3401 37.0218 44.3401C36.8296 44.3401 36.6807 44.3097 36.5748 44.249C36.4689 44.1882 36.3944 44.1088 36.3513 44.0108C36.3082 43.9108 36.2866 43.702 36.2866 43.3844V41.5876H35.8984V41.1759H36.2866V40.4026L36.813 40.085V41.1759H37.3452V41.5876H36.813V43.4138C36.813 43.5648 36.8218 43.6618 36.8395 43.7049C36.8591 43.7481 36.8894 43.7824 36.9306 43.8079C36.9737 43.8333 37.0345 43.8461 37.1129 43.8461C37.1717 43.8461 37.2492 43.8392 37.3452 43.8255Z" fill="white"/>
<path d="M32.8984 45.4969V41.177H33.3807V41.5828C33.4944 41.424 33.6228 41.3054 33.7659 41.227C33.909 41.1466 34.0825 41.1064 34.2864 41.1064C34.5531 41.1064 34.7883 41.1751 34.9922 41.3123C35.1961 41.4495 35.35 41.6436 35.4539 41.8945C35.5578 42.1435 35.6097 42.417 35.6097 42.715C35.6097 43.0345 35.5519 43.3227 35.4362 43.5795C35.3225 43.8344 35.1559 44.0305 34.9363 44.1677C34.7187 44.303 34.4893 44.3706 34.2482 44.3706C34.0718 44.3706 33.913 44.3333 33.7718 44.2588C33.6326 44.1843 33.5179 44.0902 33.4278 43.9765V45.4969H32.8984ZM33.3778 42.7562C33.3778 43.1581 33.4591 43.4551 33.6218 43.6472C33.7846 43.8393 33.9816 43.9354 34.2129 43.9354C34.4482 43.9354 34.6491 43.8364 34.8158 43.6384C34.9844 43.4384 35.0687 43.1296 35.0687 42.7121C35.0687 42.3141 34.9863 42.0161 34.8216 41.8181C34.6589 41.6201 34.4639 41.5211 34.2364 41.5211C34.011 41.5211 33.811 41.6269 33.6365 41.8387C33.464 42.0484 33.3778 42.3543 33.3778 42.7562Z" fill="white"/>
<path d="M31.744 43.2943L32.291 43.3619C32.2047 43.6815 32.0449 43.9295 31.8116 44.1059C31.5783 44.2824 31.2803 44.3706 30.9177 44.3706C30.4609 44.3706 30.0982 44.2304 29.8296 43.9501C29.563 43.6678 29.4297 43.2727 29.4297 42.765C29.4297 42.2396 29.565 41.8318 29.8355 41.5417C30.106 41.2515 30.457 41.1064 30.8883 41.1064C31.3058 41.1064 31.647 41.2486 31.9116 41.5328C32.1763 41.8171 32.3086 42.217 32.3086 42.7326C32.3086 42.764 32.3076 42.8111 32.3057 42.8738H29.9767C29.9963 43.2169 30.0933 43.4796 30.2678 43.6619C30.4423 43.8442 30.6599 43.9354 30.9206 43.9354C31.1147 43.9354 31.2803 43.8844 31.4176 43.7825C31.5548 43.6805 31.6636 43.5178 31.744 43.2943ZM30.0061 42.4386H31.7499C31.7264 42.1759 31.6597 41.9788 31.5499 41.8475C31.3813 41.6436 31.1627 41.5417 30.8941 41.5417C30.651 41.5417 30.4462 41.623 30.2795 41.7857C30.1149 41.9485 30.0237 42.1661 30.0061 42.4386Z" fill="white"/>
<path d="M28.6957 43.1561L29.2162 43.2237C29.1594 43.5825 29.0133 43.8638 28.7781 44.0677C28.5448 44.2696 28.2576 44.3706 27.9164 44.3706C27.4891 44.3706 27.145 44.2314 26.8843 43.953C26.6255 43.6727 26.4961 43.2718 26.4961 42.7503C26.4961 42.4131 26.552 42.118 26.6637 41.8651C26.7755 41.6122 26.945 41.4231 27.1724 41.2976C27.4018 41.1702 27.6508 41.1064 27.9194 41.1064C28.2585 41.1064 28.5359 41.1927 28.7516 41.3652C28.9672 41.5358 29.1054 41.7789 29.1662 42.0945L28.6516 42.1739C28.6026 41.9641 28.5154 41.8063 28.3899 41.7005C28.2664 41.5946 28.1164 41.5417 27.94 41.5417C27.6733 41.5417 27.4567 41.6377 27.2901 41.8299C27.1234 42.02 27.0401 42.3219 27.0401 42.7356C27.0401 43.1551 27.1205 43.46 27.2813 43.6501C27.442 43.8403 27.6518 43.9354 27.9106 43.9354C28.1184 43.9354 28.2919 43.8717 28.4311 43.7442C28.5702 43.6168 28.6585 43.4208 28.6957 43.1561Z" fill="white"/>
<path d="M25.5057 43.2943L26.0527 43.3619C25.9664 43.6815 25.8066 43.9295 25.5733 44.1059C25.3401 44.2824 25.0421 44.3706 24.6794 44.3706C24.2226 44.3706 23.8599 44.2304 23.5913 43.9501C23.3247 43.6678 23.1914 43.2727 23.1914 42.765C23.1914 42.2396 23.3267 41.8318 23.5972 41.5417C23.8678 41.2515 24.2187 41.1064 24.65 41.1064C25.0676 41.1064 25.4087 41.2486 25.6733 41.5328C25.938 41.8171 26.0703 42.217 26.0703 42.7326C26.0703 42.764 26.0693 42.8111 26.0674 42.8738H23.7384C23.758 43.2169 23.855 43.4796 24.0295 43.6619C24.204 43.8442 24.4216 43.9354 24.6823 43.9354C24.8764 43.9354 25.0421 43.8844 25.1793 43.7825C25.3165 43.6805 25.4253 43.5178 25.5057 43.2943ZM23.7678 42.4386H25.5116C25.4881 42.1759 25.4214 41.9788 25.3116 41.8475C25.143 41.6436 24.9244 41.5417 24.6559 41.5417C24.4128 41.5417 24.2079 41.623 24.0413 41.7857C23.8766 41.9485 23.7854 42.1661 23.7678 42.4386Z" fill="white"/>
<path d="M19.1445 44.2993V39.9883H21.056C21.4402 39.9883 21.7323 40.0275 21.9323 40.1059C22.1323 40.1824 22.292 40.3186 22.4116 40.5147C22.5312 40.7107 22.591 40.9273 22.591 41.1645C22.591 41.4704 22.492 41.7282 22.294 41.9379C22.096 42.1477 21.7902 42.281 21.3765 42.3379C21.5275 42.4104 21.6421 42.482 21.7206 42.5525C21.8872 42.7055 22.045 42.8966 22.194 43.126L22.9439 44.2993H22.2264L21.6559 43.4024C21.4892 43.1436 21.352 42.9456 21.2442 42.8084C21.1363 42.6712 21.0393 42.5751 20.953 42.5202C20.8687 42.4653 20.7825 42.4271 20.6943 42.4055C20.6296 42.3918 20.5237 42.3849 20.3767 42.3849H19.715V44.2993H19.1445ZM19.715 41.8909H20.9413C21.202 41.8909 21.4059 41.8644 21.5529 41.8115C21.7 41.7566 21.8117 41.6703 21.8882 41.5527C21.9646 41.4331 22.0029 41.3037 22.0029 41.1645C22.0029 40.9607 21.9284 40.793 21.7794 40.6617C21.6323 40.5303 21.399 40.4647 21.0795 40.4647H19.715V41.8909Z" fill="white"/>
<path d="M16.0039 44.2993V39.9883H16.5744V44.2993H16.0039Z" fill="white"/>
<path d="M11.4766 44.2993L13.1322 39.9883H13.7468L15.5112 44.2993H14.8613L14.3584 42.9936H12.5558L12.0823 44.2993H11.4766ZM12.7205 42.529H14.182L13.7321 41.3351C13.5948 40.9724 13.4929 40.6744 13.4262 40.4411C13.3713 40.7176 13.2939 40.992 13.1939 41.2645L12.7205 42.529Z" fill="white"/>
<path d="M9.45103 43.2943L9.99799 43.3619C9.91173 43.6815 9.75195 43.9295 9.51866 44.1059C9.28537 44.2824 8.98738 44.3706 8.6247 44.3706C8.16791 44.3706 7.80523 44.2304 7.53665 43.9501C7.27003 43.6678 7.13672 43.2727 7.13672 42.765C7.13672 42.2396 7.27199 41.8318 7.54253 41.5417C7.81307 41.2515 8.16399 41.1064 8.59529 41.1064C9.01287 41.1064 9.35398 41.2486 9.61864 41.5328C9.8833 41.8171 10.0156 42.217 10.0156 42.7326C10.0156 42.764 10.0147 42.8111 10.0127 42.8738H7.68368C7.70329 43.2169 7.80033 43.4796 7.97481 43.6619C8.14929 43.8442 8.3669 43.9354 8.62764 43.9354C8.82172 43.9354 8.98738 43.8844 9.12461 43.7825C9.26184 43.6805 9.37065 43.5178 9.45103 43.2943ZM7.71309 42.4386H9.45691C9.43338 42.1759 9.36673 41.9788 9.25694 41.8475C9.08834 41.6436 8.86975 41.5417 8.60117 41.5417C8.35808 41.5417 8.15321 41.623 7.98657 41.7857C7.82189 41.9485 7.73073 42.1661 7.71309 42.4386Z" fill="white"/>
<path d="M4.01953 44.2993V39.9883H4.54885V41.5351C4.79587 41.2488 5.10758 41.1057 5.48398 41.1057C5.71532 41.1057 5.91626 41.1518 6.08682 41.2439C6.25738 41.3341 6.37893 41.4596 6.45147 41.6204C6.52596 41.7811 6.56321 42.0144 6.56321 42.3202V44.2993H6.03389V42.3202C6.03389 42.0556 5.97606 41.8634 5.86039 41.7439C5.74668 41.6223 5.58495 41.5615 5.37518 41.5615C5.21834 41.5615 5.07033 41.6027 4.93114 41.685C4.79391 41.7654 4.69589 41.8752 4.63707 42.0144C4.57826 42.1536 4.54885 42.3457 4.54885 42.5908V44.2993H4.01953Z" fill="white"/>
<path d="M1.56097 44.2993V40.497H0.140625V39.9883H3.55768V40.497H2.13146V44.2993H1.56097Z" fill="white"/>
<rect x="128.48" y="3.30957" width="39.2378" height="36.2437" rx="18.1219" fill="#6524EB"/>
<path d="M161.847 20.8271C161.847 21.3298 161.927 22.0888 161.847 22.5738C159.004 36.1446 145.253 38.5766 143.842 37.8241C143.708 37.7525 145.253 34.4715 144.783 33.5245C140.013 33.5245 134.168 25.9329 134.168 21.6333C134.168 15.4877 139.893 9.89648 147.54 9.89648C155.187 9.89648 161.847 14.6815 161.847 20.8271Z" fill="white"/>
<path d="M161.52 21.2925C161.52 15.1469 155.59 10.1649 147.943 10.1649C140.296 10.1649 134.098 15.1469 134.098 21.2925L134.099 21.4363C134.179 26.5088 139.557 31.9727 145.387 33.2428C145.656 33.3013 144.645 37.152 144.645 37.152L146.459 36.6818C146.459 36.6818 158.485 34.8678 161.239 23.5336C161.405 22.8531 161.508 22.1538 161.519 21.4363L161.52 21.2925ZM163.133 21.2925C163.133 22.1269 163.007 22.9302 162.852 23.7156C160.125 37.5551 142.566 39.5034 142.566 39.5034C142.566 39.5034 143.9 34.3822 143.573 34.2632C137.86 32.1806 132.754 27.3441 132.754 21.2925C132.754 14.1456 139.843 8.8213 147.943 8.82129C156.043 8.82129 163.133 14.1456 163.133 21.2925Z" fill="#6524EB"/>
<path d="M141.22 37.7408C145.402 37.5791 149.673 36.918 152.575 35.4648C159.577 31.9587 161.506 27.7774 162.144 23.0576L143.964 30.7134L141.22 37.7408Z" fill="white"/>
<ellipse cx="151.502" cy="22.7764" rx="10.346" ry="11.7569" fill="white"/>
<ellipse cx="148.102" cy="22.376" rx="13.946" ry="12.1338" fill="white"/>
<rect x="137.262" y="16.3516" width="17.1585" height="8.83407" rx="4.41703" fill="#6524EB"/>
<rect x="139.469" y="18.5605" width="2.20852" height="4.41703" rx="1.10426" fill="white"/>
<rect x="143.039" y="18.5605" width="2.20852" height="4.41703" rx="1.10426" fill="white"/>
<path d="M150.022 3.2918C150.022 4.59043 148.999 5.64317 147.737 5.64317C146.476 5.64317 145.453 4.59043 145.453 3.2918C145.453 1.99317 146.476 0.94043 147.737 0.94043C148.999 0.94043 150.022 1.99317 150.022 3.2918Z" fill="white"/>
<path d="M149.992 3.35916C149.992 2.13369 149.014 1.1366 147.796 1.10573L147.738 1.10497C146.493 1.10497 145.484 2.11423 145.484 3.35916L145.485 3.41732C145.515 4.61599 146.481 5.58208 147.68 5.61248L147.738 5.61323C148.964 5.61321 149.961 4.63533 149.991 3.41732L149.992 3.35916ZM151.097 3.35916C151.097 5.21431 149.593 6.71818 147.738 6.7182C145.883 6.7182 144.379 5.21432 144.379 3.35916C144.379 1.50397 145.883 0 147.738 0C149.593 2.33511e-05 151.097 1.50398 151.097 3.35916Z" fill="#6524EB"/>
<path d="M148.687 5.64453L149.217 10.2129H145.992L146.731 5.64453H148.687ZM147.44 6.38535L146.94 9.47209H148.307L147.948 6.38535H147.44Z" fill="#6524EB"/>
<path d="M147.469 6.04492H147.988L148.545 10.3446H146.664L147.469 6.04492Z" fill="white"/>
</svg>
