<svg width="52" height="27" viewBox="0 0 52 27" fill="none" xmlns="http://www.w3.org/2000/svg">
<path d="M0.249999 13.5C0.25 12.8096 0.809644 12.25 1.5 12.25L46.8789 12.25C46.9799 12.2499 47.0707 12.189 47.1094 12.0957C47.148 12.0023 47.1271 11.8947 47.0557 11.8232L37.6162 2.38379C37.1281 1.89563 37.1281 1.10436 37.6162 0.616209C38.1044 0.128056 38.8956 0.128056 39.3838 0.616209L51.3838 12.6162C51.8719 13.1044 51.8719 13.8956 51.3838 14.3838L39.3838 26.3838C38.8956 26.8719 38.1044 26.8719 37.6162 26.3838C37.1281 25.8956 37.1281 25.1044 37.6162 24.6162L47.0557 15.1768C47.1271 15.1053 47.148 14.9977 47.1094 14.9043C47.0707 14.811 46.9799 14.7501 46.8789 14.75L1.5 14.75C0.809643 14.75 0.249999 14.1904 0.249999 13.5Z" fill="black" stroke="white" stroke-width="0.5" stroke-linecap="round" stroke-linejoin="round"/>
</svg>
