<svg width="149" height="149" viewBox="0 0 149 149" fill="none" xmlns="http://www.w3.org/2000/svg">
<ellipse cx="74.5" cy="74.5" rx="74.5" ry="74.5" transform="matrix(4.37114e-08 -1 -1 -4.37114e-08 149 149)" fill="#6524EB"/>
<path d="M38.2532 77.2877C38.2532 94.8145 54.4735 109.023 74.4821 109.023C94.4907 109.023 110.711 94.8145 110.711 77.2877C110.711 59.761 94.4907 45.5527 74.4821 45.5527C54.4735 45.5527 38.2532 59.761 38.2532 77.2877Z" fill="white"/>
<path d="M92.0874 117.425C81.255 117.139 70.2089 115.598 62.7314 112.019C46.0832 104.051 39.5509 89.1484 38.5317 81.0409L85.1826 99.7884L92.0874 117.425Z" fill="white"/>
<path d="M68.6067 27.7083C68.6067 31.087 71.2674 33.8259 74.5494 33.8259C77.8315 33.8259 80.4922 31.087 80.4922 27.7083C80.4922 24.3297 77.8315 21.5908 74.5494 21.5908C71.2674 21.5908 68.6067 24.3297 68.6067 27.7083Z" fill="white"/>
<path d="M68.6813 27.885C68.6813 24.6967 71.2254 22.1026 74.3944 22.0223L74.5457 22.0203C77.7846 22.0203 80.4104 24.6461 80.4104 27.885L80.4084 28.0363C80.3294 31.1549 77.8159 33.6683 74.6973 33.7474L74.5457 33.7494C71.3575 33.7493 68.7636 31.2052 68.6833 28.0363L68.6813 27.885ZM65.8065 27.885C65.8066 32.7115 69.7192 36.6241 74.5457 36.6242C79.3723 36.6242 83.2851 32.7115 83.2852 27.885C83.2852 23.0584 79.3723 19.1455 74.5457 19.1455C69.7191 19.1456 65.8065 23.0584 65.8065 27.885Z" fill="white"/>
<path d="M75.2457 34.877H73.8959L72.4458 46.0633H77.3398L75.2457 34.877Z" fill="white"/>
<path d="M102.367 73.274C102.367 66.9273 97.2222 61.7822 90.8755 61.7822H69.218C62.8712 61.7822 57.7262 66.9273 57.7262 73.274V73.274C57.7262 79.6207 62.8713 84.7657 69.218 84.7657H90.8755C97.2222 84.7657 102.367 79.6207 102.367 73.274V73.274Z" fill="#6524EB"/>
<path d="M96.625 70.4013C96.625 68.8146 95.3387 67.5283 93.7521 67.5283V67.5283C92.1654 67.5283 90.8791 68.8146 90.8791 70.4013V76.1471C90.8791 77.7338 92.1654 79.02 93.7521 79.02V79.02C95.3387 79.02 96.625 77.7338 96.625 76.1471V70.4013Z" fill="white"/>
<path d="M87.3438 70.4013C87.3438 68.8146 86.0575 67.5283 84.4708 67.5283V67.5283C82.8841 67.5283 81.5979 68.8146 81.5979 70.4013V76.1471C81.5979 77.7338 82.8841 79.02 84.4708 79.02V79.02C86.0575 79.02 87.3438 77.7338 87.3438 76.1471V70.4013Z" fill="white"/>
</svg>
