<svg width="40" height="42" viewBox="0 0 40 42" fill="none" xmlns="http://www.w3.org/2000/svg">
<path d="M17.2433 18.6392C17.2433 21.6304 19.6693 24.0658 22.6542 24.0658C25.6368 24.0658 28.0651 21.6328 28.0651 18.6392C28.0651 15.648 25.6392 13.2126 22.6542 13.2126C19.6717 13.2126 17.2433 15.6456 17.2433 18.6392ZM26.8754 18.6392C26.8754 20.9733 24.9814 22.8752 22.6516 22.8752C20.3217 22.8752 18.4278 20.9758 18.4278 18.6392C18.4278 16.305 20.3217 14.4031 22.6516 14.4031C24.979 14.4031 26.8754 16.3025 26.8754 18.6392ZM37.1404 0.0128036C35.7686 0.0128036 34.6184 0.98848 34.3451 2.28525H22.6538C22.3263 2.28525 22.0603 2.55202 22.0603 2.88053V6.47687H19.5457C19.2181 6.47687 18.9521 6.74363 18.9521 7.07215V9.35939C18.8758 9.38903 18.8019 9.42114 18.728 9.45325L17.1149 7.83538C17.004 7.72424 16.8538 7.66002 16.6962 7.66002C16.5385 7.66002 16.3883 7.72177 16.2775 7.83538L11.8813 12.2419C11.7704 12.3531 11.7064 12.5037 11.7064 12.6618C11.7064 12.8199 11.768 12.9706 11.8813 13.0817L13.492 14.6971C13.46 14.7737 13.4279 14.8503 13.3959 14.9268H11.1202C10.7927 14.9268 10.5267 15.1936 10.5267 15.5221V18.044H8.93323L4.77098 10.814C5.17982 10.446 5.47536 9.9693 5.62069 9.42588C5.81772 8.68732 5.71674 7.91424 5.335 7.2498C4.95326 6.58782 4.33757 6.11111 3.59869 5.91351C2.86228 5.7159 2.09144 5.81718 1.42892 6.20003C0.0644726 6.99043 -0.405937 8.74658 0.382177 10.115C0.911689 11.0338 1.87468 11.5476 2.86228 11.5476C3.15782 11.5476 3.45337 11.5007 3.7415 11.4068L8.07367 18.9327C8.17957 19.118 8.3766 19.2291 8.58841 19.2291H10.5267V21.751C10.5267 22.0795 10.7927 22.3463 11.1202 22.3463H13.391C13.423 22.4253 13.455 22.5019 13.487 22.5809L11.8812 24.1914C11.7704 24.3026 11.7064 24.4532 11.7064 24.6113C11.7064 24.7694 11.768 24.9201 11.8812 25.0312L16.275 29.4377C16.5065 29.6699 16.8833 29.6699 17.1148 29.4377L18.7182 27.8297C18.797 27.8643 18.8758 27.8964 18.9546 27.9285V30.201C18.9546 30.5295 19.2206 30.7963 19.5482 30.7963H25.7644C26.092 30.7963 26.358 30.5295 26.358 30.201V27.9285C26.4368 27.8964 26.5156 27.8643 26.5944 27.8297L28.1953 29.4353C28.4268 29.6675 28.8036 29.6675 29.0351 29.4353L30.8133 27.6519L33.3845 30.2306L26.9049 36.729C26.6562 36.5685 26.3828 36.4425 26.0872 36.3635C25.3508 36.1659 24.58 36.2671 23.9175 36.65C23.2574 37.0328 22.7821 37.6503 22.5851 38.3913C22.388 39.1299 22.489 39.903 22.8708 40.5674C23.4003 41.4862 24.3633 42 25.3509 42C25.836 42 26.3262 41.8765 26.7744 41.6171C27.4344 41.2343 27.9098 40.6168 28.1068 39.8758C28.3038 39.1372 28.2028 38.3642 27.8211 37.6997C27.7965 37.6553 27.7669 37.6157 27.7398 37.5737L34.6406 30.653C34.8721 30.4208 34.8721 30.0429 34.6406 29.8107L31.6482 26.8096L33.4264 25.0263C33.6579 24.7941 33.6579 24.4162 33.4264 24.184L31.8206 22.5736C31.8526 22.497 31.8846 22.418 31.9166 22.3389H34.1874C34.5149 22.3389 34.7809 22.0722 34.7809 21.7436V15.5093C34.7809 15.1808 34.515 14.914 34.1874 14.914H31.9117C31.8821 14.8375 31.8501 14.7609 31.8181 14.6843L33.4288 13.0689C33.5396 12.9578 33.6037 12.8071 33.6037 12.649C33.6037 12.4909 33.5421 12.3403 33.4288 12.2291L29.035 7.82257C28.8134 7.60027 28.4193 7.60027 28.1952 7.82257L26.5821 9.44044C26.5082 9.40833 26.4318 9.37622 26.3555 9.34658V7.05933C26.3555 6.73082 26.0895 6.46406 25.7619 6.46406H23.2473V3.46298H34.3452C34.6186 4.75975 35.7688 5.73543 37.1406 5.73543C38.7168 5.73543 40 4.44852 40 2.86771C40 1.2869 38.7168 0 37.1406 0L37.1404 0.0128036ZM1.40917 9.52232C0.948617 8.72206 1.22199 7.69453 2.01996 7.23262C2.40663 7.00784 2.85732 6.94856 3.28832 7.06465C3.71932 7.18074 4.0789 7.45738 4.30304 7.84519C4.52716 8.23298 4.58626 8.68498 4.47051 9.11724C4.35475 9.5495 4.07891 9.91011 3.69223 10.1349C2.89428 10.5968 1.86975 10.3226 1.40917 9.52232ZM26.9586 39.5748C26.8428 40.007 26.567 40.3677 26.1803 40.5924C25.3824 41.0543 24.3578 40.7802 23.8972 39.9799C23.6731 39.5921 23.614 39.1401 23.7298 38.7078C23.8455 38.2756 24.1214 37.915 24.508 37.6902C24.7666 37.542 25.0523 37.4654 25.3405 37.4654C25.4858 37.4654 25.6311 37.4852 25.7764 37.5222C26.2074 37.6383 26.567 37.9149 26.7911 38.3028C27.0152 38.6905 27.0743 39.1425 26.9586 39.5748ZM25.5646 10.3298C25.8676 10.436 26.168 10.5595 26.4512 10.6978C26.6778 10.8065 26.9487 10.7621 27.1285 10.5817L28.6112 9.09477L32.1675 12.6615L30.6873 14.146C30.51 14.3238 30.4632 14.598 30.5716 14.8252C30.7095 15.1117 30.8326 15.4106 30.941 15.7169C31.0247 15.954 31.2489 16.1146 31.5001 16.1146H33.5935V21.1584H31.505C31.2538 21.1584 31.0272 21.3189 30.9459 21.5561C30.84 21.8623 30.7144 22.1637 30.5765 22.4527C30.4681 22.6799 30.5149 22.9516 30.6922 23.1319L32.1675 24.6114L28.6111 28.1781L27.1383 26.7011C26.961 26.5232 26.6876 26.4763 26.4611 26.585C26.1704 26.7258 25.8675 26.8518 25.5646 26.958C25.3257 27.0419 25.168 27.2667 25.168 27.5187V29.6058H20.1389V27.5162C20.1389 27.2643 19.9788 27.0395 19.7423 26.9555C19.4394 26.8493 19.1389 26.7233 18.8458 26.5825C18.6193 26.4738 18.3459 26.5183 18.1686 26.6986L16.6958 28.1757L13.1395 24.609L14.6147 23.1295C14.792 22.9516 14.8388 22.6775 14.7304 22.4502C14.59 22.1588 14.4669 21.8574 14.361 21.5536C14.2773 21.314 14.0531 21.1559 13.8019 21.1559H11.7134V16.1121H13.8069C14.0581 16.1121 14.2822 15.954 14.3659 15.7144C14.4718 15.4131 14.5974 15.1118 14.7354 14.8227C14.8437 14.5955 14.7994 14.3213 14.6196 14.1435L13.1394 12.659L16.6957 9.09231L18.1809 10.5817C18.3582 10.7596 18.6291 10.8065 18.8581 10.6978C19.1463 10.5595 19.4443 10.436 19.7447 10.3298C19.9836 10.2458 20.1413 10.0211 20.1413 9.76911V7.66467H25.1704V9.76911C25.1704 10.0211 25.3305 10.2458 25.567 10.3298H25.5646ZM37.1424 4.55491C36.2213 4.55491 35.4701 3.80156 35.4701 2.8778C35.4701 1.95404 36.2213 1.20069 37.1424 1.20069C38.0634 1.20069 38.8146 1.95404 38.8146 2.8778C38.8146 3.80156 38.0634 4.55491 37.1424 4.55491Z" fill="#25242C"/>
</svg>
