<svg width="26" height="41" viewBox="0 0 26 41" fill="none" xmlns="http://www.w3.org/2000/svg">
<path d="M15.9212 15.9345H15.4962V15.0316C15.4962 14.8694 15.4318 14.7138 15.3171 14.5991C15.2024 14.4844 15.0468 14.4199 14.8845 14.4199C14.7223 14.4199 14.5667 14.4844 14.452 14.5991C14.3373 14.7138 14.2728 14.8694 14.2728 15.0316V15.9345H8.23738V15.0316C8.23738 14.8694 8.17294 14.7138 8.05822 14.5991C7.9435 14.4844 7.78791 14.4199 7.62568 14.4199C7.46345 14.4199 7.30786 14.4844 7.19314 14.5991C7.07843 14.7138 7.01398 14.8694 7.01398 15.0316V15.9345H6.58987C6.19601 15.9358 5.81871 16.093 5.54052 16.3718C5.26232 16.6507 5.1059 17.0283 5.10547 17.4222V24.8768C5.1059 25.2712 5.26277 25.6493 5.54167 25.9282C5.82057 26.2071 6.19871 26.364 6.59313 26.3644H15.9212C16.3156 26.364 16.6937 26.2071 16.9726 25.9282C17.2515 25.6493 17.4084 25.2712 17.4088 24.8768V17.4222C17.4082 17.0278 17.2512 16.6498 16.9724 16.3709C16.6935 16.0921 16.3155 15.9351 15.9212 15.9345ZM16.1854 24.8768C16.1852 24.9468 16.1573 25.0139 16.1078 25.0634C16.0583 25.1129 15.9912 25.1408 15.9212 25.141H6.58987C6.52041 25.14 6.45416 25.1117 6.40535 25.0622C6.35654 25.0128 6.32908 24.9462 6.32887 24.8768V19.4775H16.1854V24.8768Z" fill="#24252C"/>
<path d="M23.3368 14.6809H22.5131V13.9126C22.5119 12.8072 22.1903 11.7259 21.5874 10.7994C21.2611 10.3035 19.2482 6.59824 18.7173 4.87732C18.5837 4.42435 18.4815 3.96271 18.4114 3.49569C18.2603 2.52048 17.7648 1.63167 17.0147 0.990379C16.2647 0.349083 15.3096 -0.00226661 14.3228 1.25328e-05H8.19028C7.20404 -0.00241665 6.24952 0.348358 5.49953 0.988831C4.74954 1.6293 4.25366 2.51714 4.10167 3.49161C4.03078 3.95848 3.9286 4.42007 3.79582 4.87324C3.26404 6.59416 1.25195 10.2994 0.925709 10.7953C0.322767 11.7218 0.001229 12.8031 0 13.9085V26.8717C0.00132232 27.977 0.322853 29.0583 0.925709 29.9848C1.25195 30.4807 3.26404 34.186 3.79582 35.9069C3.9286 36.3601 4.03078 36.8217 4.10167 37.2886C4.25366 38.263 4.74954 39.1509 5.49953 39.7913C6.24952 40.4318 7.20404 40.7826 8.19028 40.7802H14.3228C15.309 40.7826 16.2636 40.4318 17.0136 39.7913C17.7635 39.1509 18.2594 38.263 18.4114 37.2886C18.4815 36.8215 18.5837 36.3599 18.7173 35.9069C19.2482 34.186 21.2611 30.4807 21.5874 29.9848C22.1903 29.0584 22.5119 27.9771 22.5131 26.8717V21.3607H23.3368C23.8362 21.3602 24.3149 21.1617 24.668 20.8086C25.0211 20.4555 25.2196 19.9768 25.2201 19.4774V16.5568C25.2177 16.0587 25.0183 15.5818 24.6654 15.2303C24.3126 14.8788 23.8349 14.6813 23.3368 14.6809ZM4.96457 5.23455C5.11456 4.72642 5.22982 4.20868 5.30957 3.68491C5.4167 2.99822 5.76605 2.37256 6.29442 1.92108C6.82279 1.4696 7.4953 1.22212 8.19028 1.22342H14.3228C15.0179 1.22215 15.6905 1.46974 16.2189 1.92139C16.7473 2.37303 17.0966 2.99889 17.2035 3.68572C17.2829 4.20956 17.3981 4.72733 17.5485 5.23537C17.8217 6.11703 18.44 7.45625 19.0533 8.66987C18.3478 8.36812 17.5883 8.213 16.821 8.21395H5.69454C4.92722 8.213 4.16773 8.36812 3.46223 8.66987C4.07312 7.45625 4.69135 6.11703 4.96457 5.23455ZM17.5485 35.5456C17.3981 36.0536 17.2829 36.5714 17.2035 37.0953C17.0964 37.7819 16.747 38.4076 16.2187 38.8591C15.6903 39.3106 15.0178 39.558 14.3228 39.5568H8.19028C7.49518 39.558 6.82258 39.3104 6.29419 38.8588C5.7658 38.4071 5.41653 37.7813 5.30957 37.0944C5.22982 36.5707 5.11456 36.0529 4.96457 35.5448C4.69135 34.6591 4.07312 33.3231 3.46223 32.1095C4.16773 32.4112 4.92722 32.5664 5.69454 32.5654H16.8185C17.5866 32.5669 18.347 32.4121 19.0533 32.1103C18.44 33.3239 17.8217 34.6631 17.5485 35.5456ZM21.2897 26.8717C21.2884 28.0571 20.8169 29.1936 19.9787 30.0318C19.1405 30.87 18.004 31.3415 16.8185 31.3428H5.69454C4.50912 31.3415 3.37262 30.87 2.5344 30.0318C1.69618 29.1936 1.2247 28.0571 1.2234 26.8717V13.9085C1.2247 12.7231 1.69618 11.5866 2.5344 10.7483C3.37262 9.91013 4.50912 9.43865 5.69454 9.43735H16.8185C18.004 9.43865 19.1405 9.91013 19.9787 10.7483C20.8169 11.5866 21.2884 12.7231 21.2897 13.9085V26.8717ZM23.9967 19.4774C23.9964 19.6524 23.9269 19.8201 23.8032 19.9438C23.6795 20.0674 23.5118 20.137 23.3368 20.1372H22.5131V15.9043H23.3368C23.5118 15.9045 23.6795 15.9741 23.8032 16.0978C23.9269 16.2215 23.9964 16.3892 23.9967 16.5641V19.4774Z" fill="#24252C"/>
</svg>
