<svg width="67" height="66" viewBox="0 0 67 66" fill="none" xmlns="http://www.w3.org/2000/svg">
<path d="M46.9995 44.5268L36.5819 42.8043V31.6262C36.5819 30.6414 36.1907 29.697 35.4944 29.0006C34.7981 28.3043 33.8536 27.9131 32.8688 27.9131C31.8841 27.9131 30.9396 28.3043 30.2433 29.0006C29.5469 29.697 29.1557 30.6414 29.1557 31.6262V44.7723L27.7369 46.32C26.0143 48.1993 24.9964 50.6176 24.8565 53.163C24.7166 55.7085 25.4634 58.2238 26.9697 60.2805L29.1557 63.2653V63.6575C29.1557 64.2737 29.4005 64.8646 29.8362 65.3002C30.2718 65.7359 30.8627 65.9807 31.4788 65.9807H48.6272C49.2434 65.9807 49.8343 65.7359 50.2699 65.3002C50.7056 64.8645 50.9504 64.2736 50.9504 63.6575V61.621L52.0105 51.0724C52.1636 49.5488 51.7308 48.0241 50.8 46.8082C49.8691 45.5923 48.5102 44.7766 46.9995 44.5268Z" fill="#6524EB"/>
<path d="M33.8769 0.583685L35.407 4.40963C35.472 4.57221 35.5817 4.71309 35.7233 4.81601C35.865 4.91892 36.0329 4.97969 36.2076 4.99128L40.3191 5.26418C40.5042 5.27647 40.6815 5.34396 40.8279 5.45795C40.9743 5.57194 41.0833 5.72719 41.1406 5.90367C41.1979 6.08016 41.2011 6.26978 41.1496 6.44806C41.0982 6.62635 40.9944 6.78513 40.8519 6.9039L37.686 9.54137C37.5515 9.65344 37.4514 9.80127 37.3973 9.96779C37.3432 10.1343 37.3372 10.3127 37.3802 10.4825L38.3912 14.4771C38.4367 14.657 38.4273 14.8464 38.3641 15.0209C38.301 15.1954 38.187 15.3469 38.0369 15.456C37.8867 15.5651 37.7074 15.6267 37.5219 15.6328C37.3364 15.639 37.1534 15.5894 36.9964 15.4905L33.5097 13.2946C33.3615 13.2013 33.19 13.1518 33.0149 13.1518C32.8398 13.1518 32.6683 13.2013 32.5201 13.2946L29.0334 15.4905C28.8764 15.5894 28.6934 15.639 28.5079 15.6328C28.3224 15.6267 28.1431 15.5651 27.9929 15.456C27.8428 15.3469 27.7288 15.1954 27.6656 15.0209C27.6025 14.8464 27.5931 14.657 27.6386 14.4771L28.6496 10.4825C28.6925 10.3127 28.6866 10.1343 28.6325 9.96778C28.5784 9.80126 28.4783 9.65343 28.3438 9.54135L25.1779 6.90389C25.0353 6.78511 24.9316 6.62634 24.8802 6.44805C24.8287 6.26976 24.8318 6.08014 24.8892 5.90366C24.9465 5.72717 25.0554 5.57192 25.2019 5.45793C25.3483 5.34395 25.5255 5.27645 25.7107 5.26416L29.8222 4.99127C29.9969 4.97967 30.1648 4.91891 30.3064 4.81599C30.4481 4.71307 30.5578 4.5722 30.6228 4.40962L32.1528 0.583672C32.2217 0.411374 32.3407 0.263678 32.4944 0.159641C32.648 0.0556036 32.8293 -1.42133e-06 33.0149 0C33.2005 1.42138e-06 33.3818 0.0556094 33.5354 0.159649C33.6891 0.263689 33.808 0.411386 33.8769 0.583685Z" fill="#6524EB"/>
<path d="M48.2325 12.0632L49.7625 15.8892C49.8275 16.0517 49.9372 16.1926 50.0789 16.2955C50.2205 16.3984 50.3884 16.4592 50.5631 16.4708L54.6746 16.7437C54.8598 16.756 55.037 16.8235 55.1834 16.9375C55.3298 17.0515 55.4388 17.2067 55.4961 17.3832C55.5535 17.5597 55.5566 17.7493 55.5051 17.9276C55.4537 18.1059 55.35 18.2646 55.2074 18.3834L52.0415 21.0209C51.907 21.133 51.8069 21.2808 51.7528 21.4473C51.6987 21.6138 51.6927 21.7923 51.7357 21.962L52.7467 25.9566C52.7922 26.1365 52.7828 26.3259 52.7197 26.5004C52.6565 26.6749 52.5425 26.8265 52.3924 26.9355C52.2422 27.0446 52.0629 27.1062 51.8774 27.1123C51.6919 27.1185 51.5089 27.0689 51.3519 26.97L47.8652 24.7741C47.717 24.6808 47.5455 24.6313 47.3704 24.6313C47.1953 24.6313 47.0238 24.6808 46.8756 24.7741L43.3889 26.97C43.2319 27.0689 43.0489 27.1185 42.8634 27.1123C42.6779 27.1062 42.4986 27.0446 42.3484 26.9355C42.1983 26.8265 42.0843 26.6749 42.0212 26.5004C41.958 26.3259 41.9486 26.1365 41.9941 25.9566L43.0051 21.962C43.0481 21.7923 43.0421 21.6138 42.988 21.4473C42.9339 21.2808 42.8338 21.133 42.6993 21.0209L39.5334 18.3835C39.3908 18.2647 39.2871 18.1059 39.2356 17.9276C39.1842 17.7493 39.1873 17.5597 39.2447 17.3832C39.302 17.2067 39.4109 17.0515 39.5573 16.9375C39.7038 16.8235 39.881 16.756 40.0662 16.7437L44.1777 16.4708C44.3524 16.4592 44.5203 16.3985 44.6619 16.2956C44.8036 16.1926 44.9132 16.0518 44.9782 15.8892L46.5083 12.0632C46.5772 11.8909 46.6962 11.7432 46.8498 11.6392C47.0035 11.5351 47.1848 11.4795 47.3704 11.4795C47.5559 11.4795 47.7373 11.5351 47.8909 11.6391C48.0446 11.7432 48.1636 11.8909 48.2325 12.0632Z" fill="#6524EB"/>
<path d="M17.7935 12.0632L16.2634 15.8892C16.1984 16.0517 16.0887 16.1926 15.9471 16.2955C15.8054 16.3984 15.6375 16.4592 15.4628 16.4708L11.3513 16.7437C11.1662 16.756 10.9889 16.8235 10.8425 16.9375C10.6961 17.0515 10.5872 17.2067 10.5298 17.3832C10.4725 17.5597 10.4693 17.7493 10.5208 17.9276C10.5723 18.1059 10.676 18.2646 10.8185 18.3834L13.9844 21.0209C14.1189 21.133 14.219 21.2808 14.2731 21.4473C14.3273 21.6138 14.3332 21.7923 14.2902 21.962L13.2792 25.9566C13.2337 26.1365 13.2431 26.3259 13.3063 26.5004C13.3694 26.6749 13.4834 26.8265 13.6336 26.9355C13.7837 27.0446 13.963 27.1062 14.1485 27.1123C14.334 27.1185 14.517 27.0689 14.6741 26.97L18.1607 24.7741C18.3089 24.6808 18.4804 24.6313 18.6555 24.6313C18.8306 24.6313 19.0021 24.6808 19.1503 24.7741L22.637 26.97C22.794 27.0689 22.977 27.1185 23.1625 27.1123C23.348 27.1062 23.5274 27.0446 23.6775 26.9355C23.8276 26.8265 23.9416 26.6749 24.0048 26.5004C24.0679 26.3259 24.0773 26.1365 24.0318 25.9566L23.0208 21.962C22.9779 21.7923 22.9838 21.6138 23.0379 21.4473C23.092 21.2808 23.1921 21.133 23.3266 21.0209L26.4925 18.3835C26.6351 18.2647 26.7388 18.1059 26.7903 17.9276C26.8417 17.7493 26.8386 17.5597 26.7813 17.3832C26.7239 17.2067 26.615 17.0515 26.4686 16.9375C26.3221 16.8235 26.1449 16.756 25.9598 16.7437L21.8482 16.4708C21.6735 16.4592 21.5057 16.3985 21.364 16.2956C21.2224 16.1926 21.1127 16.0518 21.0477 15.8892L19.5176 12.0632C19.4487 11.8909 19.3298 11.7432 19.1761 11.6392C19.0224 11.5351 18.8411 11.4795 18.6555 11.4795C18.47 11.4795 18.2887 11.5351 18.135 11.6391C17.9813 11.7432 17.8624 11.8909 17.7935 12.0632Z" fill="#6524EB"/>
<path d="M58.7168 26.1921L60.2468 30.018C60.3119 30.1806 60.4215 30.3215 60.5632 30.4244C60.7048 30.5273 60.8727 30.5881 61.0474 30.5997L65.1589 30.8726C65.3441 30.8848 65.5213 30.9523 65.6677 31.0663C65.8142 31.1803 65.9231 31.3356 65.9804 31.5121C66.0378 31.6885 66.0409 31.8782 65.9895 32.0564C65.938 32.2347 65.8343 32.3935 65.6917 32.5123L62.5258 35.1497C62.3913 35.2618 62.2912 35.4097 62.2371 35.5762C62.183 35.7427 62.1771 35.9211 62.22 36.0909L63.231 40.0855C63.2766 40.2654 63.2671 40.4548 63.204 40.6293C63.1408 40.8038 63.0268 40.9553 62.8767 41.0644C62.7266 41.1735 62.5472 41.2351 62.3617 41.2412C62.1763 41.2474 61.9932 41.1978 61.8362 41.0989L58.3495 38.903C58.2014 38.8097 58.0298 38.7602 57.8547 38.7602C57.6796 38.7602 57.5081 38.8097 57.36 38.903L53.8733 41.0989C53.7163 41.1978 53.5332 41.2474 53.3477 41.2412C53.1623 41.2351 52.9829 41.1735 52.8328 41.0644C52.6826 40.9553 52.5686 40.8038 52.5055 40.6293C52.4423 40.4548 52.4329 40.2654 52.4784 40.0855L53.4894 36.0909C53.5324 35.9211 53.5265 35.7427 53.4724 35.5762C53.4183 35.4097 53.3182 35.2618 53.1836 35.1497L50.0178 32.5123C49.8752 32.3935 49.7715 32.2347 49.72 32.0564C49.6685 31.8782 49.6717 31.6885 49.729 31.5121C49.7864 31.3356 49.8953 31.1803 50.0417 31.0663C50.1882 30.9523 50.3654 30.8848 50.5505 30.8726L54.662 30.5997C54.8368 30.5881 55.0046 30.5273 55.1463 30.4244C55.2879 30.3215 55.3976 30.1806 55.4626 30.018L56.9927 26.1921C57.0616 26.0198 57.1805 25.8721 57.3342 25.768C57.4879 25.664 57.6692 25.6084 57.8547 25.6084C58.0403 25.6084 58.2216 25.664 58.3753 25.768C58.5289 25.8721 58.6479 26.0198 58.7168 26.1921Z" fill="#6524EB"/>
<path d="M7.30909 26.1921L5.77903 30.018C5.71401 30.1806 5.60434 30.3215 5.46269 30.4244C5.32104 30.5273 5.15317 30.5881 4.97845 30.5997L0.866948 30.8726C0.681788 30.8848 0.504559 30.9523 0.358128 31.0663C0.211698 31.1803 0.102784 31.3356 0.0454407 31.5121C-0.0119027 31.6885 -0.0150444 31.8782 0.0364202 32.0564C0.0878847 32.2347 0.191594 32.3935 0.334168 32.5123L3.50004 35.1497C3.63457 35.2618 3.73467 35.4097 3.78877 35.5762C3.84288 35.7427 3.84879 35.9211 3.80583 36.0909L2.79484 40.0855C2.74931 40.2654 2.75873 40.4548 2.82189 40.6293C2.88505 40.8038 2.99905 40.9553 3.14918 41.0644C3.2993 41.1735 3.47867 41.2351 3.66414 41.2412C3.8496 41.2474 4.03266 41.1978 4.18968 41.0989L7.67636 38.903C7.82452 38.8097 7.99605 38.7602 8.17114 38.7602C8.34623 38.7602 8.51776 38.8097 8.66592 38.903L12.1526 41.0989C12.3096 41.1978 12.4927 41.2474 12.6781 41.2412C12.8636 41.2351 13.043 41.1735 13.1931 41.0644C13.3432 40.9553 13.4572 40.8038 13.5204 40.6293C13.5835 40.4548 13.593 40.2654 13.5474 40.0855L12.5364 36.0909C12.4935 35.9211 12.4994 35.7427 12.5535 35.5762C12.6076 35.4097 12.7077 35.2618 12.8422 35.1497L16.0081 32.5123C16.1507 32.3935 16.2544 32.2347 16.3059 32.0564C16.3573 31.8782 16.3542 31.6885 16.2968 31.5121C16.2395 31.3356 16.1306 31.1803 15.9842 31.0663C15.8377 30.9523 15.6605 30.8848 15.4753 30.8726L11.3638 30.5997C11.1891 30.5881 11.0212 30.5273 10.8796 30.4244C10.7379 30.3215 10.6283 30.1806 10.5633 30.018L9.03319 26.1921C8.96428 26.0198 8.84533 25.8721 8.69167 25.768C8.53801 25.664 8.3567 25.6084 8.17114 25.6084C7.98558 25.6084 7.80427 25.664 7.65061 25.768C7.49695 25.8721 7.378 26.0198 7.30909 26.1921Z" fill="#6524EB"/>
</svg>
