<svg width="1950" height="1042" viewBox="0 0 1950 1042" fill="none" xmlns="http://www.w3.org/2000/svg">
<rect width="67.2414" height="1042" transform="matrix(-1 0 0 1 1950 0)" fill="url(#paint0_linear_1005_172)"/>
<rect width="67.2414" height="1042" transform="matrix(-1 0 0 1 1882.76 0)" fill="url(#paint1_linear_1005_172)"/>
<rect width="67.2414" height="1042" transform="matrix(-1 0 0 1 1815.52 0)" fill="url(#paint2_linear_1005_172)"/>
<rect width="67.2414" height="1042" transform="matrix(-1 0 0 1 1748.28 0)" fill="url(#paint3_linear_1005_172)"/>
<rect width="67.2414" height="1042" transform="matrix(-1 0 0 1 1681.04 0)" fill="url(#paint4_linear_1005_172)"/>
<rect width="67.2414" height="1042" transform="matrix(-1 0 0 1 1613.79 0)" fill="url(#paint5_linear_1005_172)"/>
<rect width="67.2414" height="1042" transform="matrix(-1 0 0 1 1546.55 0)" fill="url(#paint6_linear_1005_172)"/>
<rect width="67.2414" height="1042" transform="matrix(-1 0 0 1 1479.31 0)" fill="url(#paint7_linear_1005_172)"/>
<rect width="67.2414" height="1042" transform="matrix(-1 0 0 1 1412.07 0)" fill="url(#paint8_linear_1005_172)"/>
<rect width="67.2414" height="1042" transform="matrix(-1 0 0 1 1344.83 0)" fill="url(#paint9_linear_1005_172)"/>
<rect width="67.2414" height="1042" transform="matrix(-1 0 0 1 1277.59 0)" fill="url(#paint10_linear_1005_172)"/>
<rect width="67.2414" height="1042" transform="matrix(-1 0 0 1 1210.34 0)" fill="url(#paint11_linear_1005_172)"/>
<rect width="67.2414" height="1042" transform="matrix(-1 0 0 1 1143.1 0)" fill="url(#paint12_linear_1005_172)"/>
<rect width="67.2414" height="1042" transform="matrix(-1 0 0 1 1075.86 0)" fill="url(#paint13_linear_1005_172)"/>
<rect width="67.2414" height="1042" transform="matrix(-1 0 0 1 1008.62 0)" fill="url(#paint14_linear_1005_172)"/>
<rect width="67.2414" height="1042" transform="matrix(-1 0 0 1 941.383 0)" fill="url(#paint15_linear_1005_172)"/>
<rect width="67.2414" height="1042" transform="matrix(-1 0 0 1 874.141 0)" fill="url(#paint16_linear_1005_172)"/>
<rect width="67.2414" height="1042" transform="matrix(-1 0 0 1 806.898 0)" fill="url(#paint17_linear_1005_172)"/>
<rect width="67.2414" height="1042" transform="matrix(-1 0 0 1 739.656 0)" fill="url(#paint18_linear_1005_172)"/>
<rect width="67.2414" height="1042" transform="matrix(-1 0 0 1 672.414 0)" fill="url(#paint19_linear_1005_172)"/>
<rect width="67.2414" height="1042" transform="matrix(-1 0 0 1 605.172 0)" fill="url(#paint20_linear_1005_172)"/>
<rect width="67.2414" height="1042" transform="matrix(-1 0 0 1 537.934 0)" fill="url(#paint21_linear_1005_172)"/>
<rect width="67.2414" height="1042" transform="matrix(-1 0 0 1 470.691 0)" fill="url(#paint22_linear_1005_172)"/>
<rect width="67.2414" height="1042" transform="matrix(-1 0 0 1 403.449 0)" fill="url(#paint23_linear_1005_172)"/>
<rect width="67.2414" height="1042" transform="matrix(-1 0 0 1 336.207 0)" fill="url(#paint24_linear_1005_172)"/>
<rect width="67.2414" height="1042" transform="matrix(-1 0 0 1 268.965 0)" fill="url(#paint25_linear_1005_172)"/>
<rect width="67.2414" height="1042" transform="matrix(-1 0 0 1 201.727 0)" fill="url(#paint26_linear_1005_172)"/>
<rect width="67.2414" height="1042" transform="matrix(-1 0 0 1 134.484 0)" fill="url(#paint27_linear_1005_172)"/>
<rect width="67.2414" height="1042" transform="matrix(-1 0 0 1 67.2422 0)" fill="url(#paint28_linear_1005_172)"/>
<rect width="67.2414" height="1042" transform="matrix(-1 0 0 1 1950 0)" fill="url(#paint29_linear_1005_172)"/>
<rect width="67.2414" height="1042" transform="matrix(-1 0 0 1 1882.76 0)" fill="url(#paint30_linear_1005_172)"/>
<rect width="67.2414" height="1042" transform="matrix(-1 0 0 1 1815.52 0)" fill="url(#paint31_linear_1005_172)"/>
<rect width="67.2414" height="1042" transform="matrix(-1 0 0 1 1748.28 0)" fill="url(#paint32_linear_1005_172)"/>
<rect width="67.2414" height="1042" transform="matrix(-1 0 0 1 1681.04 0)" fill="url(#paint33_linear_1005_172)"/>
<rect width="67.2414" height="1042" transform="matrix(-1 0 0 1 1613.79 0)" fill="url(#paint34_linear_1005_172)"/>
<rect width="67.2414" height="1042" transform="matrix(-1 0 0 1 1546.55 0)" fill="url(#paint35_linear_1005_172)"/>
<rect width="67.2414" height="1042" transform="matrix(-1 0 0 1 1479.31 0)" fill="url(#paint36_linear_1005_172)"/>
<rect width="67.2414" height="1042" transform="matrix(-1 0 0 1 1412.07 0)" fill="url(#paint37_linear_1005_172)"/>
<rect width="67.2414" height="1042" transform="matrix(-1 0 0 1 1344.83 0)" fill="url(#paint38_linear_1005_172)"/>
<rect width="67.2414" height="1042" transform="matrix(-1 0 0 1 1277.59 0)" fill="url(#paint39_linear_1005_172)"/>
<rect width="67.2414" height="1042" transform="matrix(-1 0 0 1 1210.34 0)" fill="url(#paint40_linear_1005_172)"/>
<rect width="67.2414" height="1042" transform="matrix(-1 0 0 1 1143.1 0)" fill="url(#paint41_linear_1005_172)"/>
<rect width="67.2414" height="1042" transform="matrix(-1 0 0 1 1075.86 0)" fill="url(#paint42_linear_1005_172)"/>
<rect width="67.2414" height="1042" transform="matrix(-1 0 0 1 1008.62 0)" fill="url(#paint43_linear_1005_172)"/>
<rect width="67.2414" height="1042" transform="matrix(-1 0 0 1 941.383 0)" fill="url(#paint44_linear_1005_172)"/>
<rect width="67.2414" height="1042" transform="matrix(-1 0 0 1 874.141 0)" fill="url(#paint45_linear_1005_172)"/>
<rect width="67.2414" height="1042" transform="matrix(-1 0 0 1 806.898 0)" fill="url(#paint46_linear_1005_172)"/>
<rect width="67.2414" height="1042" transform="matrix(-1 0 0 1 739.656 0)" fill="url(#paint47_linear_1005_172)"/>
<rect width="67.2414" height="1042" transform="matrix(-1 0 0 1 672.414 0)" fill="url(#paint48_linear_1005_172)"/>
<rect width="67.2414" height="1042" transform="matrix(-1 0 0 1 605.172 0)" fill="url(#paint49_linear_1005_172)"/>
<rect width="67.2414" height="1042" transform="matrix(-1 0 0 1 537.934 0)" fill="url(#paint50_linear_1005_172)"/>
<rect width="67.2414" height="1042" transform="matrix(-1 0 0 1 470.691 0)" fill="url(#paint51_linear_1005_172)"/>
<rect width="67.2414" height="1042" transform="matrix(-1 0 0 1 403.449 0)" fill="url(#paint52_linear_1005_172)"/>
<rect width="67.2414" height="1042" transform="matrix(-1 0 0 1 336.207 0)" fill="url(#paint53_linear_1005_172)"/>
<rect width="67.2414" height="1042" transform="matrix(-1 0 0 1 268.965 0)" fill="url(#paint54_linear_1005_172)"/>
<rect width="67.2414" height="1042" transform="matrix(-1 0 0 1 201.727 0)" fill="url(#paint55_linear_1005_172)"/>
<rect width="67.2414" height="1042" transform="matrix(-1 0 0 1 134.484 0)" fill="url(#paint56_linear_1005_172)"/>
<rect width="67.2414" height="1042" transform="matrix(-1 0 0 1 67.2422 0)" fill="url(#paint57_linear_1005_172)"/>
<defs>
<linearGradient id="paint0_linear_1005_172" x1="33.6207" y1="0" x2="33.6207" y2="1042" gradientUnits="userSpaceOnUse">
<stop stop-color="white"/>
<stop offset="0.853848" stop-color="#E0F1E9"/>
<stop offset="1" stop-color="white"/>
</linearGradient>
<linearGradient id="paint1_linear_1005_172" x1="33.6207" y1="0" x2="33.6207" y2="1042" gradientUnits="userSpaceOnUse">
<stop stop-color="white"/>
<stop offset="0.767602" stop-color="#DBEFE2"/>
<stop offset="1" stop-color="white"/>
</linearGradient>
<linearGradient id="paint2_linear_1005_172" x1="33.6207" y1="0" x2="33.6207" y2="1042" gradientUnits="userSpaceOnUse">
<stop stop-color="white"/>
<stop offset="0.739483" stop-color="#E0EFD6"/>
<stop offset="1" stop-color="white"/>
</linearGradient>
<linearGradient id="paint3_linear_1005_172" x1="33.6207" y1="0" x2="33.6207" y2="1042" gradientUnits="userSpaceOnUse">
<stop stop-color="white"/>
<stop offset="0.708682" stop-color="#EFF5D6"/>
<stop offset="1" stop-color="white"/>
</linearGradient>
<linearGradient id="paint4_linear_1005_172" x1="33.6207" y1="0" x2="33.6207" y2="1042" gradientUnits="userSpaceOnUse">
<stop stop-color="white"/>
<stop offset="0.657744" stop-color="#F1F3BE"/>
<stop offset="1" stop-color="white"/>
</linearGradient>
<linearGradient id="paint5_linear_1005_172" x1="33.6207" y1="0" x2="33.6207" y2="1042" gradientUnits="userSpaceOnUse">
<stop stop-color="white"/>
<stop offset="0.570082" stop-color="#F8F4BC"/>
<stop offset="1" stop-color="white"/>
</linearGradient>
<linearGradient id="paint6_linear_1005_172" x1="33.6207" y1="0" x2="33.6207" y2="1042" gradientUnits="userSpaceOnUse">
<stop stop-color="white"/>
<stop offset="0.45162" stop-color="#F8F4BC"/>
<stop offset="1" stop-color="white"/>
</linearGradient>
<linearGradient id="paint7_linear_1005_172" x1="33.6207" y1="0" x2="33.6207" y2="1042" gradientUnits="userSpaceOnUse">
<stop stop-color="white"/>
<stop offset="0.368697" stop-color="#F9EDBD"/>
<stop offset="1" stop-color="white"/>
</linearGradient>
<linearGradient id="paint8_linear_1005_172" x1="33.6207" y1="0" x2="33.6207" y2="1042" gradientUnits="userSpaceOnUse">
<stop stop-color="white"/>
<stop offset="0.265635" stop-color="#F8EDBF"/>
<stop offset="1" stop-color="white"/>
</linearGradient>
<linearGradient id="paint9_linear_1005_172" x1="33.6207" y1="0" x2="33.6207" y2="1042" gradientUnits="userSpaceOnUse">
<stop stop-color="white"/>
<stop offset="0.232062" stop-color="#F7EBBA"/>
<stop offset="1" stop-color="white"/>
</linearGradient>
<linearGradient id="paint10_linear_1005_172" x1="33.6207" y1="0" x2="33.6207" y2="1042" gradientUnits="userSpaceOnUse">
<stop stop-color="white"/>
<stop offset="0.213153" stop-color="#F9E7BD"/>
<stop offset="1" stop-color="white"/>
</linearGradient>
<linearGradient id="paint11_linear_1005_172" x1="33.6207" y1="0" x2="33.6207" y2="1042" gradientUnits="userSpaceOnUse">
<stop stop-color="white"/>
<stop offset="0.201503" stop-color="#F9E9C1"/>
<stop offset="1" stop-color="white"/>
</linearGradient>
<linearGradient id="paint12_linear_1005_172" x1="33.6207" y1="0" x2="33.6207" y2="1042" gradientUnits="userSpaceOnUse">
<stop stop-color="white"/>
<stop offset="0.237747" stop-color="#F8E7BF"/>
<stop offset="1" stop-color="white"/>
</linearGradient>
<linearGradient id="paint13_linear_1005_172" x1="33.6207" y1="0" x2="33.6207" y2="1042" gradientUnits="userSpaceOnUse">
<stop stop-color="white"/>
<stop offset="0.246808" stop-color="#F7E5C2"/>
<stop offset="1" stop-color="white"/>
</linearGradient>
<linearGradient id="paint14_linear_1005_172" x1="33.6207" y1="0" x2="33.6207" y2="1042" gradientUnits="userSpaceOnUse">
<stop stop-color="white"/>
<stop offset="0.279169" stop-color="#F6E1C6"/>
<stop offset="1" stop-color="white"/>
</linearGradient>
<linearGradient id="paint15_linear_1005_172" x1="33.6207" y1="0" x2="33.6207" y2="1042" gradientUnits="userSpaceOnUse">
<stop stop-color="white"/>
<stop offset="0.289524" stop-color="#F4DCC9"/>
<stop offset="1" stop-color="white"/>
</linearGradient>
<linearGradient id="paint16_linear_1005_172" x1="33.6207" y1="0" x2="33.6207" y2="1042" gradientUnits="userSpaceOnUse">
<stop stop-color="white"/>
<stop offset="0.277874" stop-color="#F3DCD0"/>
<stop offset="1" stop-color="white"/>
</linearGradient>
<linearGradient id="paint17_linear_1005_172" x1="33.6207" y1="0" x2="33.6207" y2="1042" gradientUnits="userSpaceOnUse">
<stop stop-color="white"/>
<stop offset="0.310235" stop-color="#F2DBD3"/>
<stop offset="1" stop-color="white"/>
</linearGradient>
<linearGradient id="paint18_linear_1005_172" x1="33.6207" y1="0" x2="33.6207" y2="1042" gradientUnits="userSpaceOnUse">
<stop stop-color="white"/>
<stop offset="0.329651" stop-color="#F1DDDF"/>
<stop offset="1" stop-color="white"/>
</linearGradient>
<linearGradient id="paint19_linear_1005_172" x1="33.6207" y1="0" x2="33.6207" y2="1042" gradientUnits="userSpaceOnUse">
<stop stop-color="white"/>
<stop offset="0.316707" stop-color="#F0D5E0"/>
<stop offset="1" stop-color="white"/>
</linearGradient>
<linearGradient id="paint20_linear_1005_172" x1="33.6207" y1="0" x2="33.6207" y2="1042" gradientUnits="userSpaceOnUse">
<stop stop-color="white"/>
<stop offset="0.336538" stop-color="#EFD3E5"/>
<stop offset="1" stop-color="white"/>
</linearGradient>
<linearGradient id="paint21_linear_1005_172" x1="33.6207" y1="0" x2="33.6207" y2="1042" gradientUnits="userSpaceOnUse">
<stop stop-color="white"/>
<stop offset="0.336538" stop-color="#EDCDE8"/>
<stop offset="1" stop-color="white"/>
</linearGradient>
<linearGradient id="paint22_linear_1005_172" x1="33.6207" y1="0" x2="33.6207" y2="1042" gradientUnits="userSpaceOnUse">
<stop stop-color="white"/>
<stop offset="0.336538" stop-color="#E9B8E8"/>
<stop offset="1" stop-color="white"/>
</linearGradient>
<linearGradient id="paint23_linear_1005_172" x1="33.6207" y1="0" x2="33.6207" y2="1042" gradientUnits="userSpaceOnUse">
<stop stop-color="white"/>
<stop offset="0.336538" stop-color="#DFA0E3"/>
<stop offset="1" stop-color="white"/>
</linearGradient>
<linearGradient id="paint24_linear_1005_172" x1="33.6207" y1="0" x2="33.6207" y2="1042" gradientUnits="userSpaceOnUse">
<stop stop-color="white"/>
<stop offset="0.336538" stop-color="#D78CE3"/>
<stop offset="1" stop-color="white"/>
</linearGradient>
<linearGradient id="paint25_linear_1005_172" x1="33.6207" y1="0" x2="33.6207" y2="1042" gradientUnits="userSpaceOnUse">
<stop stop-color="white"/>
<stop offset="0.317308" stop-color="#D480E8"/>
<stop offset="1" stop-color="white"/>
</linearGradient>
<linearGradient id="paint26_linear_1005_172" x1="33.6207" y1="0" x2="33.6207" y2="1042" gradientUnits="userSpaceOnUse">
<stop stop-color="white"/>
<stop offset="0.278153" stop-color="#D178EA"/>
<stop offset="1" stop-color="white"/>
</linearGradient>
<linearGradient id="paint27_linear_1005_172" x1="33.6207" y1="0" x2="33.6207" y2="1042" gradientUnits="userSpaceOnUse">
<stop stop-color="white"/>
<stop offset="0.224113" stop-color="#CC6EEF"/>
<stop offset="1" stop-color="white"/>
</linearGradient>
<linearGradient id="paint28_linear_1005_172" x1="33.6207" y1="0" x2="33.6207" y2="1042" gradientUnits="userSpaceOnUse">
<stop stop-color="white"/>
<stop offset="0.170669" stop-color="#CE78F0"/>
<stop offset="1" stop-color="white"/>
</linearGradient>
<linearGradient id="paint29_linear_1005_172" x1="33.6207" y1="0" x2="33.6207" y2="1042" gradientUnits="userSpaceOnUse">
<stop stop-color="white"/>
<stop offset="0.853848" stop-color="#E0F1E9"/>
<stop offset="1" stop-color="white"/>
</linearGradient>
<linearGradient id="paint30_linear_1005_172" x1="33.6207" y1="0" x2="33.6207" y2="1042" gradientUnits="userSpaceOnUse">
<stop stop-color="white"/>
<stop offset="0.767602" stop-color="#DBEFE2"/>
<stop offset="1" stop-color="white"/>
</linearGradient>
<linearGradient id="paint31_linear_1005_172" x1="33.6207" y1="0" x2="33.6207" y2="1042" gradientUnits="userSpaceOnUse">
<stop stop-color="white"/>
<stop offset="0.739483" stop-color="#E0EFD6"/>
<stop offset="1" stop-color="white"/>
</linearGradient>
<linearGradient id="paint32_linear_1005_172" x1="33.6207" y1="0" x2="33.6207" y2="1042" gradientUnits="userSpaceOnUse">
<stop stop-color="white"/>
<stop offset="0.708682" stop-color="#EFF5D6"/>
<stop offset="1" stop-color="white"/>
</linearGradient>
<linearGradient id="paint33_linear_1005_172" x1="33.6207" y1="0" x2="33.6207" y2="1042" gradientUnits="userSpaceOnUse">
<stop stop-color="white"/>
<stop offset="0.657744" stop-color="#F1F3BE"/>
<stop offset="1" stop-color="white"/>
</linearGradient>
<linearGradient id="paint34_linear_1005_172" x1="33.6207" y1="0" x2="33.6207" y2="1042" gradientUnits="userSpaceOnUse">
<stop stop-color="white"/>
<stop offset="0.570082" stop-color="#F8F4BC"/>
<stop offset="1" stop-color="white"/>
</linearGradient>
<linearGradient id="paint35_linear_1005_172" x1="33.6207" y1="0" x2="33.6207" y2="1042" gradientUnits="userSpaceOnUse">
<stop stop-color="white"/>
<stop offset="0.45162" stop-color="#F8F4BC"/>
<stop offset="1" stop-color="white"/>
</linearGradient>
<linearGradient id="paint36_linear_1005_172" x1="33.6207" y1="0" x2="33.6207" y2="1042" gradientUnits="userSpaceOnUse">
<stop stop-color="white"/>
<stop offset="0.368697" stop-color="#F9EDBD"/>
<stop offset="1" stop-color="white"/>
</linearGradient>
<linearGradient id="paint37_linear_1005_172" x1="33.6207" y1="0" x2="33.6207" y2="1042" gradientUnits="userSpaceOnUse">
<stop stop-color="white"/>
<stop offset="0.265635" stop-color="#F8EDBF"/>
<stop offset="1" stop-color="white"/>
</linearGradient>
<linearGradient id="paint38_linear_1005_172" x1="33.6207" y1="0" x2="33.6207" y2="1042" gradientUnits="userSpaceOnUse">
<stop stop-color="white"/>
<stop offset="0.232062" stop-color="#F7EBBA"/>
<stop offset="1" stop-color="white"/>
</linearGradient>
<linearGradient id="paint39_linear_1005_172" x1="33.6207" y1="0" x2="33.6207" y2="1042" gradientUnits="userSpaceOnUse">
<stop stop-color="white"/>
<stop offset="0.213153" stop-color="#F9E7BD"/>
<stop offset="1" stop-color="white"/>
</linearGradient>
<linearGradient id="paint40_linear_1005_172" x1="33.6207" y1="0" x2="33.6207" y2="1042" gradientUnits="userSpaceOnUse">
<stop stop-color="white"/>
<stop offset="0.201503" stop-color="#F9E9C1"/>
<stop offset="1" stop-color="white"/>
</linearGradient>
<linearGradient id="paint41_linear_1005_172" x1="33.6207" y1="0" x2="33.6207" y2="1042" gradientUnits="userSpaceOnUse">
<stop stop-color="white"/>
<stop offset="0.237747" stop-color="#F8E7BF"/>
<stop offset="1" stop-color="white"/>
</linearGradient>
<linearGradient id="paint42_linear_1005_172" x1="33.6207" y1="0" x2="33.6207" y2="1042" gradientUnits="userSpaceOnUse">
<stop stop-color="white"/>
<stop offset="0.246808" stop-color="#F7E5C2"/>
<stop offset="1" stop-color="white"/>
</linearGradient>
<linearGradient id="paint43_linear_1005_172" x1="33.6207" y1="0" x2="33.6207" y2="1042" gradientUnits="userSpaceOnUse">
<stop stop-color="white"/>
<stop offset="0.279169" stop-color="#F6E1C6"/>
<stop offset="1" stop-color="white"/>
</linearGradient>
<linearGradient id="paint44_linear_1005_172" x1="33.6207" y1="0" x2="33.6207" y2="1042" gradientUnits="userSpaceOnUse">
<stop stop-color="white"/>
<stop offset="0.289524" stop-color="#F4DCC9"/>
<stop offset="1" stop-color="white"/>
</linearGradient>
<linearGradient id="paint45_linear_1005_172" x1="33.6207" y1="0" x2="33.6207" y2="1042" gradientUnits="userSpaceOnUse">
<stop stop-color="white"/>
<stop offset="0.277874" stop-color="#F3DCD0"/>
<stop offset="1" stop-color="white"/>
</linearGradient>
<linearGradient id="paint46_linear_1005_172" x1="33.6207" y1="0" x2="33.6207" y2="1042" gradientUnits="userSpaceOnUse">
<stop stop-color="white"/>
<stop offset="0.310235" stop-color="#F2DBD3"/>
<stop offset="1" stop-color="white"/>
</linearGradient>
<linearGradient id="paint47_linear_1005_172" x1="33.6207" y1="0" x2="33.6207" y2="1042" gradientUnits="userSpaceOnUse">
<stop stop-color="white"/>
<stop offset="0.329651" stop-color="#F1DDDF"/>
<stop offset="1" stop-color="white"/>
</linearGradient>
<linearGradient id="paint48_linear_1005_172" x1="33.6207" y1="0" x2="33.6207" y2="1042" gradientUnits="userSpaceOnUse">
<stop stop-color="white"/>
<stop offset="0.316707" stop-color="#F0D5E0"/>
<stop offset="1" stop-color="white"/>
</linearGradient>
<linearGradient id="paint49_linear_1005_172" x1="33.6207" y1="0" x2="33.6207" y2="1042" gradientUnits="userSpaceOnUse">
<stop stop-color="white"/>
<stop offset="0.336538" stop-color="#EFD3E5"/>
<stop offset="1" stop-color="white"/>
</linearGradient>
<linearGradient id="paint50_linear_1005_172" x1="33.6207" y1="0" x2="33.6207" y2="1042" gradientUnits="userSpaceOnUse">
<stop stop-color="white"/>
<stop offset="0.336538" stop-color="#EDCDE8"/>
<stop offset="1" stop-color="white"/>
</linearGradient>
<linearGradient id="paint51_linear_1005_172" x1="33.6207" y1="0" x2="33.6207" y2="1042" gradientUnits="userSpaceOnUse">
<stop stop-color="white"/>
<stop offset="0.336538" stop-color="#E9B8E8"/>
<stop offset="1" stop-color="white"/>
</linearGradient>
<linearGradient id="paint52_linear_1005_172" x1="33.6207" y1="0" x2="33.6207" y2="1042" gradientUnits="userSpaceOnUse">
<stop stop-color="white"/>
<stop offset="0.336538" stop-color="#DFA0E3"/>
<stop offset="1" stop-color="white"/>
</linearGradient>
<linearGradient id="paint53_linear_1005_172" x1="33.6207" y1="0" x2="33.6207" y2="1042" gradientUnits="userSpaceOnUse">
<stop stop-color="white"/>
<stop offset="0.336538" stop-color="#D78CE3"/>
<stop offset="1" stop-color="white"/>
</linearGradient>
<linearGradient id="paint54_linear_1005_172" x1="33.6207" y1="0" x2="33.6207" y2="1042" gradientUnits="userSpaceOnUse">
<stop stop-color="white"/>
<stop offset="0.317308" stop-color="#D480E8"/>
<stop offset="1" stop-color="white"/>
</linearGradient>
<linearGradient id="paint55_linear_1005_172" x1="33.6207" y1="0" x2="33.6207" y2="1042" gradientUnits="userSpaceOnUse">
<stop stop-color="white"/>
<stop offset="0.278153" stop-color="#D178EA"/>
<stop offset="1" stop-color="white"/>
</linearGradient>
<linearGradient id="paint56_linear_1005_172" x1="33.6207" y1="0" x2="33.6207" y2="1042" gradientUnits="userSpaceOnUse">
<stop stop-color="white"/>
<stop offset="0.224113" stop-color="#CC6EEF"/>
<stop offset="1" stop-color="white"/>
</linearGradient>
<linearGradient id="paint57_linear_1005_172" x1="33.6207" y1="0" x2="33.6207" y2="1042" gradientUnits="userSpaceOnUse">
<stop stop-color="white"/>
<stop offset="0.170669" stop-color="#CE78F0"/>
<stop offset="1" stop-color="white"/>
</linearGradient>
</defs>
</svg>
