<svg width="44" height="35" viewBox="0 0 44 35" fill="none" xmlns="http://www.w3.org/2000/svg">
<path fill-rule="evenodd" clip-rule="evenodd" d="M37.2531 10.4044C34.8123 7.94118 31.4414 6.41853 27.7174 6.41853C23.9932 6.41853 20.6223 7.94118 18.1816 10.4044C15.7409 12.8677 14.2322 16.2697 14.2322 20.0281C14.2322 23.7866 15.7409 27.1887 18.1816 29.6518C20.6224 32.115 23.9933 33.6377 27.7174 33.6377C31.4415 33.6377 34.8124 32.1151 37.2531 29.6518C39.6938 27.1886 41.2025 23.7865 41.2025 20.0281C41.2025 16.2696 39.6938 12.8676 37.2531 10.4044ZM34.8944 12.7848C36.7317 14.639 37.8661 17.1986 37.8661 20.0282C37.8661 22.8558 36.7298 25.4174 34.8944 27.2716C33.0572 29.1258 30.521 30.2707 27.7173 30.2707C24.9156 30.2707 22.3774 29.1239 20.5401 27.2716C18.7028 25.4175 17.5684 22.8578 17.5684 20.0282C17.5684 17.2007 18.7047 14.6391 20.5401 12.7848C22.3773 10.9306 24.9135 9.78573 27.7173 9.78573C30.519 9.78573 33.0571 10.9325 34.8944 12.7848ZM27.7192 8.43845C30.8895 8.43845 33.7597 9.7356 35.8376 11.8326C37.9154 13.9297 39.2007 16.8266 39.2007 20.0259C39.2007 23.2254 37.9154 26.1221 35.8376 28.2192C33.7597 30.3162 30.8893 31.6134 27.7192 31.6134C24.5489 31.6134 21.6787 30.3162 19.6009 28.2192C17.523 26.1221 16.2377 23.2252 16.2377 20.0259C16.2377 16.8264 17.523 13.9297 19.6009 11.8326C21.6787 9.7356 24.5491 8.43845 27.7192 8.43845ZM29.9613 1.34749H25.4752V2.6408H29.9613V1.34749ZM28.9109 3.98616H26.5256V5.1195C26.919 5.08866 27.3162 5.07131 27.7173 5.07131C28.1184 5.07131 28.5156 5.08673 28.909 5.1195V3.98616H28.9109ZM16.2164 5.21779L17.1235 6.13333L13.9514 9.33479L13.0442 8.41925L16.2164 5.21779ZM17.324 7.83331L18.1185 8.63512C17.8149 8.89532 17.5226 9.16708 17.2419 9.45233C16.9612 9.73566 16.69 10.0325 16.4322 10.337L15.6377 9.53522L17.324 7.83331ZM42.3919 8.41925L41.4848 9.33479L38.3126 6.13333L39.2197 5.21779L42.3919 8.41925ZM39.8003 9.53522L39.0058 10.337C38.748 10.0306 38.4787 9.73565 38.1961 9.45233C37.9154 9.169 37.6213 8.89531 37.3195 8.63512L38.114 7.83331L39.8003 9.53522ZM39.6915 3.79131L43.8052 7.943C44.0649 8.20513 44.0649 8.63108 43.8052 8.89516L41.9565 10.7609C41.6968 11.023 41.2747 11.023 41.0131 10.7609L40.7419 10.4872L39.829 11.4085C41.5345 13.8448 42.5352 16.8169 42.5352 20.0261C42.5352 24.1547 40.8775 27.8937 38.1942 30.6001C35.5128 33.3062 31.8081 34.9812 27.7169 34.9812C23.6261 34.9812 19.9212 33.3082 17.2395 30.6001C14.5582 27.894 12.8986 24.1551 12.8986 20.0261C12.8986 16.8169 13.9012 13.845 15.6048 11.4085L14.6919 10.4872L14.4207 10.7609C14.161 11.023 13.7389 11.023 13.4772 10.7609L11.6286 8.89516C11.3688 8.63303 11.3688 8.20708 11.6286 7.943L15.7423 3.79131C16.002 3.52918 16.4241 3.52918 16.6858 3.79131L18.5344 5.65703C18.7942 5.91916 18.7942 6.34511 18.5344 6.60919L18.2632 6.88288L19.1761 7.8042C20.937 6.54943 22.9785 5.67247 25.1902 5.28888V3.98596H24.8063C24.4377 3.98596 24.1398 3.68527 24.1398 3.31327V0.672681C24.1398 0.300686 24.4377 0 24.8063 0H30.6253C30.9939 0 31.2919 0.300681 31.2919 0.672681V3.31327C31.2919 3.68527 30.9939 3.98596 30.6253 3.98596H30.2415V5.28888C32.4511 5.67244 34.4946 6.54943 36.2556 7.8042L37.1684 6.88288L36.8973 6.60919C36.6375 6.34706 36.6375 5.92111 36.8973 5.65703L38.7459 3.79131C39.0057 3.52918 39.4277 3.52918 39.6894 3.79131H39.6915ZM23.5061 20.8953C23.2234 20.6582 23.1852 20.2361 23.4202 19.9527C23.6551 19.6694 24.0733 19.6289 24.3541 19.866L26.8254 21.9457L30.9868 16.7416C31.2179 16.4524 31.6361 16.4062 31.9207 16.6394C32.2072 16.8726 32.253 17.2947 32.022 17.5819L27.4365 23.316L27.4346 23.3141L27.427 23.3218C27.1921 23.607 26.7738 23.6456 26.493 23.4085L23.5023 20.8932L23.5061 20.8953ZM19.0811 33.6546H7.269C6.9004 33.6546 6.60247 33.9553 6.60247 34.3273C6.60247 34.6993 6.9004 35 7.269 35H19.0811C19.4497 35 19.7476 34.6993 19.7476 34.3273C19.7476 33.9553 19.4497 33.6546 19.0811 33.6546ZM4.62937 33.6546C4.99797 33.6546 5.2959 33.9553 5.2959 34.3273C5.2959 34.6993 4.99797 35 4.62937 35H2.7081C2.33951 35 2.04157 34.6993 2.04157 34.3273C2.04157 33.9553 2.3395 33.6546 2.7081 33.6546H4.62937ZM9.88515 30.1833C10.2537 30.1833 10.5517 30.484 10.5517 30.856C10.5517 31.228 10.2538 31.5287 9.88515 31.5287H0.918545C0.54995 31.5287 0.252014 31.228 0.252014 30.856C0.252014 30.484 0.549945 30.1833 0.918545 30.1833H9.88515ZM12.4386 26.712H2.54794C2.17934 26.712 1.8814 27.0127 1.8814 27.3847C1.8814 27.7567 2.17934 28.0574 2.54794 28.0574H12.4386C12.8072 28.0574 13.1051 27.7567 13.1051 27.3847C13.1051 27.0127 12.8072 26.712 12.4386 26.712ZM10.9566 23.2407H4.94839C4.57979 23.2407 4.28185 23.5414 4.28185 23.9134C4.28185 24.2854 4.57979 24.5861 4.94839 24.5861H10.9566C11.3252 24.5861 11.6231 24.2854 11.6231 23.9134C11.6231 23.5414 11.3252 23.2407 10.9566 23.2407ZM11.0368 19.7674H7.26878C6.90019 19.7674 6.60225 20.0681 6.60225 20.4401C6.60225 20.8121 6.90018 21.1128 7.26878 21.1128H11.0368C11.4054 21.1128 11.7033 20.8121 11.7033 20.4401C11.7033 20.0681 11.4054 19.7674 11.0368 19.7674ZM11.3978 16.2961H2.22679C1.8582 16.2961 1.56026 16.5968 1.56026 16.9688C1.56026 17.3408 1.85819 17.6415 2.22679 17.6415H11.3978C11.7664 17.6415 12.0643 17.3408 12.0643 16.9688C12.0643 16.5968 11.7664 16.2961 11.3978 16.2961ZM14.0657 30.1835C14.4343 30.1835 14.7323 30.4842 14.7323 30.8562C14.7323 31.2282 14.4344 31.5288 14.0657 31.5288H12.557C12.1884 31.5288 11.8905 31.2282 11.8905 30.8562C11.8905 30.4842 12.1884 30.1835 12.557 30.1835H14.0657ZM2.43311 23.241C2.8017 23.241 3.09964 23.5417 3.09964 23.9137C3.09964 24.2857 2.80171 24.5864 2.43311 24.5864H0.666531C0.297937 24.5864 0 24.2857 0 23.9137C0 23.5417 0.297932 23.241 0.666531 23.241H2.43311Z" fill="#24252C"/>
</svg>
