<svg width="92" height="88" viewBox="0 0 92 88" fill="none" xmlns="http://www.w3.org/2000/svg">
<path d="M59.3966 13.1128V9.31684H60.6948C62.2221 9.31684 63.4665 8.07703 63.4665 6.54511V2.77173C63.4665 1.24442 62.2267 0 60.6948 0L48.7728 0.00449109C47.2454 0.00449109 46.001 1.24431 46.001 2.77622V6.5496C46.001 8.07692 47.2408 9.32134 48.7728 9.32134H50.071V13.1173C31.7158 15.4038 17.4662 31.1125 17.4662 50.0794C17.4662 50.7128 17.4886 51.3552 17.5246 52.0245H9.24549C8.60311 52.0245 8.08203 52.5546 8.08203 53.188C8.08203 53.8214 8.61211 54.3515 9.24549 54.3515H18.7554C19.3978 54.3515 19.9189 53.8214 19.9189 53.188C19.9189 53.1521 19.9054 53.1296 19.8964 53.0982H19.9189C19.838 52.0649 19.7931 51.0498 19.7931 50.0839C19.7931 30.8214 35.4665 15.148 54.729 15.148C73.9915 15.148 89.6648 30.8214 89.6648 50.0839C89.6648 69.3464 73.9915 85.0197 54.729 85.0197C43.4715 85.0197 32.8341 79.5438 26.2802 70.371L26.2668 70.3845C26.0601 70.097 25.7277 69.8769 25.3369 69.8769L9.24609 69.8679C8.60371 69.8679 8.08263 70.398 8.08263 71.0314C8.08263 71.6737 8.61271 72.1948 9.24609 72.1948H24.7573C31.7831 81.6823 42.9285 87.3288 54.7378 87.3288C75.2895 87.3333 92.0001 70.6274 92.0001 50.0746C92.0001 31.0996 77.7505 15.4043 59.3953 13.1124L59.3966 13.1128ZM48.7725 6.98545C48.5299 6.98545 48.3368 6.7878 48.3368 6.5497V2.77632C48.3368 2.53374 48.5344 2.34057 48.7725 2.34057H60.6992C60.9418 2.34057 61.1349 2.53823 61.1349 2.77632V6.5497C61.1349 6.79228 60.9373 6.98545 60.6992 6.98545H48.7725ZM57.0651 12.8927C56.2924 12.8477 55.5107 12.8118 54.7292 12.8118C53.9475 12.8118 53.1659 12.8477 52.3933 12.8927V9.31684H57.0517V12.8927H57.0651Z" fill="#5E4591"/>
<path d="M54.7264 19.793C38.0284 19.793 24.4492 33.3733 24.4492 50.0702C24.4492 66.7682 38.0296 80.3474 54.7264 80.3474C71.4244 80.3474 85.0036 66.767 85.0036 50.0702C85.0081 33.3768 71.4371 19.793 54.7264 19.793ZM66.0422 40.4171L58.4998 47.9505C59.0748 48.7321 59.3983 49.6621 59.3983 50.6548C59.3983 53.2289 57.3184 55.3133 54.7398 55.3133C53.2889 55.3133 51.9906 54.6574 51.0921 53.5433C51.0921 53.5298 51.0921 53.5298 51.0787 53.5298V53.5163C50.4228 52.6898 50.0769 51.7015 50.0769 50.6548C50.0769 48.4941 51.5728 46.6882 53.5719 46.1581L53.5764 27.9467C53.5764 27.3043 54.1065 26.7832 54.7398 26.7832C55.3732 26.7832 55.9033 27.3133 55.9033 27.9467V46.1627C56.1773 46.2301 56.4558 46.3334 56.7074 46.4502L64.389 38.7685C64.8383 38.3193 65.584 38.3193 66.0467 38.7685C66.4914 39.2177 66.4914 39.9679 66.0422 40.4171Z" fill="#5E4591"/>
<path d="M1.16346 45.4168H16.5712C17.2135 45.4168 17.7346 44.9002 17.7346 44.2533C17.7346 43.6109 17.218 43.0898 16.5712 43.0898H1.16346C0.521076 43.0898 0 43.6064 0 44.2533C0 44.9002 0.516603 45.4168 1.16346 45.4168Z" fill="#5E4591"/>
<path d="M23.3006 62.1049C23.3006 61.4625 22.784 60.9414 22.1372 60.9414H1.16346C0.521076 60.9414 0 61.458 0 62.1049C0 62.7472 0.516603 63.2683 1.16346 63.2683H22.128C22.7793 63.2773 23.3006 62.7472 23.3006 62.1049Z" fill="#5E4591"/>
</svg>
