<svg width="1942" height="990" viewBox="0 0 1942 990" fill="none" xmlns="http://www.w3.org/2000/svg">
<g clip-path="url(#clip0_3697_6348)">
<path d="M17 360L229.854 360C573.474 360 688.014 65 1022.09 65L1582.38 65L1947 65" stroke="#E6DAFF"/>
<path d="M17 461L229.854 461C573.474 461 688.014 166 1022.09 166L1582.38 166L1947 166" stroke="#E6DAFF"/>
<path d="M17 627L229.854 627C573.474 627 688.014 922 1022.09 922L1582.38 922L1947 922" stroke="#E6DAFF"/>
<path d="M17 526L229.854 526C573.474 526 688.014 821 1022.09 821L1582.38 821L1947 821" stroke="#E6DAFF"/>
</g>
<defs>
<clipPath id="clip0_3697_6348">
<rect width="1942" height="990" fill="white"/>
</clipPath>
</defs>
</svg>
