<svg width="88" height="88" viewBox="0 0 88 88" fill="none" xmlns="http://www.w3.org/2000/svg">
<path d="M66.6016 17.7402C69.6636 17.7405 72.1541 20.2318 72.1543 23.2939V45.2568C72.1541 48.3189 69.6636 50.8104 66.6016 50.8105H21.4268C18.3646 50.8105 15.8732 48.319 15.873 45.2568V23.2939C15.8731 20.2317 18.3645 17.7403 21.4268 17.7402H66.6016ZM21.4268 19.4062C19.283 19.4063 17.5391 21.1502 17.5391 23.2939V45.2568C17.5392 47.4005 19.2831 49.1445 21.4268 49.1445H43.1816V39.8867H41.2832C38.1888 39.8867 35.6719 37.3698 35.6719 34.2754C35.6719 31.181 38.1888 28.6641 41.2832 28.6641H43.1816V19.4062H21.4268ZM44.8467 29.4961C44.8467 29.956 44.4735 30.3291 44.0137 30.3291H41.2832C39.1075 30.3291 37.3369 32.0997 37.3369 34.2754C37.3369 36.4511 39.1075 38.2217 41.2832 38.2217H44.0137C44.4735 38.2217 44.8467 38.5948 44.8467 39.0547V49.1445H66.6016C68.745 49.1443 70.4891 47.4003 70.4893 45.2568V23.2939C70.4892 21.1504 68.7451 19.4065 66.6016 19.4062H44.8467V29.4961Z" fill="black" stroke="black" stroke-width="0.3"/>
<path d="M44.9111 54.7695C45.8531 54.4398 46.8954 54.6199 47.6738 55.2578C48.5072 55.9408 48.8869 57.021 48.6689 58.0781C48.2958 61.3253 48.365 64.3877 48.5283 67.417L48.5449 67.5547C48.597 67.8255 48.7542 68.0689 48.9795 68.2285L49.0986 68.3018L49.1104 68.3076V68.3086L51.0293 69.5488V68.5869C51.0293 68.1271 51.4024 67.7539 51.8623 67.7539H57.3232C57.7831 67.7539 58.1565 68.127 58.1562 68.5869V84.9717C58.156 85.4313 57.783 85.8037 57.3232 85.8037H51.8623C51.416 85.8037 51.0514 85.4528 51.0303 85.0117C50.8824 85.1487 50.7348 85.2862 50.5811 85.417L50.3369 85.6191L50.3115 85.6396L50.3105 85.6406C49.0827 86.6265 47.5163 87.1689 45.9023 87.1689H32.6611C31.9049 87.1689 31.1956 86.8716 30.666 86.332C30.1364 85.7927 29.8524 85.0784 29.8662 84.3223C29.8807 83.5333 30.2362 82.8229 30.79 82.3232C30.2213 81.7559 29.8653 80.9736 29.8652 80.1074C29.8652 79.1973 30.2552 78.3759 30.876 77.8027C30.2555 77.2296 29.8653 76.409 29.8652 75.499C29.8652 74.5889 30.2552 73.7675 30.876 73.1943C30.2555 72.6212 29.8652 71.8006 29.8652 70.8906C29.8652 69.1611 31.2725 67.7542 33.002 67.7539H41.0107C41.0942 67.7539 41.144 67.7088 41.168 67.6797C41.1925 67.6499 41.2293 67.5902 41.2129 67.5049C40.6301 64.4961 40.6882 61.6923 41.2959 59.4629C41.9029 57.2361 43.0649 55.56 44.7041 54.8506L44.7236 54.8428L44.9111 54.7695ZM46.6172 56.5459C46.229 56.2748 45.8266 56.1832 45.3633 56.3809L45.3623 56.3799C44.3378 56.8242 43.4187 58.0268 42.9004 59.8848C42.3833 61.7385 42.2736 64.2234 42.8477 67.1875L42.876 67.3955C42.9152 67.8795 42.766 68.36 42.4531 68.7393C42.0969 69.1713 41.5708 69.4189 41.0107 69.4189H33.0029C32.1918 69.4189 31.5313 70.0796 31.5312 70.8906C31.5312 71.7018 32.1918 72.3623 33.0029 72.3623H33.4297C33.8894 72.3625 34.2617 72.7356 34.2617 73.1953C34.2615 73.6548 33.8892 74.0271 33.4297 74.0273H33.0029C32.1918 74.0273 31.5312 74.6879 31.5312 75.499C31.5313 76.3102 32.1918 76.9707 33.0029 76.9707H33.4297C33.8892 76.9709 34.2615 77.3432 34.2617 77.8027C34.2617 78.2625 33.8894 78.6355 33.4297 78.6357H33.0029C32.1918 78.6357 31.5312 79.2963 31.5312 80.1074C31.5314 80.9185 32.1919 81.5791 33.0029 81.5791H33.4297C33.8893 81.5793 34.2616 81.9515 34.2617 82.4111C34.2617 82.8709 33.8894 83.2439 33.4297 83.2441H32.7266C32.0723 83.2441 31.5424 83.7487 31.5312 84.3525C31.5255 84.6591 31.6402 84.9478 31.8545 85.166C32.069 85.3844 32.3552 85.5039 32.6611 85.5039H45.9023C47.1403 85.5039 48.3366 85.0898 49.2705 84.3398L49.2949 84.3203L49.5332 84.123C50.0708 83.6663 50.5713 83.1591 51.0293 82.6162V71.6914L48.3145 69.7705C47.4749 69.325 46.9197 68.4617 46.8652 67.5127C46.5117 61.3521 46.7999 58.9579 46.9463 58.1963C46.9763 57.8164 46.973 57.4772 46.9199 57.1934C46.8674 56.9127 46.7687 56.6961 46.6172 56.5459ZM52.6943 84.1387H56.4912V69.4189H52.6943V84.1387Z" fill="black" stroke="black" stroke-width="0.3"/>
<path d="M17.2432 1.14355C17.4421 0.909676 17.7539 0.803529 18.0547 0.869141L30.082 3.47656C30.3541 3.53546 30.5788 3.72632 30.6807 3.98535C30.7826 4.24424 30.7488 4.53713 30.5898 4.76562L23.5566 14.8662C23.3816 15.1176 23.082 15.2538 22.7764 15.2168V15.2178C22.4715 15.182 22.2111 14.9807 22.0986 14.6953V14.6943L20.8711 11.5742C13.6534 15.2859 8.66957 22.4386 7.78418 30.4443C6.8129 39.2283 10.7417 47.8533 18.0391 52.9531C18.2201 53.0797 18.343 53.2731 18.3818 53.4902C18.4206 53.7079 18.3717 53.9324 18.2451 54.1133L15.3115 58.3096C15.1497 58.5414 14.8913 58.666 14.6289 58.666C14.4642 58.666 14.2974 58.6171 14.1523 58.5156C8.54929 54.6003 4.33522 48.8691 2.28516 42.3779C0.983978 38.2573 0.564173 33.991 1.03906 29.6982C1.66835 24.0083 3.8759 18.6041 7.42285 14.0703C10.3416 10.3392 14.1169 7.29558 18.377 5.22852L17.1025 1.9873C16.9903 1.70165 17.0444 1.3774 17.2432 1.14355ZM20.2119 5.34473C20.3743 5.75742 20.1848 6.22505 19.7812 6.4082C15.4716 8.36381 11.6521 11.3684 8.73535 15.0967C5.37911 19.3865 3.28969 24.4992 2.69434 29.8809C2.2452 33.9421 2.64211 37.9785 3.87305 41.877L4.05371 42.4307C5.96569 48.083 9.6206 53.0926 14.4307 56.6631L16.4121 53.8291C9.04945 48.3291 5.12097 39.3778 6.12891 30.2617C7.11012 21.3891 12.794 13.5013 20.9619 9.67383L21.041 9.64062C21.2293 9.57486 21.436 9.57906 21.623 9.65332C21.8368 9.73831 22.0058 9.90886 22.0898 10.123L23.0781 12.6367L28.5088 4.83887L19.2207 2.8252L20.2119 5.34473Z" fill="black" stroke="black" stroke-width="0.3"/>
<path d="M72.7148 9.91211C72.9778 9.53572 73.4961 9.4427 73.873 9.70605C79.4761 13.6214 83.6911 19.3526 85.7412 25.8438C86.9611 29.7068 87.4056 33.698 87.0654 37.7188L86.9873 38.5234C86.358 44.2136 84.1505 49.6176 80.6035 54.1514C77.6845 57.8827 73.9088 60.9251 69.6484 62.9922L70.9238 66.2344C71.036 66.52 70.9819 66.8443 70.7832 67.0781C70.6231 67.2664 70.3896 67.3711 70.1484 67.3711C70.1193 67.3711 70.09 67.3703 70.0605 67.3672L69.9717 67.3525L57.9434 64.7451C57.6716 64.6861 57.4475 64.4952 57.3457 64.2363C57.2437 63.9774 57.2775 63.6846 57.4365 63.4561L64.4697 53.3555C64.6452 53.1037 64.9462 52.9679 65.25 53.0039C65.555 53.0397 65.8154 53.2416 65.9277 53.5273L67.1543 56.6465C74.3722 52.9349 79.3568 45.7832 80.2422 37.7773C81.2135 28.9934 77.2846 20.3684 69.9873 15.2686C69.8061 15.1421 69.6833 14.9486 69.6445 14.7314C69.6058 14.5138 69.6547 14.2893 69.7812 14.1084L72.7148 9.91211ZM71.6143 14.3916C78.9774 19.8916 82.9056 28.8445 81.8975 37.9609C80.9161 46.8335 75.2324 54.7215 67.0645 58.5488C66.856 58.6466 66.6168 58.653 66.4033 58.5684C66.1896 58.4834 66.0206 58.3128 65.9365 58.0986L64.9473 55.584L59.5166 63.3818L68.8047 65.3955L67.8145 62.877C67.652 62.4643 67.8416 61.9966 68.2451 61.8135C72.5549 59.8578 76.3752 56.8534 79.292 53.125C82.6482 48.8351 84.7367 43.7225 85.332 38.3408C85.781 34.2797 85.3842 30.2442 84.1533 26.3457C82.2967 20.4666 78.561 15.2454 73.5938 11.5586L71.6143 14.3916Z" fill="black" stroke="black" stroke-width="0.3"/>
</svg>
